<?xml version="1.0" encoding="UTF-8"?>
<svg id="_레이어_2" data-name="레이어 2" xmlns="http://www.w3.org/2000/svg" xmlns:xlink="http://www.w3.org/1999/xlink" viewBox="0 0 265.02 121.79">
  <defs>
    <style>
      .cls-1 {
        font-family: AcuminConcept-Medium, 'Acumin Variable Concept';
        font-size: 14.64px;
        font-variation-settings: 'wght' 500, 'wdth' 100, 'slnt' 0;
        font-weight: 500;
      }

      .cls-1, .cls-2, .cls-3 {
        fill: #ff71ab;
      }

      .cls-4 {
        fill: #e0007b;
      }

      .cls-4, .cls-5, .cls-3 {
        stroke-width: 0px;
      }

      .cls-5 {
        filter: url(#drop-shadow-1);
      }

      .cls-5, .cls-6, .cls-7 {
        fill: #f9f0cd;
      }

      .cls-6 {
        font-size: 12px;
      }

      .cls-6, .cls-2 {
        font-family: CuteFont-Regular, 'Cute Font';
      }

      .cls-8 {
        fill: #ffcaea;
        stroke: #ff9cdc;
      }

      .cls-8, .cls-9, .cls-7 {
        stroke-miterlimit: 10;
      }

      .cls-9 {
        fill: none;
        stroke: #ff71ab;
      }

      .cls-2 {
        font-size: 14.67px;
      }

      .cls-7 {
        stroke: #efd27f;
      }
    </style>
    <filter id="drop-shadow-1" filterUnits="userSpaceOnUse">
      <feOffset dx="2" dy="2"/>
      <feGaussianBlur result="blur" stdDeviation="1"/>
      <feFlood flood-color="#59183d" flood-opacity=".61"/>
      <feComposite in2="blur" operator="in"/>
      <feComposite in="SourceGraphic"/>
    </filter>
  </defs>
  <rect class="cls-3" width="265.02" height="121.79"/>
  <rect class="cls-7" x="6.09" y="29.79" width="252.85" height="86.81"/>
  <rect class="cls-5" x="243.13" y="5.34" width="13.53" height="13.53"/>
  <text class="cls-1" transform="translate(245.54 15.78) scale(1.29 1)"><tspan x="0" y="0">x</tspan></text>
  <text class="cls-6" transform="translate(10.05 18.87)"><tspan x="0" y="0">파일 삭제</tspan></text>
  <g>
    <path class="cls-4" d="m43.25,50.48c0-.18.18-.26.54-.26h3.08c.34,0,.5.09.5.28,0,.2-.17.3-.5.3h-.42c-.27,0-.45.06-.55.17s-.14.23-.14.33v.05c0,.38-.15.58-.44.58s-.46-.19-.46-.58v-.05c0-.16-.07-.28-.2-.37-.14-.09-.3-.13-.49-.13h-.41c-.34,0-.52-.1-.52-.31Zm1.94-4.61c.22,0,.43.05.64.14.21.09.39.22.55.38.16.16.29.34.38.54.1.2.14.42.14.65,0,.25-.05.48-.14.69-.1.21-.22.39-.38.55-.16.15-.34.27-.55.35-.21.08-.42.13-.64.13-.23,0-.45-.04-.66-.13s-.39-.21-.55-.36c-.16-.15-.28-.33-.37-.55-.09-.21-.13-.44-.13-.68,0-.22.04-.44.13-.64.09-.2.21-.38.37-.54.16-.16.34-.28.55-.38.21-.1.43-.14.66-.14Zm.97,1.7c0-.27-.09-.5-.28-.69-.19-.19-.42-.28-.69-.28-.16,0-.3.03-.42.09-.12.06-.22.14-.3.23-.08.1-.14.2-.19.31-.04.11-.07.22-.07.34,0,.26.09.49.27.69.18.2.41.29.7.29.12,0,.24-.02.35-.07.11-.05.21-.11.31-.2.09-.08.17-.19.23-.31.06-.12.09-.26.09-.41Zm1.87,2.32c0-.43-.18-.65-.54-.65h-.07c-.26,0-.38-.08-.38-.24,0-.06.02-.12.07-.18.04-.06.15-.08.32-.08h.07c.36,0,.54-.14.54-.42v-.58c0-.18.03-.33.1-.45.06-.12.19-.19.37-.19.3,0,.44.2.44.61v3.37c0,.22-.04.37-.13.47-.08.1-.19.15-.33.15-.3,0-.46-.22-.46-.65v-1.18Zm.1,2.86c0-.42.14-.62.42-.62.3,0,.44.22.44.65v.07c0,.28.17.42.52.42h.4c.34,0,.52-.14.52-.42v-.07c0-.43.14-.65.43-.65s.43.21.43.62v2.12c0,.54-.27.8-.8.8h-1.57c-.52,0-.78-.27-.78-.8v-2.12Zm.86,1.54v.32c0,.36.17.54.52.54h.4c.34,0,.52-.18.52-.54v-.32c0-.34-.17-.5-.52-.5h-.4c-.34,0-.52.17-.52.5Zm.86-3.19v-3.37c0-.17.03-.31.08-.43.06-.12.17-.18.35-.18.3,0,.46.2.46.61v3.37c0,.22-.04.38-.13.48-.09.1-.2.14-.34.14-.17,0-.28-.06-.34-.17-.06-.11-.08-.26-.08-.46Z"/>
    <path class="cls-4" d="m51.85,49.15c0-.18.17-.26.5-.26h1.39c.54,0,.88.18,1.03.53.08.05.23.07.44.07h.25c.4,0,.6-.14.6-.43v-.94c0-.08.02-.18.07-.29s.15-.17.3-.17c.12,0,.22.05.29.14.08.09.11.24.11.44v4.3c0,.23-.03.4-.1.5-.06.1-.17.15-.31.15-.26,0-.38-.2-.38-.59v-.98c-.02-.14-.08-.24-.18-.3-.1-.06-.24-.1-.41-.1h-.25c-.17,0-.28.02-.35.06-.03.49-.18.73-.46.73-.31,0-.47-.28-.47-.83v-.6c0-.41-.09-.7-.26-.89-.18-.18-.46-.28-.84-.28h-.48c-.34,0-.52-.09-.52-.26Zm3.02,1.02v.32c.05.16.18.24.38.24h.2c.41,0,.61-.14.61-.41,0-.25-.2-.37-.61-.37h-.2c-.21,0-.34.07-.38.22Zm2.87-1.81c0-.47.14-.71.42-.71s.43.24.43.71v4.07c0,.48-.15.72-.44.72-.27,0-.41-.24-.41-.72v-4.07Z"/>
    <path class="cls-4" d="m61.34,47.81c.22,0,.44.05.65.14.21.09.39.22.55.38.16.16.29.34.38.55s.14.42.14.65-.05.46-.14.67c-.1.21-.22.39-.38.54-.16.15-.34.27-.55.36s-.42.13-.64.13-.44-.04-.65-.13c-.21-.09-.39-.21-.55-.36-.16-.15-.28-.33-.37-.54-.09-.21-.14-.43-.14-.67s.04-.45.13-.65c.09-.2.21-.39.37-.55.16-.16.34-.29.55-.38.21-.09.43-.14.66-.14Zm.96,1.72c0-.26-.1-.48-.29-.67-.19-.19-.42-.28-.67-.28-.16,0-.3.03-.41.09-.12.06-.21.14-.29.23-.08.09-.14.19-.19.3-.04.11-.07.22-.07.33,0,.26.09.49.26.67.18.18.41.28.7.28.11,0,.22-.02.34-.07.11-.04.21-.11.31-.19.09-.08.17-.18.23-.29.06-.12.09-.25.09-.4Zm3.64,4.85c0,.18-.16.26-.49.26h-1.79c-.58,0-.88-.26-.88-.77v-1.16c0-.42.14-.64.43-.64s.44.22.44.65v.6c0,.54.28.82.83.82h.95c.34,0,.5.08.5.24Zm-1.36-6.6c0-.48.16-.72.47-.72.3,0,.44.24.44.72v3.14c0,.49-.15.73-.46.73s-.46-.24-.46-.73v-3.14Z"/>
    <path class="cls-4" d="m70.79,50.87c0,.18-.17.26-.5.26h-3.05c-.34,0-.5-.09-.5-.26,0-.11.04-.18.12-.2.08-.02.17-.04.27-.06.1-.02.19-.06.27-.13.08-.07.12-.2.12-.4v-1.07c0-.2-.04-.33-.12-.4-.08-.06-.17-.11-.27-.13-.1-.02-.19-.04-.27-.06-.08-.02-.12-.09-.12-.2,0-.18.17-.28.5-.28h3.05c.34,0,.5.09.5.28,0,.11-.04.18-.12.2-.08.02-.17.04-.26.06-.1.02-.18.06-.26.13-.08.06-.12.2-.12.4v1.08c0,.2.04.33.12.4.08.07.17.11.26.13.1.02.18.04.26.06.08.02.12.09.12.19Zm-2.44-.79c0,.35.12.53.37.53h.06c.26,0,.4-.18.4-.53v-1.06c0-.35-.13-.53-.38-.53h-.07c-.25,0-.37.17-.37.52v1.07Zm3.41.3c0-.21-.06-.34-.17-.41-.12-.06-.24-.1-.37-.12-.13-.02-.25-.04-.36-.07-.11-.03-.17-.12-.17-.27,0-.14.06-.22.17-.25.11-.03.23-.06.36-.09s.25-.08.37-.14c.12-.07.17-.2.17-.4v-.83c0-.5.12-.74.37-.74.26,0,.4.24.4.72v3.14c0,.49-.14.73-.41.73-.24,0-.36-.25-.36-.76v-.52Zm2.08,2.72c0,.11.01.21.06.28.05.08.1.15.17.21l.55.56c.19.21.29.37.29.49,0,.07-.03.13-.08.19-.05.05-.11.08-.19.08-.16,0-.36-.12-.6-.36l-.29-.28c-.07-.06-.14-.1-.2-.12-.06-.02-.13-.03-.2-.04-.15,0-.28.06-.4.17l-.35.3c-.22.24-.41.36-.58.36-.07,0-.14-.03-.2-.1-.06-.06-.1-.14-.1-.22,0-.13.1-.28.29-.47l.61-.59c.15-.15.23-.32.23-.52v-.32c0-.46.16-.68.47-.68.34,0,.5.23.5.68v.36Zm-.42-5.33c0-.48.14-.72.42-.72s.43.24.43.72v3.14c0,.49-.14.73-.43.73s-.42-.24-.42-.73v-3.14Z"/>
    <path class="cls-4" d="m76.08,50.29c-.3,0-.46-.14-.46-.41,0-.3.15-.44.46-.44s.46.15.46.44c0,.27-.15.41-.46.41Zm0,2.78c-.3,0-.46-.14-.46-.41,0-.3.15-.46.46-.46s.46.15.46.46c0,.27-.15.41-.46.41Z"/>
    <path class="cls-4" d="m84.47,51.68c0,.18-.17.26-.5.26h-3.14c-.35,0-.53-.09-.53-.26,0-.11.04-.18.13-.2.08-.02.17-.05.27-.07.1-.02.19-.06.27-.13.08-.07.13-.2.13-.39v-1.04c0-.21-.04-.34-.13-.4-.08-.06-.17-.1-.27-.11-.1-.02-.19-.04-.27-.06-.08-.02-.13-.09-.13-.2,0-.19.18-.29.53-.29h3.14c.34,0,.5.1.5.29,0,.11-.04.18-.12.19-.08.02-.17.04-.27.06-.1.02-.19.07-.27.13-.08.06-.12.19-.12.4v1.06c0,.2.04.33.12.4s.17.1.27.12.19.04.27.06c.08.02.12.09.12.2Zm-2.54-.79c0,.34.12.52.36.52h.17c.26,0,.38-.17.38-.52v-1.03c0-.35-.12-.53-.37-.53h-.18c-.24,0-.36.17-.36.52v1.04Zm4.27.37v1.13c0,.5-.15.76-.46.76s-.47-.24-.47-.73v-4.03c0-.49.15-.73.46-.73s.47.26.47.77v1.09c0,.39.17.59.52.59h.35c.39,0,.59.1.59.3s-.2.29-.59.29h-.35c-.34,0-.52.19-.52.58Z"/>
    <path class="cls-4" d="m90.19,47.81c.22,0,.44.05.65.14.21.09.39.22.55.38.16.16.29.34.38.55s.14.42.14.65-.05.46-.14.67c-.1.21-.22.39-.38.54-.16.15-.34.27-.55.36s-.42.13-.64.13-.44-.04-.65-.13c-.21-.09-.39-.21-.55-.36-.16-.15-.28-.33-.37-.54-.09-.21-.14-.43-.14-.67s.04-.45.13-.65c.09-.2.21-.39.37-.55.16-.16.34-.29.55-.38.21-.09.43-.14.66-.14Zm.96,1.72c0-.26-.1-.48-.29-.67-.19-.19-.42-.28-.67-.28-.16,0-.3.03-.41.09-.12.06-.21.14-.29.23-.08.09-.14.19-.19.3-.04.11-.07.22-.07.33,0,.26.09.49.26.67.18.18.41.28.7.28.11,0,.22-.02.34-.07.11-.04.21-.11.31-.19.09-.08.17-.18.23-.29.06-.12.09-.25.09-.4Zm.55,2.9c0-.18.19-.26.56-.26h1.8c.53,0,.79.26.79.79v.58c0,.58-.28.88-.83.88h-.83c-.41,0-.61.2-.61.59v.11c0,.37.2.55.61.55h1.12c.36,0,.54.09.54.28,0,.16-.18.24-.53.24h-1.82c-.54,0-.82-.29-.82-.86v-.52c0-.59.27-.89.82-.89h.84c.41,0,.61-.18.61-.54v-.11c0-.38-.2-.58-.61-.58h-1.07c-.38,0-.58-.08-.58-.25Zm1.73-4.66c0-.48.16-.72.47-.72.3,0,.44.24.44.72v3.14c0,.49-.15.73-.46.73s-.46-.24-.46-.73v-3.14Z"/>
    <path class="cls-4" d="m97.56,48.68c.22,0,.44.05.65.14.21.1.4.22.55.38.16.16.28.34.38.55s.14.42.14.65c0,.24-.05.47-.16.68-.1.21-.24.39-.4.55-.16.15-.34.27-.55.35-.21.08-.42.13-.62.13-.24,0-.46-.04-.67-.13-.2-.09-.38-.21-.53-.37-.15-.16-.27-.34-.36-.55-.09-.21-.13-.43-.13-.66,0-.21.04-.42.13-.62s.2-.39.35-.56c.15-.16.32-.29.53-.39.2-.1.43-.14.69-.14Zm.92,1.7c0-.13-.02-.25-.07-.35-.05-.11-.12-.21-.2-.29-.09-.09-.19-.16-.3-.21-.11-.05-.23-.08-.35-.08-.15,0-.29.03-.41.08-.12.06-.22.13-.3.22-.08.09-.14.19-.18.3s-.06.22-.06.34c0,.26.09.49.27.67.18.18.41.27.68.27.1,0,.21-.02.32-.07.11-.04.21-.11.3-.19.09-.08.16-.18.22-.29.06-.12.08-.25.08-.39Zm2.06-2.03c0-.47.15-.71.46-.71s.46.24.46.71v4.07c0,.48-.15.72-.46.72s-.46-.24-.46-.72v-4.07Z"/>
    <path class="cls-4" d="m107.3,47.81c.22,0,.44.04.64.13.2.09.39.21.57.37l.13.19c.07.09.13.15.17.18.04.03.14.05.29.05h.92c.36,0,.54-.14.54-.41v-.76c0-.34.13-.52.4-.52.11,0,.21.04.28.11.08.07.11.21.11.42v3.47c0,.22-.03.37-.09.47-.06.1-.14.15-.23.15-.14,0-.26-.03-.35-.08-.09-.06-.13-.14-.13-.26v-.49c-.02-.12-.07-.21-.17-.28-.1-.06-.23-.1-.4-.1h-.92c-.15,0-.28.02-.37.07l-.18.2c-.34.33-.74.49-1.21.49-.22,0-.44-.04-.65-.13-.21-.09-.39-.21-.55-.36-.16-.15-.28-.33-.37-.54-.09-.21-.14-.43-.14-.67s.04-.45.13-.65c.09-.2.21-.39.37-.55.16-.16.34-.29.55-.38.21-.09.43-.14.66-.14Zm.96,1.72c0-.26-.1-.48-.29-.67-.19-.19-.42-.28-.67-.28-.16,0-.3.03-.41.09-.12.06-.21.14-.29.23-.08.09-.14.19-.19.3-.04.11-.07.22-.07.33,0,.26.09.49.26.67.18.18.41.28.7.28.11,0,.22-.02.34-.07.11-.04.21-.11.31-.19.09-.08.17-.18.23-.29.06-.12.09-.25.09-.4Zm2.02,2.53c.22,0,.43.05.63.14.2.09.38.21.53.37.15.15.27.33.37.53s.14.42.14.65-.05.46-.15.66-.23.37-.38.52c-.15.14-.33.26-.53.34-.2.08-.41.12-.61.12-.22,0-.42-.04-.62-.12-.2-.08-.37-.19-.52-.34-.15-.14-.27-.32-.37-.52-.1-.2-.14-.42-.14-.67,0-.22.04-.44.13-.64s.2-.38.35-.53c.15-.15.33-.27.53-.37.2-.09.42-.14.64-.14Zm-1.27-2.65v.11s0,.01.01.01c0,.05,0,.09-.01.14,0,.04-.01.08-.01.11.03.1.14.16.34.16h.7c.37,0,.55-.12.55-.37,0-.22-.18-.32-.54-.32h-.68c-.14,0-.24.02-.28.07-.04.05-.07.08-.07.1Zm2.14,4.33c0-.14-.02-.27-.07-.39-.05-.12-.11-.23-.19-.32-.08-.09-.17-.16-.28-.21-.1-.05-.21-.08-.32-.08-.14,0-.26.03-.36.08-.1.06-.19.13-.26.23s-.13.2-.16.32c-.04.12-.05.24-.05.36,0,.28.08.51.23.68.16.18.36.26.61.26.09,0,.18-.02.29-.05s.2-.09.29-.17c.09-.08.16-.18.21-.3.05-.12.08-.26.08-.42Z"/>
    <path class="cls-4" d="m113.03,51.72c0-.18.18-.26.53-.26h3.78c.34,0,.5.09.5.28s-.17.29-.5.29h-.85c-.41,0-.61.24-.61.72v.29c0,.47-.14.71-.43.71-.31,0-.47-.24-.47-.71v-.29c0-.48-.19-.72-.58-.72h-.83c-.36,0-.54-.1-.54-.3Zm.67-3.83c0-.18.16-.26.49-.26h1.82c.74,0,1.12.34,1.12,1.01v.94c0,.54-.15.8-.44.8s-.46-.27-.46-.82v-.25c0-.41-.08-.7-.25-.88s-.46-.27-.86-.27h-.91c-.34,0-.5-.09-.5-.26Z"/>
    <path class="cls-4" d="m121.17,49.22c0,.27.08.49.24.65l.53.56c.2.22.3.39.29.53,0,.06-.02.13-.07.19-.05.06-.11.09-.18.09-.15,0-.35-.12-.6-.37l-.34-.32c-.06-.06-.12-.09-.19-.11-.07-.02-.13-.03-.2-.04-.13,0-.24.05-.35.16l-.37.34c-.28.26-.49.38-.64.38-.07,0-.13-.04-.18-.11-.05-.07-.07-.14-.07-.22,0-.07.02-.15.08-.23s.13-.17.22-.28l.55-.59c.08-.08.14-.17.19-.28.04-.11.07-.22.07-.34v-.34c0-.27-.1-.41-.31-.41h-.1c-.42,0-.64-.09-.64-.28s.2-.29.61-.29h1.9c.42,0,.62.1.62.29s-.21.28-.64.28h-.11c-.22,0-.32.14-.32.41v.34Zm.94,3.19c0-.18.2-.26.59-.26h1.69c.58,0,.88.26.88.77v1.2c0,.42-.14.64-.42.64-.3,0-.46-.22-.46-.66v-.53c0-.61-.28-.91-.84-.91h-.88s-.09.01-.16.01c-.27,0-.41-.08-.41-.25Zm1.73-2.02c0-.37-.18-.55-.55-.55h-.37c-.17,0-.28-.03-.34-.1-.06-.06-.08-.14-.08-.24,0-.06.02-.14.06-.23.04-.09.16-.13.36-.13h.37c.37,0,.55-.18.55-.55v-.9c0-.19.03-.35.08-.47.05-.12.17-.18.35-.18.26,0,.38.2.38.61v3.34c0,.24-.04.41-.11.5s-.17.14-.28.14c-.15,0-.26-.05-.32-.16-.06-.1-.1-.27-.1-.49v-.59Z"/>
    <path class="cls-4" d="m126.81,51.41h3.79c.35,0,.53.12.53.35,0,.22-.18.32-.53.32h-3.79c-.33,0-.49-.11-.49-.34s.16-.34.49-.34Zm1.9-4.49c.23,0,.45.05.67.14.21.1.4.22.55.38.16.16.28.35.38.56.1.21.15.43.15.67,0,.25-.05.48-.15.69-.1.21-.23.4-.4.55-.16.16-.35.28-.56.37-.21.09-.42.13-.65.13s-.45-.04-.66-.13c-.21-.09-.39-.21-.55-.37-.16-.16-.29-.34-.38-.55-.09-.21-.14-.44-.14-.69,0-.23.05-.45.14-.67s.22-.4.37-.56c.16-.16.34-.29.55-.38.21-.1.43-.14.67-.14Zm.98,1.75c0-.13-.03-.25-.08-.37s-.13-.22-.22-.31c-.09-.09-.19-.16-.31-.22-.12-.06-.24-.08-.37-.08-.16,0-.3.03-.43.09-.12.06-.23.14-.31.23-.08.1-.14.2-.18.31-.04.11-.06.22-.06.34,0,.28.09.51.28.7.18.18.42.28.7.28.1,0,.22-.02.34-.07.12-.04.23-.11.32-.19.1-.08.17-.19.23-.31s.09-.26.09-.41Z"/>
    <path class="cls-4" d="m133.14,45.99c0-.18.15-.28.46-.28h2.05c.54,0,.8.24.8.72v1.1c0,.25-.07.43-.2.54-.13.11-.28.17-.45.17h-1.13c-.42,0-.64.22-.64.66v.18c0,.42.21.64.62.64h1.36c.29,0,.43.09.43.28s-.14.26-.43.26h-.62c-.13.09-.19.24-.19.46v.16c0,.45.22.67.66.67h.82c.34,0,.52.1.52.29s-.18.28-.53.28h-3.79c-.33,0-.49-.1-.49-.29s.16-.28.49-.28h.84c.43,0,.65-.22.65-.67v-.16c0-.11-.02-.21-.05-.28-.04-.08-.09-.13-.15-.17h-.23c-.54,0-.82-.27-.82-.82v-1.02c0-.47.27-.71.82-.71h.98c.42,0,.64-.22.64-.65v-.19c0-.42-.21-.64-.64-.64h-1.3c-.32,0-.48-.08-.48-.25Z"/>
    <path class="cls-4" d="m143.27,49.15c0,.23.08.43.24.59l.54.55c.18.18.28.35.28.49,0,.06-.03.13-.08.19-.06.06-.12.1-.18.1-.18,0-.38-.13-.61-.38l-.29-.28c-.06-.06-.13-.09-.2-.11-.07-.02-.13-.03-.2-.04-.13,0-.26.06-.41.17l-.35.31c-.22.24-.41.36-.58.36-.07,0-.14-.03-.21-.1-.07-.06-.1-.13-.1-.2,0-.07.02-.15.08-.22.06-.08.14-.17.23-.27l.56-.61c.07-.08.13-.17.18-.26.05-.1.07-.2.07-.31v-.61c0-.48.17-.72.52-.72s.5.24.5.72v.65Zm.65,3.26c0-.18.21-.26.62-.26h1.67c.6,0,.9.26.9.77v1.2c0,.42-.15.64-.44.64s-.46-.22-.46-.66v-.53c0-.61-.28-.91-.84-.91h-.86s-.07.01-.1.01h-.08c-.27,0-.41-.08-.41-.25Zm2.63-1.99v.46c0,.52-.15.78-.46.78s-.46-.25-.46-.76v-3.11c0-.5.15-.74.44-.74.31,0,.47.26.47.77v.84c0,.4.18.6.53.6h.34c.41,0,.61.1.61.3s-.2.29-.61.29h-.34c-.35,0-.53.19-.53.58Z"/>
    <path class="cls-4" d="m150.91,50.04c0,.14.02.26.05.37.04.11.1.21.2.29l.53.55c.19.22.29.38.29.5,0,.07-.02.14-.07.2-.05.06-.11.1-.19.1-.09.02-.18-.01-.27-.08-.09-.07-.2-.17-.33-.29l-.34-.31c-.06-.06-.12-.1-.19-.12-.07-.02-.13-.03-.19-.04-.14,0-.26.05-.36.16l-.37.34c-.28.26-.49.38-.64.38-.08,0-.14-.03-.19-.1-.05-.07-.07-.14-.07-.21,0-.14.1-.31.31-.53l.56-.58c.18-.18.26-.39.26-.64v-.3c0-.27-.12-.41-.35-.41h-.08c-.43,0-.65-.09-.65-.28s.21-.29.62-.29h1.9c.42,0,.62.1.62.29s-.22.28-.65.28h-.08c-.22,0-.34.14-.34.41v.3Zm2.32,1.2c0-.38-.17-.56-.52-.56h-.04c-.34,0-.5-.1-.5-.31s.17-.32.5-.32h.04c.34,0,.52-.19.52-.56v-1.09c0-.49.12-.73.37-.73.26,0,.4.24.4.71v4.07c0,.48-.13.72-.4.72-.25,0-.37-.24-.37-.73v-1.18Zm1.68-2.88c0-.47.14-.71.42-.71s.43.24.43.71v4.07c0,.48-.15.72-.44.72-.27,0-.41-.24-.41-.72v-4.07Z"/>
    <path class="cls-4" d="m157.87,48.06c0-.58.3-.88.89-.88h1.63c.33,0,.49.09.49.26s-.17.26-.52.26h-.86c-.49,0-.73.27-.73.82v.12c0,.46.24.7.73.7h.86c.34,0,.52.08.52.25,0,.18-.16.28-.49.28h-.38c-.1.06-.16.22-.16.48v.2c0,.45.22.67.66.67h.77c.34,0,.52.1.52.3,0,.17-.18.25-.53.25h-3.37c-.34,0-.5-.09-.5-.26,0-.19.16-.29.48-.29h.52c.42,0,.64-.22.64-.66v-.22c-.02-.13-.04-.23-.06-.31-.02-.08-.06-.14-.11-.17h-.1c-.59,0-.89-.3-.89-.89v-.92Zm5.54.32v4.06c0,.48-.15.72-.44.72-.32,0-.48-.24-.48-.72v-4.06c0-.48.16-.72.47-.72s.46.24.46.72Z"/>
    <path class="cls-4" d="m166.46,47.81c.39,0,.74.13,1.04.38s.52.58.64.98c.02.03.06.05.1.05s.09,0,.14,0h.72c.38,0,.58-.21.58-.62v-.9c0-.18.03-.33.08-.46.06-.13.18-.19.37-.19.29,0,.43.2.43.61v3.34c0,.24-.05.41-.14.5-.09.09-.19.14-.31.14-.3,0-.44-.22-.44-.65v-.59c0-.41-.19-.61-.58-.61h-.68c-.1,0-.17.04-.23.11-.06.07-.12.16-.17.25-.05.1-.1.2-.16.31-.05.11-.11.2-.19.28-.17.18-.36.3-.57.38-.21.08-.43.11-.64.11s-.44-.04-.65-.13c-.21-.09-.39-.21-.54-.36-.15-.15-.28-.33-.37-.54-.1-.21-.14-.43-.14-.67s.04-.45.13-.65c.09-.2.21-.39.37-.55.16-.16.34-.29.55-.38.21-.09.43-.14.66-.14Zm.96,1.72c0-.26-.1-.48-.29-.67-.19-.19-.42-.28-.67-.28-.16,0-.3.03-.41.09-.12.06-.21.14-.29.23-.08.09-.14.19-.19.3-.04.11-.07.22-.07.33,0,.26.09.49.26.67.18.18.41.28.7.28.11,0,.22-.02.34-.07.11-.04.21-.11.31-.19.09-.08.17-.18.23-.29.06-.12.09-.25.09-.4Zm2.2,5.14c-.08.1-.16.16-.23.16s-.13-.05-.18-.14l-.4-.46c-.1-.11-.2-.17-.3-.17-.06,0-.12,0-.17.04-.05.04-.1.08-.16.14l-.3.31c-.18.18-.32.28-.42.28-.09,0-.16-.05-.22-.14-.06-.09-.08-.17-.08-.22,0-.1.06-.2.17-.31l.58-.56c.14-.14.22-.32.22-.53v-.35c0-.46.14-.68.42-.68s.43.23.43.68v.43c0,.19.05.36.16.52l.14.23c.03.06.07.1.12.1.04,0,.08-.03.12-.1l.16-.23c.06-.07.1-.15.14-.23s.05-.18.05-.28v-.43c0-.46.14-.68.42-.68s.43.23.43.68v.35c0,.22.06.39.19.53l.55.56c.1.12.16.22.16.31,0,.07-.03.15-.08.23-.05.08-.13.13-.22.13-.1,0-.23-.09-.38-.28l-.31-.31c-.14-.12-.26-.18-.36-.18-.1,0-.2.06-.28.17l-.37.44Z"/>
    <path class="cls-4" d="m172.68,50.59h3.79c.35,0,.53.12.53.35,0,.18-.18.28-.53.28h-3.79c-.33,0-.49-.1-.49-.31s.16-.31.49-.31Zm2.33-3.28c0,.24.1.44.31.59l.58.59c.09.1.16.18.22.26.06.08.08.16.07.23,0,.07-.03.14-.08.2-.06.06-.12.09-.19.09-.17,0-.36-.13-.59-.4l-.37-.3c-.15-.1-.29-.16-.42-.16s-.26.06-.4.17l-.37.35c-.22.24-.4.36-.56.36-.06,0-.13-.03-.2-.1-.07-.07-.1-.14-.1-.22,0-.07.02-.14.07-.22.06-.07.13-.16.22-.26l.59-.64c.21-.16.31-.35.31-.58v-.46c0-.55.15-.83.44-.83.32,0,.48.28.48.83v.49Zm-1.4,5.7c0-.42.14-.64.42-.64.3,0,.44.22.44.66v.05c0,.29.17.43.52.43h.4c.34,0,.52-.14.52-.43v-.05c0-.44.15-.66.44-.66.28,0,.42.21.42.64v2.11c0,.54-.27.8-.8.8h-1.56c-.53,0-.79-.27-.79-.8v-2.11Zm.86,1.54v.3c0,.37.17.55.52.55h.4c.34,0,.52-.18.52-.55v-.3c0-.34-.17-.52-.52-.52h-.4c-.34,0-.52.17-.52.52Z"/>
    <path class="cls-4" d="m181.69,51.63c0,.18-.21.28-.62.28h-1.55c-.6,0-.9-.26-.9-.79v-1.45c0-.59.15-.89.44-.89.31,0,.47.31.47.94v.72c0,.62.28.94.85.94h.66c.43,0,.65.09.65.26Zm1.19-3.28c0-.47.15-.71.46-.71s.46.24.46.71v4.07c0,.48-.15.72-.46.72s-.46-.24-.46-.72v-4.07Z"/>
    <path class="cls-4" d="m185.72,49.73c0-.58.3-.88.91-.88h1.64c.33,0,.49.09.49.26s-.17.26-.52.26h-.88c-.5,0-.74.29-.74.86v.41c0,.52.25.78.74.78h.88c.34,0,.52.08.52.25,0,.18-.16.28-.49.28h-1.64c-.61,0-.91-.29-.91-.88v-1.36Zm5.22,1.56v1.13c0,.3-.05.5-.14.59-.09.09-.2.14-.32.14-.14,0-.26-.05-.34-.16-.08-.11-.12-.29-.12-.56v-4.07c0-.18.03-.34.09-.49.06-.15.18-.22.35-.22.31,0,.47.24.47.73v1.1c0,.39.18.59.53.59h.34c.41,0,.61.11.61.32s-.2.31-.61.31h-.34c-.35,0-.53.19-.53.58Z"/>
    <path class="cls-4" d="m194.03,52.8c-.3,0-.46-.13-.46-.4,0-.3.15-.46.46-.46s.46.15.46.46c0,.26-.15.4-.46.4Z"/>
  </g>
  <g>
    <path class="cls-9" d="m25.98,44.61l-5.78,10c-.4.69.1,1.56.9,1.56h11.55c.8,0,1.3-.87.9-1.56l-5.78-10c-.4-.69-1.4-.69-1.8,0Z"/>
    <text class="cls-2" transform="translate(25.45 53.91)"><tspan x="0" y="0">!</tspan></text>
  </g>
  <rect class="cls-8" x="6.09" y="81.19" width="252.98" height="35.4"/>
</svg>