<?xml version="1.0" encoding="UTF-8"?>
<svg id="_레이어_2" data-name="레이어 2" xmlns="http://www.w3.org/2000/svg" xmlns:xlink="http://www.w3.org/1999/xlink" viewBox="0 0 465 405">
  <defs>
    <style>
      .cls-1 {
        fill: #ffb66e;
      }

      .cls-1, .cls-2, .cls-3, .cls-4, .cls-5, .cls-6 {
        stroke-width: 0px;
      }

      .cls-2 {
        fill: #ffefae;
      }

      .cls-7 {
        stroke: #ffefae;
        stroke-width: 3px;
      }

      .cls-7, .cls-8 {
        fill: none;
        stroke-miterlimit: 10;
      }

      .cls-3 {
        fill: #fc9642;
      }

      .cls-4 {
        fill: #ff7bbd;
      }

      .cls-5 {
        fill: #ffc05c;
      }

      .cls-8 {
        stroke: #ff5fa8;
        stroke-linecap: round;
        stroke-width: 8px;
      }

      .cls-6 {
        fill: url(#_무제_그라디언트_6);
      }
    </style>
    <radialGradient id="_무제_그라디언트_6" data-name="무제 그라디언트 6" cx="232.5" cy="203.48" fx="232.5" fy="313.73" r="186.7" gradientUnits="userSpaceOnUse">
      <stop offset="0" stop-color="#ffebf4"/>
      <stop offset="1" stop-color="#ffb66e"/>
    </radialGradient>
  </defs>
  <rect class="cls-1" x="223.7" y="43.05" width="5.7" height="80.35"/>
  <ellipse class="cls-4" cx="232.5" cy="346.03" rx="64.49" ry="54.17"/>
  <path class="cls-6" d="m431.61,302.49c.01-.95.07-1.9.07-2.85,0-107.79-89.18-195.16-199.18-195.16S33.32,191.85,33.32,299.64c0,.95.06,1.9.07,2.85h398.21Z"/>
  <g>
    <g>
      <path class="cls-2" d="m225.58,292.57c-1.26,1.35-1.57,3.5-.75,5.16.1.19.21.38.38.51.17.13.37.19.57.25,1.47.41,3,.59,4.53.54.19,0,.37-.02.55-.08.16-.06.29-.17.41-.29.62-.64.71-1.6.75-2.49.02-.51.03-1.04-.14-1.52-.12-.34-.33-.64-.57-.92-1.38-1.59-3.88-2.07-5.76-1.11"/>
      <path class="cls-5" d="m224.87,291.86c-1.26,1.39-1.76,3.32-1.35,5.15.22.99.7,1.97,1.7,2.34s2.06.5,3.08.6c.54.05,1.07.08,1.61.08s1.14-.02,1.63-.32c.85-.52,1.25-1.55,1.38-2.5.15-1.05.23-2.2-.22-3.19-.38-.84-1.11-1.53-1.88-2.01-1.73-1.08-3.95-1.16-5.77-.26-.48.24-.62.92-.36,1.37.29.49.88.6,1.37.36-.03.01.28-.13.16-.08s.19-.07.16-.06c.13-.04.26-.08.39-.11.08-.02.16-.04.25-.05.04,0,.26-.04.08-.02.17-.02.34-.03.51-.03.35,0,.53.01.75.06.15.03.3.06.45.11.08.02.16.05.24.08.03.01.29.11.14.05.28.12.55.27.8.44.17.11.38.3.6.54.46.51.48,1.04.45,1.77-.03.63-.06,1.26-.41,1.73.07-.1-.06.07-.09.09l-.04.04c.07-.05.06-.04-.04.02.19-.02-.05-.01-.13-.01-.45.02-.9,0-1.35-.02-.81-.05-1.61-.17-2.4-.36-.17-.04-.35-.09-.52-.13.03,0-.3-.08-.18-.05.1.03-.15-.1-.03-.01.01,0,.12.2-.04-.05-.04-.06-.07-.13-.1-.19-.1-.2-.08-.15-.15-.39-.38-1.23-.11-2.62.74-3.55.36-.4.39-1.02,0-1.41-.37-.37-1.05-.4-1.41,0h0Z"/>
    </g>
    <g>
      <path class="cls-2" d="m242.82,292.57c1.26,1.35,1.57,3.5.75,5.16-.1.19-.21.38-.38.51-.17.13-.37.19-.57.25-1.47.41-3,.59-4.53.54-.19,0-.37-.02-.55-.08-.16-.06-.29-.17-.41-.29-.62-.64-.71-1.6-.75-2.49-.02-.51-.03-1.04.14-1.52.12-.34.33-.64.57-.92,1.38-1.59,3.88-2.07,5.76-1.11"/>
      <path class="cls-5" d="m242.11,293.28c.37.41.63.9.78,1.46.04.15.07.3.1.46.03.19-.01-.23.01.1,0,.07.01.14.01.21.02.36,0,.66-.05.88-.03.14-.06.27-.1.4-.02.08-.05.17-.08.25-.06.18.1-.2-.04.1-.06.12-.11.27-.21.37.04-.04.09-.07.01-.04-.06.03-.06.03,0,0-.05.02-.1.03-.15.05-.75.22-1.52.37-2.3.45-.4.04-.81.07-1.21.08-.22,0-.45,0-.67,0-.07,0-.5-.01-.27,0l-.09-.05c.06.04.06.04,0,0-.02-.02-.16-.19-.09-.09-.04-.06-.08-.12-.11-.18-.08-.13-.06-.11-.04-.06-.08-.16-.12-.35-.16-.53-.02-.07-.03-.15-.04-.22-.06-.33,0,.15-.02-.18-.03-.36-.05-.72-.05-1.07s.05-.64.22-.93c.31-.52.71-.82,1.22-1.1s1.18-.46,1.73-.48c.19,0,.37,0,.56,0,.07,0,.13.01.2.02-.18-.02.13.03.13.03.17.03.33.08.49.13.08.03.16.05.24.08.06.03.06.02,0,0,.06.03.12.06.18.09.48.24,1.08.13,1.37-.36.26-.44.13-1.13-.36-1.37-1.66-.83-3.56-.8-5.23-.03-.81.38-1.52.97-2.05,1.68-.66.88-.74,1.91-.68,2.98s.25,2.09.96,2.89c.76.85,1.9.79,2.95.74s2.15-.21,3.19-.47c.5-.12,1.01-.26,1.4-.61s.62-.85.8-1.34c.73-1.95.21-4.23-1.17-5.75-.36-.4-1.04-.37-1.41,0-.4.4-.36,1.01,0,1.41h0Z"/>
    </g>
  </g>
  <g>
    <rect class="cls-3" x="183.54" y="283.3" width="97.85" height="31.32" rx="7.58" ry="7.58"/>
    <path class="cls-3" d="m174.72,305.62l-6.31-25c2.09-1.6,3.44-4.11,3.44-6.95,0-4.84-3.92-8.76-8.76-8.76s-8.76,3.92-8.76,8.76c0,4.47,3.36,8.16,7.69,8.69l6.28,24.88,6.42-1.62Z"/>
    <path class="cls-3" d="m290.28,305.62l6.31-25c-2.09-1.6-3.44-4.11-3.44-6.95,0-4.84,3.92-8.76,8.76-8.76,4.84,0,8.76,3.92,8.76,8.76,0,4.47-3.36,8.16-7.69,8.69l-6.28,24.88-6.42-1.62Z"/>
  </g>
  <ellipse class="cls-4" cx="103.96" cy="346.03" rx="51.84" ry="43.54"/>
  <ellipse class="cls-4" cx="362.5" cy="346.03" rx="51.84" ry="43.54"/>
  <path class="cls-4" d="m228.62,6.08l5.72,11.6c.34.68.98,1.15,1.73,1.26l12.8,1.86c1.89.27,2.64,2.6,1.28,3.93l-9.26,9.03c-.54.53-.79,1.29-.66,2.04l2.19,12.74c.32,1.88-1.65,3.32-3.34,2.43l-11.45-6.02c-.67-.35-1.47-.35-2.14,0l-11.45,6.02c-1.69.89-3.67-.55-3.34-2.43l2.19-12.74c.13-.75-.12-1.51-.66-2.04l-9.26-9.03c-1.37-1.33-.61-3.66,1.28-3.93l12.8-1.86c.75-.11,1.4-.58,1.73-1.26l5.72-11.6c.85-1.71,3.29-1.71,4.13,0Z"/>
  <path class="cls-1" d="m431.27,300.81H33.73s-50.28,42.51-23.33,53.39h444.19c26.95-10.88-23.33-53.39-23.33-53.39Z"/>
  <g>
    <path class="cls-7" d="m251.6,336.32c-.82-1.69-1.19-3.62-1.08-5.51.19-3.16,1.63-6.17,3.7-8.57,2.07-2.4,4.72-4.24,7.54-5.69,4.8-2.49,10.25-3.95,15.63-3.42,3.25.32,6.44,1.42,9.15,3.24,1,.67,5.47,4.21,4.66,5.99-.13.28-.44.45-1.07.78-2.35,1.26-3.88.82-4.15,1.5-.39,1,2.6,2.69,2.47,4.58-.01.15-.04.59-.35.97-.4.48-1.02.57-1.38.62-1.93.24-4.73.28-5.13.29.4,1.57.02,3.31-1,4.56-1.01,1.26-2.64,2-4.25,1.94-1.34-.05-2.73-.6-3.97-.1-.89.36-1.49,1.2-2.18,1.87-1.92,1.86-4.71,2.53-7.38,2.62-3.18.11-6.52-.56-8.93-2.64-.97-.84-1.74-1.87-2.3-3.02Z"/>
    <path class="cls-2" d="m272.92,338.42c.13-.57.74-1.05,1.05-1.54.37-.6.65-1.28.82-1.97.32-1.32.28-2.75-.19-4.03-1.03-2.77-3.57-4.55-6.34-5.31-1.47-.41-3.17-.69-4.68-.33-1.17.28-2.22,1.02-2.98,1.95-1.55,1.91-2.53,5.41-.49,7.33,1.16,1.09,2.81,1.92,4.44,1.75,1.52-.15,2.96-1.22,3.25-2.77.23-1.26-1.69-1.8-1.93-.53-.43,2.3-3.59,1.11-4.56-.09-.58-.71-.33-1.94-.08-2.74s.69-1.51,1.28-2.08c1.58-1.52,4.04-.99,5.91-.35s3.72,2.02,4.35,4c.33,1.04.29,2.13-.05,3.17-.17.5-.43.98-.75,1.4-.4.52-.82.95-.97,1.61-.28,1.25,1.65,1.79,1.93.53h0Z"/>
  </g>
  <g>
    <path class="cls-7" d="m213.4,336.32c.82-1.69,1.19-3.62,1.08-5.51-.19-3.16-1.63-6.17-3.7-8.57-2.07-2.4-4.72-4.24-7.54-5.69-4.8-2.49-10.25-3.95-15.63-3.42-3.25.32-6.44,1.42-9.15,3.24-1,.67-5.47,4.21-4.66,5.99.13.28.44.45,1.07.78,2.35,1.26,3.88.82,4.15,1.5.39,1-2.6,2.69-2.47,4.58.01.15.04.59.35.97.4.48,1.02.57,1.38.62,1.93.24,4.73.28,5.13.29-.4,1.57-.02,3.31,1,4.56,1.01,1.26,2.64,2,4.25,1.94,1.34-.05,2.73-.6,3.97-.1.89.36,1.49,1.2,2.18,1.87,1.92,1.86,4.71,2.53,7.38,2.62,3.18.11,6.52-.56,8.93-2.64.97-.84,1.74-1.87,2.3-3.02Z"/>
    <path class="cls-2" d="m194.01,337.88c-.23-1.02-1.17-1.69-1.58-2.64-.37-.85-.51-1.83-.38-2.75.29-2.03,1.87-3.57,3.65-4.42,1.04-.5,2.22-.79,3.36-.93,1.04-.13,2.03-.08,2.93.51,1.38.91,2.21,2.8,2.02,4.43-.22,1.92-4.41,3.39-4.87.9-.23-1.26-2.16-.73-1.93.53s1.34,2.31,2.6,2.66c1.43.39,2.97-.1,4.16-.92,1.34-.91,2.09-2.04,2.05-3.7-.03-1.24-.39-2.48-1.03-3.54s-1.53-1.92-2.63-2.43c-1.41-.65-2.93-.54-4.42-.27-2.83.5-5.66,1.97-7.08,4.57-.74,1.36-.99,2.89-.76,4.41.12.78.36,1.52.73,2.22.16.31.35.6.56.88.24.32.6.63.69,1.03.28,1.26,2.21.72,1.93-.53h0Z"/>
  </g>
  <line class="cls-8" x1="33.4" y1="302.49" x2="431.27" y2="302.49"/>
  <path class="cls-2" d="m243.16,330.55c-1.42-.57-4.66-2.1-7.27-5.58-2.48-3.31-3.1-6.65-3.28-8.17-.1,1.36-.53,4.91-3.18,8.33-2.77,3.58-6.31,4.86-7.59,5.26,1.55.49,4.41,1.64,7.06,4.28,3.36,3.35,4.42,7.15,4.77,8.76.19-1.54.86-5.26,3.81-8.68,2.04-2.37,4.33-3.6,5.69-4.2Z"/>
</svg>