<?xml version="1.0" encoding="UTF-8"?>
<svg xmlns="http://www.w3.org/2000/svg" xmlns:xlink="http://www.w3.org/1999/xlink" viewBox="0 0 732.37 517.52">
  <defs>
    <style>
      .cls-1 {
        fill: url(#linear-gradient);
      }

      .cls-1, .cls-2, .cls-3, .cls-4, .cls-5, .cls-6, .cls-7, .cls-8, .cls-9, .cls-10, .cls-11, .cls-12, .cls-13, .cls-14, .cls-15, .cls-16, .cls-17, .cls-18 {
        stroke-width: 0px;
      }

      .cls-2 {
        fill: #d1d9e5;
      }

      .cls-3 {
        fill: #f0f3f7;
      }

      .cls-4 {
        fill: url(#linear-gradient-3);
      }

      .cls-4, .cls-9 {
        mix-blend-mode: overlay;
        opacity: .2;
      }

      .cls-5 {
        fill: url(#linear-gradient-6);
      }

      .cls-19 {
        clip-path: url(#clippath-2);
      }

      .cls-20 {
        isolation: isolate;
      }

      .cls-6 {
        fill: #214092;
      }

      .cls-7 {
        fill: url(#linear-gradient-5);
      }

      .cls-8 {
        fill: none;
      }

      .cls-9 {
        fill: url(#linear-gradient-2);
      }

      .cls-21 {
        clip-path: url(#clippath-1);
      }

      .cls-10 {
        fill: #fff;
      }

      .cls-11 {
        fill: #ff7e45;
      }

      .cls-12 {
        fill: url(#linear-gradient-7);
      }

      .cls-22 {
        clip-path: url(#clippath);
      }

      .cls-13 {
        fill: url(#linear-gradient-9);
      }

      .cls-23 {
        clip-path: url(#clippath-3);
      }

      .cls-14 {
        fill: url(#linear-gradient-8);
      }

      .cls-15 {
        fill: #1e4c9b;
      }

      .cls-16 {
        fill: #18337f;
      }

      .cls-17 {
        fill: url(#linear-gradient-10);
      }

      .cls-18 {
        fill: url(#linear-gradient-4);
      }
    </style>
    <clipPath id="clippath">
      <rect class="cls-8" y="1.06" width="732.37" height="516.46"/>
    </clipPath>
    <linearGradient id="linear-gradient" x1="366.3" y1="922.42" x2="366.3" y2="-91.87" gradientUnits="userSpaceOnUse">
      <stop offset="0" stop-color="#00d6ff"/>
      <stop offset="1" stop-color="#243288"/>
    </linearGradient>
    <linearGradient id="linear-gradient-2" x1="-2.98" y1="104.19" x2="736.83" y2="104.19" gradientUnits="userSpaceOnUse">
      <stop offset="0" stop-color="#fff"/>
      <stop offset="1" stop-color="#fff" stop-opacity="0"/>
    </linearGradient>
    <linearGradient id="linear-gradient-3" x1="11350.58" y1="303.35" x2="12090.39" y2="303.35" gradientTransform="translate(12085.93) rotate(-180) scale(1 -1)" xlink:href="#linear-gradient-2"/>
    <linearGradient id="linear-gradient-4" x1="768.26" y1="820.84" x2="731.26" y2="836.26" gradientTransform="translate(-364.55 -839.88) rotate(7.63)" xlink:href="#linear-gradient-2"/>
    <linearGradient id="linear-gradient-5" x1="86.74" y1="186.98" x2="20.98" y2="214.39" xlink:href="#linear-gradient-2"/>
    <linearGradient id="linear-gradient-6" x1="768.67" y1="73.13" x2="731.49" y2="88.62" xlink:href="#linear-gradient-2"/>
    <clipPath id="clippath-1">
      <rect class="cls-8" x="0" width="732.37" height="518.58"/>
    </clipPath>
    <linearGradient id="linear-gradient-7" x1="355.85" y1="630.06" x2="355.85" y2="188.23" xlink:href="#linear-gradient"/>
    <linearGradient id="linear-gradient-8" x1="284.61" y1="642.5" x2="284.61" y2="285.44" xlink:href="#linear-gradient"/>
    <clipPath id="clippath-2">
      <rect class="cls-8" x=".24" width="732.13" height="518.58"/>
    </clipPath>
    <clipPath id="clippath-3">
      <rect class="cls-8" x="242.23" width="490.14" height="518.46"/>
    </clipPath>
    <linearGradient id="linear-gradient-9" x1="11634.54" y1="-5.62" x2="12058.36" y2="-5.62" gradientTransform="translate(12586.03) rotate(-180) scale(1 -1)" xlink:href="#linear-gradient-2"/>
    <linearGradient id="linear-gradient-10" x1="11744.78" y1="-5.62" x2="11948.13" y2="-5.62" gradientTransform="translate(12586.03) rotate(-180) scale(1 -1)" xlink:href="#linear-gradient-2"/>
  </defs>
  <g class="cls-20">
    <g id="_레이어_2" data-name="레이어 2">
      <g class="cls-22">
        <rect class="cls-11" x="-10.57" width="753.75" height="518.58"/>
        <rect class="cls-1" x="-10.57" y="0" width="753.75" height="518.58"/>
        <path class="cls-9" d="m443.18,112.14c98.67-8.04,196.27-15.62,293.66-21.6v-21.33c-60.24-2.57-120.51-5.38-181.16-7.77-186.71-7.63-372.49-1.99-558.66-7.69v100.9c52.94-6.11,105.02-11.63,159.37-16.95,97.18-9.33,190.14-17.44,286.79-25.55Z"/>
        <path class="cls-4" d="m289.19,319.74c-98.67-16.58-210.71-18.17-293.66-25.73v-62.84c60.24-5.3,120.51-11.09,181.16-16.02,186.71-15.73,372.49-4.11,558.66-15.87v208.12c-52.94-12.6-105.02-23.98-159.37-34.96-97.18-19.24-190.14-35.98-286.79-52.71Z"/>
        <polygon class="cls-10" points="171.3 486.42 170.57 483.93 168.21 483.93 170.12 482.4 169.39 479.91 171.3 481.45 173.21 479.91 172.48 482.4 174.39 483.93 172.03 483.93 171.3 486.42"/>
        <polygon class="cls-10" points="301.82 274.33 301.09 271.84 298.73 271.84 300.64 270.31 299.91 267.82 301.82 269.36 303.73 267.82 303 270.31 304.91 271.84 302.55 271.84 301.82 274.33"/>
        <polygon class="cls-10" points="311.91 113.08 311.18 110.59 308.82 110.59 310.73 109.05 310 106.57 311.91 108.1 313.82 106.57 313.09 109.05 315 110.59 312.64 110.59 311.91 113.08"/>
        <polygon class="cls-10" points="153.17 264.68 152.44 262.2 150.08 262.2 151.99 260.66 151.26 258.17 153.17 259.71 155.08 258.17 154.35 260.66 156.26 262.2 153.9 262.2 153.17 264.68"/>
        <polygon class="cls-10" points="165.43 82.12 164.7 79.64 162.34 79.64 164.25 78.1 163.52 75.62 165.43 77.15 167.33 75.62 166.61 78.1 168.51 79.64 166.15 79.64 165.43 82.12"/>
        <polygon class="cls-10" points="264.53 431.91 263.8 429.43 261.44 429.43 263.35 427.89 262.62 425.41 264.53 426.94 266.44 425.41 265.71 427.89 267.62 429.43 265.26 429.43 264.53 431.91"/>
        <polygon class="cls-10" points="538.89 48.26 538.16 45.77 535.8 45.77 537.71 44.23 536.98 41.75 538.89 43.28 540.8 41.75 540.07 44.23 541.98 45.77 539.62 45.77 538.89 48.26"/>
        <polygon class="cls-10" points="349.56 454.79 348.84 452.3 346.48 452.3 348.38 450.77 347.66 448.28 349.56 449.82 351.47 448.28 350.74 450.77 352.65 452.3 350.29 452.3 349.56 454.79"/>
        <polygon class="cls-10" points="490.7 149.06 489.97 146.57 487.61 146.57 489.52 145.03 488.79 142.55 490.7 144.09 492.61 142.55 491.88 145.03 493.79 146.57 491.43 146.57 490.7 149.06"/>
        <polygon class="cls-10" points="570.44 316.25 569.71 313.77 567.36 313.77 569.26 312.23 568.53 309.74 570.44 311.28 572.35 309.74 571.62 312.23 573.53 313.77 571.17 313.77 570.44 316.25"/>
        <polygon class="cls-10" points="220.12 401.09 219.39 398.61 217.03 398.61 218.94 397.07 218.21 394.58 220.12 396.12 222.03 394.58 221.3 397.07 223.21 398.61 220.85 398.61 220.12 401.09"/>
        <polygon class="cls-10" points="422.32 328.46 421.59 325.98 419.23 325.98 421.14 324.44 420.41 321.95 422.32 323.49 424.23 321.95 423.5 324.44 425.41 325.98 423.05 325.98 422.32 328.46"/>
        <polygon class="cls-10" points="381.01 248.86 380.28 246.37 377.92 246.37 379.83 244.84 379.1 242.35 381.01 243.89 382.92 242.35 382.19 244.84 384.1 246.37 381.74 246.37 381.01 248.86"/>
        <polygon class="cls-10" points="214.96 233.72 214.23 231.23 211.87 231.23 213.78 229.7 213.05 227.21 214.96 228.75 216.87 227.21 216.14 229.7 218.05 231.23 215.69 231.23 214.96 233.72"/>
        <polygon class="cls-10" points="463.48 51.51 462.75 49.02 460.39 49.02 462.3 47.49 461.57 45 463.48 46.54 465.38 45 464.65 47.49 466.56 49.02 464.2 49.02 463.48 51.51"/>
        <polygon class="cls-10" points="297.89 474.03 297.16 471.54 294.8 471.54 296.71 470 295.98 467.52 297.89 469.05 299.79 467.52 299.07 470 300.97 471.54 298.61 471.54 297.89 474.03"/>
        <polygon class="cls-10" points="445.98 109.82 445.25 107.34 442.89 107.34 444.8 105.8 444.07 103.31 445.98 104.85 447.89 103.31 447.16 105.8 449.07 107.34 446.71 107.34 445.98 109.82"/>
        <polygon class="cls-10" points="393.77 425.71 393.04 423.22 390.68 423.22 392.59 421.69 391.86 419.2 393.77 420.74 395.68 419.2 394.95 421.69 396.86 423.22 394.5 423.22 393.77 425.71"/>
        <polygon class="cls-10" points="302.23 48.26 301.5 45.77 299.14 45.77 301.05 44.23 300.32 41.75 302.23 43.28 304.14 41.75 303.41 44.23 305.32 45.77 302.96 45.77 302.23 48.26"/>
        <polygon class="cls-10" points="454.69 497.56 453.96 495.07 451.6 495.07 453.51 493.54 452.78 491.05 454.69 492.59 456.6 491.05 455.87 493.54 457.78 495.07 455.42 495.07 454.69 497.56"/>
        <polygon class="cls-10" points="225.35 30.82 224.62 28.33 222.26 28.33 224.17 26.79 223.44 24.31 225.35 25.85 227.26 24.31 226.53 26.79 228.44 28.33 226.08 28.33 225.35 30.82"/>
        <polygon class="cls-10" points="580.55 103.02 579.82 100.54 577.46 100.54 579.37 99 578.64 96.52 580.55 98.05 582.46 96.52 581.73 99 583.64 100.54 581.28 100.54 580.55 103.02"/>
        <path class="cls-10" d="m409.17,271.97c0-.74.54-1.34,1.21-1.34s1.21.6,1.21,1.34-.54,1.34-1.21,1.34-1.21-.6-1.21-1.34Z"/>
        <path class="cls-10" d="m364.67,308.76c0-.38.28-.69.62-.69s.62.31.62.69-.28.69-.62.69-.62-.31-.62-.69Z"/>
        <path class="cls-10" d="m433.08,378.05c0-.38.28-.69.62-.69s.62.31.62.69-.28.69-.62.69-.62-.31-.62-.69Z"/>
        <path class="cls-10" d="m202.68,459.92c0-.38.28-.69.62-.69s.62.31.62.69-.28.69-.62.69-.62-.31-.62-.69Z"/>
        <path class="cls-10" d="m261.77,248.92c0-.38.28-.69.62-.69s.62.31.62.69-.28.69-.62.69-.62-.31-.62-.69Z"/>
        <path class="cls-10" d="m261.15,322.16c0-.38.28-.69.62-.69s.62.31.62.69-.28.69-.62.69-.62-.31-.62-.69Z"/>
        <path class="cls-10" d="m335.54,399.34c0-.38.28-.69.62-.69s.62.31.62.69-.28.69-.62.69-.62-.31-.62-.69Z"/>
        <path class="cls-10" d="m455.62,321.47c0-.38.28-.69.62-.69s.62.31.62.69-.28.69-.62.69-.62-.31-.62-.69Z"/>
        <path class="cls-10" d="m569.83,366.3c0-.38.28-.69.62-.69s.62.31.62.69-.28.69-.62.69-.62-.31-.62-.69Z"/>
        <path class="cls-10" d="m561.87,270.64c0-.38.28-.69.62-.69s.62.31.62.69-.28.69-.62.69-.62-.31-.62-.69Z"/>
        <path class="cls-10" d="m581.79,167.74c0-.38.28-.69.62-.69s.62.31.62.69-.28.69-.62.69-.62-.31-.62-.69Z"/>
        <path class="cls-10" d="m534.77,96.52c0-.38.28-.69.62-.69s.62.31.62.69-.28.69-.62.69-.62-.31-.62-.69Z"/>
        <path class="cls-10" d="m537.81,245.6c0-.38.28-.69.62-.69s.62.31.62.69-.28.69-.62.69-.62-.31-.62-.69Z"/>
        <path class="cls-10" d="m538.43,19.64c0-.38.28-.69.62-.69s.62.31.62.69-.28.69-.62.69-.62-.31-.62-.69Z"/>
        <path class="cls-10" d="m581.17,14.88c0-.38.28-.69.62-.69s.62.31.62.69-.28.69-.62.69-.62-.31-.62-.69Z"/>
        <ellipse class="cls-10" cx="492.21" cy="173.58" rx=".62" ry=".69"/>
        <ellipse class="cls-10" cx="471.63" cy="223.76" rx=".62" ry=".69"/>
        <ellipse class="cls-10" cx="411.91" cy="195.65" rx=".62" ry=".69"/>
        <path class="cls-10" d="m332.02,227.21c0-.38.28-.69.62-.69s.62.31.62.69-.28.69-.62.69-.62-.31-.62-.69Z"/>
        <ellipse class="cls-10" cx="400.48" cy="55.06" rx=".62" ry=".69"/>
        <path class="cls-10" d="m353.18,25.63c0-.38.28-.69.62-.69s.62.31.62.69-.28.69-.62.69-.62-.31-.62-.69Z"/>
        <path class="cls-10" d="m457.78,17.77c0-.38.28-.69.62-.69s.62.31.62.69-.28.69-.62.69-.62-.31-.62-.69Z"/>
        <ellipse class="cls-10" cx="441.67" cy="243.26" rx=".62" ry=".69"/>
        <path class="cls-10" d="m391.92,384.05c0-.38.28-.69.62-.69s.62.31.62.69-.28.69-.62.69-.62-.31-.62-.69Z"/>
        <path class="cls-10" d="m361.85,414.95c0-.38.28-.69.62-.69s.62.31.62.69-.28.69-.62.69-.62-.31-.62-.69Z"/>
        <path class="cls-10" d="m214.96,421.11c0-.38.28-.69.62-.69s.62.31.62.69-.28.69-.62.69-.62-.31-.62-.69Z"/>
        <path class="cls-10" d="m182.23,491.05c0-.38.28-.69.62-.69s.62.31.62.69-.28.69-.62.69-.62-.31-.62-.69Z"/>
        <path class="cls-10" d="m156.63,432.59c0-.38.28-.69.62-.69s.62.31.62.69-.28.69-.62.69-.62-.31-.62-.69Z"/>
        <path class="cls-10" d="m137.51,492.4c0-.38.28-.69.62-.69s.62.31.62.69-.28.69-.62.69-.62-.31-.62-.69Z"/>
        <path class="cls-10" d="m339.48,494.31c0-.38.28-.69.62-.69s.62.31.62.69-.28.69-.62.69-.62-.31-.62-.69Z"/>
        <path class="cls-10" d="m413.47,471.04c0-.38.28-.69.62-.69s.62.31.62.69-.28.69-.62.69-.62-.31-.62-.69Z"/>
        <path class="cls-10" d="m512.79,502.16c0-.38.28-.69.62-.69s.62.31.62.69-.28.69-.62.69-.62-.31-.62-.69Z"/>
        <ellipse class="cls-10" cx="581.17" cy="500.81" rx=".62" ry=".69"/>
        <path class="cls-10" d="m296.01,382.09c0-.38.28-.69.62-.69s.62.31.62.69-.28.69-.62.69-.62-.31-.62-.69Z"/>
        <path class="cls-10" d="m196.69,279.08c0-.38.28-.69.62-.69s.62.31.62.69-.28.69-.62.69-.62-.31-.62-.69Z"/>
        <path class="cls-10" d="m152.33,303.1c0-.38.28-.69.62-.69s.62.31.62.69-.28.69-.62.69-.62-.31-.62-.69Z"/>
        <path class="cls-10" d="m135.09,224.44c0-.38.28-.69.62-.69s.62.31.62.69-.28.69-.62.69-.62-.31-.62-.69Z"/>
        <path class="cls-10" d="m173.88,135.57c0-.38.28-.69.62-.69s.62.31.62.69-.28.69-.62.69-.62-.31-.62-.69Z"/>
        <path class="cls-18" d="m291.27,74.83c.05-.38-.19-.72-.53-.77-.08-.01-.16,0-.24.02h0s0,0,0,0c0,0,0,0,0,0-23.14,5.45-45.16,14.02-45.16,14.02,17.02-6.48,45.43-12.69,45.43-12.69h0c.26-.06.47-.28.5-.59Z"/>
        <path class="cls-7" d="m92.42,184.39c0-.67-.49-1.21-1.09-1.21-.15,0-.28.03-.41.09h0s0,0-.01,0c0,0,0,0,0,0-39.35,15.31-76.06,35.81-76.06,35.81,28.4-15.59,76.83-33.54,76.83-33.54h0c.44-.17.76-.61.76-1.15Z"/>
        <path class="cls-10" d="m255.1,25.63c0-.38.28-.69.62-.69s.62.31.62.69-.28.69-.62.69-.62-.31-.62-.69Z"/>
        <path class="cls-10" d="m192.32,54.37c0-.38.28-.69.62-.69s.62.31.62.69-.28.69-.62.69-.62-.31-.62-.69Z"/>
        <path class="cls-10" d="m143.5,14.19c0-.38.28-.69.62-.69s.62.31.62.69-.28.69-.62.69-.62-.31-.62-.69Z"/>
        <path class="cls-10" d="m136.3,97.76c0-.38.28-.69.62-.69s.62.31.62.69-.28.69-.62.69-.62-.31-.62-.69Z"/>
        <path class="cls-10" d="m377.77,481.32c0-.74.54-1.34,1.21-1.34s1.21.6,1.21,1.34-.54,1.34-1.21,1.34-1.21-.6-1.21-1.34Z"/>
        <path class="cls-10" d="m319.62,442.73c0-.74.54-1.34,1.21-1.34s1.21.6,1.21,1.34-.54,1.34-1.21,1.34-1.21-.6-1.21-1.34Z"/>
        <path class="cls-10" d="m224.14,491.05c0-.74.54-1.34,1.21-1.34s1.21.6,1.21,1.34-.54,1.34-1.21,1.34-1.21-.6-1.21-1.34Z"/>
        <path class="cls-10" d="m188.14,415.78c0-.74.54-1.34,1.21-1.34s1.21.6,1.21,1.34-.54,1.34-1.21,1.34-1.21-.6-1.21-1.34Z"/>
        <path class="cls-10" d="m134.49,373.89c0-.74.54-1.34,1.21-1.34s1.21.6,1.21,1.34-.54,1.34-1.21,1.34-1.21-.6-1.21-1.34Z"/>
        <path class="cls-10" d="m233.78,279.08c0-.74.54-1.34,1.21-1.34s1.21.6,1.21,1.34-.54,1.34-1.21,1.34-1.21-.6-1.21-1.34Z"/>
        <path class="cls-10" d="m252.33,372.55c0-.74.54-1.34,1.21-1.34s1.21.6,1.21,1.34-.54,1.34-1.21,1.34-1.21-.6-1.21-1.34Z"/>
        <path class="cls-10" d="m512.2,283.67c0-.74.54-1.34,1.21-1.34s1.21.6,1.21,1.34-.54,1.34-1.21,1.34-1.21-.6-1.21-1.34Z"/>
        <path class="cls-10" d="m571.52,217.19c0-.74.54-1.34,1.21-1.34s1.21.6,1.21,1.34-.54,1.34-1.21,1.34-1.21-.6-1.21-1.34Z"/>
        <path class="cls-10" d="m552.01,134.23c0-.74.54-1.34,1.21-1.34s1.21.6,1.21,1.34-.54,1.34-1.21,1.34-1.21-.6-1.21-1.34Z"/>
        <path class="cls-10" d="m440.46,205.54c0-.74.54-1.34,1.21-1.34s1.21.6,1.21,1.34-.54,1.34-1.21,1.34-1.21-.6-1.21-1.34Z"/>
        <path class="cls-10" d="m505.59,119.79c0-.74.54-1.34,1.21-1.34s1.21.6,1.21,1.34-.54,1.34-1.21,1.34-1.21-.6-1.21-1.34Z"/>
        <path class="cls-10" d="m405.52,95.83c0-.74.54-1.34,1.21-1.34s1.21.6,1.21,1.34-.54,1.34-1.21,1.34-1.21-.6-1.21-1.34Z"/>
        <path class="cls-10" d="m263.26,202.87c0-.74.54-1.34,1.21-1.34s1.21.6,1.21,1.34-.54,1.34-1.21,1.34-1.21-.6-1.21-1.34Z"/>
        <path class="cls-10" d="m202.7,160.92c0-.74.54-1.34,1.21-1.34s1.21.6,1.21,1.34-.54,1.34-1.21,1.34-1.21-.6-1.21-1.34Z"/>
        <path class="cls-10" d="m134.49,156.09c0-.74.54-1.34,1.21-1.34s1.21.6,1.21,1.34-.54,1.34-1.21,1.34-1.21-.6-1.21-1.34Z"/>
        <path class="cls-10" d="m152.94,54.37c0-.74.54-1.34,1.21-1.34s1.21.6,1.21,1.34-.54,1.34-1.21,1.34-1.21-.6-1.21-1.34Z"/>
        <path class="cls-10" d="m227.23,106.57c0-.74.54-1.34,1.21-1.34s1.21.6,1.21,1.34-.54,1.34-1.21,1.34-1.21-.6-1.21-1.34Z"/>
        <path class="cls-10" d="m347.79,68.48c0-.74.54-1.34,1.21-1.34s1.21.6,1.21,1.34-.54,1.34-1.21,1.34-1.21-.6-1.21-1.34Z"/>
        <ellipse class="cls-10" cx="503.58" cy="44.05" rx="1.21" ry="1.34"/>
        <path class="cls-10" d="m135.7,316.25c0-.74.54-1.34,1.21-1.34s1.21.6,1.21,1.34-.54,1.34-1.21,1.34-1.21-.6-1.21-1.34Z"/>
        <polygon class="cls-10" points="508.52 454.71 507.79 452.23 505.43 452.23 507.34 450.69 506.61 448.2 508.52 449.74 510.42 448.2 509.7 450.69 511.6 452.23 509.25 452.23 508.52 454.71"/>
        <polygon class="cls-10" points="568.44 403.41 567.71 400.92 565.35 400.92 567.26 399.38 566.53 396.9 568.44 398.43 570.35 396.9 569.62 399.38 571.53 400.92 569.17 400.92 568.44 403.41"/>
        <ellipse class="cls-10" cx="517.59" cy="508.16" rx=".62" ry=".69"/>
        <path class="cls-10" d="m598.19,398.22c0-.38.28-.69.62-.69s.62.31.62.69-.28.69-.62.69-.62-.31-.62-.69Z"/>
        <path class="cls-10" d="m535.41,426.96c0-.38.28-.69.62-.69s.62.31.62.69-.28.69-.62.69-.62-.31-.62-.69Z"/>
        <path class="cls-10" d="m486.59,386.78c0-.38.28-.69.62-.69s.62.31.62.69-.28.69-.62.69-.62-.31-.62-.69Z"/>
        <path class="cls-10" d="m479.39,470.35c0-.38.28-.69.62-.69s.62.31.62.69-.28.69-.62.69-.62-.31-.62-.69Z"/>
        <path class="cls-10" d="m496.03,426.96c0-.74.54-1.34,1.21-1.34s1.21.6,1.21,1.34-.54,1.34-1.21,1.34-1.21-.6-1.21-1.34Z"/>
        <polygon class="cls-10" points="652.9 486.42 652.17 483.93 649.81 483.93 651.72 482.4 650.99 479.91 652.9 481.45 654.81 479.91 654.08 482.4 655.99 483.93 653.63 483.93 652.9 486.42"/>
        <polygon class="cls-10" points="634.77 264.68 634.04 262.2 631.68 262.2 633.59 260.66 632.86 258.17 634.77 259.71 636.67 258.17 635.95 260.66 637.85 262.2 635.49 262.2 634.77 264.68"/>
        <polygon class="cls-10" points="647.02 82.12 646.29 79.64 643.93 79.64 645.84 78.1 645.11 75.62 647.02 77.15 648.93 75.62 648.2 78.1 650.11 79.64 647.75 79.64 647.02 82.12"/>
        <polygon class="cls-10" points="701.72 401.09 700.99 398.61 698.63 398.61 700.54 397.07 699.81 394.58 701.72 396.12 703.63 394.58 702.9 397.07 704.81 398.61 702.45 398.61 701.72 401.09"/>
        <polygon class="cls-10" points="696.55 233.72 695.83 231.23 693.47 231.23 695.37 229.7 694.65 227.21 696.55 228.75 698.46 227.21 697.73 229.7 699.64 231.23 697.28 231.23 696.55 233.72"/>
        <polygon class="cls-10" points="706.95 30.82 706.22 28.33 703.86 28.33 705.77 26.79 705.04 24.31 706.95 25.85 708.86 24.31 708.13 26.79 710.04 28.33 707.68 28.33 706.95 30.82"/>
        <path class="cls-10" d="m684.27,459.92c0-.38.28-.69.62-.69s.62.31.62.69-.28.69-.62.69-.62-.31-.62-.69Z"/>
        <path class="cls-10" d="m696.55,421.11c0-.38.28-.69.62-.69s.62.31.62.69-.28.69-.62.69-.62-.31-.62-.69Z"/>
        <path class="cls-10" d="m663.83,491.05c0-.38.28-.69.62-.69s.62.31.62.69-.28.69-.62.69-.62-.31-.62-.69Z"/>
        <path class="cls-10" d="m638.22,432.59c0-.38.28-.69.62-.69s.62.31.62.69-.28.69-.62.69-.62-.31-.62-.69Z"/>
        <path class="cls-10" d="m619.11,492.4c0-.38.28-.69.62-.69s.62.31.62.69-.28.69-.62.69-.62-.31-.62-.69Z"/>
        <path class="cls-10" d="m678.29,279.08c0-.38.28-.69.62-.69s.62.31.62.69-.28.69-.62.69-.62-.31-.62-.69Z"/>
        <path class="cls-10" d="m633.92,303.1c0-.38.28-.69.62-.69s.62.31.62.69-.28.69-.62.69-.62-.31-.62-.69Z"/>
        <path class="cls-10" d="m616.68,224.44c0-.38.28-.69.62-.69s.62.31.62.69-.28.69-.62.69-.62-.31-.62-.69Z"/>
        <path class="cls-10" d="m655.48,135.57c0-.38.28-.69.62-.69s.62.31.62.69-.28.69-.62.69-.62-.31-.62-.69Z"/>
        <path class="cls-5" d="m771.88,71.66c0-.38-.28-.69-.62-.69-.08,0-.16.02-.23.05h0s0,0,0,0c0,0,0,0,0,0-22.25,8.65-43,20.25-43,20.25,16.06-8.82,43.43-18.96,43.43-18.96h0c.25-.1.43-.35.43-.65Z"/>
        <path class="cls-10" d="m673.92,54.37c0-.38.28-.69.62-.69s.62.31.62.69-.28.69-.62.69-.62-.31-.62-.69Z"/>
        <path class="cls-10" d="m625.09,14.19c0-.38.28-.69.62-.69s.62.31.62.69-.28.69-.62.69-.62-.31-.62-.69Z"/>
        <path class="cls-10" d="m617.9,97.76c0-.38.28-.69.62-.69s.62.31.62.69-.28.69-.62.69-.62-.31-.62-.69Z"/>
        <path class="cls-10" d="m705.74,491.05c0-.74.54-1.34,1.21-1.34s1.21.6,1.21,1.34-.54,1.34-1.21,1.34-1.21-.6-1.21-1.34Z"/>
        <path class="cls-10" d="m669.74,415.78c0-.74.54-1.34,1.21-1.34s1.21.6,1.21,1.34-.54,1.34-1.21,1.34-1.21-.6-1.21-1.34Z"/>
        <path class="cls-10" d="m616.09,373.89c0-.74.54-1.34,1.21-1.34s1.21.6,1.21,1.34-.54,1.34-1.21,1.34-1.21-.6-1.21-1.34Z"/>
        <path class="cls-10" d="m715.38,279.08c0-.74.54-1.34,1.21-1.34s1.21.6,1.21,1.34-.54,1.34-1.21,1.34-1.21-.6-1.21-1.34Z"/>
        <path class="cls-10" d="m684.3,160.92c0-.74.54-1.34,1.21-1.34s1.21.6,1.21,1.34-.54,1.34-1.21,1.34-1.21-.6-1.21-1.34Z"/>
        <ellipse class="cls-10" cx="617.3" cy="156.09" rx="1.21" ry="1.34"/>
        <path class="cls-10" d="m634.54,54.37c0-.74.54-1.34,1.21-1.34s1.21.6,1.21,1.34-.54,1.34-1.21,1.34-1.21-.6-1.21-1.34Z"/>
        <path class="cls-10" d="m708.83,106.57c0-.74.54-1.34,1.21-1.34s1.21.6,1.21,1.34-.54,1.34-1.21,1.34-1.21-.6-1.21-1.34Z"/>
        <path class="cls-10" d="m617.3,316.25c0-.74.54-1.34,1.21-1.34s1.21.6,1.21,1.34-.54,1.34-1.21,1.34-1.21-.6-1.21-1.34Z"/>
        <polygon class="cls-10" points="60.67 48.26 59.94 45.77 57.58 45.77 59.49 44.23 58.76 41.75 60.67 43.28 62.58 41.75 61.85 44.23 63.76 45.77 61.4 45.77 60.67 48.26"/>
        <polygon class="cls-10" points="12.48 149.06 11.75 146.57 9.39 146.57 11.3 145.03 10.57 142.55 12.48 144.09 14.39 142.55 13.66 145.03 15.57 146.57 13.21 146.57 12.48 149.06"/>
        <polygon class="cls-10" points="92.22 316.25 91.49 313.77 89.13 313.77 91.04 312.23 90.31 309.74 92.22 311.28 94.13 309.74 93.4 312.23 95.31 313.77 92.95 313.77 92.22 316.25"/>
        <polygon class="cls-10" points="102.33 103.02 101.6 100.54 99.24 100.54 101.15 99 100.42 96.52 102.33 98.05 104.24 96.52 103.51 99 105.42 100.54 103.06 100.54 102.33 103.02"/>
        <path class="cls-10" d="m91.6,366.3c0-.38.28-.69.62-.69s.62.31.62.69-.28.69-.62.69-.62-.31-.62-.69Z"/>
        <path class="cls-10" d="m83.65,270.64c0-.38.28-.69.62-.69s.62.31.62.69-.28.69-.62.69-.62-.31-.62-.69Z"/>
        <ellipse class="cls-10" cx="104.18" cy="167.74" rx=".62" ry=".69"/>
        <path class="cls-10" d="m56.55,96.52c0-.38.28-.69.62-.69s.62.31.62.69-.28.69-.62.69-.62-.31-.62-.69Z"/>
        <path class="cls-10" d="m59.59,245.6c0-.38.28-.69.62-.69s.62.31.62.69-.28.69-.62.69-.62-.31-.62-.69Z"/>
        <path class="cls-10" d="m60.21,19.64c0-.38.28-.69.62-.69s.62.31.62.69-.28.69-.62.69-.62-.31-.62-.69Z"/>
        <path class="cls-10" d="m102.95,14.88c0-.38.28-.69.62-.69s.62.31.62.69-.28.69-.62.69-.62-.31-.62-.69Z"/>
        <path class="cls-10" d="m13.37,173.58c0-.38.28-.69.62-.69s.62.31.62.69-.28.69-.62.69-.62-.31-.62-.69Z"/>
        <path class="cls-10" d="m34.57,502.16c0-.38.28-.69.62-.69s.62.31.62.69-.28.69-.62.69-.62-.31-.62-.69Z"/>
        <ellipse class="cls-10" cx="102.95" cy="500.81" rx=".62" ry=".69"/>
        <path class="cls-10" d="m33.98,283.67c0-.74.54-1.34,1.21-1.34s1.21.6,1.21,1.34-.54,1.34-1.21,1.34-1.21-.6-1.21-1.34Z"/>
        <path class="cls-10" d="m93.3,217.19c0-.74.54-1.34,1.21-1.34s1.21.6,1.21,1.34-.54,1.34-1.21,1.34-1.21-.6-1.21-1.34Z"/>
        <path class="cls-10" d="m73.79,134.23c0-.74.54-1.34,1.21-1.34s1.21.6,1.21,1.34-.54,1.34-1.21,1.34-1.21-.6-1.21-1.34Z"/>
        <path class="cls-10" d="m27.37,119.79c0-.74.54-1.34,1.21-1.34s1.21.6,1.21,1.34-.54,1.34-1.21,1.34-1.21-.6-1.21-1.34Z"/>
        <path class="cls-10" d="m24.15,44.05c0-.74.54-1.34,1.21-1.34s1.21.6,1.21,1.34-.54,1.34-1.21,1.34-1.21-.6-1.21-1.34Z"/>
        <polygon class="cls-10" points="30.29 454.71 29.57 452.23 27.21 452.23 29.11 450.69 28.39 448.2 30.29 449.74 32.2 448.2 31.47 450.69 33.38 452.23 31.02 452.23 30.29 454.71"/>
        <polygon class="cls-10" points="90.22 403.41 89.49 400.92 87.13 400.92 89.04 399.38 88.31 396.9 90.22 398.43 92.13 396.9 91.4 399.38 93.31 400.92 90.95 400.92 90.22 403.41"/>
        <path class="cls-10" d="m38.75,508.16c0-.38.28-.69.62-.69s.62.31.62.69-.28.69-.62.69-.62-.31-.62-.69Z"/>
        <path class="cls-10" d="m119.97,398.22c0-.38.28-.69.62-.69s.62.31.62.69-.28.69-.62.69-.62-.31-.62-.69Z"/>
        <path class="cls-10" d="m57.19,426.96c0-.38.28-.69.62-.69s.62.31.62.69-.28.69-.62.69-.62-.31-.62-.69Z"/>
        <path class="cls-10" d="m8.36,386.78c0-.38.28-.69.62-.69s.62.31.62.69-.28.69-.62.69-.62-.31-.62-.69Z"/>
        <path class="cls-10" d="m1.17,470.35c0-.38.28-.69.62-.69s.62.31.62.69-.28.69-.62.69-.62-.31-.62-.69Z"/>
        <ellipse class="cls-10" cx="19.03" cy="426.96" rx="1.21" ry="1.34"/>
        <g class="cls-21">
          <path class="cls-12" d="m926.81,312.17c-11.94,5.52-19.98,4.66-19.98,4.66,0,0-11.76-7.29-16.69-12.73,0,0-3.84-1.75-8.5-2.72,0,0-6.85,3.43-11.33,3.43s-30.89-12.55-30.89-12.55c0,0-5.39-1.1-11.33-.32,0,0-8.13,6.34-12.25,6.34s-25.5-10.22-38.66-21.23c-13.16-11-19.38-16.83-19.38-16.83,0,0-18.28-3.37-27.42-3.49-9.14-.13-22.67-1.42-22.67-1.42l-4.75-3.88s-5.48,1.9-12.19,9.23c-6.7,7.33-13.77,14.24-18.04,15.7,0,0-7.8-4.49-10.85-7.33,0,0-12.19.69-20.23,8.28-8.04,7.59-26.57,30.2-46.31,37.45-6.89,2.53-15.41,3.79-23.59,4.36-3.23-.23-5.56-.27-5.56-.27,0,0-.87.24-2.33.63-11.88.28-21.41-.63-21.41-.63,0,0-7.86.45-12.61,3.69-4.75,3.24-10.69,2.39-10.69,2.39,0,0-22.76-10.35-35.19-11.78-12.43-1.42-39.12-8.8-39.12-8.8,0,0-14.99.26-23.76,2.98-2.21.68-4.81,1.18-7.48,1.54-5.32-5.2-9.67-10.05-12.49-12.71-6.75-6.37-16.97-6.95-16.97-6.95-2.56,2.39-9.1,6.15-9.1,6.15-3.58-1.23-9.51-7.02-15.13-13.17-5.62-6.15-10.22-7.74-10.22-7.74l-3.99,3.26s-11.35,1.09-19.01,1.19c-7.67.11-23,2.93-23,2.93,0,0-3.2,3-9.87,8.71-1.74-.56-7.52-2.41-12.34-3.73-5.75-1.57-12.11-2.12-12.11-2.12,0,0-8.82,5.05-12.8,7.06-3.99,2.01-18.93,4.83-23.69,3.2-4.75-1.63-9.43-7.54-9.43-7.54,0,0-12.57.22-19.93-2.06-7.36-2.28-19.93-2.5-19.93-2.5,0,0-22.38,6.19-32.81,7.38-10.43,1.19-29.51,9.88-29.51,9.88,0,0-4.98.71-8.97-2.01-3.99-2.71-10.58-3.09-10.58-3.09,0,0-27.8,2.64-44.36-3.44-16.56-6.08-32.09-25.04-38.84-31.41-6.75-6.37-16.97-6.95-16.97-6.95-2.56,2.39-9.1,6.15-9.1,6.15-3.58-1.23-9.51-7.02-15.13-13.17-5.62-6.15-10.22-7.74-10.22-7.74l-3.99,3.26s-11.35,1.09-19.01,1.19c-7.67.11-23,2.93-23,2.93,0,0-5.21,4.89-16.25,14.11-11.04,9.23-28.98,17.8-32.43,17.8s-10.27-5.32-10.27-5.32c-4.98-.65-9.51.27-9.51.27,0,0-22.15,10.53-25.91,10.53s-9.51-2.88-9.51-2.88c-3.91.81-7.13,2.28-7.13,2.28-4.14,4.56-14,10.67-14,10.67,0,0-6.75.72-16.76-3.91-10.02-4.63-28.72-10.57-28.72-10.57v146.92H133.24v36h179.55v12.98h648.26v-175.16s-22.3,7.08-34.24,12.6Z"/>
          <path class="cls-14" d="m762.97,325.93s-14.78,4.69-22.7,8.35c-7.92,3.66-13.25,3.09-13.25,3.09,0,0-7.8-4.83-11.07-8.44,0,0-2.54-1.16-5.64-1.8,0,0-4.54,2.27-7.51,2.27s-20.48-8.32-20.48-8.32c0,0-3.57-.73-7.51-.21,0,0-5.39,4.2-8.12,4.2s-16.9-6.78-25.63-14.07c-8.73-7.29-12.85-11.15-12.85-11.15,0,0-12.12-2.23-18.18-2.32-6.06-.09-15.03-.94-15.03-.94l-3.15-2.57s-3.64,1.26-8.08,6.12c-4.44,4.86-9.13,9.44-11.96,10.41,0,0-5.17-2.97-7.19-4.86,0,0-8.08.46-13.41,5.49-5.33,5.03-17.61,20.02-30.7,24.83-13.09,4.81-35.06,2.72-35.06,2.72,0,0-5.21.3-8.36,2.45-3.15,2.15-7.09,1.59-7.09,1.59,0,0-15.09-6.86-23.33-7.81-8.24-.94-25.93-5.83-25.93-5.83,0,0-9.94.17-15.75,1.97-5.82,1.8-15.75,1.63-15.75,1.63,0,0-3.7,4.68-7.45,5.96-3.76,1.29-15.57-.94-18.72-2.53-3.15-1.59-10.12-5.58-10.12-5.58,0,0-5.03.43-9.57,1.67-3.81,1.04-8.38,2.51-9.75,2.95-5.27-4.52-7.8-6.89-7.8-6.89,0,0-12.12-2.23-18.18-2.32-6.06-.09-15.03-.94-15.03-.94l-3.15-2.57s-3.64,1.26-8.08,6.12-9.13,9.44-11.96,10.41c0,0-5.17-2.97-7.19-4.86,0,0-8.08.46-13.41,5.49-2.23,2.1-5.67,5.94-9.87,10.05-2.1-.28-4.16-.67-5.9-1.22-6.93-2.15-18.78-2.35-18.78-2.35,0,0-21.09,5.83-30.92,6.96-9.82,1.13-27.81,9.31-27.81,9.31,0,0-4.7.66-8.45-1.89-3.76-2.56-9.97-2.92-9.97-2.92,0,0-7.53.71-16.92.5-1.15-.31-1.84-.5-1.84-.5,0,0-1.84.03-4.4.21-6.46-.45-13.2-1.45-18.65-3.45-15.6-5.73-30.24-23.6-36.6-29.6-6.36-6-15.99-6.55-15.99-6.55-2.41,2.25-8.57,5.8-8.57,5.8-3.37-1.16-8.96-6.62-14.26-12.41-5.3-5.8-9.63-7.3-9.63-7.3l-3.76,3.07s-10.69,1.02-17.92,1.13c-7.22.1-21.67,2.76-21.67,2.76,0,0-4.91,4.6-15.31,13.3-10.4,8.7-27.31,16.78-30.56,16.78s-9.68-5.01-9.68-5.01c-4.7-.61-8.96.26-8.96.26,0,0-20.88,9.92-24.42,9.92s-8.96-2.71-8.96-2.71c-3.68.77-6.72,2.15-6.72,2.15-3.9,4.3-13.2,10.06-13.2,10.06,0,0-6.36.68-15.8-3.68-9.44-4.36-27.07-9.96-27.07-9.96v138.45H318.65v-10.26h141.92v-28.46h302.4v-116.12Z"/>
        </g>
        <g class="cls-19">
          <path class="cls-15" d="m-15.13,416.4s256.25-34.74,381.61-34.74,440.58,64.3,440.58,64.3v90.75H-15.13v-120.31Z"/>
          <path class="cls-6" d="m-55.67,445.34s126.33-22.73,243.56-31.27c117.23-8.54,648.68,110.72,648.68,110.72l-875.65,63.77-16.58-143.23Z"/>
          <path class="cls-16" d="m882.35,507.48s-220.47-80.22-320.82-70.82c-169.02,15.83-625.95,201.06-625.95,201.06l963.35-63.77-16.58-66.47Z"/>
        </g>
        <path class="cls-16" d="m32.27,445.45c-.14-1.11-3.32-1.58-7.1-1.05-3.78.53-6.73,1.87-6.59,2.98.14,1.11,3.32,1.58,7.1,1.05s6.73-1.87,6.59-2.98Z"/>
        <path class="cls-16" d="m44.04,450.51c-.06-.51-1.52-.72-3.24-.48-1.73.24-3.08.85-3.01,1.36.06.51,1.52.72,3.24.48,1.73-.24,3.08-.85,3.01-1.36Z"/>
        <path class="cls-16" d="m83.99,435.99c-.06-.51-1.52-.72-3.24-.48-1.73.24-3.08.85-3.01,1.36.06.51,1.52.72,3.24.48s3.08-.85,3.01-1.36Z"/>
        <path class="cls-15" d="m713.83,467.92c-.15.52,1.17,1.42,2.95,2s3.36.63,3.51.1-1.17-1.42-2.95-2-3.36-.63-3.51-.1Z"/>
        <path class="cls-15" d="m709.57,463.12c-.07.24.53.65,1.35.92.82.27,1.53.29,1.6.05.07-.24-.53-.65-1.35-.92s-1.53-.29-1.6-.05Z"/>
        <path class="cls-15" d="m688.99,460.92c-.07.24.53.65,1.35.92.82.27,1.53.29,1.6.05.07-.24-.53-.65-1.35-.92-.82-.27-1.53-.29-1.6-.05Z"/>
        <g class="cls-23">
          <ellipse class="cls-13" cx="739.58" cy="-5.62" rx="211.91" ry="224.15"/>
          <ellipse class="cls-17" cx="739.58" cy="-5.62" rx="101.67" ry="107.55"/>
          <ellipse class="cls-10" cx="739.58" cy="-5.62" rx="79.62" ry="84.22"/>
          <path class="cls-2" d="m671.26,17.23c1.91,5.2,5.25,8.69,7.46,7.78,2.21-.91,2.45-5.86.53-11.07-1.91-5.2-5.25-8.69-7.46-7.78-2.21.91-2.45,5.86-.53,11.07Z"/>
          <path class="cls-3" d="m670.06,18.47c1.91,5.2,5.25,8.69,7.46,7.78,2.21-.91,2.45-5.86.53-11.07-1.91-5.2-5.25-8.69-7.46-7.78-2.21.91-2.45,5.86-.53,11.07Z"/>
          <path class="cls-2" d="m675.74,36.42c1.65,3.26,4.12,5.27,5.5,4.48,1.38-.78,1.16-4.06-.49-7.32-1.65-3.26-4.12-5.27-5.5-4.48-1.38.78-1.16,4.06.49,7.32Z"/>
          <path class="cls-3" d="m675.04,37.33c1.65,3.26,4.12,5.27,5.5,4.48,1.38-.78,1.16-4.06-.49-7.32-1.65-3.26-4.12-5.27-5.5-4.48-1.38.78-1.16,4.06.49,7.32Z"/>
          <path class="cls-2" d="m722.67,51.91c2.87,2.12,5.92,2.74,6.82,1.37.9-1.36-.7-4.18-3.56-6.3-2.87-2.12-5.92-2.74-6.82-1.37-.9,1.36.7,4.18,3.56,6.3Z"/>
          <path class="cls-3" d="m722.44,53.07c2.87,2.12,5.92,2.74,6.82,1.37.9-1.36-.7-4.18-3.56-6.3-2.87-2.12-5.92-2.74-6.82-1.37-.9,1.36.7,4.18,3.56,6.3Z"/>
          <path class="cls-3" d="m720.02,15.19c2.72,2.98,5.95,4.35,7.21,3.06,1.26-1.29.09-4.75-2.63-7.73-2.72-2.98-5.95-4.35-7.21-3.06-1.26,1.29-.09,4.75,2.63,7.73Z"/>
          <path class="cls-3" d="m720.02,16.45c2.72,2.98,5.95,4.35,7.21,3.06,1.26-1.29.09-4.75-2.63-7.73-2.72-2.98-5.95-4.35-7.21-3.06-1.26,1.29-.09,4.75,2.63,7.73Z"/>
        </g>
      </g>
    </g>
  </g>
</svg>