<?xml version="1.0" encoding="UTF-8"?>
<svg id="_레이어_2" data-name="레이어 2" xmlns="http://www.w3.org/2000/svg" viewBox="0 0 1307.54 928.34">
  <defs>
    <style>
      .cls-1, .cls-2, .cls-3, .cls-4, .cls-5, .cls-6, .cls-7 {
        stroke: #ff71ab;
      }

      .cls-1, .cls-2, .cls-3, .cls-4, .cls-5, .cls-8 {
        stroke-linecap: round;
      }

      .cls-1, .cls-2, .cls-4, .cls-7, .cls-8 {
        stroke-width: 3px;
      }

      .cls-1, .cls-3, .cls-4, .cls-9, .cls-5, .cls-6, .cls-7, .cls-8 {
        stroke-miterlimit: 10;
      }

      .cls-1, .cls-10 {
        fill: #f9f0cd;
      }

      .cls-2 {
        stroke-linejoin: round;
      }

      .cls-2, .cls-3, .cls-4, .cls-5, .cls-7, .cls-8 {
        fill: none;
      }

      .cls-9 {
        font-size: 12.76px;
        stroke: #ff7bac;
      }

      .cls-9, .cls-11, .cls-6 {
        fill: #ff71ab;
      }

      .cls-9, .cls-6 {
        font-family: YoonAGulimPro750-KSCpc-EUC-H, 'YoonA Gulim 700';
      }

      .cls-12 {
        fill: #ffb3d6;
      }

      .cls-12, .cls-11, .cls-10, .cls-13 {
        stroke-width: 0px;
      }

      .cls-5 {
        stroke-width: 4px;
      }

      .cls-6 {
        font-size: 18px;
      }

      .cls-13 {
        fill: #ffcce3;
      }

      .cls-8 {
        stroke: #f9f0cd;
      }
    </style>
  </defs>
  <path class="cls-10" d="m1307.54,179.13V6.91C1307.54,3.09,1304.44,0,1300.63,0H6.91C3.09,0,0,3.09,0,6.91v914.52c0,3.82,3.09,6.91,6.91,6.91h1293.71c3.82,0,6.91-3.09,6.91-6.91v-28.48c0-3.82-3.09-6.91-6.91-6.91H214.45c-3.82,0-6.91-3.09-6.91-6.91V192.95c0-3.82,3.09-6.91,6.91-6.91h1086.18c3.82,0,6.91-3.09,6.91-6.91Z"/>
  <rect class="cls-11" x="-.77" y="53.6" width="1307.54" height="52.09"/>
  <rect class="cls-11" x="13.9" y="13.77" width="298.72" height="51.57" rx="11.07" ry="11.07"/>
  <g>
    <line class="cls-8" x1="291.45" y1="28.56" x2="276" y2="43.88"/>
    <line class="cls-8" x1="276" y1="28.56" x2="291.45" y2="43.88"/>
  </g>
  <g>
    <line class="cls-4" x1="351.7" y1="28.31" x2="329.94" y2="28.12"/>
    <line class="cls-4" x1="340.82" y1="17.34" x2="340.82" y2="39.1"/>
  </g>
  <line class="cls-4" x1="29.88" y1="884.02" x2="153.18" y2="884.02"/>
  <g>
    <g>
      <line class="cls-4" x1="64.2" y1="140.15" x2="42.44" y2="139.96"/>
      <line class="cls-4" x1="53.32" y1="129.17" x2="53.32" y2="150.93"/>
    </g>
    <circle class="cls-4" cx="53.32" cy="140.05" r="15.57"/>
  </g>
  <text class="cls-6" transform="translate(91.7 146.17)"><tspan x="0" y="0">새로 만들기</tspan></text>
  <text class="cls-6" transform="translate(1141.61 146.17)"><tspan x="0" y="0">세부 정보</tspan></text>
  <line class="cls-3" x1="236.92" y1="134.43" x2="236.92" y2="149.6"/>
  <line class="cls-5" x1="1141.61" y1="25.38" x2="1157.01" y2="25.38"/>
  <rect class="cls-5" x="1192.73" y="17.26" width="16.23" height="16.23" rx="5.17" ry="5.17"/>
  <g>
    <line class="cls-5" x1="1261.96" y1="17.26" x2="1245.59" y2="33.5"/>
    <line class="cls-5" x1="1245.59" y1="17.26" x2="1261.96" y2="33.5"/>
  </g>
  <path class="cls-11" d="m0,181.09H0c0,2.17,1.76,3.93,3.93,3.93h175.21c2.17,0,3.93,1.76,3.93,3.93v692.15c0,2.17,1.76,3.93,3.93,3.93h15.86c2.17,0,3.93-1.76,3.93-3.93V188.94c0-2.17,1.76-3.93,3.93-3.93h1092.92c2.17,0,3.93-1.76,3.93-3.93h0c0-2.17-1.76-3.93-3.93-3.93H3.93C1.76,177.17,0,178.93,0,181.09Z"/>
  <g>
    <circle class="cls-7" cx="292.5" cy="151.18" r="5.39"/>
    <circle class="cls-7" cx="306.42" cy="151.18" r="5.39"/>
    <line class="cls-4" x1="291.24" y1="128.16" x2="303.93" y2="146.39"/>
    <line class="cls-4" x1="308.21" y1="128.35" x2="295.51" y2="146.58"/>
  </g>
  <g>
    <rect class="cls-4" x="370.23" y="135.88" width="15.21" height="17.69" rx="2.65" ry="2.65"/>
    <rect class="cls-1" x="379.39" y="130.32" width="15.21" height="17.69" rx="2.65" ry="2.65"/>
  </g>
  <g>
    <rect class="cls-4" x="453.94" y="129.57" width="20.16" height="24.64" rx="3.01" ry="3.01"/>
    <rect class="cls-4" x="460.07" y="127.45" width="8.37" height="5.07" rx="1.23" ry="1.23"/>
    <rect class="cls-1" x="464.02" y="136.55" width="13.78" height="18.97" rx="1.32" ry="1.32"/>
  </g>
  <g>
    <path class="cls-4" d="m629.8,132.11h-5.48s-3.07.29-3.66,3.18v15.5s.65,2.65,3.36,2.36h13.91s2.36-.24,3.18-2.42v-3.66"/>
    <path class="cls-2" d="m625.32,146.2s.47-11.08,10.2-11.02v-5.6l8.9,8.9-8.52,8.52v-6.81s-5.16-.47-10.58,6.01Z"/>
  </g>
  <g>
    <line class="cls-2" x1="702.6" y1="132.05" x2="727.36" y2="132.05"/>
    <path class="cls-2" d="m705.2,132.52s1.33,22.81,3.71,22.11h12.47s1.86,3.63,3.89-22.11"/>
    <line class="cls-2" x1="712.45" y1="138.09" x2="712.45" y2="148.09"/>
    <line class="cls-2" x1="717.66" y1="138.09" x2="717.66" y2="148.09"/>
    <path class="cls-2" d="m711.27,131.7s.94-3.71,4.72-2.83c0,0,2.36.65,2.77,3.18"/>
  </g>
  <g>
    <circle class="cls-11" cx="793.58" cy="141.98" r="2.61"/>
    <circle class="cls-11" cx="804.28" cy="141.98" r="2.61"/>
    <circle class="cls-11" cx="814.98" cy="141.98" r="2.61"/>
  </g>
  <rect class="cls-4" x="535.41" y="131.34" width="26.41" height="19.57" rx="3.95" ry="3.95"/>
  <line class="cls-4" x1="553.1" y1="129.1" x2="553.1" y2="154.22"/>
  <line class="cls-4" x1="548.62" y1="128.28" x2="557.11" y2="128.28"/>
  <line class="cls-4" x1="548.62" y1="155.04" x2="557.11" y2="155.04"/>
  <text class="cls-9" transform="translate(539.72 144.72)"><tspan x="0" y="0">A</tspan></text>
  <g>
    <rect class="cls-2" x="1096.3" y="131.22" width="27.24" height="20.75" rx="4.72" ry="4.72"/>
    <line class="cls-2" x1="1112.57" y1="131.73" x2="1112.57" y2="151.53"/>
    <line class="cls-2" x1="1116.37" y1="138.98" x2="1119.64" y2="138.98"/>
    <line class="cls-2" x1="1116.37" y1="142.9" x2="1119.64" y2="142.9"/>
    <line class="cls-2" x1="1116.37" y1="146.82" x2="1119.64" y2="146.82"/>
  </g>
  <g>
    <rect class="cls-10" x="32.61" y="26.58" width="26.27" height="17.55"/>
    <rect class="cls-13" x="32.61" y="28.32" width="26.27" height="14.08"/>
    <rect class="cls-10" x="32.61" y="24" width="8.41" height="5.03" rx=".8" ry=".8"/>
    <path class="cls-11" d="m51.03,33.84c.11-1.23-1.21-2.97-2.86-2.83-1.05.09-1.99.92-2.32,2.06-.35-1.19-1.41-2.02-2.58-2.06-1.14-.03-2.03.7-2.47,1.42-.74,1.21-.13,2.3.7,3.25,1.2,1.36,2.49,2.65,3.86,3.84.09.08.19.17.31.19.22.05.42-.1.59-.24,1.02-.85,1.93-1.83,2.88-2.76.63-.61,1.29-1.23,1.66-2.02.13-.29.21-.57.23-.85Z"/>
  </g>
  <g>
    <path class="cls-8" d="m43.91,74.22l-6.88,7.59c2.29,2.42,4.59,4.84,6.88,7.26"/>
    <line class="cls-8" x1="37.36" y1="81.44" x2="50.37" y2="81.44"/>
  </g>
  <g>
    <path class="cls-8" d="m110.74,74.22l6.88,7.59c-2.29,2.42-4.59,4.84-6.88,7.26"/>
    <line class="cls-8" x1="117.29" y1="81.44" x2="104.28" y2="81.44"/>
  </g>
  <g>
    <path class="cls-8" d="m167.87,81.86l7.59-6.88c2.42,2.29,4.84,4.59,7.26,6.88"/>
    <line class="cls-8" x1="175.09" y1="75.31" x2="175.09" y2="88.32"/>
  </g>
  <path class="cls-8" d="m249.86,85.02c-.91,3.09-3.76,5.34-7.14,5.34-4.11,0-7.45-3.33-7.45-7.45s3.33-7.45,7.45-7.45c1.91,0,3.66.72,4.98,1.91"/>
  <polyline class="cls-8" points="244.31 79.38 248.97 79.14 248.97 73.94"/>
  <rect class="cls-10" x="670.99" y="61.68" width="375.76" height="35.98" rx="8.7" ry="8.7"/>
  <rect class="cls-10" x="1057.54" y="61.68" width="201.65" height="35.98" rx="6.37" ry="6.37"/>
  <text class="cls-6" transform="translate(691.6 85.31)"><tspan x="0" y="0">웹계인펫 </tspan></text>
  <text class="cls-6" transform="translate(1067.94 85.31)"><tspan x="0" y="0">♥</tspan></text>
  <rect class="cls-12" x="187.31" y="217.41" width="14.55" height="239.74" rx="7.28" ry="7.28"/>
</svg>