<?xml version="1.0" encoding="UTF-8"?>
<svg id="_레이어_2" data-name="레이어 2" xmlns="http://www.w3.org/2000/svg" viewBox="0 0 45 45">
  <defs>
    <style>
      .cls-1, .cls-2 {
        fill: #ff71ab;
      }

      .cls-1, .cls-3 {
        stroke-width: 0px;
      }

      .cls-2 {
        font-family: CuteFont-Regular, 'Cute Font';
        font-size: 44px;
        stroke: #ff71ab;
        stroke-miterlimit: 10;
        stroke-width: 2px;
      }

      .cls-3 {
        fill: #ffcce3;
      }
    </style>
  </defs>
  <path class="cls-3" d="m30.19,9.98h-12.4c-4.58,0-8.3,3.72-8.3,8.3v6.64c0,.48.05.94.13,1.4-1.51,1.39-3.24,2.88-4.04,3.2-1.29.52,2.02,1.16,5.6.4,1.51,2,3.91,3.3,6.61,3.3h12.4c4.58,0,8.3-3.72,8.3-8.3v-6.64c0-4.58-3.72-8.3-8.3-8.3Z"/>
  <g>
    <circle class="cls-1" cx="16.05" cy="21.92" r="2.14"/>
    <circle class="cls-1" cx="23.9" cy="21.92" r="2.14"/>
    <circle class="cls-1" cx="31.74" cy="21.92" r="2.14"/>
  </g>
  <text class="cls-2" transform="translate(9.2 76.06)"><tspan x="0" y="0">z</tspan></text>
</svg>