<?xml version="1.0" encoding="UTF-8"?>
<svg id="_레이어_2" data-name="레이어 2" xmlns="http://www.w3.org/2000/svg" viewBox="0 0 45 45">
  <defs>
    <style>
      .cls-1 {
        fill: #ff71ab;
        stroke-width: 0px;
      }
    </style>
  </defs>
  <path class="cls-1" d="m38.44,18.97c.32-4.03-3.66-9.72-8.64-9.26-3.17.29-5.99,3-7.01,6.74-1.07-3.91-4.25-6.62-7.78-6.73-3.44-.11-6.14,2.3-7.46,4.65-2.23,3.95-.4,7.53,2.12,10.63,3.62,4.46,7.51,8.65,11.65,12.55.28.27.58.54.95.63.65.15,1.27-.33,1.78-.79,3.07-2.79,5.82-5.98,8.68-9.01,1.89-2.01,3.89-4.02,5.01-6.61.4-.93.63-1.87.7-2.79Z"/>
</svg>