<?xml version="1.0" encoding="UTF-8"?>
<svg id="_레이어_2" data-name="레이어 2" xmlns="http://www.w3.org/2000/svg" viewBox="0 0 45 45">
  <defs>
    <style>
      .cls-1 {
        fill: #ff71ab;
      }

      .cls-1, .cls-2 {
        stroke-width: 0px;
      }

      .cls-2 {
        fill: #ffcce3;
      }
    </style>
  </defs>
  <rect class="cls-1" x="2.35" y="11.02" width="40.3" height="26.92"/>
  <rect class="cls-2" x="2.35" y="13.68" width="40.3" height="21.61"/>
  <rect class="cls-1" x="2.35" y="7.06" width="12.9" height="7.71" rx="1.23" ry="1.23"/>
  <path class="cls-1" d="m30.6,22.15c.16-1.89-1.86-4.56-4.39-4.34-1.61.14-3.05,1.41-3.56,3.16-.54-1.83-2.16-3.11-3.95-3.16-1.75-.05-3.12,1.08-3.79,2.18-1.13,1.85-.2,3.53,1.08,4.99,1.84,2.09,3.82,4.06,5.92,5.89.14.12.3.25.48.29.33.07.64-.15.9-.37,1.56-1.31,2.95-2.8,4.41-4.23.96-.94,1.98-1.88,2.55-3.1.21-.44.32-.88.36-1.31Z"/>
</svg>