<?xml version="1.0" encoding="UTF-8"?>
<svg id="_레이어_2" data-name="레이어 2" xmlns="http://www.w3.org/2000/svg" viewBox="0 0 822.64 756.77">
  <defs>
    <style>
      .cls-1 {
        fill: #ff71ab;
        font-family: AdobeMyungjoStd-Medium-KSCpc-EUC-H, 'Adobe Myungjo Std';
        font-size: 37.11px;
        font-weight: 500;
        stroke: #f40c8c;
        stroke-width: 3px;
      }

      .cls-1, .cls-2 {
        stroke-miterlimit: 10;
      }

      .cls-2 {
        fill: #ffa9cc;
        stroke: #ff71ab;
        stroke-width: 6px;
      }
    </style>
  </defs>
  <g>
    <path class="cls-2" d="m464.36,700.92c-.22-3.77-.68-6.4-1.12-8.86-8.75-48.95-17.62-96.79-26.58-143.47-.47-2.46-.96-4.96-1.5-6.36-.08-.21-.16-.39-.24-.54-.44-.84-.9-.84-1.36-.84-.58,0-1.16,0-1.74,0-3.87.02-7.75.04-11.62.06-2.96.02-5.92.03-8.88.05-2.96-.01-5.92-.03-8.88-.05-3.87-.02-7.75-.04-11.62-.06-.58,0-1.16,0-1.74,0-.46,0-.92,0-1.36.84-.08.16-.16.34-.24.54-.54,1.4-1.02,3.9-1.5,6.36-8.97,46.68-17.83,94.51-26.58,143.47-.44,2.46-.9,5.09-1.12,8.86-.22,3.77-.11,9,.38,10.84.22.83.48.85.73.85,17.31-.01,34.63-.02,51.94-.03,17.31.01,34.63.02,51.94.03.25,0,.51-.02.73-.85.49-1.84.6-7.07.38-10.84Z"/>
    <rect class="cls-2" x="322.94" y="704.78" width="176.77" height="46.96" rx="13.49" ry="13.49"/>
  </g>
  <rect class="cls-2" x="10.72" y="10.34" width="801.19" height="616.98" rx="54.64" ry="54.64"/>
  <text class="cls-1" transform="translate(388.33 613.7) scale(1.17 1)"><tspan x="0" y="0">♥</tspan></text>
</svg>