<?xml version="1.0" encoding="UTF-8"?>
<svg id="_레이어_2" data-name="레이어 2" xmlns="http://www.w3.org/2000/svg" viewBox="0 0 100 100">
  <defs>
    <style>
      .cls-1 {
        fill: #ffec8f;
      }

      .cls-1, .cls-2 {
        stroke-width: 0px;
      }

      .cls-2 {
        fill: #ffc255;
      }

      .cls-3 {
        fill: #ffd68d;
      }

      .cls-3, .cls-4 {
        stroke: #ffbe55;
        stroke-miterlimit: 10;
        stroke-width: 2px;
      }

      .cls-4 {
        fill: #ffefae;
      }
    </style>
  </defs>
  <g>
    <path class="cls-1" d="m13.49,59.82c-2.11,1.36-4.61,2.15-6.44,3.86-1.83,1.72-2.69,4.94-.86,6.66,1.14,1.07,2.88,1.16,4.44,1.06,2.85-.18,5.68-.8,8.35-1.81.57-.21,1.17-.49,1.45-1.03.25-.48.18-1.05.08-1.58-.59-3.14-2-6.13-4.04-8.59l-2.98,1.42Z"/>
    <path class="cls-2" d="m12.99,58.96c-2.5,1.58-5.63,2.48-7.46,4.95-1.5,2.02-2.06,5.25-.05,7.14,2.26,2.13,6.14,1.4,8.87.88,1.7-.32,3.39-.78,4.99-1.41s2.43-1.62,2.2-3.34c-.46-3.48-2.17-6.8-4.37-9.49-.3-.36-.84-.34-1.21-.16-.99.47-1.99.95-2.98,1.42-1.16.55-.15,2.28,1.01,1.73.99-.47,1.99-.95,2.98-1.42l-1.21-.16c1.59,1.94,2.76,4.21,3.43,6.63.16.57.33,1.16.39,1.75.07.66-.19.86-.77,1.11-1.25.53-2.62.9-3.94,1.2-1.4.32-2.81.53-4.24.62-1.05.07-2.21.1-3.17-.38-1.94-.98-1.37-3.51-.32-4.94,1.6-2.19,4.65-3,6.86-4.39,1.09-.68.08-2.42-1.01-1.73Z"/>
  </g>
  <g>
    <path class="cls-1" d="m86.51,59.82c2.11,1.36,4.61,2.15,6.44,3.86s2.69,4.94.86,6.66c-1.14,1.07-2.88,1.16-4.44,1.06-2.85-.18-5.68-.8-8.35-1.81-.57-.21-1.17-.49-1.45-1.03-.25-.48-.18-1.05-.08-1.58.59-3.14,2-6.13,4.04-8.59l2.98,1.42Z"/>
    <path class="cls-2" d="m86,60.68c2.05,1.29,4.55,2.06,6.31,3.77,1.2,1.16,2.25,3.59.92,5.04-.75.82-1.96.94-3.01.93-1.31,0-2.64-.17-3.92-.41-1.41-.26-2.79-.62-4.15-1.08-.46-.16-1.2-.31-1.56-.66-.38-.38-.15-1.04-.05-1.5.61-2.81,1.87-5.45,3.69-7.68l-1.21.16c.99.47,1.99.95,2.98,1.42,1.16.55,2.17-1.17,1.01-1.73-.99-.47-1.99-.95-2.98-1.42-.37-.18-.92-.2-1.21.16-1.99,2.43-3.45,5.26-4.15,8.32-.36,1.57-.47,3.17,1.09,4.1,1.34.8,3.07,1.18,4.57,1.54,1.68.4,3.41.66,5.14.76,1.41.08,2.91,0,4.16-.71,2.54-1.42,2.61-4.63,1.37-6.95-1.64-3.07-5.23-4.05-7.99-5.79-1.09-.69-2.1,1.04-1.01,1.73Z"/>
  </g>
  <g>
    <path class="cls-1" d="m25.37,92.45c-.11,1.96.93,4.13,2.83,4.64,1.26.34,2.6-.1,3.78-.67,2.8-1.35,5.23-3.43,6.99-5.99.43-.63.84-1.37.64-2.11-.29-1.11-1.67-1.44-2.8-1.57-3.04-.36-6.07-.71-9.11-1.07,0,0-2.22,4.8-2.33,6.76Z"/>
    <path class="cls-2" d="m24.37,92.45c-.08,2.1.89,4.42,2.88,5.35,2.44,1.14,5.21-.32,7.25-1.66s3.99-3.19,5.39-5.3c.69-1.04,1.09-2.35.37-3.49-.56-.89-1.65-1.3-2.64-1.48-1.54-.28-3.13-.39-4.68-.57-1.75-.2-3.5-.41-5.24-.61-.31-.04-.73.21-.86.5-.44.95-.84,1.91-1.22,2.89-.55,1.4-1.13,2.87-1.24,4.38-.09,1.28,1.91,1.28,2,0,.09-1.21.7-2.65,1.17-3.85.32-.81.66-1.62,1.02-2.41l-.86.5c2.35.27,4.69.55,7.04.82.96.11,1.97.15,2.91.41.78.22,1.23.59.82,1.41-.85,1.69-2.46,3.21-3.94,4.35s-3.48,2.52-5.38,2.53-2.84-2.06-2.78-3.76c.05-1.29-1.95-1.29-2,0Z"/>
  </g>
  <g>
    <path class="cls-1" d="m73.84,92.45c.11,1.96-.93,4.13-2.83,4.64-1.26.34-2.6-.1-3.78-.67-2.8-1.35-5.23-3.43-6.99-5.99-.43-.63-.84-1.37-.64-2.11.29-1.11,1.67-1.44,2.8-1.57,3.04-.36,6.07-.71,9.11-1.07,0,0,2.22,4.8,2.33,6.76Z"/>
    <path class="cls-2" d="m72.84,92.45c.05,1.42-.52,3.17-2,3.65-1.83.59-4.08-.96-5.51-1.94-1.6-1.11-3.04-2.53-4.16-4.13-.38-.55-1.01-1.4-.22-1.86.73-.44,1.74-.44,2.56-.54,2.67-.31,5.34-.62,8-.94l-.86-.5c.37.79.7,1.6,1.02,2.41.47,1.2,1.08,2.64,1.17,3.85.09,1.28,2.09,1.29,2,0-.11-1.51-.69-2.98-1.24-4.38-.38-.97-.79-1.94-1.22-2.89-.13-.28-.55-.53-.86-.5-2.99.35-5.98.69-8.97,1.05-1.09.13-2.23.31-3.09,1.05-.92.79-1.09,2.02-.64,3.11.48,1.17,1.4,2.23,2.25,3.15s1.79,1.75,2.79,2.49c1.95,1.45,4.66,3.09,7.19,2.57s3.89-3.25,3.8-5.66c-.05-1.28-2.05-1.29-2,0Z"/>
  </g>
  <g>
    <path class="cls-1" d="m81.92,5.29c-1.03-1.35-2.19-2.04-3.41-2.35-1.37-.34-2.65-.08-4.4.54-3.8,1.36-6.46,3.24-6.96,3.6-5.54,3.99-8.32,5.99-10.47,8.04-1.34,1.28-2.46,2.35-3.42,3.36-1.03-.07-2.06-.12-3.08-.12h0s-.07-.01-.11-.01c-.11,0-.21,0-.32,0-.11,0-.21,0-.32,0-.04,0-.07,0-.11,0h0c-1.03,0-2.06.05-3.08.12-.96-1.01-2.08-2.09-3.42-3.36-2.16-2.05-4.93-4.04-10.47-8.04-.5-.36-3.16-2.24-6.96-3.6-1.75-.63-3.03-.88-4.4-.54-1.22.31-2.38,1-3.41,2.35-7.79,10.24-7.14,22.45-7.14,22.45.32,5.53,2.1,10.95,5.05,15.64-1.38,4.39-2.14,8.97-2.47,13.57-.35,4.99-.2,10.07,1.17,14.87,1.37,4.81,4.04,9.35,8.04,12.34,3.79,2.84,8.52,4.14,13.2,4.9,4.73.77,9.52.99,14.32.9,4.79.09,9.59-.13,14.32-.9,4.68-.76,9.41-2.06,13.2-4.9,4-3,6.67-7.54,8.04-12.34,1.37-4.81,1.52-9.89,1.17-14.87-.32-4.59-1.08-9.18-2.47-13.57,2.95-4.69,4.73-10.11,5.05-15.64,0,0,.65-12.21-7.14-22.45Z"/>
    <path class="cls-2" d="m82.63,4.59c-2.31-2.87-5.46-3.24-8.78-2.07-2.55.9-4.99,2.15-7.2,3.7-5.01,3.53-9.84,7.13-14.1,11.56l.71-.29c-1.03-.07-2.05-.11-3.08-.12l1,1h0c0-.57-.46-.97-1-1-.28-.02-.57-.02-.85,0-.54.03-1,.43-1,1h0c.33-.33.67-.66,1-1-1.03,0-2.06.05-3.08.12l.71.29c-3.52-3.66-7.38-6.7-11.49-9.68-1.87-1.35-3.7-2.72-5.75-3.8-2.44-1.28-5.48-2.84-8.31-2.45-3.09.43-4.88,2.97-6.41,5.43s-2.79,5.27-3.69,8.11c-1.19,3.74-1.89,7.75-1.88,11.68.02,5.88,2.13,11.85,5.2,16.8l-.1-.77c-1.53,4.94-2.33,10.08-2.59,15.24s.07,10.24,1.7,15.06c1.36,4.01,3.6,7.8,6.82,10.6,3.45,3.01,7.81,4.64,12.24,5.57,4.97,1.05,10.08,1.42,15.14,1.41s10.39-.05,15.55-.81c4.51-.66,9.11-1.77,13.01-4.21,3.64-2.28,6.45-5.69,8.26-9.57,2.32-4.97,3.06-10.49,2.98-15.94-.09-5.86-.92-11.75-2.66-17.35l-.1.77c3.05-4.92,5.1-10.78,5.2-16.61.07-4.17-.73-8.46-2.05-12.4-1.21-3.62-2.95-7.04-5.25-10.09-.76-1.02-2.5-.02-1.73,1.01,4.34,5.79,6.73,12.96,7,20.18.09,2.47-.25,4.92-.84,7.32s-1.44,4.72-2.56,6.92c-.46.9-1.24,1.83-1.56,2.78s.49,2.47.73,3.4c1.28,5.03,1.87,10.29,1.81,15.48-.05,4.88-.84,9.84-3.06,14.23-2,3.95-5.03,7.17-9.01,9.15-4.31,2.14-9.27,2.94-14.02,3.39-5.14.48-10.4.49-15.56.27s-9.94-.76-14.64-2.28c-4.39-1.42-8.21-3.96-10.84-7.81s-4.03-8.53-4.47-13.21c-.49-5.14-.11-10.43.81-15.5.21-1.17.46-2.34.75-3.49.15-.62.32-1.23.49-1.84.15-.51.47-1.13.34-1.67-.1-.45-.55-.97-.78-1.36-.29-.51-.57-1.02-.83-1.54-.56-1.09-1.05-2.22-1.47-3.37-2.03-5.52-2.37-10.97-1.23-16.68.79-3.98,2.18-7.83,4.26-11.33,1.15-1.94,2.5-4.36,4.86-4.93,2.12-.51,4.58.72,6.43,1.61,3.19,1.53,5.97,3.72,8.81,5.8,2.65,1.95,5.12,3.99,7.47,6.29.55.54,1.25,1.6,2.01,1.84.41.13.96,0,1.37-.03.66-.03,1.32-.05,1.98-.05.54,0,1-.46,1-1h0c-.33.33-.67.66-1,1,.28-.02.57-.02.85,0l-1-1h0c0,.55.46,1,1,1,.97,0,2.13.25,3.08.12.71-.1,1.11-.71,1.59-1.2,1.09-1.09,2.2-2.18,3.36-3.21,1.95-1.72,4.07-3.24,6.18-4.77s4.32-3.21,6.74-4.45c1.63-.83,3.42-1.68,5.24-1.99,2.01-.34,3.61.59,4.85,2.13.81,1,2.21-.42,1.41-1.41Z"/>
  </g>
  <g>
    <path class="cls-3" d="m45.67,80.25c.04-.14.09-.28.15-.42.65-1.72,1.96-3.23,3.68-3.86,2.19-.81,4.65-.12,6.74.91,3.18,1.56,5.94,3.88,8.41,6.43.83.86,1.65,1.75,2.66,2.39,1.5.95,3.36,1.25,5.13,1.03.02,0,.04,0,.05,0,1.16-.15,1.84,1.27.94,2.02-2.41,2.01-5.09,3.73-7.87,5.02-2.15,1-4.45,1.74-6.81,1.95s-4.81-.13-6.92-1.21c-3.46-1.77-5.75-5.4-6.39-9.23-.28-1.66-.27-3.4.23-5.01Z"/>
    <path class="cls-4" d="m62.85,90.42c.39,1.38,1.21,2.56,2.34,3.48.12-.05.25-.1.37-.16,2.77-1.28,5.46-3,7.87-5.01.9-.75.22-2.18-.94-2.02-.02,0-.04,0-.05,0-1.76.21-3.62-.09-5.13-1.03-.99-.62-1.79-1.48-2.6-2.32-1.76,2.13-2.53,4.67-1.87,7.06Z"/>
  </g>
</svg>