<?xml version="1.0" encoding="UTF-8"?>
<svg id="_레이어_2" data-name="레이어 2" xmlns="http://www.w3.org/2000/svg" xmlns:xlink="http://www.w3.org/1999/xlink" viewBox="0 0 130 130">
  <defs>
    <style>
      .cls-1 {
        fill: #ffcae0;
      }

      .cls-1, .cls-2, .cls-3, .cls-4, .cls-5 {
        stroke-width: 0px;
      }

      .cls-2 {
        fill: none;
      }

      .cls-6 {
        clip-path: url(#clippath);
      }

      .cls-3 {
        fill: #ff90bc;
      }

      .cls-4, .cls-7 {
        fill: #e86792;
      }

      .cls-5 {
        fill: #ffe9fa;
      }

      .cls-7 {
        stroke: #ff90bc;
        stroke-miterlimit: 10;
      }
    </style>
    <clipPath id="clippath">
      <path class="cls-2" d="m78.73,91.68l-30.97,11.16s-6.05.71-5.28,6.33,8.55,3.08,8.55,3.08l29.07-17.89-1.37-2.68Z"/>
    </clipPath>
  </defs>
  <g>
    <path class="cls-3" d="m48.9,92.34c-.7-.34-1.43-.69-2.21-.66s-1.6.55-1.67,1.33c-1.52-.6-3.42.03-4.28,1.42-.14.23-.26.48-.47.64-.25.2-.57.25-.87.35-1.05.34-1.87,1.31-2.02,2.41s.38,2.25,1.3,2.86c.21.14.46.26.58.49.12.2.11.45.15.68.13.79.8,1.4,1.55,1.68s1.57.28,2.36.25c.62-.02,1.26-.07,1.83-.34s1.04-.79,1.08-1.41c2.22-.14,4.19-2.08,4.35-4.3.01-.16.02-.35.15-.46.08-.07.19-.1.29-.13.73-.27.98-1.25.72-1.98s-.87-1.28-1.46-1.79"/>
    <path class="cls-4" d="m49.41,91.48c-1.04-.5-2.19-1.01-3.37-.71-.96.25-1.8.97-1.98,1.97l1.23-.7c-1.63-.58-3.54-.14-4.77,1.07-.3.29-.51.64-.75.98-.26.36-.77.39-1.17.57-.8.38-1.48,1.06-1.86,1.86-.83,1.75-.23,3.85,1.34,4.96.15.11.24.13.31.26.09.17.07.46.13.65.15.44.4.85.73,1.19.67.69,1.57,1.03,2.5,1.15,1.92.25,5.11.03,5.44-2.43l-.96.73c2.48-.22,4.75-2.03,5.25-4.53.03-.14.05-.29.07-.43.03-.22.16-.45-.11-.15-.36.4.1.1.25,0,.12-.07.24-.16.34-.25.46-.42.72-1,.78-1.62.15-1.44-.82-2.52-1.83-3.4s-2.39.57-1.41,1.41c.45.39,1.62,1.25,1.22,1.99-.16.29-.61.34-.84.61-.31.36-.31.76-.37,1.2-.25,1.63-1.69,3.02-3.34,3.16-.39.03-.9.28-.96.73-.13.94-1.17.99-1.94,1.02s-1.72.08-2.4-.39c-.74-.52-.47-1.45-1.08-2.08-.56-.58-1.22-.76-1.43-1.63-.18-.72.06-1.45.62-1.94.66-.57,1.57-.51,2.15-1.21.49-.59.75-1.18,1.49-1.52.67-.3,1.38-.29,2.07-.05.47.17,1.14-.19,1.23-.7.2-1.13,1.82-.35,2.41-.07,1.15.56,2.17-1.17,1.01-1.73h0Z"/>
  </g>
  <g>
    <path class="cls-3" d="m79.3,92.34c.7-.34,1.43-.69,2.21-.66s1.6.55,1.67,1.33c1.52-.6,3.42.03,4.28,1.42.14.23.26.48.47.64.25.2.57.25.87.35,1.05.34,1.87,1.31,2.02,2.41s-.38,2.25-1.3,2.86c-.21.14-.46.26-.58.49-.12.2-.11.45-.15.68-.13.79-.8,1.4-1.55,1.68s-1.57.28-2.36.25c-.62-.02-1.26-.07-1.83-.34s-1.04-.79-1.08-1.41c-2.22-.14-4.19-2.08-4.35-4.3-.01-.16-.02-.35-.15-.46-.08-.07-.19-.1-.29-.13-.73-.27-.98-1.25-.72-1.98s.87-1.28,1.46-1.79"/>
    <path class="cls-4" d="m79.8,93.2c.59-.28,2.21-1.07,2.41.07.09.51.76.87,1.23.7.69-.25,1.39-.25,2.07.05s.97.84,1.41,1.41c.6.78,1.53.72,2.23,1.31.56.48.8,1.22.62,1.94-.21.86-.87,1.06-1.43,1.63-.6.6-.33,1.52-1.02,2.04s-1.65.46-2.46.43-1.81-.08-1.94-1.02c-.06-.46-.57-.7-.96-.73-1.65-.14-3.09-1.54-3.34-3.16-.06-.39-.06-.76-.3-1.1s-.73-.39-.91-.71c-.42-.72.79-1.62,1.22-1.99.97-.85-.45-2.26-1.41-1.41s-1.94,1.9-1.84,3.3c.04.61.28,1.22.73,1.65.08.08.71.58.81.49l-.3-.37.02.2c-.03.16.05.41.08.56.49,2.5,2.77,4.32,5.25,4.53l-.96-.73c.3,2.18,2.82,2.53,4.59,2.5.96-.02,1.96-.18,2.77-.73.37-.25.68-.55.93-.91.3-.42.32-.85.49-1.31.09-.24.04-.14.24-.3.17-.14.36-.26.53-.41.34-.31.63-.7.83-1.1.43-.86.57-1.84.33-2.78-.22-.89-.78-1.67-1.51-2.21-.35-.26-.73-.45-1.14-.59-.17-.06-.4-.07-.53-.19-.15-.13-.26-.42-.38-.58-1.17-1.61-3.36-2.31-5.25-1.64l1.23.7c-.17-1-1.02-1.73-1.98-1.97-1.18-.3-2.33.21-3.37.71-1.16.56-.15,2.28,1.01,1.73h0Z"/>
  </g>
  <g>
    <path class="cls-3" d="m54.81,113.94c-1.26,1.35-1.57,3.5-.75,5.16.1.19.21.38.38.51.17.13.37.19.57.25,1.47.41,3,.59,4.53.54.19,0,.37-.02.55-.08.16-.06.29-.17.41-.29.62-.64.71-1.6.75-2.49.02-.51.03-1.04-.14-1.52-.12-.34-.33-.64-.57-.92-1.38-1.59-3.88-2.07-5.76-1.11"/>
    <path class="cls-4" d="m54.1,113.24c-1.26,1.39-1.76,3.32-1.35,5.15.22.99.7,1.97,1.7,2.34s2.06.5,3.08.6c.54.05,1.07.08,1.61.08s1.14-.02,1.63-.32c.85-.52,1.25-1.55,1.38-2.5.15-1.05.23-2.2-.22-3.19-.38-.84-1.11-1.53-1.88-2.01-1.73-1.08-3.95-1.16-5.77-.26-.48.24-.62.92-.36,1.37.29.49.88.6,1.37.36-.03.01.28-.13.16-.08s.19-.07.16-.06c.13-.04.26-.08.39-.11.08-.02.16-.04.25-.05.04,0,.26-.04.08-.02.17-.02.34-.03.51-.03.35,0,.53.01.75.06.15.03.3.06.45.11.08.02.16.05.24.08.03.01.29.11.14.05.28.12.55.27.8.44.17.11.38.3.6.54.46.51.48,1.04.45,1.77-.03.63-.06,1.26-.41,1.73.07-.1-.06.07-.09.09l-.04.04c.07-.05.06-.04-.04.02.19-.02-.05-.01-.13-.01-.45.02-.9,0-1.35-.02-.81-.05-1.61-.17-2.4-.36-.17-.04-.35-.09-.52-.13.03,0-.3-.08-.18-.05.1.03-.15-.1-.03-.01.01,0,.12.2-.04-.05-.04-.06-.07-.13-.1-.19-.1-.2-.08-.15-.15-.39-.38-1.23-.11-2.62.74-3.55.36-.4.39-1.02,0-1.41-.37-.37-1.05-.4-1.41,0h0Z"/>
  </g>
  <g>
    <path class="cls-3" d="m72.05,113.94c1.26,1.35,1.57,3.5.75,5.16-.1.19-.21.38-.38.51-.17.13-.37.19-.57.25-1.47.41-3,.59-4.53.54-.19,0-.37-.02-.55-.08-.16-.06-.29-.17-.41-.29-.62-.64-.71-1.6-.75-2.49-.02-.51-.03-1.04.14-1.52.12-.34.33-.64.57-.92,1.38-1.59,3.88-2.07,5.76-1.11"/>
    <path class="cls-4" d="m71.34,114.65c.37.41.63.9.78,1.46.04.15.07.3.1.46.03.19-.01-.23.01.1,0,.07.01.14.01.21.02.36,0,.66-.05.88-.03.14-.06.27-.1.4-.02.08-.05.17-.08.25-.06.18.1-.2-.04.1-.06.12-.11.27-.21.37.04-.04.09-.07.01-.04-.06.03-.06.03,0,0-.05.02-.1.03-.15.05-.75.22-1.52.37-2.3.45-.4.04-.81.07-1.21.08-.22,0-.45,0-.67,0-.07,0-.5-.01-.27,0l-.09-.05c.06.04.06.04,0,0-.02-.02-.16-.19-.09-.09-.04-.06-.08-.12-.11-.18-.08-.13-.06-.11-.04-.06-.08-.16-.12-.35-.16-.53-.02-.07-.03-.15-.04-.22-.06-.33,0,.15-.02-.18-.03-.36-.05-.72-.05-1.07s.05-.64.22-.93c.31-.52.71-.82,1.22-1.1s1.18-.46,1.73-.48c.19,0,.37,0,.56,0,.07,0,.13.01.2.02-.18-.02.13.03.13.03.17.03.33.08.49.13.08.03.16.05.24.08.06.03.06.02,0,0,.06.03.12.06.18.09.48.24,1.08.13,1.37-.36.26-.44.13-1.13-.36-1.37-1.66-.83-3.56-.8-5.23-.03-.81.38-1.52.97-2.05,1.68-.66.88-.74,1.91-.68,2.98s.25,2.09.96,2.89c.76.85,1.9.79,2.95.74s2.15-.21,3.19-.47c.5-.12,1.01-.26,1.4-.61s.62-.85.8-1.34c.73-1.95.21-4.23-1.17-5.75-.36-.4-1.04-.37-1.41,0-.4.4-.36,1.01,0,1.41h0Z"/>
  </g>
  <g>
    <path class="cls-1" d="m50.26,93.81c.8-1.7,2.25-2.98,3.89-3.42,1.64-.44,3.44-.03,4.81,1.09.83-1.45,2.41-2.06,3.9-2.36,1.05-.21,2.13-.33,3.18-.09,1.65.37,3.12,1.65,3.88,3.37,1.3-1.07,2.93-1.85,4.48-1.41,1.88.54,3.14,3.04,2.6,5.18l.16.11c.92.43,1.14.83,1.17,1.11.05.54-.53.94-.34,1.48.08.23.26.35.38.45.62.5.72,1.41.86,2.74.15,1.46.04,2.66-.05,3.33-.27,1.98-.87,3.48-1.4,3.65-.06.02-.33.08-.47.31-.07.12-.1.27-.12.41-.36,1.96-1.66,3.6-3.25,4.44-1.59.83-3.43.91-5.14.49-.21-.05-.43-.11-.64-.07-.22.04-.42.19-.61.32-2.85,1.94-6.72,1.67-9.34-.66-.2-.18-.41-.38-.66-.44-.21-.05-.43,0-.65.05-2.4.49-4.98-.46-6.68-2.46-.77-.91-1.38-2.14-1.21-3.39.03-.21.08-.42.03-.62-.06-.24-.24-.4-.39-.57-.75-.86-.88-2.18-.93-3.4-.03-.69-.04-1.4.13-2.06.17-.67.55-1.3,1.1-1.56-.67-1.59-.35-3.66.76-4.89l.57-1.11Z"/>
    <path class="cls-3" d="m51.12,94.32c1.46-2.91,4.61-4.04,7.33-1.97.44.34,1.11.05,1.37-.36,1.01-1.59,3.3-2.14,5.08-2.08,1.95.06,3.34,1.31,4.15,3,.31.64,1.11.56,1.57.2,1.16-.92,2.91-1.82,4.26-.74,1.03.83,1.42,2.28,1.15,3.54-.1.47.07.86.46,1.13.18.13.52.21.65.39.2.27.07.21-.07.59-.29.76,0,1.35.48,1.93,1.04,1.26.85,3.65.65,5.21-.12.91-.33,1.8-.68,2.65-.22.54-.71.42-1.1,1.05-.44.73-.44,1.69-.89,2.45-.48.81-1.16,1.49-1.98,1.95-.91.51-1.94.71-2.97.68-.87-.02-1.84-.47-2.71-.28-.8.18-1.46.85-2.22,1.15-.86.33-1.78.46-2.7.42s-1.78-.28-2.58-.67c-.85-.42-1.48-1.22-2.34-1.57-.74-.3-1.48.01-2.24.04-1.05.04-2.1-.24-3.02-.75-.97-.54-1.87-1.36-2.4-2.35s-.08-2.03-.49-3.01c-.18-.43-.56-.72-.77-1.14-.27-.53-.34-1.19-.38-1.77-.08-1.01-.3-2.7.71-3.31.35-.22.61-.71.46-1.13-.77-2.09.32-3.47,1.22-5.23.59-1.14-1.14-2.16-1.73-1.01-.43.84-1.03,1.61-1.38,2.49-.54,1.37-.56,2.9-.04,4.28l.46-1.13c-1.98,1.21-1.89,3.83-1.61,5.86.08.57.19,1.11.43,1.65.17.39.52.71.68,1.09.19.46.03,1.07.1,1.58.1.63.32,1.24.62,1.8,1.09,1.99,3.22,3.49,5.43,3.93.5.1,1.02.16,1.54.16.46,0,1.09-.23,1.54-.16s.91.61,1.27.86c.52.36,1.08.65,1.67.89,1.99.8,4.26.84,6.26.06.48-.19.92-.44,1.37-.66.76-.38,1.04-.26,1.85-.15,1.22.16,2.49.1,3.66-.29,2.01-.67,3.64-2.17,4.46-4.12.11-.26.3-1.38.33-1.42.11-.16.59-.33.75-.5.62-.67.91-1.7,1.11-2.56.3-1.28.44-2.63.39-3.95-.04-1.12-.08-2.52-.6-3.54-.26-.53-.61-.66-.56-1.2.04-.43.25-.8.13-1.26-.24-.9-1.08-1.21-1.76-1.69l.46,1.13c.44-2.14-.24-4.54-2.09-5.82-2.21-1.53-4.78-.4-6.66,1.08l1.57.2c-1.11-2.32-3.26-3.93-5.88-3.99s-5.39.84-6.81,3.07l1.37-.36c-3.54-2.69-8.15-1.12-10.07,2.69-.58,1.15,1.15,2.16,1.73,1.01Z"/>
  </g>
  <path class="cls-7" d="m78.73,91.68l-30.97,11.16s-6.05.71-5.28,6.33,8.55,3.08,8.55,3.08l29.07-17.89-1.37-2.68Z"/>
  <g class="cls-6">
    <circle class="cls-5" cx="47" cy="111.31" r="2.44"/>
    <circle class="cls-5" cx="50.31" cy="104.4" r="2.44"/>
    <circle class="cls-5" cx="54.77" cy="108.56" r="2.44"/>
    <circle class="cls-5" cx="58.08" cy="101.65" r="2.44"/>
    <circle class="cls-5" cx="63.37" cy="103.96" r="2.44"/>
    <circle class="cls-5" cx="66.68" cy="97.05" r="2.44"/>
  </g>
  <g>
    <g>
      <path class="cls-3" d="m11.97,19.82c-.45.12-2.47.73-3.46,2.65-1.11,2.17-.44,5.13,1.79,7.09-2.1,2.03-2.57,5.54-1.07,8.05,1.49,2.51,4.8,3.78,7.59,2.9,1.16,2.65,3.73,4.64,6.59,5.11,2.86.46,5.92-.62,7.86-2.77.54-.59,1.01-1.28,1.71-1.67.8-.44,1.76-.43,2.66-.58,4.96-.82,7.64-7.15,5.78-11.82-.24-.61-.55-1.22-.56-1.88,0-.78.41-1.5.65-2.25.72-2.19-.14-4.69-1.71-6.38-1.57-1.69-3.76-2.69-5.98-3.33-.29-2.72-2.8-4.87-5.51-5.28-2.71-.4-5.48.69-7.6,2.41-1.97-1.27-4.72-1.21-6.63.14-1.92,1.36-2.88,3.93-2.34,6.21.08.46.15.92.23,1.39Z"/>
      <path class="cls-4" d="m11.71,18.86c-2.08.59-3.9,2.1-4.5,4.23-.74,2.64.45,5.38,2.39,7.18v-1.41c-2.35,2.42-2.99,6.31-1.23,9.27s5.47,4.28,8.72,3.36l-1.13-.46c1.64,3.53,5.4,5.95,9.33,5.69,2.03-.13,3.99-.86,5.58-2.13.83-.66,1.39-1.53,2.18-2.22.87-.75,2.09-.62,3.15-.85,3.31-.72,5.66-3.68,6.46-6.85.41-1.62.46-3.34.08-4.97-.21-.91-.87-1.86-.89-2.79-.02-1.05.73-2.11.86-3.18.61-5.21-4.27-8.44-8.62-9.74l.7.7c-.41-2.86-2.79-5.14-5.54-5.84-3.32-.85-6.65.5-9.25,2.53l1.21-.16c-2.58-1.54-5.96-1.38-8.26.63-1.05.92-1.81,2.19-2.15,3.54-.4,1.61-.07,3.1.19,4.7.21,1.27,2.14.73,1.93-.53-.36-2.22-.59-4.33,1.18-6.06,1.64-1.59,4.18-1.69,6.09-.55.42.25.86.12,1.21-.16,2.01-1.58,4.73-2.67,7.3-2.02,2.15.55,3.83,2.23,4.14,4.44.05.34.4.61.7.7,3.43,1.03,7.89,3.58,7.14,7.87-.15.86-.62,1.61-.77,2.47s.07,1.63.38,2.43c.54,1.37.81,2.71.66,4.19-.27,2.76-1.95,5.68-4.71,6.56-1.56.5-3.14.25-4.47,1.39-1.44,1.24-2.32,2.65-4.19,3.37-3.94,1.52-8.17-.42-9.91-4.18-.18-.39-.73-.57-1.13-.46-2.4.67-5.16-.26-6.46-2.44s-.82-5.06.92-6.84c.37-.38.4-1.04,0-1.41-2.7-2.5-2.77-6.93,1.23-8.07,1.24-.35.71-2.28-.53-1.93Z"/>
    </g>
    <g>
      <path class="cls-3" d="m118.03,19.82c.45.12,2.47.73,3.46,2.65,1.11,2.17.44,5.13-1.79,7.09,2.1,2.03,2.57,5.54,1.07,8.05-1.49,2.51-4.8,3.78-7.59,2.9-1.16,2.65-3.73,4.64-6.59,5.11-2.86.46-5.92-.62-7.86-2.77-.54-.59-1.01-1.28-1.71-1.67-.8-.44-1.76-.43-2.66-.58-4.96-.82-7.64-7.15-5.78-11.82.24-.61.55-1.22.56-1.88,0-.78-.41-1.5-.65-2.25-.72-2.19.14-4.69,1.71-6.38,1.57-1.69,3.76-2.69,5.98-3.33.29-2.72,2.8-4.87,5.51-5.28,2.71-.4,5.48.69,7.6,2.41,1.97-1.27,4.72-1.21,6.63.14,1.92,1.36,2.88,3.93,2.34,6.21-.08.46-.15.92-.23,1.39Z"/>
      <path class="cls-4" d="m117.76,20.79c4,1.14,3.93,5.57,1.23,8.07-.4.37-.37,1.04,0,1.41,1.73,1.78,2.22,4.66.92,6.84s-4.06,3.12-6.46,2.44c-.39-.11-.95.07-1.13.46-1.52,3.28-5.03,5.33-8.64,4.55-1.81-.39-3.29-1.34-4.5-2.72-.55-.62-1.07-1.23-1.82-1.6s-1.62-.44-2.46-.56c-2.99-.43-4.99-2.85-5.66-5.69-.33-1.38-.32-2.84.08-4.21.22-.75.62-1.45.77-2.22.17-.85-.04-1.63-.33-2.43-1.81-4.86,2.56-7.97,6.71-9.21.3-.09.65-.36.7-.7.32-2.21,1.99-3.9,4.14-4.44,2.57-.65,5.29.44,7.3,2.02.35.28.8.4,1.21.16,1.91-1.14,4.45-1.04,6.09.55,1.77,1.72,1.54,3.84,1.18,6.06-.21,1.26,1.72,1.8,1.93.53.26-1.59.6-3.1.19-4.7-.34-1.35-1.1-2.62-2.15-3.54-2.29-2.01-5.68-2.17-8.26-.63l1.21.16c-2.59-2.02-5.93-3.4-9.25-2.53-2.75.72-5.13,2.97-5.54,5.84l.7-.7c-3.97,1.19-8.03,3.67-8.61,8.15-.12.93-.06,1.88.22,2.79.16.5.42.97.54,1.48.18.77-.18,1.41-.45,2.12-.58,1.53-.74,3.19-.53,4.82.42,3.26,2.33,6.46,5.45,7.77.72.3,1.45.45,2.22.56.58.08,1.23.1,1.76.38.63.34,1.04,1,1.51,1.51,1.35,1.47,3.17,2.51,5.12,2.93,4.44.96,9-1.36,10.9-5.47l-1.13.46c3.25.91,6.97-.41,8.72-3.36s1.13-6.85-1.23-9.27v1.41c1.94-1.8,3.13-4.53,2.39-7.18-.6-2.14-2.41-3.64-4.5-4.23-1.24-.35-1.77,1.58-.53,1.93Z"/>
    </g>
    <g>
      <path class="cls-1" d="m116.46,51.82s.02.07.03.1c.35,1.03,1.05,1.9,1.66,2.8,1.36,2.03,2.29,4.41,2.1,6.81-.2,2.4-1.71,4.79-4.07,5.61,1.85,3.78-1.13,8.92-5.45,9.37.33,5.79-5.01,10.74-10.84,12.21-1.62.41-3.31.62-4.87,1.21-1.42.53-2.69,1.35-4.02,2.06-5.09,2.69-11.14,3.66-16.85,2.7-.92-.15-1.83-.36-2.76-.33-.96.03-1.88.31-2.82.53-5.07,1.2-10.59.58-15.24-1.7-1.17-.57-2.34-1.26-3.65-1.33-.96-.05-1.9.25-2.83.5-5.72,1.51-12.65.7-16.34-3.77-.6-.73-1.15-1.58-2.05-1.95-.48-.2-1.01-.23-1.53-.3-3.73-.45-7.21-2.56-9.26-5.6s-2.62-6.96-1.53-10.42c-3.85-.46-5.76-4.77-6.22-8.48-.54-4.35.2-9.4,3.93-11.91-1.31-3.06-.6-6.69,1.27-9.47,1.87-2.77,4.78-4.78,7.87-6.23,1.11-.52,2.28-.99,3.21-1.78,1.14-.96,1.84-2.31,2.71-3.5,3.92-5.33,12.13-7.2,18.12-4.14,4.34-6.08,14.12-7.7,20.32-3.37.6.42,1.22.9,1.96.92.7.02,1.33-.38,1.94-.71,3.52-1.92,8.14-1.79,11.55.31,1.41.87,2.64,2.06,4.22,2.63,1.18.42,2.45.47,3.7.63,4.55.59,8.85,2.87,11.79,6.27.72.83,1.37,1.73,2.26,2.38,2.34,1.69,5.72,1.51,7.65,3.77,2.42,2.84,3.66,6.93,3.74,10.56.03,1.21-.07,2.45.3,3.61Z"/>
      <path class="cls-3" d="m115.49,52.08c.38,1.17,1.12,2.13,1.8,3.14.86,1.3,1.56,2.72,1.85,4.26.5,2.65-.57,5.67-3.23,6.7-.64.25-.88.84-.6,1.47,1.48,3.26-1.13,7.41-4.59,7.86-.52.07-1.02.4-1,1,.12,3.37-1.69,6.29-4.26,8.35-1.32,1.06-2.86,1.91-4.46,2.48-1.83.64-3.77.83-5.61,1.41s-3.54,1.69-5.29,2.58c-1.86.94-3.83,1.63-5.86,2.09s-3.98.65-5.99.63-3.95-.47-5.95-.65c-2.15-.2-4.2.7-6.31.95-2,.24-4.04.2-6.02-.11s-3.94-.88-5.76-1.73-3.36-1.82-5.36-1.62c-1.7.17-3.31.82-5.01,1.02s-3.33.2-4.96-.04c-3.42-.51-6.04-2.06-8.23-4.7-.53-.64-1.14-1.21-1.93-1.5-.91-.34-1.93-.32-2.87-.53-2.02-.47-3.94-1.43-5.48-2.82-3.29-2.96-4.52-7.51-3.27-11.74.14-.47-.17-1.15-.7-1.23-3.81-.57-5.26-4.85-5.56-8.21-.33-3.7.24-8.05,3.51-10.35.33-.23.63-.7.46-1.13-1.65-4.13.26-8.38,3.4-11.2,1.56-1.4,3.39-2.47,5.28-3.36s3.41-1.66,4.67-3.31c1.15-1.51,2.04-3.08,3.53-4.32,1.35-1.12,2.95-1.94,4.61-2.46,3.35-1.04,7.05-.9,10.22.66.52.26,1.03.1,1.37-.36,2.95-4.01,8.31-5.81,13.15-5.2,1.19.15,2.38.46,3.49.92,1.18.49,2.13,1.29,3.24,1.89,1.28.68,2.39.43,3.62-.2,1.45-.73,2.87-1.28,4.51-1.39,1.41-.1,2.82.05,4.17.48,1.63.51,2.89,1.49,4.28,2.45,1.17.81,2.4,1.41,3.82,1.65,1.54.26,3.08.33,4.6.73,2.85.74,5.53,2.17,7.69,4.18,1.08,1,1.9,2.23,2.97,3.23s2.24,1.52,3.55,1.98,2.75.75,3.9,1.57c1.34.95,2.23,2.65,2.86,4.12.68,1.57,1.13,3.27,1.31,4.97.2,1.8-.04,3.63.43,5.4.33,1.24,2.26.72,1.93-.53-.45-1.7-.19-3.51-.41-5.25-.2-1.6-.57-3.18-1.16-4.68-1.04-2.65-2.57-5.26-5.27-6.44-1.21-.53-2.5-.82-3.72-1.31-1.74-.7-2.69-2.02-3.9-3.36-2.03-2.24-4.61-3.95-7.42-5.06-1.34-.53-2.73-.91-4.16-1.13-1.87-.29-3.67-.3-5.33-1.32-1.28-.79-2.4-1.79-3.76-2.44-1.46-.69-3.02-1.09-4.63-1.21-1.38-.1-2.8.03-4.14.37-.71.18-1.4.44-2.07.74-1.06.49-1.82,1.22-2.98.56-1.05-.6-1.97-1.3-3.1-1.77-1.28-.54-2.61-.89-3.99-1.07-5.72-.75-11.75,1.45-15.2,6.15l1.37-.36c-5.44-2.69-12.26-1.91-17,1.89-1.16.93-2.11,2.04-2.95,3.27-1.18,1.73-2.24,2.92-4.17,3.83-3.27,1.53-6.38,3.35-8.62,6.26-2.38,3.09-3.4,7.28-1.92,10.99l.46-1.13c-3.97,2.8-4.95,7.84-4.46,12.43.44,4.08,2.39,9.1,7,9.79l-.7-1.23c-2.28,7.72,2.86,15.69,10.72,17.13.93.17,1.98.1,2.74.74.67.57,1.13,1.38,1.75,2.01,1.17,1.2,2.6,2.12,4.14,2.78,3.24,1.38,6.86,1.59,10.32,1.08,1.98-.3,4.08-1.37,6.05-.65s3.76,1.82,5.81,2.41c4.13,1.19,8.44,1.18,12.61.19,1.26-.3,2.38-.46,3.66-.25,1.11.18,2.21.37,3.34.47,2.12.18,4.24.09,6.34-.22s4.26-.88,6.27-1.69,3.68-1.92,5.57-2.81c2.29-1.08,4.87-1.17,7.23-2.04,1.82-.66,3.52-1.6,5.03-2.82,3.01-2.41,5.13-5.94,4.98-9.88l-1,1c5.03-.66,8.47-6.13,6.32-10.87l-.6,1.47c2.85-1.1,4.64-3.76,4.81-6.79.1-1.74-.36-3.47-1.08-5.04s-2.19-3.02-2.76-4.73c-.4-1.22-2.33-.7-1.93.53Z"/>
    </g>
  </g>
  <g>
    <path class="cls-3" d="m57.9,106.43c-.12.03-.64.19-.89.68-.29.56-.11,1.32.46,1.83-.54.52-.66,1.43-.28,2.08.39.65,1.24.97,1.96.75.3.68.96,1.2,1.7,1.32.74.12,1.53-.16,2.03-.71.14-.15.26-.33.44-.43.21-.11.45-.11.69-.15,1.28-.21,1.97-1.84,1.49-3.05-.06-.16-.14-.32-.14-.49,0-.2.11-.39.17-.58.18-.57-.03-1.21-.44-1.65-.41-.44-.97-.69-1.54-.86-.08-.7-.72-1.26-1.42-1.36-.7-.1-1.41.18-1.96.62-.51-.33-1.22-.31-1.71.04-.49.35-.74,1.01-.6,1.6.02.12.04.24.06.36Z"/>
    <path class="cls-4" d="m57.63,105.47c-1.93.56-2.26,2.87-.87,4.18v-1.41c-.83.88-1.05,2.22-.43,3.29s1.93,1.52,3.09,1.21l-1.13-.46c.71,1.49,2.52,2.22,4.06,1.62.42-.16.81-.4,1.14-.72.11-.1.21-.31.34-.38-.02,0-.01.01.02.02.09-.02.19-.03.28-.04.71-.11,1.33-.49,1.77-1.05s.69-1.25.74-1.97c.02-.35-.01-.72-.11-1.06-.04-.13-.17-.32-.17-.46,0,.04.07-.16.09-.22.64-1.88-1.04-3.32-2.65-3.81l.7.7c-.15-.96-.96-1.73-1.88-2-1.02-.3-2.15.03-2.98.67h1.01c-.96-.55-2.19-.48-3.02.27-.35.31-.61.75-.74,1.2-.16.56-.06,1.09.04,1.66.09.53.75.83,1.23.7.57-.16.79-.7.7-1.23-.05-.31-.15-.58.09-.82.19-.2.47-.18.7-.05.28.16.74.21,1.01,0,.36-.28.83-.58,1.31-.5.37.07.55.3.6.64s.39.61.7.7c.44.13.95.32,1.19.73.28.47-.11.88-.11,1.39,0,.47.3.97.3,1.33,0,.29-.11.68-.32.93-.09.11-.14.16-.3.24.11-.05-.14.05-.17.06-.13.03-.26.04-.39.06-.36.06-.67.2-.95.44-.19.17-.33.4-.54.56-.73.56-1.6.15-1.96-.6-.19-.4-.73-.57-1.13-.46-.68.18-1.24-.59-.71-1.15.36-.38.4-1.03,0-1.41-.24-.23-.34-.43-.29-.64,0,0,.06-.09.08-.11.05-.05.2-.12.05-.05.05-.02.1-.04.15-.05,1.23-.36.71-2.29-.53-1.93Z"/>
  </g>
</svg>