<?xml version="1.0" encoding="UTF-8"?>
<svg id="_레이어_2" data-name="레이어 2" xmlns="http://www.w3.org/2000/svg" viewBox="0 0 100 100">
  <defs>
    <style>
      .cls-1 {
        fill: #ff90bc;
      }

      .cls-1, .cls-2 {
        stroke-width: 0px;
      }

      .cls-2 {
        fill: #e86792;
      }
    </style>
  </defs>
  <g>
    <path class="cls-1" d="m13.49,56.23c-2.11,1.36-4.61,2.15-6.44,3.86s-2.69,4.94-.86,6.66c1.14,1.07,2.88,1.16,4.44,1.06,2.85-.18,5.68-.8,8.35-1.81.57-.21,1.17-.49,1.45-1.03.25-.48.18-1.05.08-1.58-.59-3.14-2-6.13-4.04-8.59l-2.98,1.42Z"/>
    <path class="cls-2" d="m12.99,55.36c-2.5,1.58-5.63,2.48-7.46,4.95-1.5,2.02-2.06,5.25-.05,7.14,2.26,2.13,6.14,1.4,8.87.88,1.7-.32,3.39-.78,4.99-1.41s2.43-1.62,2.2-3.34c-.46-3.48-2.17-6.8-4.37-9.49-.3-.36-.84-.34-1.21-.16-.99.47-1.99.95-2.98,1.42-1.16.55-.15,2.28,1.01,1.73.99-.47,1.99-.95,2.98-1.42l-1.21-.16c1.59,1.94,2.76,4.21,3.43,6.63.16.57.33,1.16.39,1.75.07.66-.19.86-.77,1.11-1.25.53-2.62.9-3.94,1.2-1.4.32-2.81.53-4.24.62-1.05.07-2.21.1-3.17-.38-1.94-.98-1.37-3.51-.32-4.94,1.6-2.19,4.65-3,6.86-4.39,1.09-.68.08-2.42-1.01-1.73Z"/>
  </g>
  <g>
    <path class="cls-1" d="m86.51,56.23c2.11,1.36,4.61,2.15,6.44,3.86,1.83,1.72,2.69,4.94.86,6.66-1.14,1.07-2.88,1.16-4.44,1.06-2.85-.18-5.68-.8-8.35-1.81-.57-.21-1.17-.49-1.45-1.03-.25-.48-.18-1.05-.08-1.58.59-3.14,2-6.13,4.04-8.59l2.98,1.42Z"/>
    <path class="cls-2" d="m86,57.09c2.05,1.29,4.55,2.06,6.31,3.77,1.2,1.16,2.25,3.59.92,5.04-.75.82-1.96.94-3.01.93-1.31,0-2.64-.17-3.92-.41-1.41-.26-2.79-.62-4.15-1.08-.46-.16-1.2-.31-1.56-.66-.38-.38-.15-1.04-.05-1.5.61-2.81,1.87-5.45,3.69-7.68l-1.21.16c.99.47,1.99.95,2.98,1.42,1.16.55,2.17-1.17,1.01-1.73-.99-.47-1.99-.95-2.98-1.42-.37-.18-.92-.2-1.21.16-1.99,2.43-3.45,5.26-4.15,8.32-.36,1.57-.47,3.17,1.09,4.1,1.34.8,3.07,1.18,4.57,1.54,1.68.4,3.41.66,5.14.76,1.41.08,2.91,0,4.16-.71,2.54-1.42,2.61-4.63,1.37-6.95-1.64-3.07-5.23-4.05-7.99-5.79-1.09-.69-2.1,1.04-1.01,1.73Z"/>
  </g>
  <g>
    <path class="cls-1" d="m25.37,88.85c-.11,1.96.93,4.13,2.83,4.64,1.26.34,2.6-.1,3.78-.67,2.8-1.35,5.23-3.43,6.99-5.99.43-.63.84-1.37.64-2.11-.29-1.11-1.67-1.44-2.8-1.57-3.04-.36-6.07-.71-9.11-1.07,0,0-2.22,4.8-2.33,6.76Z"/>
    <path class="cls-2" d="m24.37,88.85c-.08,2.1.89,4.42,2.88,5.35,2.44,1.14,5.21-.32,7.25-1.66s3.99-3.19,5.39-5.3c.69-1.04,1.09-2.35.37-3.49-.56-.89-1.65-1.3-2.64-1.48-1.54-.28-3.13-.39-4.68-.57-1.75-.2-3.5-.41-5.24-.61-.31-.04-.73.21-.86.5-.44.95-.84,1.91-1.22,2.89-.55,1.4-1.13,2.87-1.24,4.38-.09,1.28,1.91,1.28,2,0,.09-1.21.7-2.65,1.17-3.85.32-.81.66-1.62,1.02-2.41l-.86.5c2.35.27,4.69.55,7.04.82.96.11,1.97.15,2.91.41.78.22,1.23.59.82,1.41-.85,1.69-2.46,3.21-3.94,4.35s-3.48,2.52-5.38,2.53-2.84-2.06-2.78-3.76c.05-1.29-1.95-1.29-2,0Z"/>
  </g>
  <g>
    <path class="cls-1" d="m73.84,88.85c.11,1.96-.93,4.13-2.83,4.64-1.26.34-2.6-.1-3.78-.67-2.8-1.35-5.23-3.43-6.99-5.99-.43-.63-.84-1.37-.64-2.11.29-1.11,1.67-1.44,2.8-1.57,3.04-.36,6.07-.71,9.11-1.07,0,0,2.22,4.8,2.33,6.76Z"/>
    <path class="cls-2" d="m72.84,88.85c.05,1.42-.52,3.17-2,3.65-1.83.59-4.08-.96-5.51-1.94-1.6-1.11-3.04-2.53-4.16-4.13-.38-.55-1.01-1.4-.22-1.86.73-.44,1.74-.44,2.56-.54,2.67-.31,5.34-.62,8-.94l-.86-.5c.37.79.7,1.6,1.02,2.41.47,1.2,1.08,2.64,1.17,3.85.09,1.28,2.09,1.29,2,0-.11-1.51-.69-2.98-1.24-4.38-.38-.97-.79-1.94-1.22-2.89-.13-.28-.55-.53-.86-.5-2.99.35-5.98.69-8.97,1.05-1.09.13-2.23.31-3.09,1.05-.92.79-1.09,2.02-.64,3.11.48,1.17,1.4,2.23,2.25,3.15s1.79,1.75,2.79,2.49c1.95,1.45,4.66,3.09,7.19,2.57s3.89-3.25,3.8-5.66c-.05-1.28-2.05-1.29-2,0Z"/>
  </g>
  <g>
    <path class="cls-1" d="m86.24,20.59c1.49-1.42,2.49-3.58,1.91-5.56-.58-1.98-3.2-3.27-4.86-2.05.52-1.08.08-2.43-.77-3.28-1-1.01-2.1-1.41-3.15-1.65-1.78-.41-3.34-.12-4.34.18-.44-.26-1.1-.65-1.94-1.08-.67-.34-1.28-.67-1.44-.7-2.91-.49-6.04,1.42-6.94,4.23-1.53-1.17-3.91-.13-4.83,1.56-.67,1.23-.78,2.65-.73,4.07-2.67-.34-5.44.14-7.77,1.57-.68-.39-4.19-2.29-8.48-1.07-.65.19-1.23.43-1.77.7.13-1.8.19-3.68-.66-5.26-.92-1.69-3.3-2.73-4.83-1.56-.9-2.81-4.02-4.72-6.94-4.23-.16.03-.77.35-1.44.7-.84.43-1.5.82-1.94,1.08-1-.3-2.56-.59-4.34-.18-1.05.24-2.15.65-3.15,1.65-.85.85-1.29,2.2-.77,3.28-1.66-1.22-4.28.07-4.86,2.05-.58,1.98.42,4.13,1.91,5.56-2.06-.18-3.49,2.44-2.81,4.39.67,1.95,2.67,3.14,4.65,3.73-1.79.11-2.88,2.4-2.21,4.06.48,1.21,1.6,2.02,2.86,2.41-2.12,2.98-2.75,7.2-1.13,10.54.11.23.24.47.25.73.01.39-.23.73-.44,1.05-2.62,3.84-2.99,9.22-.91,13.41.28.57.62,1.15.64,1.79.01.51-.17.99-.32,1.48-1.19,3.96.43,8.66,3.78,10.91-.02.52-.05,3.23,2.04,5.39,2.65,2.74,6.35,2.17,6.67,2.11,2.91,4.95,9.44,7.17,14.59,4.97.36-.16.72-.33,1.11-.38.72-.08,1.41.29,2.07.62,3.98,1.95,8.69,2.2,12.84.68.75-.27,1.49-.6,2.28-.63.64-.02,1.26.15,1.89.29,6.29,1.34,13.23-2.13,16.16-8.08.19-.38.37-.78.65-1.1.67-.74,1.53-.95,1.72-1,1.71-.51,5.48-5.02,6.02-10.71.33-3.52-.69-6.35-1.4-7.89.18-.17,2.2-2.09,1.8-4.9-.32-2.28-1.99-3.51-2.3-3.73.38-.82,2.22-4.95.52-9.84-.87-2.5-2.34-4.27-3.7-5.47.28.02.55.03.83.02,1.8-.06,3.68-1,4.35-2.67.67-1.67-.41-3.95-2.21-4.06,1.98-.6,3.97-1.78,4.65-3.73.67-1.95-.76-4.57-2.81-4.39Z"/>
    <path class="cls-2" d="m86.94,21.3c1.86-1.88,3.24-4.95,1.75-7.47-1.18-2-3.88-3.01-5.92-1.71l1.47,1.13c.86-2.23-.68-4.41-2.61-5.43-2.1-1.12-4.62-1.19-6.88-.54l.77.1c-1.08-.65-2.26-1.44-3.47-1.83-1.04-.34-2.33-.17-3.36.14-2.34.69-4.15,2.46-4.96,4.75l1.47-.6c-1.57-1.05-3.57-.66-4.99.49-1.79,1.46-2.12,3.82-2.08,6l1-1c-2.89-.32-5.75.23-8.27,1.71h1.01c-3.49-1.96-7.66-2.09-11.26-.38l1.5.86c.17-2.36.16-5.08-1.64-6.86-1.4-1.39-3.64-1.96-5.35-.82l1.47.6c-.81-2.29-2.62-4.04-4.96-4.75-1.02-.31-2.32-.47-3.36-.14-1.2.38-2.39,1.18-3.47,1.83l.77-.1c-2.25-.64-4.77-.57-6.88.54-1.93,1.03-3.47,3.21-2.61,5.43l1.47-1.13c-2.03-1.3-4.75-.3-5.92,1.71-1.47,2.53-.12,5.58,1.75,7.47l.71-1.71c-2.5-.06-4.19,2.43-3.95,4.79.28,2.84,3.06,4.51,5.52,5.3l.27-1.96c-1.98.26-3.36,1.88-3.41,3.89-.05,2.29,1.79,3.86,3.79,4.54l-.6-1.47c-2.08,3.04-2.85,7.1-1.53,10.61.16.43.51.91.42,1.38-.08.4-.62.95-.82,1.32-.42.75-.76,1.56-1.03,2.37-.62,1.87-.86,3.91-.69,5.87s.69,3.64,1.51,5.35c.56,1.17.21,1.83-.05,3.01-.18.83-.27,1.7-.24,2.55.09,3.5,1.8,6.79,4.66,8.81l-.5-.86c-.13,5.4,4.76,9.33,9.98,8.47l-1.13-.46c2.71,4.45,8,6.97,13.16,6.15.66-.1,1.31-.26,1.93-.48.66-.23,1.32-.68,2.06-.53.81.17,1.62.74,2.39,1.05.86.34,1.75.6,2.65.79,3.18.66,6.48.46,9.54-.63.65-.23,1.31-.56,2.02-.6.88-.05,1.79.31,2.65.43,1.34.19,2.67.18,4,0,2.7-.37,5.29-1.44,7.47-3.07,1.07-.8,2.04-1.7,2.89-2.73.35-.43.69-.89,1-1.35.48-.73.77-1.63,1.29-2.32.6-.79,1.54-.84,2.32-1.34.83-.54,1.51-1.29,2.12-2.05,3.98-5.01,4.78-11.75,2.15-17.56l-.16,1.21c3.07-2.88,2.66-7.76-.7-10.2l.36,1.37c2.62-5.64,1.28-12.35-3.34-16.52l-.71,1.71c2.52.14,5.5-.99,6.24-3.66.64-2.34-.89-4.73-3.27-5.05l.27,1.96c2.46-.79,5.24-2.46,5.52-5.3.24-2.36-1.45-4.85-3.95-4.79-1.28.03-1.29,2.03,0,2,1.53-.03,2.3,1.82,1.85,3.12-.57,1.65-2.4,2.54-3.95,3.04-1.14.37-.81,1.82.27,1.96,1.42.19,1.68,2.16,1.04,3.15-.85,1.32-2.56,1.64-4.01,1.56-.85-.05-1.34,1.14-.71,1.71,3.91,3.53,5.27,9.25,3.03,14.09-.25.53-.11,1.02.36,1.37,2.36,1.72,2.36,5.12.3,7.06-.35.33-.34.81-.16,1.21,2.21,4.88,1.5,10.53-1.62,14.85-.51.71-1.13,1.46-1.85,1.97-.58.41-1.3.52-1.91.91-1.15.74-1.54,1.96-2.22,3.07s-1.49,2.09-2.43,2.96c-1.86,1.72-4.17,2.93-6.64,3.49-1.22.27-2.47.37-3.71.29-1.4-.09-2.77-.66-4.18-.51s-2.66.86-3.99,1.18c-1.57.37-3.19.47-4.8.35-1.46-.11-2.92-.46-4.29-.98s-2.65-1.51-4.17-1.17c-1.33.3-2.48.97-3.87,1.1s-2.71,0-4.02-.37c-2.71-.76-5.03-2.5-6.5-4.9-.25-.41-.68-.53-1.13-.46-.04,0,.09,0-.14.02-.2.02-.4.03-.6.03-.7.01-1.39-.06-2.07-.23-1.94-.51-3.52-1.9-4.22-3.79-.22-.59-.36-1.23-.41-1.86-.04-.51.06-1-.31-1.41-.52-.59-1.27-.99-1.79-1.62-.63-.76-1.14-1.66-1.48-2.59-.64-1.71-.8-3.61-.34-5.39.21-.83.52-1.59.4-2.46-.13-.99-.74-1.83-1.09-2.75-1.53-3.92-.85-8.04,1.28-11.57.56-.93.69-1.59.28-2.61-.45-1.11-.79-2.15-.85-3.36-.1-2.29.61-4.48,1.9-6.35.39-.57-.03-1.27-.6-1.47-1.05-.36-2.18-1.11-2.32-2.32-.1-.87.45-2.07,1.4-2.19,1.07-.14,1.42-1.6.27-1.96-1.54-.49-3.39-1.38-3.95-3.04-.44-1.3.31-3.16,1.85-3.12.88.02,1.31-1.1.71-1.71-1.17-1.18-2.28-3.04-1.58-4.75.52-1.27,2.11-2.07,3.33-1.29.69.44,1.79-.31,1.47-1.13-.89-2.3,2.09-3.61,3.9-3.82.97-.12,1.89.02,2.84.22.74.16,1.07-.04,1.72-.41.73-.42,1.53-.97,2.33-1.23.7-.23,1.59-.08,2.29.13,1.64.5,2.99,1.73,3.56,3.35.2.57.9.98,1.47.6,1.19-.79,2.68-.06,3.38,1.06.89,1.42.72,3.3.61,4.89-.06.82.88,1.16,1.5.86,2.76-1.31,5.99-1.24,8.73.11.32.16.65.41,1.02.41.68,0,1.55-.73,2.18-.97,1.8-.68,3.68-.81,5.58-.6.53.06,1.01-.51,1-1-.03-1.4,0-3.05,1.01-4.14.79-.86,2.02-1.3,3.05-.62.57.38,1.27-.03,1.47-.6.57-1.62,1.92-2.85,3.56-3.35,1.83-.56,3.05.2,4.62,1.1.65.37.99.57,1.72.41.95-.21,1.87-.34,2.84-.22,1.82.22,4.79,1.52,3.9,3.82-.32.82.77,1.58,1.47,1.13,1.22-.78,2.81.02,3.33,1.29.7,1.71-.42,3.57-1.58,4.75-.91.91.51,2.33,1.41,1.41Z"/>
  </g>
  <g>
    <path class="cls-1" d="m37.41,70.07c-.22.06-1.22.36-1.7,1.3-.55,1.07-.22,2.52.88,3.48-1.03,1-1.26,2.72-.53,3.96.73,1.23,2.36,1.86,3.73,1.43.57,1.3,1.83,2.28,3.24,2.51,1.41.23,2.91-.3,3.86-1.36.26-.29.5-.63.84-.82.39-.22.86-.21,1.31-.28,2.44-.4,3.75-3.51,2.84-5.81-.12-.3-.27-.6-.27-.93,0-.39.2-.74.32-1.1.35-1.08-.07-2.3-.84-3.13-.77-.83-1.85-1.32-2.94-1.64-.14-1.34-1.38-2.4-2.71-2.59-1.33-.2-2.69.34-3.74,1.19-.97-.63-2.32-.6-3.26.07-.94.67-1.42,1.93-1.15,3.05.04.23.07.45.11.68Z"/>
    <path class="cls-2" d="m37.15,69.1c-3.03.88-3.41,4.42-1.26,6.46v-1.41c-1.3,1.37-1.66,3.51-.68,5.17s3.04,2.37,4.86,1.89l-1.13-.46c1.19,2.5,4.14,3.69,6.72,2.67.66-.26,1.26-.64,1.77-1.13.23-.22.41-.54.66-.73.29-.22.61-.22.96-.28,1.17-.18,2.16-.75,2.9-1.68s1.14-2.04,1.22-3.2c.04-.59-.02-1.21-.17-1.78-.08-.29-.27-.58-.32-.87-.06-.35.06-.57.18-.91,1.06-3.1-1.81-5.34-4.42-6.14l.7.7c-.24-1.54-1.48-2.75-2.94-3.19-1.73-.52-3.59.12-4.97,1.18h1.01c-1.47-.85-3.36-.77-4.67.38-1.4,1.23-1.37,2.87-1.1,4.55.21,1.27,2.14.73,1.93-.53-.14-.88-.28-1.73.41-2.44.65-.67,1.65-.68,2.42-.23.28.16.74.21,1.01,0,.9-.7,2.02-1.27,3.2-1.04.95.19,1.63.91,1.78,1.85.05.34.39.61.7.7,1.07.32,2.21.81,2.81,1.81.26.44.42.97.33,1.48-.1.56-.43,1.03-.42,1.62,0,.88.57,1.63.56,2.53,0,.82-.28,1.68-.81,2.32-.58.71-1.26.86-2.13,1-1.19.19-1.57.97-2.43,1.66-1.77,1.45-4.22.64-5.15-1.32-.19-.4-.73-.57-1.13-.46-2.22.6-3.83-2.03-2.23-3.71.36-.38.4-1.03,0-1.41-1.03-.97-1.22-2.65.38-3.12,1.23-.36.71-2.29-.53-1.93Z"/>
  </g>
</svg>