<?xml version="1.0" encoding="UTF-8"?>
<svg id="_레이어_2" data-name="레이어 2" xmlns="http://www.w3.org/2000/svg" xmlns:xlink="http://www.w3.org/1999/xlink" viewBox="0 0 130 130">
  <defs>
    <style>
      .cls-1, .cls-2, .cls-3, .cls-4 {
        stroke-width: 0px;
      }

      .cls-1, .cls-5 {
        fill: #ffefae;
      }

      .cls-2 {
        fill: #f6e6ff;
      }

      .cls-3 {
        fill: none;
      }

      .cls-4 {
        fill: #ffc05c;
      }

      .cls-5, .cls-6, .cls-7 {
        stroke-miterlimit: 10;
      }

      .cls-5, .cls-7 {
        stroke: #ffbe55;
      }

      .cls-8 {
        clip-path: url(#clippath);
      }

      .cls-6 {
        fill: #e6b0ff;
        stroke: #dc98ea;
      }

      .cls-7 {
        fill: #ffd68d;
      }
    </style>
    <clipPath id="clippath">
      <path class="cls-3" d="m79.91,97.32l-30.97,11.16s-6.05.71-5.28,6.33,8.55,3.08,8.55,3.08l29.07-17.89-1.37-2.68Z"/>
    </clipPath>
  </defs>
  <g>
    <path class="cls-1" d="m46.97,100.14c-1.15.38-2.26.87-3.32,1.46-1.05.59-2.11,1.37-2.46,2.52-.4,1.33.33,2.83,1.5,3.59s2.66.86,4.03.59,2.63-.88,3.89-1.48c1.39-.66,2.88-1.41,3.59-2.77.52-1,.51-2.2.19-3.26s-.81-1.62-1.97-1.6c-1.85.04-3.68.37-5.44.95Z"/>
    <path class="cls-4" d="m46.7,99.18c-1.4.47-2.8,1.07-4.05,1.86-1.11.7-2.16,1.67-2.47,3s.14,2.65.99,3.66,2.22,1.57,3.56,1.71c1.45.15,2.9-.22,4.24-.75s2.62-1.1,3.8-1.83c1.12-.69,2.1-1.62,2.56-2.89s.32-2.86-.24-4.11-1.79-1.67-3.13-1.61c-1.78.08-3.55.42-5.24.97-1.22.4-.7,2.33.53,1.93,1.12-.36,2.27-.65,3.45-.79.57-.07,1.15-.12,1.73-.12.26,0,.5,0,.69.18.54.5.57,1.77.47,2.42-.15.9-.75,1.6-1.49,2.09-.84.57-1.79.99-2.71,1.42-1.02.48-2.11.94-3.24,1.09-1.64.21-3.92-.4-4.04-2.39-.06-1.06.85-1.79,1.66-2.3,1.09-.68,2.28-1.2,3.49-1.61s.69-2.34-.53-1.93Z"/>
  </g>
  <g>
    <path class="cls-1" d="m56.38,118.33c-1.26,1.35-1.57,3.5-.75,5.16.1.19.21.38.38.51.17.13.37.19.57.25,1.47.41,3,.59,4.53.54.19,0,.37-.02.55-.08.16-.06.29-.17.41-.29.62-.64.71-1.6.75-2.49.02-.51.03-1.04-.14-1.52-.12-.34-.33-.64-.57-.92-1.38-1.59-3.88-2.07-5.76-1.11"/>
    <path class="cls-4" d="m54.96,116.92c-1.51,1.66-2.1,3.93-1.61,6.12.11.5.32,1,.55,1.46.39.77,1.04,1.29,1.85,1.58,1.05.38,2.24.53,3.34.64,1.2.12,2.68.26,3.75-.38s1.67-1.89,1.84-3.09c.19-1.34.26-2.7-.32-3.96-.46-.99-1.33-1.8-2.24-2.37-2.04-1.28-4.64-1.32-6.78-.26-.94.47-1.28,1.87-.72,2.74.62.96,1.73,1.22,2.74.72.47-.23-.34.1-.01,0,.1-.03.19-.07.29-.1.23-.07.46-.11.69-.15l-.53.07c.44-.05.88-.05,1.32,0l-.53-.07c.37.05.73.14,1.08.27.31.11-.37-.17-.15-.07.08.04.15.07.23.11.17.08.33.18.48.28.03.02.2.15.21.15-.04.02-.42-.34-.13-.09.14.12.27.26.39.4.24.26-.18-.28-.05-.07.05.09.1.17.16.26.07.15.07.14,0-.02-.07-.17-.07-.17-.01,0,.02.12.06.25.08.37l-.07-.53c.07.6.03,1.21-.04,1.81l.07-.53c-.03.19-.05.37-.1.55-.02.09-.05.18-.08.27-.07.22-.17.16.06-.12-.04.05-.07.13-.11.19-.17.31.23-.23.08-.1-.25.21.04,0,.14-.08-.27.2.46-.13.09-.05l.53-.07c-.94.12-1.95.02-2.89-.11l.53.07c-.4-.06-.8-.13-1.19-.21-.22-.05-.44-.1-.65-.16-.08-.02-.15-.04-.23-.06-.32-.08.33.19.14.07-.09-.05-.06-.03.07.07.09.05.16.12.21.21.21.28,0,0-.02-.06-.03-.06-.06-.13-.09-.19-.15-.3.13.37.06.14-.1-.32-.19-.63-.23-.96l.07.53c-.05-.42-.05-.83,0-1.25l-.07.53c.03-.21.07-.41.12-.61.03-.1.06-.2.09-.3.02-.07.05-.13.07-.2-.13.3-.16.38-.1.24.09-.19.19-.37.3-.55.04-.07.28-.38.05-.1s.06-.06.11-.12c.7-.77.82-2.07,0-2.83-.77-.7-2.08-.83-2.83,0h0Z"/>
  </g>
  <g>
    <path class="cls-1" d="m83.71,100.14c1.15.38,2.26.87,3.32,1.46,1.05.59,2.11,1.37,2.46,2.52.4,1.33-.33,2.83-1.5,3.59s-2.66.86-4.03.59-2.63-.88-3.89-1.48c-1.39-.66-2.88-1.41-3.59-2.77-.52-1-.51-2.2-.19-3.26s.81-1.62,1.97-1.6c1.85.04,3.68.37,5.44.95Z"/>
    <path class="cls-4" d="m83.44,101.11c1.1.37,2.16.83,3.16,1.41.73.42,1.58.95,1.89,1.78.72,1.92-1.58,3.13-3.14,3.14-2.12.02-4.31-1.14-6.11-2.16-.75-.42-1.51-.94-1.89-1.74-.41-.85-.35-1.95.02-2.81s1.42-.54,2.17-.47c1.33.12,2.64.43,3.91.84s1.75-1.53.53-1.93c-1.48-.48-3-.79-4.55-.92-1.21-.1-2.54-.17-3.39.86s-1.07,2.51-.92,3.74c.16,1.39.89,2.54,1.98,3.39s2.31,1.38,3.53,1.94c1.38.63,2.81,1.17,4.33,1.25,2.67.14,5.54-1.5,5.64-4.42.12-3.34-4.05-4.96-6.63-5.83-1.22-.41-1.75,1.52-.53,1.93Z"/>
  </g>
  <g>
    <path class="cls-1" d="m73.62,118.33c1.26,1.35,1.57,3.5.75,5.16-.1.19-.21.38-.38.51-.17.13-.37.19-.57.25-1.47.41-3,.59-4.53.54-.19,0-.37-.02-.55-.08-.16-.06-.29-.17-.41-.29-.62-.64-.71-1.6-.75-2.49-.02-.51-.03-1.04.14-1.52.12-.34.33-.64.57-.92,1.38-1.59,3.88-2.07,5.76-1.11"/>
    <path class="cls-4" d="m72.21,119.75c.07.08.13.17.2.24-.39-.37-.17-.22-.07-.07.12.19.22.39.33.59.09.19-.19-.5-.05-.09.03.1.07.2.09.3.06.22.1.44.14.66l-.07-.53c.05.42.05.83,0,1.25l.07-.53c-.04.31-.12.61-.22.91-.11.36.16-.34.07-.14-.04.08-.07.16-.12.24-.01.02-.09.18-.11.18l.18-.24c.26-.18.33-.23.19-.16-.19.11.41-.12.19-.08-.09.02-.19.06-.28.08-.2.05-.39.1-.59.14-.42.09-.84.17-1.26.23l.53-.07c-.94.13-1.94.23-2.89.11l.53.07c-.37-.08.3.17.13.08-.21-.11.37.32.13.09s.18.31.08.11c-.02-.03-.15-.21-.13-.23,0,0,.17.47.07.18-.03-.09-.06-.17-.08-.26-.05-.2-.09-.4-.11-.61l.07.53c-.07-.6-.11-1.21-.04-1.81l-.07.53c.02-.13.05-.25.08-.37.08-.35-.16.27-.04.08.05-.08.1-.17.15-.26.2-.35-.3.32-.02.02.12-.12.23-.25.36-.36s.37-.23-.09.05c.07-.04.14-.1.21-.15.14-.09.29-.18.44-.26.07-.04.15-.07.23-.11.34-.17-.47.16-.1.05s.71-.21,1.08-.27l-.53.07c.44-.05.88-.05,1.32,0l-.53-.07c.23.03.47.08.69.15.1.03.19.06.29.1.32.11-.48-.23-.01,0,.94.46,2.21.28,2.74-.72.48-.9.28-2.24-.72-2.74-2.01-1-4.22-.96-6.24-.03-.97.45-1.78,1.19-2.41,2.04-.75,1.02-.89,2.25-.81,3.48.08,1.32.34,2.59,1.25,3.6.56.62,1.28.93,2.11,1.01.51.05,1.03.04,1.55.02,1.16-.06,2.33-.22,3.46-.5.67-.17,1.33-.39,1.85-.86s.82-1.12,1.06-1.78c.85-2.29.18-4.95-1.43-6.72-.71-.78-2.12-.77-2.83,0-.76.83-.75,2,0,2.83h0Z"/>
  </g>
  <g>
    <path class="cls-1" d="m81.01,107.76c-.03-.17-.06-.34-.09-.51-1.08-5.56-3.19-13.13-10.11-14.7-2.14-.49-4.39-.49-6.6-.44-3,.06-6.21.25-8.61,1.87-1.84,1.24-2.95,3.15-3.83,5.06-1.39,3.02-2.35,6.21-2.83,9.45-.28,1.89-.4,3.87.37,5.65,1.12,2.6,3.97,4.33,6.95,5.09,2.98.75,6.13.68,9.23.65,2.67-.02,5.38,0,7.97-.58s5.11-1.84,6.51-3.9c1.52-2.24,1.5-5.03,1.04-7.64Z"/>
    <path class="cls-4" d="m81.98,107.49c-.89-5.01-2.45-10.68-6.67-13.92-2.75-2.11-6.19-2.48-9.55-2.48s-7.37-.02-10.41,1.87-4.64,5.61-5.8,8.92c-.65,1.84-1.14,3.74-1.47,5.66s-.55,3.82-.11,5.71c.78,3.37,3.8,5.55,6.92,6.61,3.76,1.28,7.88,1.04,11.78,1.01s7.67-.2,11-2.1c1.45-.83,2.74-2,3.54-3.47.84-1.56,1.13-3.34,1.07-5.09-.03-.91-.15-1.81-.3-2.71-.09-.53-.75-.83-1.23-.7-.56.16-.79.7-.7,1.23.51,3.03.27,6.27-2.32,8.3s-6.02,2.41-9.17,2.5c-1.82.06-3.64.06-5.46.05s-3.79-.06-5.65-.43c-2.71-.53-5.68-1.79-7.05-4.36-.77-1.45-.76-3.16-.58-4.75.19-1.72.58-3.43,1.06-5.09.5-1.74,1.14-3.45,1.92-5.09.65-1.37,1.43-2.7,2.55-3.73,2.3-2.12,5.7-2.27,8.66-2.34,3.11-.07,6.53-.17,9.28,1.5,4.47,2.7,5.91,8.64,6.76,13.42.09.53.74.83,1.23.7.56-.15.79-.7.7-1.23Z"/>
  </g>
  <path class="cls-6" d="m79.91,97.32l-30.97,11.16s-6.05.71-5.28,6.33,8.55,3.08,8.55,3.08l29.07-17.89-1.37-2.68Z"/>
  <g>
    <path class="cls-1" d="m122.14,83.27c-1.99-.31-3.9-1.02-5.57-2.09,1.03.65,4.91-2.34,5.34-3.05-4.86-3.42-7.93-7.35-10.24-12.34.88-.65,1.68-1.41,2.37-2.24,2.35-2.81,3.63-6.38,4.36-9.97,2.03-9.92.17-20.31-3.42-29.78-2.29-6.04-5.32-11.89-9.68-16.66-.65-.71-1.37-1.43-2.28-1.75-1.17-.41-2.46-.12-3.65.23-12.31,3.59-23.28,13.19-28.12,25.14-.3.75-.55,1.52-.75,2.3-3.59-.3-7.21-.31-10.8,0-.21-.78-.45-1.56-.75-2.3-4.84-11.95-15.81-21.55-28.12-25.14-1.19-.35-2.48-.64-3.65-.23-.91.32-1.63,1.03-2.28,1.75-4.36,4.77-7.4,10.62-9.68,16.66-3.59,9.47-5.45,19.86-3.42,29.78.73,3.59,2.01,7.15,4.36,9.97.68.82,1.47,1.56,2.33,2.21-2.25,5.02-5.38,9.81-10.43,12.39,1.48,1.46,3.41,2.52,5.49,3.02-1.63,1.15-3.63,1.83-5.67,1.92,1.58,1.62,3.88,2.62,6.23,2.7-.69.48-1.37.96-2.06,1.45,7.4,5.71,16.52,9.25,25.91,11.18,9.38,1.93,19.05,2.31,28.66,2.22,9.09-.08,18.23-.57,27.08-2.52,8.85-1.95,17.43-5.42,24.32-10.94l-1.99-1.39c2.28-.1,4.51-1.02,6.12-2.53Z"/>
    <path class="cls-4" d="m122.54,81.83c-1.88-.32-3.59-.94-5.21-1.93l-1.51,2.59c1.44.69,2.94-.09,4.18-.87,1.15-.72,2.43-1.59,3.22-2.72.49-.71.08-1.61-.54-2.05-4.29-3.06-7.47-7.04-9.71-11.8l-.54,2.05c6.47-4.96,8.22-13.72,8.31-21.47.1-8.45-2.03-16.86-5.26-24.62-1.54-3.7-3.36-7.3-5.66-10.59-2.06-2.95-4.71-7.13-8.82-6.66-3.38.38-6.88,2.04-9.87,3.58-3.15,1.62-6.1,3.63-8.81,5.92-5.89,4.98-11.22,11.88-13.26,19.42l1.45-1.1c-3.6-.29-7.2-.29-10.8,0l1.45,1.1c-1.82-6.71-6.29-12.9-11.28-17.64s-11.23-8.55-17.93-10.63c-1.72-.54-3.59-1.03-5.34-.37s-3.12,2.39-4.31,3.85c-2.47,3.07-4.51,6.44-6.19,10-3.56,7.53-6,15.75-6.54,24.08s.67,19.31,7.86,24.87l-.23-1.82c-2.18,4.81-5.1,9.34-9.89,11.86-.85.45-.98,1.71-.3,2.36,1.74,1.66,3.83,2.81,6.15,3.4l-.36-2.74c-1.49,1.01-3.12,1.6-4.92,1.72-1.25.08-2.03,1.61-1.06,2.56,1.98,1.94,4.53,2.98,7.29,3.14l-.76-2.8c-.69.48-1.37.96-2.06,1.45-.99.7-.92,1.88,0,2.59,11.67,8.93,26.51,12.27,40.91,13.24,7.81.53,15.7.51,23.51.11s15.23-1.3,22.57-3.36,14.67-5.42,20.8-10.28c.82-.65.4-1.86-.3-2.36l-1.99-1.39-.76,2.8c2.71-.18,5.15-1.16,7.18-2.97,1.44-1.29-.69-3.41-2.12-2.12s-3.17,1.97-5.06,2.09c-1.52.1-1.99,1.93-.76,2.8l1.99,1.39-.3-2.36c-11.07,8.78-25.55,11.77-39.34,12.65-7.49.48-15.05.53-22.54.17-7.35-.35-14.7-1.24-21.81-3.19s-14.39-5.16-20.46-9.81v2.59c.69-.48,1.37-.96,2.06-1.45,1.22-.86.78-2.71-.76-2.8-1.97-.11-3.76-.88-5.17-2.26l-1.06,2.56c2.31-.15,4.5-.82,6.43-2.13,1.02-.69.96-2.4-.36-2.74-1.84-.47-3.45-1.32-4.83-2.63l-.3,2.36c5.22-2.74,8.58-7.68,10.96-12.93.25-.55.32-1.39-.23-1.82-5.84-4.51-7.11-12.83-7.09-19.77.02-7.68,1.97-15.25,4.83-22.34,1.35-3.34,2.98-6.59,4.96-9.6.95-1.45,1.99-2.84,3.13-4.15.54-.62,1.1-1.37,1.82-1.79.9-.54,1.87-.35,2.83-.1,6.06,1.59,11.78,4.91,16.45,9.03,5.19,4.57,9.93,10.7,11.77,17.47.16.59.8,1.15,1.45,1.1,3.6-.29,7.2-.29,10.8,0,.65.05,1.28-.5,1.45-1.1,1.64-6.05,5.66-11.6,10.1-15.92s9.98-7.87,15.95-9.91c1.34-.46,3.25-1.35,4.66-.78,1.53.62,2.87,2.76,3.83,4.03,2.07,2.76,3.77,5.78,5.22,8.9,3.18,6.85,5.41,14.39,5.93,21.94.29,4.25.06,8.55-.94,12.7-.92,3.8-2.58,7.63-5.77,10.07-.69.53-.92,1.24-.54,2.05,2.46,5.24,6.07,9.52,10.78,12.88l-.54-2.05c.23-.33-.03.03-.11.09-.15.11-.3.28-.44.4-.36.31-.74.59-1.13.85-.44.3-.9.6-1.38.82-.09.04-.3.09-.38.16-.26.22-.47-.11.15.18-1.72-.82-3.18,1.56-1.51,2.59,1.82,1.12,3.82,1.88,5.93,2.24,1.89.32,2.7-2.57.8-2.89Z"/>
  </g>
  <g class="cls-8">
    <circle class="cls-2" cx="48.18" cy="116.96" r="2.44"/>
    <circle class="cls-2" cx="51.48" cy="110.05" r="2.44"/>
    <circle class="cls-2" cx="55.95" cy="114.21" r="2.44"/>
    <circle class="cls-2" cx="59.25" cy="107.3" r="2.44"/>
    <circle class="cls-2" cx="64.55" cy="109.6" r="2.44"/>
    <circle class="cls-2" cx="67.86" cy="102.69" r="2.44"/>
  </g>
  <g>
    <path class="cls-7" d="m65.32,118.4c.03-.08.05-.17.07-.26.26-1.07.12-2.26-.52-3.15-.81-1.13-2.26-1.62-3.64-1.82-2.1-.3-4.24-.08-6.32.34-.7.14-1.4.31-2.12.28-1.06-.04-2.08-.52-2.88-1.21,0,0-.02-.01-.02-.02-.52-.47-1.34,0-1.15.68.51,1.8,1.26,3.56,2.2,5.13.73,1.22,1.61,2.36,2.71,3.26s2.42,1.55,3.83,1.73c2.3.29,4.66-.74,6.27-2.41.7-.73,1.28-1.59,1.57-2.55Z"/>
    <path class="cls-5" d="m53.41,117.64c-.66.55-1.46.85-2.33.93-.04-.07-.09-.13-.13-.2-.94-1.57-1.69-3.32-2.2-5.13-.19-.68.62-1.15,1.15-.68,0,0,.02.01.02.02.8.7,1.82,1.18,2.88,1.21.69.03,1.38-.13,2.06-.27.15,1.65-.32,3.16-1.46,4.12Z"/>
  </g>
</svg>