<?xml version="1.0" encoding="UTF-8"?>
<svg id="_레이어_2" data-name="레이어 2" xmlns="http://www.w3.org/2000/svg" viewBox="0 0 1570 410">
  <defs>
    <style>
      .cls-1 {
        fill: #ffdcf2;
        stroke: #ff97c6;
        stroke-linecap: round;
        stroke-linejoin: round;
        stroke-width: 8px;
      }
    </style>
  </defs>
  <path class="cls-1" d="m1532.22,302.14c18.34,0,33.21-14.87,33.21-33.21s-14.87-33.21-33.21-33.21c-2.78,0-5.46.38-8.04,1.03v-5.16c2.22.63,4.93,1.03,8.04,1.03,18.34,0,33.21-14.87,33.21-33.21s-14.87-33.21-33.21-33.21c-2.78,0-5.46.38-8.04,1.03v-3.86c21.19-8.33,35.14-28,35.14-49.08,0-28.67-23.24-51.91-51.91-51.91-21.35,0-39.64,12.91-47.61,31.34h-4.4c-.98-17.46-15.4-31.34-33.11-31.34s-32.14,13.87-33.11,31.34h-.19c-.98-17.46-15.4-31.34-33.11-31.34s-32.14,13.87-33.11,31.34h-.19c-.98-17.46-15.4-31.34-33.11-31.34s-32.14,13.87-33.11,31.34h-.19c-.98-17.46-15.4-31.34-33.11-31.34s-32.14,13.87-33.11,31.34h-.19c-.98-17.46-15.4-31.34-33.11-31.34s-32.14,13.87-33.11,31.34h-.19c-.98-17.46-15.4-31.34-33.11-31.34s-32.14,13.87-33.11,31.34h-.19c-.98-17.46-15.4-31.34-33.11-31.34s-32.14,13.87-33.11,31.34h-.19c-.98-17.46-15.4-31.34-33.11-31.34s-32.14,13.87-33.11,31.34h-.19c-.98-17.46-15.4-31.34-33.11-31.34s-32.14,13.87-33.11,31.34h-.19c-.98-17.46-15.4-31.34-33.11-31.34s-32.14,13.87-33.11,31.34h-.19c-.98-17.46-15.4-31.34-33.11-31.34s-32.14,13.87-33.11,31.34h-.19c-.98-17.46-15.4-31.34-33.11-31.34s-32.14,13.87-33.11,31.34h-.19c-.98-17.46-15.4-31.34-33.11-31.34s-32.14,13.87-33.11,31.34h-.19c-.98-17.46-15.4-31.34-33.11-31.34s-32.14,13.87-33.11,31.34h-.19c-.98-17.46-15.4-31.34-33.11-31.34s-32.14,13.87-33.11,31.34h-.19c-.98-17.46-15.4-31.34-33.11-31.34s-32.14,13.87-33.11,31.34h-.19c-.98-17.46-15.4-31.34-33.11-31.34s-32.14,13.87-33.11,31.34h-.19c-.98-17.46-15.4-31.34-33.11-31.34s-32.14,13.87-33.11,31.34h-.19c-.98-17.46-15.4-31.34-33.11-31.34s-32.14,13.87-33.11,31.34h-.19c-.98-17.46-15.4-31.34-33.11-31.34s-32.14,13.87-33.11,31.34h-4.72c-8.7-18.88-27.25-31.34-47.29-31.34-28.67,0-51.91,23.24-51.91,51.91,0,19.68,10.96,36.8,27.1,45.6v6.31c-2.21,0-13.98.22-23.48,9.73-6.01,6.01-9.73,14.31-9.73,23.48,0,18.34,14.87,33.21,33.21,33.21v3.1c-18.22,0-33.21,14.99-33.21,33.21s14.87,33.21,33.21,33.21v2.93c-4.89,2.92-19.2,12.24-24.78,30.21-1.51,4.86-2.32,10.03-2.32,15.39,0,28.67,23.24,51.91,51.91,51.91,19.09,0,35.73-10.33,44.73-25.69h8.06c3.41,14.72,16.57,25.69,32.32,25.69s28.91-10.98,32.32-25.69h1.77c3.41,14.72,16.57,25.69,32.32,25.69s28.91-10.98,32.32-25.69h1.77c3.41,14.72,16.57,25.69,32.32,25.69s28.91-10.98,32.32-25.69h1.77c3.41,14.72,16.57,25.69,32.32,25.69s28.91-10.98,32.32-25.69h1.77c3.41,14.72,16.57,25.69,32.32,25.69s28.91-10.98,32.32-25.69h1.77c3.41,14.72,16.57,25.69,32.32,25.69s28.91-10.98,32.32-25.69h1.77c3.41,14.72,16.57,25.69,32.32,25.69s28.91-10.98,32.32-25.69h1.77c3.41,14.72,16.57,25.69,32.32,25.69s28.91-10.98,32.32-25.69h1.77c3.41,14.72,16.57,25.69,32.32,25.69s28.91-10.98,32.32-25.69h1.77c3.41,14.72,16.57,25.69,32.32,25.69s28.91-10.98,32.32-25.69h1.77c3.41,14.72,16.57,25.69,32.32,25.69s28.91-10.98,32.32-25.69h1.77c3.41,14.72,16.57,25.69,32.32,25.69s28.91-10.98,32.32-25.69h1.77c3.41,14.72,16.57,25.69,32.32,25.69s28.91-10.98,32.32-25.69h1.77c3.41,14.72,16.57,25.69,32.32,25.69s28.91-10.98,32.32-25.69h1.77c3.41,14.72,16.57,25.69,32.32,25.69s28.91-10.98,32.32-25.69h1.77c3.41,14.72,16.57,25.69,32.32,25.69s28.91-10.98,32.32-25.69h1.77c3.41,14.72,16.57,25.69,32.32,25.69s28.91-10.98,32.32-25.69h1.77c3.41,14.72,16.57,25.69,32.32,25.69s28.91-10.98,32.32-25.69h1.77c3.41,14.72,16.57,25.69,32.32,25.69s28.91-10.98,32.32-25.69h1.77c3.41,14.72,16.57,25.69,32.32,25.69s28.91-10.98,32.32-25.69h8.42c9.93,15.82,26.68,25.69,44.38,25.69,28.67,0,51.91-23.24,51.91-51.91,0-22.79-14.71-42.11-35.14-49.09v-.47c2.22.63,4.93,1.03,8.04,1.03Z"/>
</svg>