<?xml version="1.0" encoding="UTF-8"?>
<svg id="_레이어_2" data-name="레이어 2" xmlns="http://www.w3.org/2000/svg" viewBox="0 0 1570 410">
  <defs>
    <style>
      .cls-1 {
        fill: #b65ecc;
      }

      .cls-1, .cls-2, .cls-3, .cls-4, .cls-5, .cls-6, .cls-7, .cls-8 {
        stroke-width: 0px;
      }

      .cls-2 {
        fill: #ffd09c;
      }

      .cls-9 {
        fill: #f9deff;
        stroke: #cf73ff;
      }

      .cls-9, .cls-10 {
        stroke-linecap: round;
        stroke-linejoin: round;
        stroke-width: 8px;
      }

      .cls-3 {
        fill: #ffefae;
      }

      .cls-4 {
        fill: #ffc48f;
      }

      .cls-5 {
        fill: #e6fdff;
      }

      .cls-6 {
        fill: #8acdd7;
      }

      .cls-7 {
        fill: #ffc05c;
      }

      .cls-8 {
        fill: #ffae92;
      }

      .cls-10 {
        fill: #dc8fea;
        stroke: #b65ecc;
      }
    </style>
  </defs>
  <path class="cls-9" d="m1531.77,300.33c18.34,0,33.21-14.87,33.21-33.21s-14.87-33.21-33.21-33.21c-2.78,0-5.46.38-8.04,1.03v-5.16c2.22.63,4.93,1.03,8.04,1.03,18.34,0,33.21-14.87,33.21-33.21s-14.87-33.21-33.21-33.21c-2.78,0-5.46.38-8.04,1.03v-3.86c21.19-8.33,35.14-28,35.14-49.08,0-28.67-23.24-51.91-51.91-51.91-21.35,0-39.64,12.91-47.61,31.34h-4.4c-.98-17.46-15.4-31.34-33.11-31.34s-32.14,13.87-33.11,31.34h-.19c-.98-17.46-15.4-31.34-33.11-31.34s-32.14,13.87-33.11,31.34h-.19c-.98-17.46-15.4-31.34-33.11-31.34s-32.14,13.87-33.11,31.34h-.19c-.98-17.46-15.4-31.34-33.11-31.34s-32.14,13.87-33.11,31.34h-.19c-.98-17.46-15.4-31.34-33.11-31.34s-32.14,13.87-33.11,31.34h-.19c-.98-17.46-15.4-31.34-33.11-31.34s-32.14,13.87-33.11,31.34h-.19c-.98-17.46-15.4-31.34-33.11-31.34s-32.14,13.87-33.11,31.34h-.19c-.98-17.46-15.4-31.34-33.11-31.34s-32.14,13.87-33.11,31.34h-.19c-.98-17.46-15.4-31.34-33.11-31.34s-32.14,13.87-33.11,31.34h-.19c-.98-17.46-15.4-31.34-33.11-31.34s-32.14,13.87-33.11,31.34h-.19c-.98-17.46-15.4-31.34-33.11-31.34s-32.14,13.87-33.11,31.34h-.19c-.98-17.46-15.4-31.34-33.11-31.34s-32.14,13.87-33.11,31.34h-.19c-.98-17.46-15.4-31.34-33.11-31.34s-32.14,13.87-33.11,31.34h-.19c-.98-17.46-15.4-31.34-33.11-31.34s-32.14,13.87-33.11,31.34h-.19c-.98-17.46-15.4-31.34-33.11-31.34s-32.14,13.87-33.11,31.34h-.19c-.98-17.46-15.4-31.34-33.11-31.34s-32.14,13.87-33.11,31.34h-.19c-.98-17.46-15.4-31.34-33.11-31.34s-32.14,13.87-33.11,31.34h-.19c-.98-17.46-15.4-31.34-33.11-31.34s-32.14,13.87-33.11,31.34h-.19c-.98-17.46-15.4-31.34-33.11-31.34s-32.14,13.87-33.11,31.34h-.19c-.98-17.46-15.4-31.34-33.11-31.34s-32.14,13.87-33.11,31.34h-4.72c-8.7-18.88-27.25-31.34-47.29-31.34-28.67,0-51.91,23.24-51.91,51.91,0,19.68,10.96,36.8,27.1,45.6v6.31c-2.21,0-13.98.22-23.48,9.73-6.01,6.01-9.73,14.31-9.73,23.48,0,18.34,14.87,33.21,33.21,33.21v3.1c-18.22,0-33.21,14.99-33.21,33.21s14.87,33.21,33.21,33.21v2.93c-4.89,2.92-19.2,12.24-24.78,30.21-1.51,4.86-2.32,10.03-2.32,15.39,0,28.67,23.24,51.91,51.91,51.91,19.09,0,35.73-10.33,44.73-25.69h8.06c3.41,14.72,16.57,25.69,32.32,25.69s28.91-10.98,32.32-25.69h1.77c3.41,14.72,16.57,25.69,32.32,25.69s28.91-10.98,32.32-25.69h1.77c3.41,14.72,16.57,25.69,32.32,25.69s28.91-10.98,32.32-25.69h1.77c3.41,14.72,16.57,25.69,32.32,25.69s28.91-10.98,32.32-25.69h1.77c3.41,14.72,16.57,25.69,32.32,25.69s28.91-10.98,32.32-25.69h1.77c3.41,14.72,16.57,25.69,32.32,25.69s28.91-10.98,32.32-25.69h1.77c3.41,14.72,16.57,25.69,32.32,25.69s28.91-10.98,32.32-25.69h1.77c3.41,14.72,16.57,25.69,32.32,25.69s28.91-10.98,32.32-25.69h1.77c3.41,14.72,16.57,25.69,32.32,25.69s28.91-10.98,32.32-25.69h1.77c3.41,14.72,16.57,25.69,32.32,25.69s28.91-10.98,32.32-25.69h1.77c3.41,14.72,16.57,25.69,32.32,25.69s28.91-10.98,32.32-25.69h1.77c3.41,14.72,16.57,25.69,32.32,25.69s28.91-10.98,32.32-25.69h1.77c3.41,14.72,16.57,25.69,32.32,25.69s28.91-10.98,32.32-25.69h1.77c3.41,14.72,16.57,25.69,32.32,25.69s28.91-10.98,32.32-25.69h1.77c3.41,14.72,16.57,25.69,32.32,25.69s28.91-10.98,32.32-25.69h1.77c3.41,14.72,16.57,25.69,32.32,25.69s28.91-10.98,32.32-25.69h1.77c3.41,14.72,16.57,25.69,32.32,25.69s28.91-10.98,32.32-25.69h1.77c3.41,14.72,16.57,25.69,32.32,25.69s28.91-10.98,32.32-25.69h1.77c3.41,14.72,16.57,25.69,32.32,25.69s28.91-10.98,32.32-25.69h1.77c3.41,14.72,16.57,25.69,32.32,25.69s28.91-10.98,32.32-25.69h8.42c9.93,15.82,26.68,25.69,44.38,25.69,28.67,0,51.91-23.24,51.91-51.91,0-22.79-14.71-42.11-35.14-49.09v-.47c2.22.63,4.93,1.03,8.04,1.03Z"/>
  <rect class="cls-10" x="5.02" y="9.22" width="547.35" height="118.23" rx="59.11" ry="59.11"/>
  <path class="cls-1" d="m163.36,102.18c-2.07-.31-4.07-1.02-5.8-2.09,1.07.65,5.12-2.34,5.57-3.05-5.07-3.42-8.27-7.35-10.68-12.34.91-.65,1.75-1.41,2.47-2.24,2.45-2.81,3.78-6.38,4.55-9.97,2.12-9.92.18-20.31-3.56-29.78-2.39-6.04-5.55-11.89-10.1-16.66-.68-.71-1.43-1.43-2.38-1.75-1.22-.41-2.56-.12-3.81.23-12.83,3.59-24.27,13.19-29.32,25.14-.31.75-.57,1.52-.79,2.3-3.74-.3-7.52-.31-11.27,0-.21-.78-.47-1.56-.79-2.3-5.05-11.95-16.48-21.55-29.32-25.14-1.24-.35-2.59-.64-3.81-.23-.95.32-1.7,1.03-2.38,1.75-4.55,4.77-7.71,10.62-10.1,16.66-3.74,9.47-5.68,19.86-3.56,29.78.77,3.59,2.1,7.15,4.55,9.97.71.82,1.53,1.56,2.43,2.21-2.35,5.02-5.61,9.81-10.87,12.39,1.54,1.46,3.55,2.52,5.73,3.02-1.69,1.15-3.79,1.83-5.91,1.92,1.65,1.62,4.04,2.62,6.49,2.7-.72.48-1.43.96-2.15,1.45,7.71,5.71,17.23,9.25,27.01,11.18,9.78,1.93,19.87,2.31,29.88,2.22,9.48-.08,19.01-.57,28.23-2.52,9.22-1.95,18.17-5.42,25.36-10.94l-2.07-1.39c2.38-.1,4.7-1.02,6.38-2.53Z"/>
  <g>
    <g>
      <path class="cls-3" d="m50.66,78.19c1.94,1.27,4.2,2.01,6.51,1.9,4.09-.2,7.56-2.91,10.73-5.5,5.34-4.36,10.67-8.73,16.01-13.09,2.74-2.24,5.58-4.61,6.93-7.88,1.44-3.46.98-7.47-.43-10.94-4.84-11.95-15.81-21.55-28.12-25.14-1.19-.35-2.48-.64-3.65-.23-.91.32-1.63,1.03-2.28,1.75-4.36,4.77-7.4,10.62-9.68,16.66-3.59,9.47-5.45,19.86-3.42,29.78.73,3.59,2.01,7.15,4.36,9.97.87,1.04,1.9,1.97,3.04,2.71Z"/>
      <path class="cls-7" d="m49.14,80.78c2.9,1.82,6.23,2.64,9.63,2.13,2.95-.45,5.65-1.94,8.03-3.68,5.45-4,10.56-8.53,15.79-12.8,4.68-3.83,10.46-7.72,11.76-14.05,1.26-6.11-1.25-12.11-4.43-17.23-5.8-9.35-14.97-16.58-25.41-20.04-3.32-1.1-6.58-1.54-9.39.96-2.28,2.02-4.14,4.75-5.76,7.31-3.33,5.29-5.75,11.26-7.48,17.25-2,6.92-3.01,14.31-2.17,21.49s3.16,14.44,9.44,18.67c1.34.91,3.32.26,4.1-1.08.86-1.48.27-3.2-1.08-4.1-4.18-2.82-5.7-8.19-6.39-12.92-.79-5.45-.34-11.08.85-16.43s2.96-10.5,5.38-15.34c1.19-2.38,2.54-4.67,4.09-6.83.69-.96,1.44-1.86,2.23-2.74.57-.63,1.06-1.37,1.94-1.21,4.46.78,8.82,3.19,12.55,5.7s7.08,5.67,9.78,9.21,5.37,7.85,6,12.25c.34,2.4-.08,4.73-1.41,6.77s-3.28,3.55-5.1,5.05c-5.3,4.36-10.63,8.69-15.94,13.04-2.03,1.66-4.15,3.47-6.64,4.4s-5.03.5-7.34-.95c-3.28-2.06-6.29,3.13-3.03,5.18Z"/>
    </g>
    <path class="cls-4" d="m58.72,70.47c1.28.83,2.77,1.32,4.28,1.25,2.69-.13,4.98-1.92,7.06-3.62,3.51-2.87,7.03-5.75,10.54-8.62,1.8-1.47,3.67-3.04,4.57-5.19.95-2.27.64-4.92-.28-7.2-3.19-7.87-10.41-14.19-18.51-16.55-.78-.23-1.63-.42-2.4-.15-.6.21-1.07.68-1.5,1.15-2.87,3.14-4.87,6.99-6.38,10.97-2.36,6.24-3.59,13.08-2.25,19.61.48,2.36,1.33,4.71,2.87,6.56.57.69,1.25,1.3,2,1.79Z"/>
    <g>
      <path class="cls-3" d="m142.47,78.19c-1.94,1.27-4.2,2.01-6.51,1.9-4.09-.2-7.56-2.91-10.73-5.5-5.34-4.36-10.67-8.73-16.01-13.09-2.74-2.24-5.58-4.61-6.93-7.88-1.44-3.46-.98-7.47.43-10.94,4.84-11.95,15.81-21.55,28.12-25.14,1.19-.35,2.48-.64,3.65-.23.91.32,1.63,1.03,2.28,1.75,4.36,4.77,7.4,10.62,9.68,16.66,3.59,9.47,5.45,19.86,3.42,29.78-.73,3.59-2.01,7.15-4.36,9.97-.87,1.04-1.9,1.97-3.04,2.71Z"/>
      <path class="cls-7" d="m140.95,75.6c-2.03,1.28-4.22,1.86-6.57,1.19-2.19-.62-4.14-2.02-5.9-3.42-4.74-3.77-9.39-7.67-14.08-11.51-3.63-2.97-8.87-6.14-9.84-11.09-.89-4.56,1.67-9.21,4.02-12.93,4.82-7.62,12.45-13.74,20.91-16.72,1.02-.36,2.08-.77,3.15-.95.99-.17,1.31.26,2,1.01,1.78,1.92,3.28,4.07,4.61,6.31,2.73,4.59,4.73,9.6,6.2,14.72,1.76,6.09,2.64,12.42,2.07,18.76-.47,5.22-1.96,11.51-6.58,14.63-1.34.91-1.93,2.64-1.08,4.1.78,1.33,2.76,1.99,4.1,1.08,5.37-3.62,7.98-9.61,9.04-15.83,1.12-6.61.75-13.3-.64-19.85s-3.55-12.35-6.47-18c-1.44-2.78-3.14-5.4-5.07-7.87-2.04-2.6-4.34-5.27-7.96-5.12-2.9.12-5.87,1.47-8.48,2.61-2.43,1.06-4.76,2.34-6.96,3.81-4.67,3.12-8.72,6.98-12.09,11.47s-6.37,9.99-6.87,15.71c-.28,3.18.45,6.49,2.17,9.2,1.61,2.54,3.85,4.54,6.15,6.43,5.8,4.77,11.57,9.58,17.45,14.26,2.68,2.13,5.55,4.23,8.93,5.07,3.75.93,7.57.14,10.81-1.9s.25-7.24-3.03-5.18Z"/>
    </g>
    <path class="cls-4" d="m134.4,70.47c-1.28.83-2.77,1.32-4.28,1.25-2.69-.13-4.98-1.92-7.06-3.62-3.51-2.87-7.03-5.75-10.54-8.62-1.8-1.47-3.67-3.04-4.57-5.19-.95-2.27-.64-4.92.28-7.2,3.19-7.87,10.41-14.19,18.51-16.55.78-.23,1.63-.42,2.4-.15.6.21,1.07.68,1.5,1.15,2.87,3.14,4.87,6.99,6.38,10.97,2.36,6.24,3.59,13.08,2.25,19.61-.48,2.36-1.33,4.71-2.87,6.56-.57.69-1.25,1.3-2,1.79Z"/>
    <g>
      <path class="cls-3" d="m153.61,95.18c-1.99-.31-3.9-1.02-5.57-2.09,1.03.65,4.91-2.34,5.34-3.05-5.68-4-8.92-8.68-11.35-14.93-2.3-5.91-4.09-12.21-8.41-17.03-2.54-2.83-5.84-5-9.3-6.8-16.48-8.55-37.57-8.7-54.34-.65-3.86,1.85-7.55,4.15-10.35,7.24-4.38,4.83-6.22,11.15-8.54,17.09-2.33,5.94-5.61,12.06-11.56,15.1,1.48,1.46,3.41,2.52,5.49,3.02-1.63,1.15-3.63,1.83-5.67,1.92,1.58,1.62,3.88,2.62,6.23,2.7-.69.48-1.37.96-2.06,1.45,7.4,5.71,16.52,9.25,25.91,11.18,9.38,1.93,19.05,2.31,28.66,2.22,9.09-.08,18.23-.57,27.08-2.52,8.85-1.95,17.43-5.42,24.32-10.94-.66-.46-1.32-.93-1.99-1.39,2.28-.1,4.51-1.02,6.12-2.53Z"/>
      <path class="cls-7" d="m154.14,93.25c-2-.32-3.46-.86-5.09-1.88l-2.02,3.45c1.59.88,3.42-.06,4.8-.94,1.17-.75,2.5-1.64,3.28-2.83.63-.96.13-2.14-.72-2.74-.27-.19-.55-.39-.82-.59-.11-.08-.21-.16-.32-.24.25.19-.08-.06-.14-.11-.48-.38-.94-.77-1.39-1.18-.89-.8-1.74-1.66-2.52-2.57-.18-.21-.35-.41-.52-.62-.08-.09-.15-.19-.23-.28-.36-.45.14.18-.07-.09-.36-.48-.71-.97-1.04-1.47-.64-.96-1.22-1.96-1.75-2.98-.27-.52-.53-1.06-.78-1.59-.11-.23-.21-.46-.31-.69.02.04-.23-.54-.13-.29.05.12.03.08-.05-.12-.05-.12-.1-.24-.15-.36-.49-1.21-.93-2.43-1.39-3.66-.95-2.57-1.91-5.14-3.08-7.61s-2.61-4.8-4.4-6.88-4.07-3.88-6.42-5.38c-4.52-2.89-9.6-5.01-14.75-6.47-10.29-2.91-21.32-3.15-31.75-.87-5.19,1.14-10.25,2.95-14.96,5.4-4.99,2.6-9.35,6.1-12.31,10.94-2.8,4.57-4.31,9.76-6.32,14.69-.05.12-.1.23-.14.35-.23.56.09-.2-.05.13-.11.26-.22.52-.34.78-.26.58-.52,1.15-.8,1.71-.53,1.08-1.11,2.13-1.75,3.15-.7,1.11-1.23,1.84-1.9,2.64-.77.9-1.61,1.75-2.53,2.51.03-.02-.45.36-.24.2s-.28.21-.25.18c-.2.15-.41.29-.62.43-.54.35-1.09.67-1.66.97-1.14.59-1.29,2.28-.4,3.14,1.77,1.72,3.98,2.94,6.38,3.53l-.48-3.66c-.4.28-.81.53-1.24.75-.49.25-.47.24-.96.41-.43.15-.87.27-1.32.36-.03,0-.63.11-.3.06-.28.04-.56.06-.84.07-1.69.09-2.68,2.14-1.41,3.41,2.03,2.04,4.78,3.15,7.64,3.28l-1.01-3.73-2.06,1.45c-1.32.93-1.23,2.51,0,3.45,11.67,8.97,26.63,12.31,41.04,13.3,7.8.54,15.67.52,23.47.12s15.29-1.29,22.66-3.33,14.98-5.49,21.23-10.46c1.09-.87.54-2.48-.4-3.14-.66-.46-1.32-.93-1.99-1.39l-1.01,3.73c2.82-.16,5.44-1.21,7.53-3.12.77-.71.77-2.12,0-2.83-.83-.76-2-.76-2.83,0-1.22,1.12-3.07,1.85-4.7,1.95-2.04.11-2.64,2.59-1.01,3.73.66.46,1.32.93,1.99,1.39l-.4-3.14c-.55.43-1.06.82-1.78,1.33s-1.39.95-2.11,1.4c-1.44.9-2.92,1.73-4.43,2.49-2.97,1.49-5.78,2.59-9.07,3.6-7.08,2.19-14.18,3.2-21.49,3.67s-15.18.54-22.74.17-14.58-1.23-21.79-3.23-14.03-5.01-20.14-9.7v3.45l2.06-1.45c.71-.5,1.21-1.37.92-2.26s-1.02-1.43-1.93-1.47c-.27-.01-.54-.03-.8-.06.37.05-.39-.09-.46-.1-.26-.06-.52-.13-.77-.21-.07-.02-.76-.29-.45-.16-.48-.21-.95-.47-1.38-.77-.11-.07-.22-.15-.32-.23.15.11.13.1-.05-.05-.19-.17-.38-.35-.57-.53l-1.41,3.41c2.38-.13,4.71-.83,6.68-2.19.67-.47,1.07-1.15.95-1.99-.1-.76-.66-1.47-1.43-1.66-1.85-.46-3.32-1.25-4.61-2.5l-.4,3.14c4.5-2.33,7.75-6.4,10.05-10.83,1.16-2.23,2.1-4.56,2.99-6.91.46-1.23.92-2.46,1.39-3.68s.89-2.3,1.32-3.26c.53-1.19,1.1-2.37,1.74-3.51.3-.54.62-1.07.96-1.59.19-.29.38-.57.58-.86.08-.11.16-.22.24-.34,0,0,.36-.49.19-.26.8-1.05,1.72-2.02,2.7-2.9,1.05-.95,1.74-1.48,2.92-2.27,2.2-1.47,4.56-2.69,6.97-3.76.92-.41,2.1-.88,3.31-1.32s2.39-.82,3.6-1.17c2.5-.73,5.05-1.29,7.62-1.7.31-.05.61-.09.92-.14.08-.01.52-.07.18-.03.14-.02.27-.04.41-.05.68-.09,1.37-.16,2.05-.22,1.3-.12,2.61-.2,3.91-.24,2.58-.08,5.16,0,7.73.23s4.65.55,7.3,1.13,5.03,1.28,7.47,2.16c1.23.45,2.35.9,3.3,1.32,1.19.53,2.36,1.1,3.51,1.71,1.21.65,2.39,1.34,3.54,2.1s1.91,1.33,2.91,2.22,1.93,1.86,2.76,2.91c.24.31-.26-.37.13.17.08.11.16.22.25.34.18.25.36.51.53.77.36.55.7,1.1,1.03,1.67.65,1.14,1.23,2.32,1.76,3.52.3.67.32.74.6,1.44.26.64.51,1.29.76,1.94.95,2.52,1.83,5.06,2.91,7.53,1.89,4.31,4.58,8.25,8.13,11.36,1.02.89,2.09,1.72,3.19,2.5l-.72-2.74c-.14.21.42-.45.16-.21-.07.06-.13.13-.19.2-.15.14-.3.28-.46.41-.12.1-.25.2-.37.31-.3.25.34-.25-.01,0-.24.18-.49.35-.74.52-.49.33-1.01.57-1.51.87-.1.06.45-.13,0-.01-.09.03-.2.05-.29.08-.33.13.5-.03.19-.03-.21,0-.1.01.31.05-.19-.06-.09-.01.3.13-.92-.51-2.22-.25-2.74.72s-.23,2.14.72,2.74c1.83,1.15,3.91,1.94,6.05,2.29,1.03.17,2.2-.27,2.46-1.4.22-.96-.29-2.28-1.4-2.46Z"/>
    </g>
    <path class="cls-2" d="m66.94,106.93c-.07,0-.14,0-.21.01-1.29.05-2.55-.45-3.66-1.11-1.6-.96-3.02-2.37-3.6-4.15-.23-.72-.32-1.52-.08-2.24.27-.81.92-1.46,1.68-1.86,1.16-.6,2.6-.64,3.79-.1s2.12,1.64,2.44,2.91c.78-1.01,1.7-1.99,2.89-2.44,2.69-1.02,4.74,1.49,3.99,4.06-.32,1.1-1.07,2.04-1.97,2.74s-1.95,1.19-3.02,1.59c-.73.28-1.48.52-2.25.58Z"/>
    <path class="cls-2" d="m121.65,106.93c.07,0,.14,0,.21.01,1.29.05,2.55-.45,3.66-1.11,1.6-.96,3.02-2.37,3.6-4.15.23-.72.32-1.52.08-2.24-.27-.81-.92-1.46-1.68-1.86-1.16-.6-2.6-.64-3.79-.1s-2.12,1.64-2.44,2.91c-.78-1.01-1.7-1.99-2.89-2.44-2.69-1.02-4.74,1.49-3.99,4.06.32,1.1,1.07,2.04,1.97,2.74s1.95,1.19,3.02,1.59c.73.28,1.48.52,2.25.58Z"/>
    <g>
      <path class="cls-6" d="m109.2,86.43c-.1.19-.19.38-.27.59-.44,1.12-.47,2.35-.38,3.54.14,1.93.61,3.91,1.77,5.46,1.36,1.82,3.62,2.9,5.89,2.99,1.83.07,3.72-.5,5.06-1.75,1.61-1.51,2.26-3.78,2.59-5.96.29-1.93.37-3.92,0-5.84-.41-2.09-1.13-3.39-3.31-3.88-3.14-.7-6.49.37-9.05,2.33-.91.7-1.75,1.53-2.29,2.53Z"/>
      <path class="cls-6" d="m121.8,84.12c1.33-1.2,2.43-2.67,3.21-4.28.23-.47.14-1.1-.36-1.37-.45-.24-1.13-.14-1.37.36-.37.76-.8,1.49-1.3,2.16-.03.04-.06.07-.08.11-.08.11.15-.19,0-.01-.06.08-.13.16-.2.24-.13.16-.27.32-.41.47-.29.32-.59.62-.91.9-.39.35-.38,1.06,0,1.41.42.38,1,.38,1.41,0h0Z"/>
      <path class="cls-6" d="m116.17,98.88c.01.27,0,.54-.03.81l.02-.13c-.03.19-.06.38-.12.56-.07.25.09.56.35.62s.54-.08.62-.35c.13-.48.19-1,.16-1.5,0-.13-.05-.26-.15-.35-.09-.09-.23-.15-.35-.15-.26.01-.52.22-.5.5h0Z"/>
      <path class="cls-6" d="m119.08,98.67c.06.43.2.84.38,1.23.05.11.19.2.3.23.12.03.28.02.39-.05s.2-.17.23-.3l.02-.13c0-.09-.02-.17-.07-.25-.02-.04-.04-.09-.06-.13l.05.12c-.13-.31-.22-.64-.27-.98-.02-.12-.13-.24-.23-.3-.11-.06-.27-.09-.39-.05s-.24.11-.3.23l-.05.12c-.02.09-.02.18,0,.27h0Z"/>
      <path class="cls-5" d="m114.44,93.62c-.49.39-.6,1.15-.34,1.72s.9.98,1.55,1.1,1.32,0,1.94-.19c.55-.17,1.11-.43,1.46-.88.99-1.3-.52-2.26-1.7-2.33-.65-.03-1.29.09-1.92.21-.32.06-.66.13-.93.32-.02.02-.05.03-.07.05Z"/>
      <path class="cls-5" d="m114.33,85.01c-.44.17-1.15.51-1.81,1.2-.67.71-.94,1.42-1.13,1.95-.2.53-.34,1.08-.3,1.64.05.56.33,1.12.81,1.4.49.27,1.08.23,1.64.17l5.47-.53c.84-.08,1.79-.23,2.23-.95.16-.26.23-.58.26-.89.09-1.2-.48-2.4-1.37-3.19,0,0-1.32-1.28-3.29-1.32-.95-.02-1.88.28-1.97.31-.23.08-.42.16-.55.22Z"/>
    </g>
    <g>
      <path class="cls-6" d="m82.44,86.43c.1.19.19.38.27.59.44,1.12.47,2.35.38,3.54-.14,1.93-.61,3.91-1.77,5.46-1.36,1.82-3.62,2.9-5.89,2.99-1.83.07-3.72-.5-5.06-1.75-1.61-1.51-2.26-3.78-2.59-5.96-.29-1.93-.37-3.92,0-5.84.41-2.09,1.13-3.39,3.31-3.88,3.14-.7,6.49.37,9.05,2.33.91.7,1.75,1.53,2.29,2.53Z"/>
      <path class="cls-6" d="m71.26,82.7c-.31-.28-.6-.57-.89-.88-.14-.15-.28-.31-.41-.47-.07-.09-.15-.18-.22-.27-.08-.1-.01,0,.03.04-.04-.04-.07-.09-.1-.14-.5-.68-.94-1.4-1.3-2.16-.23-.47-.94-.64-1.37-.36-.49.31-.6.86-.36,1.37.78,1.61,1.88,3.08,3.21,4.28.39.35,1.04.41,1.41,0,.35-.38.41-1.04,0-1.41h0Z"/>
      <path class="cls-6" d="m74.48,98.88c-.03.5.03,1.01.16,1.5.07.25.36.43.62.35s.42-.34.35-.62c-.05-.18-.09-.37-.12-.56l.02.13c-.04-.27-.05-.54-.03-.81s-.24-.51-.5-.5c-.28.01-.48.22-.5.5h0Z"/>
      <path class="cls-6" d="m71.6,98.41c-.05.34-.14.67-.27.98l.05-.12s-.04.09-.06.13c-.06.13-.09.25-.05.39.03.12.12.24.23.3.12.06.26.09.39.05.12-.04.25-.11.3-.23.18-.39.32-.8.38-1.23.02-.07.02-.13,0-.2,0-.07-.02-.13-.06-.19-.06-.1-.18-.2-.3-.23-.13-.03-.27-.02-.39.05-.1.07-.21.17-.23.3h0Z"/>
      <path class="cls-5" d="m77.2,93.62c.49.39.6,1.15.34,1.72s-.9.98-1.55,1.1-1.32,0-1.94-.19c-.55-.17-1.11-.43-1.46-.88-.99-1.3.52-2.26,1.7-2.33.65-.03,1.29.09,1.92.21.32.06.66.13.93.32.02.02.05.03.07.05Z"/>
      <path class="cls-5" d="m77.32,85.01c.44.17,1.15.51,1.81,1.2.67.71.94,1.42,1.13,1.95.2.53.34,1.08.3,1.64-.05.56-.33,1.12-.81,1.4-.49.27-1.08.23-1.64.17l-5.47-.53c-.84-.08-1.79-.23-2.23-.95-.16-.26-.23-.58-.26-.89-.09-1.2.48-2.4,1.37-3.19,0,0,1.32-1.28,3.29-1.32.95-.02,1.88.28,1.97.31.23.08.42.16.55.22Z"/>
    </g>
    <path class="cls-8" d="m95.69,97.73c1.29,0,1.29-2,0-2s-1.29,2,0,2h0Z"/>
    <path class="cls-8" d="m92.17,101.87c1.59.38,3.3-.12,4.41-1.33l-1.18-.15c.53.85,1.4,1.45,2.39,1.61s2.45-.02,2.72-1.16c.22-.94-1.22-1.34-1.45-.4,0,0,.07-.06.07-.06-.09.06-.07.04-.14.07-.11.04-.23.07-.35.09-.25.04-.51.01-.76-.05-.49-.13-.92-.42-1.19-.86-.24-.39-.84-.52-1.18-.15-.74.82-1.86,1.2-2.95.95-.94-.22-1.34,1.22-.4,1.45h0Z"/>
    <path class="cls-6" d="m110.28,75.58c.25-.05.49-.1.74-.14.2-.03-.06,0,.16-.02.11-.01.21-.02.32-.03.46-.04.93-.06,1.39-.05.96.02,1.63.13,2.59.39.5.14,1.11-.17,1.23-.7s-.16-1.08-.7-1.23c-2.05-.56-4.2-.6-6.27-.15-.51.11-.86.74-.7,1.23.17.54.68.82,1.23.7h0Z"/>
    <path class="cls-2" d="m85.56,66.51c-1.09,3.82-1.33,8.16.89,11.64.93,1.46,2.23,2.7,3.83,3.4,1.9.83,3.99.91,6.04.85,1.03-.03,1.31-1.31.5-1.86-2.14-1.47-3.34-4.01-3.25-6.58l-1.96.27c.75,1.95,2.63,3.31,4.76,3.19,1.05-.06,1.29-1.28.5-1.86-1.05-.79-1.12-2.39-.42-3.42s-1-2.06-1.73-1.01c-1.38,2-.74,4.74,1.13,6.15l.5-1.86c-1.19.07-2.39-.57-2.83-1.72-.39-1.02-1.92-.92-1.96.27-.12,3.3,1.53,6.45,4.24,8.31l.5-1.86c-1.69.05-3.47.06-5.07-.6-1.34-.55-2.42-1.59-3.17-2.82-1.84-3.01-1.52-6.68-.59-9.94.35-1.24-1.57-1.77-1.93-.53h0Z"/>
    <circle class="cls-6" cx="124.28" cy="97.41" r=".68"/>
  </g>
  <g>
    <path class="cls-3" d="m209.12,61.9c1.22,0,2.39.24,3.5.72,1.11.48,2.08,1.12,2.91,1.93.83.81,1.48,1.73,1.96,2.78.48,1.05.72,2.16.72,3.34,0,1.31-.26,2.51-.79,3.6-.52,1.09-1.21,2.01-2.06,2.75-.85.74-1.82,1.33-2.91,1.77-1.09.44-2.2.65-3.34.65s-2.3-.23-3.37-.69c-1.07-.46-2.02-1.09-2.85-1.9-.83-.81-1.5-1.73-2-2.78-.5-1.05-.75-2.18-.75-3.4,0-1.05.22-2.1.65-3.17.44-1.07,1.05-2.02,1.83-2.85.79-.83,1.73-1.49,2.85-2,1.11-.5,2.32-.75,3.63-.75Zm-.39-6.81l6.15.2c2.31.09,3.47.63,3.47,1.64s-1.14,1.51-3.4,1.51h-11.78c-1.92,0-2.88-.5-2.88-1.51,0-1.09,1.07-1.64,3.21-1.64l5.24-.2Zm5.04,15.58c0-1.35-.48-2.54-1.44-3.57-.96-1.02-2.03-1.54-3.21-1.54-.74,0-1.4.16-1.96.49-.57.33-1.05.73-1.44,1.21s-.69,1.03-.88,1.64c-.2.61-.29,1.2-.29,1.77,0,1.35.44,2.53,1.31,3.53.87,1,1.96,1.5,3.27,1.5.52,0,1.06-.11,1.6-.33.54-.22,1.04-.54,1.47-.98s.81-.97,1.11-1.6c.3-.63.46-1.34.46-2.13Zm-1.7-19.31c0,.74-.31,1.31-.92,1.7-.61.39-1.27.59-1.96.59-.83,0-1.52-.23-2.06-.69-.55-.46-.82-.99-.82-1.6,0-.48.23-.99.69-1.54.46-.54,1.19-.82,2.19-.82.92,0,1.62.26,2.13.79.5.52.75,1.05.75,1.57Zm17.21,23.82v6.09c0,1.66-.25,2.74-.75,3.24-.5.5-1.08.75-1.73.75-.79,0-1.4-.29-1.83-.88-.44-.59-.65-1.58-.65-2.98v-22.25c0-.96.16-1.83.49-2.62.33-.79.97-1.18,1.93-1.18,1.7,0,2.55,1.31,2.55,3.93v6.09c0,2.09.96,3.14,2.88,3.14h1.83c2.23,0,3.34.59,3.34,1.77s-1.11,1.77-3.34,1.77h-1.83c-1.92,0-2.88,1.05-2.88,3.14Z"/>
    <path class="cls-3" d="m261.67,76.76c0,1-1.14,1.51-3.4,1.51h-8.44c-3.27,0-4.91-1.44-4.91-4.32v-7.92c0-3.23.81-4.84,2.42-4.84,1.7,0,2.55,1.7,2.55,5.1v3.93c0,3.4,1.55,5.1,4.65,5.1h3.6c2.36,0,3.53.48,3.53,1.44Zm6.48-17.87c0-2.57.83-3.86,2.49-3.86s2.49,1.29,2.49,3.86v22.18c0,2.62-.83,3.93-2.49,3.93s-2.49-1.31-2.49-3.93v-22.18Z"/>
  </g>
</svg>