<?xml version="1.0" encoding="UTF-8"?>
<svg id="_레이어_2" data-name="레이어 2" xmlns="http://www.w3.org/2000/svg" viewBox="0 0 1570 410">
  <defs>
    <style>
      .cls-1 {
        fill: #ffcae0;
      }

      .cls-1, .cls-2, .cls-3, .cls-4, .cls-5, .cls-6 {
        stroke-width: 0px;
      }

      .cls-2 {
        fill: #f8e8ee;
      }

      .cls-7 {
        stroke: #ff3e96;
      }

      .cls-7, .cls-3 {
        fill: #ff71ab;
      }

      .cls-7, .cls-8 {
        stroke-linecap: round;
        stroke-linejoin: round;
        stroke-width: 8px;
      }

      .cls-4 {
        fill: #ff90bc;
      }

      .cls-5 {
        fill: #ef97bb;
      }

      .cls-6 {
        fill: #e86792;
      }

      .cls-8 {
        fill: #ffdcf2;
        stroke: #ff71ab;
      }
    </style>
  </defs>
  <path class="cls-7" d="m1534.76,301.75c18.34,0,33.21-14.87,33.21-33.21s-14.87-33.21-33.21-33.21c-2.78,0-5.46.38-8.04,1.03v-5.16c2.22.63,4.93,1.03,8.04,1.03,18.34,0,33.21-14.87,33.21-33.21s-14.87-33.21-33.21-33.21c-2.78,0-5.46.38-8.04,1.03v-3.86c21.19-8.33,35.14-28,35.14-49.08,0-28.67-23.24-51.91-51.91-51.91-21.35,0-39.64,12.91-47.61,31.34h-4.4c-.98-17.46-15.4-31.34-33.11-31.34s-32.14,13.87-33.11,31.34h-.19c-.98-17.46-15.4-31.34-33.11-31.34s-32.14,13.87-33.11,31.34h-.19c-.98-17.46-15.4-31.34-33.11-31.34s-32.14,13.87-33.11,31.34h-.19c-.98-17.46-15.4-31.34-33.11-31.34s-32.14,13.87-33.11,31.34h-.19c-.98-17.46-15.4-31.34-33.11-31.34s-32.14,13.87-33.11,31.34h-.19c-.98-17.46-15.4-31.34-33.11-31.34s-32.14,13.87-33.11,31.34h-.19c-.98-17.46-15.4-31.34-33.11-31.34s-32.14,13.87-33.11,31.34h-.19c-.98-17.46-15.4-31.34-33.11-31.34s-32.14,13.87-33.11,31.34h-.19c-.98-17.46-15.4-31.34-33.11-31.34s-32.14,13.87-33.11,31.34h-.19c-.98-17.46-15.4-31.34-33.11-31.34s-32.14,13.87-33.11,31.34h-.19c-.98-17.46-15.4-31.34-33.11-31.34s-32.14,13.87-33.11,31.34h-.19c-.98-17.46-15.4-31.34-33.11-31.34s-32.14,13.87-33.11,31.34h-.19c-.98-17.46-15.4-31.34-33.11-31.34s-32.14,13.87-33.11,31.34h-.19c-.98-17.46-15.4-31.34-33.11-31.34s-32.14,13.87-33.11,31.34h-.19c-.98-17.46-15.4-31.34-33.11-31.34s-32.14,13.87-33.11,31.34h-.19c-.98-17.46-15.4-31.34-33.11-31.34s-32.14,13.87-33.11,31.34h-.19c-.98-17.46-15.4-31.34-33.11-31.34s-32.14,13.87-33.11,31.34h-.19c-.98-17.46-15.4-31.34-33.11-31.34s-32.14,13.87-33.11,31.34h-.19c-.98-17.46-15.4-31.34-33.11-31.34s-32.14,13.87-33.11,31.34h-.19c-.98-17.46-15.4-31.34-33.11-31.34s-32.14,13.87-33.11,31.34h-4.72c-8.7-18.88-27.25-31.34-47.29-31.34-28.67,0-51.91,23.24-51.91,51.91,0,19.68,10.96,36.8,27.1,45.6v6.31c-2.21,0-13.98.22-23.48,9.73-6.01,6.01-9.73,14.31-9.73,23.48,0,18.34,14.87,33.21,33.21,33.21v3.1c-18.22,0-33.21,14.99-33.21,33.21s14.87,33.21,33.21,33.21v2.93c-4.89,2.92-19.2,12.24-24.78,30.21-1.51,4.86-2.32,10.03-2.32,15.39,0,28.67,23.24,51.91,51.91,51.91,19.09,0,35.73-10.33,44.73-25.69h8.06c3.41,14.72,16.57,25.69,32.32,25.69s28.91-10.98,32.32-25.69h1.77c3.41,14.72,16.57,25.69,32.32,25.69s28.91-10.98,32.32-25.69h1.77c3.41,14.72,16.57,25.69,32.32,25.69s28.91-10.98,32.32-25.69h1.77c3.41,14.72,16.57,25.69,32.32,25.69s28.91-10.98,32.32-25.69h1.77c3.41,14.72,16.57,25.69,32.32,25.69s28.91-10.98,32.32-25.69h1.77c3.41,14.72,16.57,25.69,32.32,25.69s28.91-10.98,32.32-25.69h1.77c3.41,14.72,16.57,25.69,32.32,25.69s28.91-10.98,32.32-25.69h1.77c3.41,14.72,16.57,25.69,32.32,25.69s28.91-10.98,32.32-25.69h1.77c3.41,14.72,16.57,25.69,32.32,25.69s28.91-10.98,32.32-25.69h1.77c3.41,14.72,16.57,25.69,32.32,25.69s28.91-10.98,32.32-25.69h1.77c3.41,14.72,16.57,25.69,32.32,25.69s28.91-10.98,32.32-25.69h1.77c3.41,14.72,16.57,25.69,32.32,25.69s28.91-10.98,32.32-25.69h1.77c3.41,14.72,16.57,25.69,32.32,25.69s28.91-10.98,32.32-25.69h1.77c3.41,14.72,16.57,25.69,32.32,25.69s28.91-10.98,32.32-25.69h1.77c3.41,14.72,16.57,25.69,32.32,25.69s28.91-10.98,32.32-25.69h1.77c3.41,14.72,16.57,25.69,32.32,25.69s28.91-10.98,32.32-25.69h1.77c3.41,14.72,16.57,25.69,32.32,25.69s28.91-10.98,32.32-25.69h1.77c3.41,14.72,16.57,25.69,32.32,25.69s28.91-10.98,32.32-25.69h1.77c3.41,14.72,16.57,25.69,32.32,25.69s28.91-10.98,32.32-25.69h1.77c3.41,14.72,16.57,25.69,32.32,25.69s28.91-10.98,32.32-25.69h8.42c9.93,15.82,26.68,25.69,44.38,25.69,28.67,0,51.91-23.24,51.91-51.91,0-22.79-14.71-42.11-35.14-49.09v-.47c2.22.63,4.93,1.03,8.04,1.03Z"/>
  <rect class="cls-8" x="8.01" y="10.64" width="547.35" height="118.23" rx="59.11" ry="59.11"/>
  <g>
    <path class="cls-3" d="m55.66,41.75c-.45.12-2.47.73-3.46,2.65-1.11,2.17-.44,5.13,1.79,7.09-2.1,2.03-2.57,5.54-1.07,8.05,1.49,2.51,4.8,3.78,7.59,2.9,1.16,2.65,3.73,4.64,6.59,5.11,2.86.46,5.92-.62,7.86-2.77.54-.59,1.01-1.28,1.71-1.67.8-.44,1.76-.43,2.66-.58,4.96-.82,7.64-7.15,5.78-11.82-.24-.61-.55-1.22-.56-1.88,0-.78.41-1.5.65-2.25.72-2.19-.14-4.69-1.71-6.38-1.57-1.69-3.76-2.69-5.98-3.33-.29-2.72-2.8-4.87-5.51-5.28-2.71-.4-5.48.69-7.6,2.41-1.97-1.27-4.72-1.21-6.63.14-1.92,1.36-2.88,3.93-2.34,6.21.08.46.15.92.23,1.39Z"/>
    <path class="cls-3" d="m161.72,41.75c.45.12,2.47.73,3.46,2.65,1.11,2.17.44,5.13-1.79,7.09,2.1,2.03,2.57,5.54,1.07,8.05-1.49,2.51-4.8,3.78-7.59,2.9-1.16,2.65-3.73,4.64-6.59,5.11-2.86.46-5.92-.62-7.86-2.77-.54-.59-1.01-1.28-1.71-1.67-.8-.44-1.76-.43-2.66-.58-4.96-.82-7.64-7.15-5.78-11.82.24-.61.55-1.22.56-1.88,0-.78-.41-1.5-.65-2.25-.72-2.19.14-4.69,1.71-6.38,1.57-1.69,3.76-2.69,5.98-3.33.29-2.72,2.8-4.87,5.51-5.28,2.71-.4,5.48.69,7.6,2.41,1.97-1.27,4.72-1.21,6.63.14,1.92,1.36,2.88,3.93,2.34,6.21-.08.46-.15.92-.23,1.39Z"/>
    <path class="cls-3" d="m160.15,73.74s.02.07.03.1c.35,1.03,1.05,1.9,1.66,2.8,1.36,2.03,2.29,4.41,2.1,6.81-.2,2.4-1.71,4.79-4.07,5.61,1.85,3.78-1.13,8.92-5.45,9.37.33,5.79-5.01,10.74-10.84,12.21-1.62.41-3.31.62-4.87,1.21-1.42.53-2.69,1.35-4.02,2.06-5.09,2.69-11.14,3.66-16.85,2.7-.92-.15-1.83-.36-2.76-.33-.96.03-1.88.31-2.82.53-5.07,1.2-10.59.58-15.24-1.7-1.17-.57-2.34-1.26-3.65-1.33-.96-.05-1.9.25-2.83.5-5.72,1.51-12.65.7-16.34-3.77-.6-.73-1.15-1.58-2.05-1.95-.48-.2-1.01-.23-1.53-.3-3.73-.45-7.21-2.56-9.26-5.6s-2.62-6.96-1.53-10.42c-3.85-.46-5.76-4.77-6.22-8.48-.54-4.35.2-9.4,3.93-11.91-1.31-3.06-.6-6.69,1.27-9.47,1.87-2.77,4.78-4.78,7.87-6.23,1.11-.52,2.28-.99,3.21-1.78,1.14-.96,1.84-2.31,2.71-3.5,3.92-5.33,12.13-7.2,18.12-4.14,4.34-6.08,14.12-7.7,20.32-3.37.6.42,1.22.9,1.96.92.7.02,1.33-.38,1.94-.71,3.52-1.92,8.14-1.79,11.55.31,1.41.87,2.64,2.06,4.22,2.63,1.18.42,2.45.47,3.7.63,4.55.59,8.85,2.87,11.79,6.27.72.83,1.37,1.73,2.26,2.38,2.34,1.69,5.72,1.51,7.65,3.77,2.42,2.84,3.66,6.93,3.74,10.56.03,1.21-.07,2.45.3,3.61Z"/>
  </g>
  <g>
    <g>
      <path class="cls-4" d="m52.05,37.03c-.45.12-2.47.73-3.46,2.65-1.11,2.17-.44,5.13,1.79,7.09-2.1,2.03-2.57,5.54-1.07,8.05,1.49,2.51,4.8,3.78,7.59,2.9,1.16,2.65,3.73,4.64,6.59,5.11,2.86.46,5.92-.62,7.86-2.77.54-.59,1.01-1.28,1.71-1.67.8-.44,1.76-.43,2.66-.58,4.96-.82,7.64-7.15,5.78-11.82-.24-.61-.55-1.22-.56-1.88,0-.78.41-1.5.65-2.25.72-2.19-.14-4.69-1.71-6.38-1.57-1.69-3.76-2.69-5.98-3.33-.29-2.72-2.8-4.87-5.51-5.28-2.71-.4-5.48.69-7.6,2.41-1.97-1.27-4.72-1.21-6.63.14-1.92,1.36-2.88,3.93-2.34,6.21.08.46.15.92.23,1.39Z"/>
      <path class="cls-6" d="m51.25,34.14c-2.75.78-5.11,2.82-5.9,5.63-.92,3.31.45,6.85,2.9,9.12v-4.24c-2.97,3.06-3.76,7.96-1.54,11.69s6.86,5.44,10.98,4.28l-3.39-1.38c1.91,4.12,6.49,6.98,11.06,6.68,2.59-.17,4.98-1.08,7-2.71.39-.32.76-.65,1.11-1.02.32-.35.66-.96,1.07-1.2.52-.29,1.61-.19,2.27-.33,3.96-.86,6.89-4.44,7.86-8.24.5-1.97.54-4.05.08-6.04-.15-.66-.82-1.72-.82-2.26,0-.19.32-.82.41-1.08.25-.69.37-1.36.45-2.1.63-6.13-4.89-10.11-10.09-11.67l2.1,2.1c-.5-3.51-3.58-6.38-6.93-7.24-4.07-1.04-8.02.56-11.19,3.05l3.64-.47c-3.37-2.01-7.73-1.67-10.68.94-1.28,1.14-2.24,2.76-2.66,4.42-.49,1.98-.13,3.79.19,5.76.26,1.6,2.25,2.49,3.69,2.1,1.7-.47,2.36-2.09,2.1-3.69-.29-1.75-.56-2.93.67-4.11.97-.93,2.45-.96,3.67-.24s2.58.36,3.64-.47c1.47-1.15,3.68-1.94,5.36-1.5,1.57.41,2.51,1.42,2.74,3.05.14,1.01,1.19,1.82,2.1,2.1,2.53.76,6.29,2.65,5.7,5.67-.13.66-.59,1.46-.74,2.2-.24,1.21-.07,2.36.38,3.5.26.65.49,1.3.61,1.99.06.36,0,.03,0-.03.01.15.03.31.03.46,0,.41,0,.82-.04,1.24-.03.36,0,.04,0-.03-.03.2-.08.41-.12.61-.07.3-.16.6-.26.89s-.38.88-.76,1.48c-.03.05-.33.46-.07.12-.09.12-.19.23-.29.34-.21.21-.41.43-.64.62-.37.32.31-.2-.09.07-.12.08-.25.16-.37.24s-.26.14-.39.21c-.44.22.59-.16-.25.09-.78.23-1.43.24-2.25.39-1.17.21-2.2.73-3.1,1.51-1.16,1.01-1.91,2.27-3.31,2.85-3.15,1.31-6.26-.25-7.65-3.26-.55-1.18-2.2-1.71-3.39-1.38-1.51.42-3.32-.06-4.2-1.52-.83-1.37-.52-3.27.6-4.42s1.21-3.13,0-4.24c-.55-.51-1.07-1.2-1.23-1.65-.07-.21-.13-.43-.18-.65,0,.25,0,.19-.02-.19,0-.22,0-.43.01-.65-.03.27-.01.22.06-.14.11-.37.41-.78.77-1.01.17-.11,1.17-.51.39-.25.18-.06.36-.13.55-.18,3.71-1.06,2.13-6.85-1.6-5.79Z"/>
    </g>
    <path class="cls-2" d="m58.96,40.48c-.25.07-1.39.41-1.94,1.49-.62,1.22-.25,2.88,1,3.98-1.18,1.14-1.44,3.11-.6,4.52.84,1.41,2.69,2.12,4.26,1.63.65,1.49,2.09,2.61,3.69,2.86,1.6.26,3.32-.35,4.41-1.55.3-.33.57-.72.96-.94.45-.25.99-.24,1.49-.32,2.78-.46,4.28-4.01,3.24-6.63-.14-.34-.31-.69-.31-1.06,0-.44.23-.84.37-1.26.4-1.23-.08-2.63-.96-3.58-.88-.95-2.11-1.51-3.35-1.87-.16-1.53-1.57-2.73-3.09-2.96-1.52-.23-3.07.39-4.26,1.35-1.11-.71-2.64-.68-3.72.08-1.07.76-1.62,2.2-1.31,3.48.04.26.08.52.13.78Z"/>
    <g>
      <path class="cls-4" d="m158.1,37.03c.45.12,2.47.73,3.46,2.65,1.11,2.17.44,5.13-1.79,7.09,2.1,2.03,2.57,5.54,1.07,8.05-1.49,2.51-4.8,3.78-7.59,2.9-1.16,2.65-3.73,4.64-6.59,5.11-2.86.46-5.92-.62-7.86-2.77-.54-.59-1.01-1.28-1.71-1.67-.8-.44-1.76-.43-2.66-.58-4.96-.82-7.64-7.15-5.78-11.82.24-.61.55-1.22.56-1.88,0-.78-.41-1.5-.65-2.25-.72-2.19.14-4.69,1.71-6.38,1.57-1.69,3.76-2.69,5.98-3.33.29-2.72,2.8-4.87,5.51-5.28,2.71-.4,5.48.69,7.6,2.41,1.97-1.27,4.72-1.21,6.63.14,1.92,1.36,2.88,3.93,2.34,6.21-.08.46-.15.92-.23,1.39Z"/>
      <path class="cls-6" d="m157.31,39.93c.18.05.36.12.55.18-.78-.26.22.14.39.25.36.23.66.65.77,1.01.07.36.09.41.06.14.02.22.02.43.01.65-.02.37-.03.44-.02.19-.05.22-.11.44-.18.65-.16.46-.68,1.14-1.23,1.65-1.2,1.11-1.1,3.11,0,4.24s1.45,3.07.6,4.42c-.91,1.45-2.69,1.95-4.2,1.52-1.18-.33-2.84.2-3.39,1.38-1.19,2.56-3.68,4.19-6.39,3.63-1.52-.31-2.59-1.04-3.61-2.21-.66-.75-1.32-1.46-2.23-1.92-1.05-.53-2.1-.61-3.21-.8-1.25-.22-1.69-.46-2.52-1.32-.69-.73-1.2-1.74-1.48-2.94-.22-.95-.24-2.07.08-3.14.22-.75.61-1.45.77-2.22.25-1.2.09-2.36-.33-3.49-.53-1.42-.62-2.54.4-3.91,1.16-1.55,3.12-2.31,4.91-2.84.91-.27,1.95-1.08,2.1-2.1.23-1.62,1.18-2.64,2.74-3.05,1.68-.44,3.89.35,5.36,1.5,1.06.83,2.39,1.21,3.64.47s2.7-.69,3.67.24c1.23,1.18.95,2.36.67,4.11-.26,1.6.42,3.23,2.1,3.69,1.43.39,3.43-.49,3.69-2.1.32-1.96.69-3.79.19-5.76-.42-1.66-1.37-3.29-2.66-4.42-2.95-2.61-7.31-2.95-10.68-.94l3.64.47c-3.17-2.48-7.13-4.11-11.19-3.05-3.35.87-6.43,3.72-6.93,7.24l2.1-2.1c-4.65,1.39-9.23,4.38-10,9.55-.19,1.29-.17,2.6.22,3.85.14.43.55,1.03.54,1.48,0-.01-.38.87-.45,1.05-.64,1.69-.82,3.56-.6,5.35.49,4.08,2.78,7.96,6.68,9.6.99.42,1.93.57,2.99.73.1.01.7.08.75.11.43.22.77.84,1.1,1.2,1.56,1.7,3.74,2.96,6,3.44,5.26,1.14,10.87-1.44,13.16-6.39l-3.39,1.38c4.11,1.16,8.77-.57,10.98-4.28s1.43-8.63-1.54-11.69v4.24c2.46-2.27,3.83-5.81,2.9-9.12-.78-2.81-3.14-4.85-5.9-5.63-3.72-1.06-5.31,4.73-1.6,5.79Z"/>
    </g>
    <path class="cls-2" d="m151.2,40.48c.25.07,1.39.41,1.94,1.49.62,1.22.25,2.88-1,3.98,1.18,1.14,1.44,3.11.6,4.52-.84,1.41-2.69,2.12-4.26,1.63-.65,1.49-2.09,2.61-3.69,2.86-1.6.26-3.32-.35-4.41-1.55-.3-.33-.57-.72-.96-.94-.45-.25-.99-.24-1.49-.32-2.78-.46-4.28-4.01-3.24-6.63.14-.34.31-.69.31-1.06,0-.44-.23-.84-.37-1.26-.4-1.23.08-2.63.96-3.58.88-.95,2.11-1.51,3.35-1.87.16-1.53,1.57-2.73,3.09-2.96,1.52-.23,3.07.39,4.26,1.35,1.11-.71,2.64-.68,3.72.08,1.07.76,1.62,2.2,1.31,3.48-.04.26-.08.52-.13.78Z"/>
    <g>
      <path class="cls-1" d="m156.53,69.03s.02.07.03.1c.35,1.03,1.05,1.9,1.66,2.8,1.36,2.03,2.29,4.41,2.1,6.81-.2,2.4-1.71,4.79-4.07,5.61,1.85,3.78-1.13,8.92-5.45,9.37.33,5.79-5.01,10.74-10.84,12.21-1.62.41-3.31.62-4.87,1.21-1.42.53-2.69,1.35-4.02,2.06-5.09,2.69-11.14,3.66-16.85,2.7-.92-.15-1.83-.36-2.76-.33-.96.03-1.88.31-2.82.53-5.07,1.2-10.59.58-15.24-1.7-1.17-.57-2.34-1.26-3.65-1.33-.96-.05-1.9.25-2.83.5-5.72,1.51-12.65.7-16.34-3.77-.6-.73-1.15-1.58-2.05-1.95-.48-.2-1.01-.23-1.53-.3-3.73-.45-7.21-2.56-9.26-5.6s-2.62-6.96-1.53-10.42c-3.85-.46-5.76-4.77-6.22-8.48-.54-4.35.2-9.4,3.93-11.91-1.31-3.06-.6-6.69,1.27-9.47,1.87-2.77,4.78-4.78,7.87-6.23,1.11-.52,2.28-.99,3.21-1.78,1.14-.96,1.84-2.31,2.71-3.5,3.92-5.33,12.13-7.2,18.12-4.14,4.34-6.08,14.12-7.7,20.32-3.37.6.42,1.22.9,1.96.92.7.02,1.33-.38,1.94-.71,3.52-1.92,8.14-1.79,11.55.31,1.41.87,2.64,2.06,4.22,2.63,1.18.42,2.45.47,3.7.63,4.55.59,8.85,2.87,11.79,6.27.72.83,1.37,1.73,2.26,2.38,2.34,1.69,5.72,1.51,7.65,3.77,2.42,2.84,3.66,6.93,3.74,10.56.03,1.21-.07,2.45.3,3.61Z"/>
      <path class="cls-4" d="m153.64,69.83c.87,2.66,3.2,4.57,3.65,7.4.07.47.08,1.17.04,1.46-.02.16-.24.92-.3,1.04-.36.8-.98,1.51-1.58,1.74-1.93.75-2.65,2.52-1.79,4.41-.15-.33.14.53.17.72-.07-.47-.02.5-.03.69.03-.45-.12.49-.17.68-.04.13-.14.44-.02.14-.1.24-.22.46-.35.68-.33.57-.67.98-1.15,1.33.09-.07-.77.44-.66.39.14-.06-1.09.29-.64.23-1.56.21-3.07,1.21-3,3,.05,1.31-.19,2.48-.77,3.55-.72,1.35-1.62,2.38-2.91,3.39-.95.74-2.42,1.56-3.58,1.96-1.83.64-3.77.83-5.61,1.41-2.07.65-3.86,1.81-5.77,2.78-1.7.86-3.52,1.47-5.38,1.89s-3.62.58-5.46.56c-2.03-.02-3.94-.48-5.95-.65-2.17-.19-4.19.66-6.31.95-1.8.24-3.7.23-5.49-.03s-3.63-.76-5.28-1.52c-2.06-.95-4.01-2.11-6.37-1.89-1.66.15-3.62.85-5.01,1.02-.78.1-1.57.14-2.35.14-.63,0-1.76-.06-2.08-.11-3.28-.46-5.29-1.71-7.35-4.19-.75-.9-1.69-1.63-2.81-2.02-.96-.33-1.91-.31-2.87-.53-1.69-.39-3.31-1.14-4.6-2.3-2.77-2.49-3.82-6.2-2.76-9.79.42-1.42-.51-3.45-2.1-3.69s-2.06-.68-2.84-2.06c-.68-1.2-1.14-3.03-1.25-4.22-.08-.94-.11-1.89-.05-2.83s.12-1.36.39-2.33c.38-1.37,1.07-2.69,2.19-3.47.99-.7,1.89-2.11,1.38-3.39-1.39-3.48.19-6.83,2.89-9.26,1.43-1.28,3.15-2.23,4.88-3.05,2.17-1.03,3.92-2.07,5.39-4.03,1.17-1.56,1.74-2.7,3.22-3.91.93-.76,2.52-1.57,3.73-1.94,1.7-.53,2.84-.67,4.62-.58,1.32.07,2.87.46,4.06,1.04,1.57.78,3.09.31,4.1-1.08-.28.39.35-.42.33-.39.21-.24.43-.47.66-.69.15-.15.31-.29.47-.43-.03.03.78-.61.39-.33.99-.73,2.15-1.33,2.99-1.63,2.33-.84,4.12-1.07,6.59-.74-.54-.07.51.1.48.1.21.04.42.09.63.14.62.16,1.25.35,1.84.6-.13-.06-.36-.17.17.09.29.14.57.3.85.46.6.35,1.14.8,1.75,1.13,1.93,1.06,3.76.76,5.63-.2,1.12-.57,2.29-1.03,3.5-1.12,1.3-.1,2.42.02,3.64.41,1.43.45,2.58,1.4,3.8,2.25,1.3.9,2.73,1.59,4.29,1.85s3.08.33,4.6.73c2.52.66,4.9,1.89,6.81,3.66,1.08,1,1.9,2.23,2.97,3.23,1.29,1.21,2.78,1.92,4.44,2.49,1.28.44,2.48.64,3.42,1.36.72.55,1.58,2.11,2.05,3.16.57,1.3.98,2.88,1.14,4.2.24,1.99-.02,3.97.5,5.93,1,3.73,6.79,2.15,5.79-1.6-.4-1.5-.15-3.17-.34-4.72-.21-1.79-.57-3.53-1.23-5.21-1.26-3.24-3.12-6.32-6.43-7.74-1.29-.56-2.67-.86-3.96-1.41.37.16-.61-.33-.53-.28-.49-.29-.13-.02-.6-.43-.71-.62-1.25-1.44-1.89-2.14-2.27-2.51-5.17-4.35-8.31-5.57-1.34-.53-2.73-.9-4.16-1.13-1.67-.26-3.37-.21-4.85-1.12-1.28-.79-2.4-1.79-3.76-2.44-1.79-.87-3.66-1.34-5.64-1.49-1.55-.12-3.17.06-4.67.44-.88.22-1.73.56-2.55.94-.36.17-.73.34-1.06.55-.48.22-.5.26-.06.1.58.17.64.14.16-.09-.93-.9-2.41-1.49-3.58-1.98-1.47-.6-2.95-.94-4.53-1.14-6.49-.81-13.06,1.87-16.93,7.14l4.1-1.08c-6.31-3.12-13.95-2.2-19.42,2.2-1.29,1.04-2.33,2.31-3.26,3.67-.43.62-.81,1.27-1.34,1.82-.59.6-1.36.94-2.11,1.29-3.51,1.65-6.78,3.67-9.18,6.78-2.73,3.54-3.99,8.46-2.28,12.73l1.38-3.39c-4.56,3.21-6.03,8.79-5.45,14.15.52,4.89,2.92,10.89,8.47,11.72l-2.1-3.69c-2.57,8.69,3.21,17.96,12.12,19.6.51.09,1.08.12,1.56.22,0,0,.55.15.3,0,.68.39,1.2,1.44,1.75,2.01,1.35,1.39,3,2.44,4.78,3.19,3.68,1.56,7.7,1.77,11.62,1.18,1.56-.24,3.46-1.24,4.99-.65,1.96.76,3.76,1.82,5.81,2.41,4.47,1.29,9.16,1.26,13.67.19.92-.22,1.66-.38,2.6-.25,1.29.17,2.57.43,3.87.54,2.3.19,4.59.05,6.87-.29,2.15-.32,4.25-.88,6.27-1.69s3.99-2.08,6.05-3.01,4.56-1.03,6.75-1.83,4.11-1.88,5.91-3.33c3.4-2.73,5.73-6.87,5.57-11.29l-3,3c3.23-.43,5.97-2.06,7.63-4.92s1.75-6.02.41-8.96l-1.79,4.41c3.72-1.44,6.06-4.72,6.28-8.72.12-2.1-.49-4.16-1.36-6.05-.39-.85-.87-1.63-1.39-2.41-.38-.57-.95-1.19-1.16-1.85-.51-1.54-2.07-2.54-3.69-2.1-1.51.41-2.6,2.14-2.1,3.69Z"/>
    </g>
    <path class="cls-6" d="m103.68,93.34s.07,0,.1.01l-.27-.04c.18.03.36.07.53.14l-.24-.1c.07.03.13.06.2.1.11.07.24.11.37.12.13.03.27.02.4-.02.13-.03.24-.09.34-.18.11-.07.19-.16.26-.28l.1-.24c.05-.18.05-.35,0-.53l-.1-.24c-.09-.15-.21-.27-.36-.36-.07-.04-.13-.07-.2-.1-.14-.06-.29-.13-.44-.17-.22-.07-.46-.1-.69-.12-.14,0-.27.02-.39.09-.12.04-.23.11-.32.21-.1.09-.17.2-.21.32-.06.12-.09.25-.09.39l.04.27c.05.17.13.32.26.44l.2.16c.16.09.32.14.5.14h0Z"/>
    <path class="cls-6" d="m97,98.1c2.47,1.86,6.02,1.46,8.05-.86l-1.67-.44c1.33,3.48,6.11,2.88,8.83,1.71.5-.22.6-.94.36-1.37-.29-.52-.88-.57-1.37-.36-1.15.5-2.42.71-3.67.63-.77-.05-1.91-.32-2.22-1.14-.25-.65-1.13-1.06-1.67-.44-1.5,1.7-3.83,1.9-5.63.54-.43-.33-1.11-.07-1.37.36-.3.51-.07,1.05.36,1.37h0Z"/>
    <path class="cls-6" d="m125.82,77.23c1.57.3,3.04,1.01,4.13,2.23,1.46,1.62,1.98,4.27,1.94,6.4,0,.14,0,.28-.02.42-.13,2.29-.98,4.54-2.4,6.34-.19.24-.4.48-.67.63-.27.14-.58.18-.89.22-1.59.18-3.2.37-4.8.21s-3.2-.69-4.39-1.78c-1.65-1.52-2.25-3.87-2.39-6.11-.13-2.08.11-4.3,1.35-5.98,1.53-2.07,4.31-2.89,6.88-2.73.42.03.84.08,1.25.16Z"/>
    <path class="cls-6" d="m127.84,93.34l.77.6.71-.71c-.22-.17-.45-.35-.67-.52-.03-.02-.06-.05-.09-.07-.05-.05-.1-.08-.16-.1-.06-.03-.12-.05-.19-.04-.12,0-.27.05-.35.15s-.15.22-.15.35l.02.13c.02.08.07.16.13.22.22.17.45.35.67.52.03.02.06.05.09.07.05.05.1.08.16.1.06.03.12.05.19.04.12,0,.27-.05.35-.15s.15-.22.15-.35l-.02-.13c-.02-.08-.07-.16-.13-.22l-.77-.6s-.1-.08-.16-.1c-.06-.03-.12-.05-.19-.04-.12,0-.27.05-.35.15s-.15.22-.15.35l.02.13c.02.08.07.16.13.22Z"/>
    <path class="cls-6" d="m118.97,74.4c1.11-.26,2.21-.51,3.32-.77.51-.12.86-.73.7-1.23-.17-.53-.68-.83-1.23-.7-1.11.26-2.21.51-3.32.77-.51.12-.86.73-.7,1.23.17.53.68.83,1.23.7h0Z"/>
    <path class="cls-2" d="m122.65,79.27c-.87.01-1.75.37-2.4,1.04s-1.02,1.68-.93,2.67.66,1.92,1.47,2.28c.45.2.94.22,1.42.23,1.31.03,2.61-.04,3.92-.11.48-.02.96-.05,1.41-.22.35-.13.7-.36.87-.73.12-.26.15-.56.14-.86-.04-1.17-.64-2.24-1.43-2.99-1.4-1.35-3.41-1.84-5.17-1.24l.68-.08Z"/>
    <path class="cls-2" d="m122.38,88.91c-.53.05-.93.57-.94,1.1s.31,1.03.74,1.33.97.43,1.49.48c.83.07,1.67-.04,2.44-.34.34-.13.69-.31.87-.62.23-.38.17-.89-.07-1.27s-.62-.64-1.03-.82c-1.15-.53-2.55-.5-3.68.08l.18.05Z"/>
    <path class="cls-6" d="m82.39,77.23c-1.57.3-3.04,1.01-4.13,2.23-1.46,1.62-1.98,4.27-1.94,6.4,0,.14,0,.28.02.42.13,2.29.98,4.54,2.4,6.34.19.24.4.48.67.63.27.14.58.18.89.22,1.59.18,3.2.37,4.8.21s3.2-.69,4.39-1.78c1.65-1.52,2.25-3.87,2.39-6.11.13-2.08-.11-4.3-1.35-5.98-1.53-2.07-4.31-2.89-6.88-2.73-.42.03-.84.08-1.25.16Z"/>
    <path class="cls-6" d="m79.66,92.63c-.26.2-.51.4-.77.6-.05.05-.08.1-.1.16-.03.06-.05.12-.04.19,0,.12.05.27.15.35s.22.15.35.15l.13-.02c.08-.02.16-.07.22-.13.22-.17.45-.35.67-.52.03-.02.06-.05.09-.07.05-.05.08-.1.1-.16.03-.06.05-.12.04-.19,0-.12-.05-.27-.15-.35s-.22-.15-.35-.15l-.13.02c-.08.02-.16.07-.22.13-.22.17-.45.35-.67.52-.03.02-.06.05-.09.07l.71.71c.26-.2.51-.4.77-.6.05-.05.08-.1.1-.16.03-.06.05-.12.04-.19,0-.12-.05-.27-.15-.35s-.22-.15-.35-.15l-.13.02c-.08.02-.16.07-.22.13Z"/>
    <path class="cls-6" d="m89.78,72.47c-1.11-.26-2.21-.51-3.32-.77-.51-.12-1.11.16-1.23.7-.12.51.15,1.1.7,1.23,1.11.26,2.21.51,3.32.77.51.12,1.11-.16,1.23-.7.12-.51-.15-1.1-.7-1.23h0Z"/>
    <path class="cls-2" d="m85.56,79.27c.87.01,1.75.37,2.4,1.04s1.02,1.68.93,2.67-.66,1.92-1.47,2.28c-.45.2-.94.22-1.42.23-1.31.03-2.61-.04-3.92-.11-.48-.02-.96-.05-1.41-.22-.35-.13-.7-.36-.87-.73-.12-.26-.15-.56-.14-.86.04-1.17.64-2.24,1.43-2.99,1.4-1.35,3.41-1.84,5.17-1.24l-.68-.08Z"/>
    <path class="cls-2" d="m85.83,88.91c.53.05.93.57.94,1.1s-.31,1.03-.74,1.33-.97.43-1.49.48c-.83.07-1.67-.04-2.44-.34-.34-.13-.69-.31-.87-.62-.23-.38-.17-.89.07-1.27s.62-.64,1.03-.82c1.15-.53,2.55-.5,3.68.08l-.18.05Z"/>
    <path class="cls-4" d="m77.07,104.82c-.07,0-.14,0-.21.01-1.29.05-2.55-.45-3.66-1.11-1.6-.96-3.02-2.37-3.6-4.15-.23-.72-.32-1.52-.08-2.24.27-.81.92-1.46,1.68-1.86,1.16-.6,2.6-.64,3.79-.1s2.12,1.64,2.44,2.91c.78-1.01,1.7-1.99,2.89-2.44,2.69-1.02,4.74,1.49,3.99,4.06-.32,1.1-1.07,2.04-1.97,2.74s-1.95,1.19-3.02,1.59c-.73.28-1.48.52-2.25.58Z"/>
    <path class="cls-4" d="m131.78,104.82c.07,0,.14,0,.21.01,1.29.05,2.55-.45,3.66-1.11,1.6-.96,3.02-2.37,3.6-4.15.23-.72.32-1.52.08-2.24-.27-.81-.92-1.46-1.68-1.86-1.16-.6-2.6-.64-3.79-.1s-2.12,1.64-2.44,2.91c-.78-1.01-1.7-1.99-2.89-2.44-2.69-1.02-4.74,1.49-3.99,4.06.32,1.1,1.07,2.04,1.97,2.74s1.95,1.19,3.02,1.59c.73.28,1.48.52,2.25.58Z"/>
    <path class="cls-5" d="m94.32,57.44c-1.42,2.07-2.36,4.7-1.68,7.22.57,2.11,2.27,3.96,4.48,4.3.55.09,1.36-.25,1.27-.96-.12-.94.04-1.74.55-2.53l-1.86-.5c.42,3.44,2.78,6.33,6.06,7.48,1.19.42,3.61,1.01,4.41-.36.53-.9-.16-1.93-.32-2.84-.21-1.12-.11-2.25.19-3.34l-1.47.6c.91.67,1.9,1.19,2.97,1.55.86.29,2.15.74,3.03.31,1.08-.53.72-1.7.5-2.63-.31-1.31-.62-2.62-.93-3.93s-2.23-.72-1.93.53c.22.91.43,1.82.65,2.74.08.34.16.68.24,1.03.05.23.11.46.16.68.04.56.22.48.55-.25-.07-.1-.99-.18-1.15-.23-.3-.08-.6-.17-.89-.29-.79-.31-1.52-.74-2.2-1.24-.53-.39-1.31.03-1.47.6-.42,1.49-.48,3.04-.16,4.56.03.13.22,1.18.35,1.2.42-.21.48-.29.21-.23-.17,0-.34,0-.51-.01-.58-.04-1.16-.17-1.71-.36-2.35-.84-4.28-3.04-4.59-5.55-.12-.96-1.28-1.39-1.86-.5-.69,1.06-.99,2.29-.83,3.54l1.27-.96c-1.64-.26-2.81-1.56-3.14-3.16-.4-1.93.48-3.87,1.54-5.43.73-1.06-1-2.07-1.73-1.01h0Z"/>
  </g>
  <g>
    <path class="cls-3" d="m203.73,60.85c0-2.44.72-3.67,2.16-3.67,1.57,0,2.36,1.24,2.36,3.73v1.31c0,1.83.96,2.75,2.88,2.75h1.5c1.96,0,2.94-.92,2.94-2.75v-1.31c0-2.49.76-3.73,2.29-3.73,1.4,0,2.09,1.22,2.09,3.67v14.4c0,2.92-1.4,4.38-4.19,4.38h-7.92c-2.75,0-4.12-1.46-4.12-4.38v-14.4Zm4.52,9.82v3.21c0,1.96.96,2.94,2.88,2.94h1.5c1.96,0,2.94-.98,2.94-2.94v-3.21c0-1.92-.98-2.88-2.94-2.88h-1.5c-1.92,0-2.88.96-2.88,2.88Zm24.02,5.1v6.15c0,1.66-.25,2.74-.75,3.24s-1.08.75-1.73.75c-.79,0-1.4-.29-1.83-.88-.44-.59-.65-1.6-.65-3.04v-22.18c0-.96.16-1.84.49-2.65.33-.81.97-1.21,1.93-1.21,1.7,0,2.55,1.33,2.55,3.99v6.02c0,2.14.96,3.21,2.88,3.21h1.83c2.23,0,3.34.59,3.34,1.77s-1.11,1.7-3.34,1.7h-1.83c-1.92,0-2.88,1.05-2.88,3.14Z"/>
    <path class="cls-3" d="m245.81,66.94c0-3.14,1.61-4.71,4.84-4.71h7.66c3.18,0,4.78,1.57,4.78,4.71v7.79c0,3.14-1.61,4.71-4.84,4.71h-7.59c-3.23,0-4.84-1.55-4.84-4.65v-7.85Zm4.78,1.83v4.06c0,2.49,1.22,3.73,3.67,3.73h.39c2.49,0,3.73-1.24,3.73-3.73v-4.06c0-2.4-1.24-3.6-3.73-3.6h-.39c-2.44,0-3.67,1.2-3.67,3.6Zm20.55-8.97c0-2.57.83-3.86,2.49-3.86s2.49,1.29,2.49,3.86v22.18c0,2.62-.83,3.93-2.49,3.93s-2.49-1.31-2.49-3.93v-22.18Z"/>
  </g>
</svg>