<?xml version="1.0" encoding="UTF-8"?>
<svg id="_레이어_2" data-name="레이어 2" xmlns="http://www.w3.org/2000/svg" viewBox="0 0 523.4 209.36">
  <defs>
    <style>
      .cls-1 {
        fill: #ffcfe5;
        stroke: #ff94c5;
        stroke-width: 6px;
      }

      .cls-1, .cls-2 {
        stroke-miterlimit: 10;
      }

      .cls-3 {
        fill: #ff94c5;
        stroke-width: 0px;
      }

      .cls-2 {
        fill: #ff71ab;
        stroke: #ffcfe5;
        stroke-width: 5px;
      }
    </style>
  </defs>
  <g>
    <path class="cls-1" d="m53.72,103.59c-23.78,4.21-36.46-.75-38.94-14.72s7.79-22.69,31.57-26.9,36.24.33,38.74,14.45-7.73,22.99-31.37,27.17Zm21.01,23.41c1.74,9.81-5.27,13.51-15.08,15.24s-17.66.68-19.4-9.13l-.87-4.9-7.28,1.29c-6.24,1.11-10.52-2.28-11.55-8.07s1.86-10.29,8.1-11.4l41.02-7.27c4.91-.87,8.3-1.62,12.5-2.98,4.48-1.56,10.08.67,11.95,6.01,1.72,5.37-1.25,11.11-6.3,12.92-4.35,1.38-8.61,2.45-13.96,3.39l.87,4.9Zm51.2,14.69c-1.26-7.13,7.57-10.08,17.97-11.92s17.92-1.8,21.27,4.97c4.39,9.19,5.76,16.92,5.18,25.76-.61,8.69-6.5,12.65-16.74,15.38-28.62,7.22-57.03,12.1-86.39,15.15-10.56.95-17.45-.74-20.98-8.55-3.38-7.83-4.95-15.83-3.99-25.97.82-7.5,7.71-10.11,18.12-11.95s19.71-2.11,20.97,5.02l.26,1.49c16.03-4.68,28.07-6.81,44.59-7.9l-.26-1.49ZM40.42,76.97c2.56,3.22,3.17,6.64,1.87,10.55,4.89-4.39,10.54-5.39,16.65-2.95-2.56-3.22-3.17-6.64-1.87-10.55-4.87,4.54-10.52,5.54-16.65,2.95Zm50.44,59.74c-7.13,1.26-9.8-1.64-10.56-5.95s.71-8.1,7.85-9.36l10.7-1.9c-4.1-17.98-7.73-37.57-9.34-54.45-.63-6.17,4.56-10.62,12.58-12.04s14.28,1,15.95,6.99c4.98,18.59,8.66,41.08,10.66,60.2.51,6.35-4.83,10.82-12.56,12.19-1.04.18-2.08.37-3,.38l-22.3,3.95Zm5.61,24.76c5.12,2.93,5.96,7.68,2.16,12.19,4.98-5.63,14.49-7.32,21.23-3.91-5.09-2.78-6.18-7.18-2.65-11.49-5.21,5.21-14.3,6.67-20.74,3.21Zm26.13-102.59c-.63-6.17,4.86-10.67,12.88-12.09s14.58.94,16.1,6.96c4.64,19.26,8.48,40.96,10.74,60.64.63,6.17-5,10.7-12.73,12.07s-14.73-.92-16.25-6.93c-4.49-19.29-8.33-40.99-10.74-60.64Z"/>
    <path class="cls-1" d="m198.25,154.04h-8.89c-3.9,0-6.58-1.95-7.67-8.53-3.17,5.72-6.82,10.84-11.21,15.59-6.09,6.58-17.42,7.92-23.51,1.95-4.99-4.87-4.75-12.42.85-19.12,9.74-11.45,17.29-27.77,17.29-40.92v-9.87c-1.34,3.41-2.31,6.7-2.31,10.35h-7.92c-8.28,0-12.79-6.09-12.79-17.05,0-8.65,4.99-15.35,11.33-16.56,11.45-2.19,20.34-2.44,30.45,0,5.97,1.46,9.26,5.72,9.99,12.79h4.51c0-1.22,0-2.44.12-3.78.24-6.94,6.09-10.47,12.91-10.47s12.67,3.53,12.91,10.47c.85,27.65.85,53.96,0,81.85-.24,6.94-6.21,10.47-12.91,10.47s-12.67-3.53-12.91-10.47l-.24-6.7Zm-.37-40.44h-5.72c-.49,3.29-1.1,6.46-1.83,9.5h7.55v-9.5Zm42.87,58.95c-6.82,0-12.79-3.53-13.03-10.47-.85-28.01-.85-55.66,0-83.55.24-6.94,6.21-10.47,13.03-10.47s12.67,3.53,13.03,10.47c1.34,27.89,1.34,55.66,0,83.55-.37,6.94-6.09,10.47-13.03,10.47Z"/>
    <path class="cls-1" d="m287.83,129.42c-19.85-.84-33.43-10.08-32.6-29.62.82-19.54,15.13-27.61,34.98-26.77s33.32,10.08,32.5,29.62c-.82,19.54-15.13,27.61-34.88,26.78Zm55.91,16.32c6.34.27,10.14,5.4,9.89,11.42s-4.44,9.97-15.67,10.34c-18.97.68-40.62-.13-55.66-2.24-11.25-1.53-18.47-3.42-19.01-10.85-.42-5.1,0-12.69.92-16.78,1.28-5.34,8.73-6.3,16.12-5.99,6.44.27,14.94,1.9,15.56,7.32.36,4.04.3,7.84-.3,12.15,1.79-2.25,2.32-4.77,2.42-7.3l45.73,1.93Zm-62.37-48.76c2.75,2.55,2.62,5.72-.34,8.13,4.35-2.88,10.79-2.51,14.78.73-3.06-2.77-2.92-6.05.36-8.55-4.25,2.99-10.7,2.83-14.8-.31Zm57.46,44.74c-7.39-.31-12.86-3.72-13.14-11.98-.25-9.21.76-32.97,1.78-42.24.99-8.32,6.72-11.25,14.11-10.94s12.75,3.71,13.14,12.09c.24,9.32-.75,32.87-1.78,42.24-1.09,8.21-6.71,11.14-14.1,10.83Z"/>
    <path class="cls-1" d="m346.71,121.32c-6.61-.87-10.87-7.68-9.8-15.83.83-6.3,4.92-11.24,9.92-12.45-.88-6.37-.09-12.36,2.4-18.29-4.72-2.18-7.62-7.41-6.76-14.02,1.05-7.99,7.04-13.15,18.05-13.58,13.63-.24,30.54,1.98,43.5,5.72,9.17,2.77,15.48,8.29,14.15,18.43l-.29,1.06-.08.61c1.41-1.22,3.05-1.79,4.89-1.55l.31.04c.46-2.29.78-4.74,1.39-7.01,1.25-5.93,7.67-8.37,15.97-7.28,7.99,1.05,13.72,5.09,13.54,11.16-.63,17.9-3.77,39.37-7.52,57.17-1.4,5.91-7.97,8.33-15.97,7.28s-14.02-5.13-13.54-11.16c.22-4.04.59-8.05.98-12.22l-.15-.02c-6.3-.83-8.7-9.9-7.33-20.35.36-2.77,1.05-5.65,2.03-8.33-1.22.93-2.7,1.52-4.3,1.78.88,6.37-.06,12.34-2.56,18.27,4.68,2.49,7.35,8.31,6.52,14.62-1.07,8.15-6.95,13.63-13.71,12.74l-51.64-6.79Zm87.02,25.51c-.65,4.92,12.37,11.79,27.94,14.62,14.5,2.69,16.99,13.49,13.66,23.37-3.31,9.73-13.1,12.82-24.12,11.06-13.64-2.11-32.68-9.46-43.53-14.95,2.35-1.25,7.5-3.55,11.59-10.83-14.13,12.37-42.9,15.94-58.81,14.47-10.97-.97-19.78-6.51-20.45-16.92-.68-10.25,4.49-19.89,19.21-18.89,15.2.9,29.35-2.08,30.1-7.77l.14-1.08c.97-7.38,12.71-8.65,24.23-7.13,9.99,1.31,21.15,5.59,20.18,12.97l-.14,1.08Zm-66.2-66.08c3.82,4.25,3.04,9-2.06,12.08,6.75-3.8,16.61-2.66,22.15,2.76-4.13-4.3-3.83-8.95.96-12.07-6.54,3.36-15.61,2.17-21.06-2.77Zm91.06-11.17c1.33-6.55,8.1-9.25,16.4-8.16s13.98,5.43,13.57,12.1c-1.46,20.6-4.75,45.66-8.69,66.09-1.33,6.55-8.25,9.23-16.24,8.18-8.3-1.09-14.14-5.45-13.73-12.12,1.63-20.74,4.93-45.79,8.69-66.09Z"/>
  </g>
  <path class="cls-2" d="m468.69,48.25c2.26-7.68,8.01-11.05,15.09-8.96,4.52,1.33,8.41,5.11,8.23,14.16,1.18-1.42,1.59-4.03.97-6.9,2.95-2.27,6.4-2.67,9.66-1.71,7.08,2.08,10.18,8.06,7.91,15.74-3.26,11.08-19.9,18.78-27.72,16.48-7.87-2.32-17.42-17.63-14.13-28.81Z"/>
  <g>
    <path class="cls-3" d="m112.16,28.66c.36,0,.91,0,1.39-.07,1.37-.24,2.26.86,2.47,2.76.22,1.92-.41,3.41-1.92,3.7-1.92.38-3.94.41-5.59.17-1.66-.22-2.95-1.22-3.1-3.36-.26-3.91-.26-8.23.05-12.79.12-1.68,1.37-2.71,3.05-2.71s2.95,1.03,3.05,2.71c.17,3.43.22,8.02.12,11.45.43-.65.5-1.2.48-1.85Zm9.46.07c-.02,1.87-.07,3.74-.12,5.66-.05,1.37-1.18,2.06-2.45,2.06s-2.38-.7-2.42-2.06c-.17-5.5-.17-10.66,0-16.13.05-1.37,1.15-2.06,2.42-2.06s2.38.7,2.45,2.06c.05,1.42.1,2.78.12,4.15h.82c.02-1.39.07-2.81.12-4.22.02-1.37,1.18-2.06,2.47-2.06s2.4.7,2.45,2.06c.22,5.5.22,10.97,0,16.47-.05,1.37-1.18,2.06-2.45,2.06s-2.45-.7-2.47-2.06c-.07-1.97-.12-3.94-.14-5.93h-.79Z"/>
    <path class="cls-3" d="m149.55,29.1v1.32h5.26c1.66,0,2.78,1.25,2.78,2.88s-1.13,2.83-2.78,2.93c-5.83.29-11.79.29-17.74,0-1.66-.1-2.76-1.27-2.76-2.93s1.1-2.88,2.76-2.88h5.09v-1.32h-1.78c-2.57,0-4.25-1.87-4.44-4.44-.1-1.27-.1-2.52,0-3.79.19-2.57,1.87-4.2,4.44-4.44,3.65-.31,7.3-.31,10.92,0,2.57.24,4.25,1.87,4.44,4.44.1,1.27.1,2.52,0,3.79-.19,2.57-1.87,4.44-4.44,4.44h-1.75Zm-6.24-7.54c.98,1.1.98,1.54,0,2.62,1.37-1.22,3.77-1.22,5.11,0-1.01-1.08-1.01-1.51,0-2.62-1.37,1.22-3.74,1.22-5.11,0Z"/>
    <path class="cls-3" d="m166.69,28.18c.98,0,2.26,0,3.19-.24,1.82-.46,3.22.43,3.55,2.42.43,2.4-.43,3.58-2.9,4.37-2.21.7-4.8.65-7.46.22-1.8-.29-3.6-1.42-3.86-3.72-.5-4.56-.5-8.02-.05-11.95.22-1.78,1.25-2.81,3.48-2.81s3.34,1.03,3.48,2.81c.31,4.06.31,7.54,0,10.73.38-.62.53-1.2.58-1.82Zm11.02,8.54c-1.8,0-3.19-1.06-3.26-2.83-.22-5.71-.29-9.22,0-14.93.1-1.78,1.46-2.83,3.26-2.83s3.22,1.06,3.26,2.83c.22,5.64.29,9.19,0,14.93-.07,1.78-1.44,2.83-3.26,2.83Z"/>
    <path class="cls-3" d="m189.75,28.23c-.07,1.06-.19,2.09-.36,3.12.29-.6.55-1.13.67-1.75h1.73c.89,0,1.85-.17,2.57-.26,1.42-.22,2.5.5,2.81,2.09.34,1.8-.48,3.1-2.09,3.55-2.57.7-4.15.82-7.25.53-2.18-.19-4.44-1.22-4.8-3.89-.46-3.58-.46-7.78,0-11.23.24-2.04,1.8-3.43,4.49-3.98,1.63-.34,3.07-.38,5.93.07,2.42.41,3.26,1.54,3.26,2.81,0,1.68-.84,2.57-2.62,2.57h-4.03c-.12-.62-.38-1.15-.67-1.75.17.96.29,1.92.36,2.88h3.77c1.49,0,2.06,1.15,2.06,2.64s-.58,2.62-2.06,2.62h-3.77Zm7.97.38c-1.32,0-1.78-.67-1.78-3.17s.94-3.14,2.26-3.14h.41c.02-1.03.07-2.14.12-3.34.07-1.78,1.39-2.83,3.05-2.83s3,1.06,3.05,2.83c.22,5.64.22,9.19,0,14.93-.05,1.78-1.37,2.83-3.05,2.83s-2.98-1.06-3.05-2.83c-.07-1.94-.12-3.65-.14-5.28h-.86Z"/>
    <path class="cls-3" d="m219.2,28.66c-4.44,0-7.56-1.97-7.56-6.41s3.12-6.41,7.56-6.41,7.54,1.97,7.54,6.41-3.12,6.41-7.54,6.41Zm12.72,3.17c1.44,0,2.35,1.13,2.35,2.5s-.91,2.3-3.46,2.5c-4.3.36-9.22.36-12.65.02-2.57-.24-4.2-.6-4.42-2.28-.12-1.15-.12-2.88.05-3.82.24-1.22,1.92-1.51,3.6-1.51,1.46,0,3.41.29,3.6,1.51.12.91.14,1.78.05,2.76.38-.53.48-1.1.48-1.68h10.39Zm-14.5-10.46c.65.55.65,1.27,0,1.85.96-.7,2.42-.67,3.36.02-.72-.6-.72-1.34,0-1.94-.94.72-2.4.74-3.36.07Zm16.3,4.34c-.02,1.08-.05,2.02-.1,2.66-.17,1.87-1.42,2.59-3.1,2.59s-2.95-.72-3.1-2.59c-.14-2.09-.14-7.49,0-9.6.14-1.9,1.42-2.62,3.1-2.62s2.93.72,3.1,2.62c0,.19.02.41.02.62h.22c.98,0,1.61.67,1.61,3.14s-.62,3.17-1.61,3.17h-.14Z"/>
    <path class="cls-3" d="m249.92,30.58c1.46,0,1.92,1.06,1.92,2.69,0,1.44-.46,2.47-1.92,2.64-3.72.46-8.11.46-11.93,0-1.46-.14-1.92-1.2-1.92-2.64,0-1.63.46-2.69,1.92-2.69h11.93Zm-6-.7c-4.61,0-7.49-2.21-7.49-6.84s2.88-6.84,7.49-6.84,7.49,2.21,7.49,6.84-2.86,6.84-7.49,6.84Zm-1.34-7.7c.34.58.34,1.13,0,1.7.89-.55,1.82-.55,2.71,0-.34-.58-.34-1.13,0-1.7-.89.58-1.82.58-2.71,0Zm12.91,14.55c-1.68,0-2.98-1.06-3.05-2.83-.22-5.74-.22-9.29,0-14.93.07-1.78,1.37-2.83,3.05-2.83s2.98,1.06,3.05,2.83c.22,5.64.22,9.19,0,14.93-.07,1.78-1.37,2.83-3.05,2.83Z"/>
    <path class="cls-3" d="m276.78,21.44c.53.55,1.32.98,2.42,1.46,1.25.55,1.75,2.11.96,3.5-.79,1.42-2.04,1.8-3.74,1.42-1.15-.26-2.52-.82-3.43-1.54.65-.7,1.2-1.37,1.44-2.33-1.42,2.02-3.1,3.19-5.16,4.08-1.61.67-3.1.17-3.89-1.22-.77-1.44-.14-3.02,1.13-3.58,1.2-.55,2.02-1.08,2.52-1.8h-1.66c-1.66,0-2.38-1.06-2.38-2.5s.72-2.47,2.38-2.62c3.22-.24,7.51-.24,10.73,0,1.66.14,2.38,1.13,2.38,2.62s-.72,2.5-2.38,2.5h-1.32Zm-7.56,12.19c-1.44,0-2.35-1.13-2.35-2.5s.91-2.42,2.35-2.42h14.62c1.44,0,3.12.29,3.26,1.54.19,1.9.19,3.72,0,5.3-.17,1.25-1.82,1.51-3.26,1.51s-3.17-.26-3.26-1.51c-.07-.74-.26-2.5-.07-3.6-.38.53-.53,1.08-.53,1.68h-10.75Zm17.93-8.57l-.05,1.01c-.12,1.46-1.37,2.18-3.05,2.18s-2.95-.72-3.05-2.18c-.19-2.5-.19-5.18,0-7.75.1-1.44,1.37-2.16,3.05-2.16s2.93.72,3.05,2.16c0,.14,0,.29.02.43h.26c.98,0,1.61.67,1.61,3.14s-.62,3.17-1.61,3.17h-.24Z"/>
    <path class="cls-3" d="m291.32,29.79c-1.22,0-1.97-.89-1.97-2.09s.74-2.09,1.97-2.09h19.37c1.22,0,1.97.94,1.97,2.09s-.96,2.09-2.18,2.09h-19.15Zm9.58-4.78c-6.98,0-10.34-1.39-10.34-4.58s3.36-4.58,10.34-4.58,10.34,1.39,10.34,4.58-3.36,4.58-10.34,4.58Zm7.78,7.54c1.44,0,2.35.96,2.35,2.16s-.91,1.99-3.46,2.16c-4.3.29-8.86.31-12.29.02-2.57-.22-4.22-.53-4.42-1.99-.14-.98-.12-2.5.05-3.29.24-1.08,2.28-1.32,3.96-1.32,1.46,0,3.77.24,3.96,1.32.12.79.14,1.54.05,2.38.38-.46.48-.96.48-1.44h9.31Zm-9.5-12.96c.72.58.74,1.32.07,1.92.96-.7,2.42-.7,3.36.02-.72-.6-.72-1.34,0-1.94-.96.72-2.47.72-3.43,0Z"/>
    <path class="cls-3" d="m329.43,30.13v4.44c0,1.54-1.32,2.16-3.05,2.16s-3.05-.62-3.05-2.16v-4.44h-2.28c-1.01,0-1.94-.94-1.94-2.52s.94-2.5,1.94-2.5h6.12c.22-1.25.36-2.57.36-3.55v-1.32c-.36.62-.5,1.3-.5,1.97h-4.58c-1.92,0-2.69-1.18-2.69-2.93s.77-2.76,3.12-2.95c2.42-.22,5.35-.22,7.78,0,2.38.19,3.1,1.46,3.1,3.19v1.27c0,1.46-.07,2.88-.34,4.22.84.26,1.34.96,1.44,1.92.17,1.44-.58,2.69-1.99,2.95-.98.17-2.04.24-3.26.24h-.17Zm9.1,6.6c-1.68,0-2.98-1.06-3.05-2.83-.22-5.74-.22-9.29,0-14.93.07-1.78,1.37-2.83,3.05-2.83s2.98,1.06,3.05,2.83c.22,5.64.22,9.19,0,14.93-.07,1.78-1.37,2.83-3.05,2.83Z"/>
    <path class="cls-3" d="m355.98,26.38c-1.32.91-3.14,1.32-5.26,1.32-4.44,0-7.56-1.82-7.56-5.93s3.12-5.93,7.56-5.93c2.4,0,4.44.55,5.78,1.7h3.12c.41-.91,1.51-1.39,2.9-1.39,1.68,0,2.93.7,3.05,2.06.19,2.47.19,4.99,0,7.46-.12,1.39-1.37,2.09-3.05,2.09-1.37,0-2.47-.46-2.88-1.39h-3.67Zm6.34,1.85c2.16,0,3.12,1.22,3.34,2.98.12.91.12,1.78,0,2.66-.22,1.75-1.18,2.83-3.34,2.98-4.66.29-8.83.29-13.49,0-2.16-.14-3.12-1.22-3.34-2.98-.12-.89-.12-1.75,0-2.66.22-1.75,1.18-2.98,3.34-2.98h13.49Zm-13.37-7.34c.65.55.65,1.27,0,1.85.96-.7,2.42-.67,3.36.02-.72-.6-.72-1.34,0-1.94-.94.72-2.4.74-3.36.07Zm4.99,10.82c.65.58.65,1.27,0,1.87.94-.67,2.38-.7,3.31-.02-.65-.6-.65-1.27,0-1.85-.94.67-2.38.67-3.31,0Zm5.4-10.25h-1.08v.31c0,.24-.02.48-.05.7h1.13v-1.01Z"/>
    <path class="cls-3" d="m382.11,28.66v.86c4.54.41,6.46,1.66,6.46,3.77,0,2.64-2.95,3.94-10.18,3.94s-10.13-1.3-10.13-3.94c0-2.14,1.92-3.36,6.46-3.77v-.86h-5.88c-1.22,0-1.97-.89-1.97-2.09s.74-2.09,1.97-2.09h19.37c1.22,0,1.97.94,1.97,2.09s-.96,2.09-2.18,2.09h-5.88Zm-9.29-4.7c-2.28,0-3.91-.46-4.2-2.11-.24-1.13-.22-2.35,0-3.46.26-1.68,1.7-1.97,3.74-2.11,4.49-.26,8.86-.34,13.78,0,1.18.1,2.16.67,2.16,1.78,0,1.18-.77,1.7-2.16,1.7h-9.82c-.1-.26-.29-.48-.55-.7.24.65.24,1.3,0,1.92.26-.19.46-.43.55-.67h9.86c1.39,0,2.16.65,2.16,1.82s-.77,1.82-2.16,1.82h-13.37Zm3.96,8.28c.65.55.65,1.27,0,1.82.96-.67,2.42-.65,3.36.05-.72-.58-.77-1.3-.1-1.87-.94.65-2.33.65-3.26,0Z"/>
    <path class="cls-3" d="m391.57,26c0-6.67,2.88-9.86,7.32-9.86s7.3,3.19,7.3,9.86-2.9,9.86-7.3,9.86-7.32-3.22-7.32-9.86Zm8.28-2.38c-.62.74-1.37.74-1.97,0,.62.96.6,3.53,0,4.54.6-.72,1.34-.72,1.99,0-.62-1.03-.62-3.55-.02-4.54Zm10.68,13.1c-1.68,0-2.98-1.06-3.05-2.83-.22-5.74-.22-9.29,0-14.93.07-1.78,1.37-2.83,3.05-2.83s2.98,1.06,3.05,2.83c.22,5.64.22,9.19,0,14.93-.07,1.78-1.37,2.83-3.05,2.83Z"/>
    <path class="cls-3" d="m418.61,30.08c-1.61,0-2.69-.77-2.93-2.52-.41-2.95-.55-5.98-.34-8.93.14-1.73,1.51-2.5,3.26-2.5s3.12.77,3.24,2.5c.22,2.95.07,5.98-.34,8.93-.24,1.75-1.32,2.52-2.9,2.52Zm0,6.65c-2.04,0-3.31-1.13-3.31-2.95s1.27-2.95,3.31-2.95,3.31,1.13,3.31,2.95-1.27,2.95-3.31,2.95Z"/>
  </g>
</svg>