<?xml version="1.0" encoding="UTF-8"?>
<svg id="_레이어_2" data-name="레이어 2" xmlns="http://www.w3.org/2000/svg" xmlns:xlink="http://www.w3.org/1999/xlink" viewBox="0 0 265.02 121.79">
  <defs>
    <style>
      .cls-1 {
        font-family: AcuminConcept-Medium, 'Acumin Variable Concept';
        font-size: 14.64px;
        font-variation-settings: 'wght' 500, 'wdth' 100, 'slnt' 0;
        font-weight: 500;
      }

      .cls-1, .cls-2, .cls-3 {
        fill: #ff71ab;
      }

      .cls-4 {
        fill: #e0007b;
      }

      .cls-4, .cls-5, .cls-3, .cls-6 {
        stroke-width: 0px;
      }

      .cls-5 {
        filter: url(#drop-shadow-1);
      }

      .cls-5, .cls-6, .cls-7 {
        fill: #f9f0cd;
      }

      .cls-8 {
        fill: #ffcaea;
        stroke: #ff9cdc;
      }

      .cls-8, .cls-9, .cls-7 {
        stroke-miterlimit: 10;
      }

      .cls-9 {
        fill: none;
        stroke: #ff71ab;
      }

      .cls-2 {
        font-family: CuteFont-Regular, 'Cute Font';
        font-size: 14.67px;
      }

      .cls-7 {
        stroke: #efd27f;
      }
    </style>
    <filter id="drop-shadow-1" filterUnits="userSpaceOnUse">
      <feOffset dx="2" dy="2"/>
      <feGaussianBlur result="blur" stdDeviation="1"/>
      <feFlood flood-color="#59183d" flood-opacity=".61"/>
      <feComposite in2="blur" operator="in"/>
      <feComposite in="SourceGraphic"/>
    </filter>
  </defs>
  <rect class="cls-3" width="265.02" height="121.79"/>
  <rect class="cls-7" x="6.09" y="29.79" width="252.85" height="86.81"/>
  <rect class="cls-5" x="243.13" y="5.34" width="13.53" height="13.53"/>
  <text class="cls-1" transform="translate(245.54 15.78) scale(1.29 1)"><tspan x="0" y="0">x</tspan></text>
  <g>
    <path class="cls-6" d="m14.61,17.5c0,.18-.17.26-.5.26h-3.14c-.35,0-.53-.09-.53-.26,0-.11.04-.18.13-.2.08-.02.17-.05.27-.07.1-.02.19-.06.27-.13.08-.07.13-.2.13-.39v-1.04c0-.21-.04-.34-.13-.4-.08-.06-.17-.1-.27-.11-.1-.02-.19-.04-.27-.06-.08-.02-.13-.09-.13-.2,0-.19.18-.29.53-.29h3.14c.34,0,.5.1.5.29,0,.11-.04.18-.12.19-.08.02-.17.04-.27.06-.1.02-.19.07-.27.13-.08.06-.12.19-.12.4v1.06c0,.2.04.33.12.4s.17.1.27.12.19.04.27.06c.08.02.12.09.12.2Zm-2.54-.79c0,.34.12.52.36.52h.17c.26,0,.38-.17.38-.52v-1.03c0-.35-.12-.53-.37-.53h-.18c-.24,0-.36.17-.36.52v1.04Zm4.27.37v1.13c0,.5-.15.76-.46.76s-.47-.24-.47-.73v-4.03c0-.49.15-.73.46-.73s.47.26.47.77v1.09c0,.39.17.59.52.59h.35c.39,0,.59.1.59.3s-.2.29-.59.29h-.35c-.34,0-.52.19-.52.58Z"/>
    <path class="cls-6" d="m20.33,13.63c.22,0,.44.05.65.14.21.09.39.22.55.38.16.16.29.34.38.55s.14.42.14.65-.05.46-.14.67c-.1.21-.22.39-.38.54-.16.15-.34.27-.55.36s-.42.13-.64.13-.44-.04-.65-.13c-.21-.09-.39-.21-.55-.36-.16-.15-.28-.33-.37-.54-.09-.21-.14-.43-.14-.67s.04-.45.13-.65c.09-.2.21-.39.37-.55.16-.16.34-.29.55-.38.21-.09.43-.14.66-.14Zm.96,1.72c0-.26-.1-.48-.29-.67-.19-.19-.42-.28-.67-.28-.16,0-.3.03-.41.09-.12.06-.21.14-.29.23-.08.09-.14.19-.19.3-.04.11-.07.22-.07.33,0,.26.09.49.26.67.18.18.41.28.7.28.11,0,.22-.02.34-.07.11-.04.21-.11.31-.19.09-.08.17-.18.23-.29.06-.12.09-.25.09-.4Zm.55,2.9c0-.18.19-.26.56-.26h1.8c.53,0,.79.26.79.79v.58c0,.58-.28.88-.83.88h-.83c-.41,0-.61.2-.61.59v.11c0,.37.2.55.61.55h1.12c.36,0,.54.09.54.28,0,.16-.18.24-.53.24h-1.82c-.54,0-.82-.29-.82-.86v-.52c0-.59.27-.89.82-.89h.84c.41,0,.61-.18.61-.54v-.11c0-.38-.2-.58-.61-.58h-1.07c-.38,0-.58-.08-.58-.25Zm1.73-4.66c0-.48.16-.72.47-.72.3,0,.44.24.44.72v3.14c0,.49-.15.73-.46.73s-.46-.24-.46-.73v-3.14Z"/>
    <path class="cls-6" d="m30.88,14.97c0,.23.08.43.24.59l.54.55c.18.18.28.35.28.49,0,.06-.03.13-.08.19-.06.06-.12.1-.18.1-.18,0-.38-.13-.61-.38l-.29-.28c-.06-.06-.13-.09-.2-.11-.07-.02-.13-.03-.2-.04-.13,0-.26.06-.41.17l-.35.31c-.22.24-.41.36-.58.36-.07,0-.14-.03-.21-.1-.07-.06-.1-.13-.1-.2,0-.07.02-.15.08-.22.06-.08.14-.17.23-.27l.56-.61c.07-.08.13-.17.18-.26.05-.1.07-.2.07-.31v-.61c0-.48.17-.72.52-.72s.5.24.5.72v.65Zm.65,3.26c0-.18.21-.26.62-.26h1.67c.6,0,.9.26.9.77v1.2c0,.42-.15.64-.44.64s-.46-.22-.46-.66v-.53c0-.61-.28-.91-.84-.91h-.86s-.07.01-.1.01h-.08c-.27,0-.41-.08-.41-.25Zm2.63-1.99v.46c0,.52-.15.78-.46.78s-.46-.25-.46-.76v-3.11c0-.5.15-.74.44-.74.31,0,.47.26.47.77v.84c0,.4.18.6.53.6h.34c.41,0,.61.1.61.3s-.2.29-.61.29h-.34c-.35,0-.53.19-.53.58Z"/>
    <path class="cls-6" d="m38.53,15.86c0,.14.02.26.05.37.04.11.1.21.2.29l.53.55c.19.22.29.38.29.5,0,.07-.02.14-.07.2-.05.06-.11.1-.19.1-.09.02-.18-.01-.27-.08-.09-.07-.2-.17-.33-.29l-.34-.31c-.06-.06-.12-.1-.19-.12-.07-.02-.13-.03-.19-.04-.14,0-.26.05-.36.16l-.37.34c-.28.26-.49.38-.64.38-.08,0-.14-.03-.19-.1-.05-.07-.07-.14-.07-.21,0-.14.1-.31.31-.53l.56-.58c.18-.18.26-.39.26-.64v-.3c0-.27-.12-.41-.35-.41h-.08c-.43,0-.65-.09-.65-.28s.21-.29.62-.29h1.9c.42,0,.62.1.62.29s-.22.28-.65.28h-.08c-.22,0-.34.14-.34.41v.3Zm2.32,1.2c0-.38-.17-.56-.52-.56h-.04c-.34,0-.5-.1-.5-.31s.17-.32.5-.32h.04c.34,0,.52-.19.52-.56v-1.09c0-.49.12-.73.37-.73.26,0,.4.24.4.71v4.07c0,.48-.13.72-.4.72-.25,0-.37-.24-.37-.73v-1.18Zm1.68-2.88c0-.47.14-.71.42-.71s.43.24.43.71v4.07c0,.48-.15.72-.44.72-.27,0-.41-.24-.41-.72v-4.07Z"/>
  </g>
  <g>
    <path class="cls-9" d="m25.98,44.61l-5.78,10c-.4.69.1,1.56.9,1.56h11.55c.8,0,1.3-.87.9-1.56l-5.78-10c-.4-.69-1.4-.69-1.8,0Z"/>
    <text class="cls-2" transform="translate(25.45 53.91)"><tspan x="0" y="0">!</tspan></text>
  </g>
  <rect class="cls-8" x="6.09" y="81.19" width="252.98" height="35.4"/>
  <g>
    <path class="cls-4" d="m46.85,48.68c0,.27.08.49.24.65l.53.56c.2.22.3.39.29.53,0,.06-.02.13-.07.19-.05.06-.11.09-.18.09-.15,0-.35-.12-.6-.37l-.34-.32c-.06-.06-.12-.09-.19-.11-.07-.02-.13-.03-.2-.04-.13,0-.24.05-.35.16l-.37.34c-.28.26-.49.38-.64.38-.07,0-.13-.04-.18-.11-.05-.07-.07-.14-.07-.22,0-.07.02-.15.08-.23s.13-.17.22-.28l.55-.59c.08-.08.14-.17.19-.28.04-.11.07-.22.07-.34v-.34c0-.27-.1-.41-.31-.41h-.1c-.42,0-.64-.09-.64-.28s.2-.29.61-.29h1.9c.42,0,.62.1.62.29s-.21.28-.64.28h-.11c-.22,0-.32.14-.32.41v.34Zm2.4,2.83c.22,0,.43.05.63.14.2.09.38.21.53.37.15.15.27.33.37.53s.14.42.14.65-.05.46-.15.66-.23.37-.38.52c-.15.14-.33.26-.53.34-.2.08-.41.12-.61.12-.22,0-.42-.04-.62-.12-.2-.08-.37-.19-.52-.34-.15-.14-.27-.32-.37-.52-.1-.2-.14-.42-.14-.67,0-.22.04-.44.13-.64s.2-.38.35-.53c.15-.15.33-.27.53-.37.2-.09.42-.14.64-.14Zm.26-1.66c0-.37-.18-.55-.55-.55h-.37c-.17,0-.28-.03-.34-.1-.06-.06-.08-.14-.08-.24,0-.06.02-.14.06-.23.04-.09.16-.13.36-.13h.37c.37,0,.55-.18.55-.55v-.9c0-.19.03-.35.08-.47.05-.12.17-.18.35-.18.26,0,.38.2.38.61v3.34c0,.24-.04.41-.11.5s-.17.14-.28.14c-.15,0-.26-.05-.32-.16-.06-.1-.1-.27-.1-.49v-.59Zm.6,3.34c0-.14-.02-.27-.07-.39-.05-.12-.11-.23-.19-.32-.08-.09-.17-.16-.28-.21-.1-.05-.21-.08-.32-.08-.14,0-.26.03-.36.08-.1.06-.19.13-.26.23s-.13.2-.16.32c-.04.12-.05.24-.05.36,0,.28.08.51.23.68.16.18.36.26.61.26.09,0,.18-.02.29-.05s.2-.09.29-.17c.09-.08.16-.18.21-.3.05-.12.08-.26.08-.42Z"/>
    <path class="cls-4" d="m52.13,48.32c0-.58.29-.88.88-.88h1.42c.58,0,.86.29.86.88v1.42c0,.58-.29.86-.88.86h-1.4c-.58,0-.88-.28-.88-.85v-1.43Zm.86.32v.76c0,.45.23.67.68.67h.07c.46,0,.68-.22.68-.67v-.76c0-.44-.23-.66-.68-.66h-.07c-.46,0-.68.22-.68.66Zm1.84,3.24c0-.18.2-.26.59-.26h1.8c.53,0,.79.26.79.79v.58c0,.58-.28.88-.83.88h-.83c-.42,0-.62.2-.62.59v.11c0,.37.21.55.62.55h1.09c.38,0,.56.09.56.28,0,.16-.18.24-.55.24h-1.81c-.55,0-.83-.29-.83-.86v-.52c0-.59.28-.89.83-.89h.83c.42,0,.64-.18.64-.54v-.11c0-.38-.21-.58-.64-.58h-1.03c-.41,0-.61-.08-.61-.25Zm2.63-2v.46c0,.52-.15.78-.46.78s-.46-.25-.46-.76v-3.11c0-.5.15-.74.44-.74.31,0,.47.26.47.77v.84c0,.4.18.6.53.6h.34c.41,0,.61.1.61.3s-.2.29-.61.29h-.34c-.35,0-.53.19-.53.58Z"/>
    <path class="cls-4" d="m62.59,51.18c0-.18.18-.26.53-.26h3.78c.34,0,.5.09.5.28s-.17.29-.5.29h-.85c-.41,0-.61.24-.61.72v.29c0,.47-.14.71-.43.71-.31,0-.47-.24-.47-.71v-.29c0-.48-.19-.72-.58-.72h-.83c-.36,0-.54-.1-.54-.3Zm.67-3.83c0-.18.16-.26.49-.26h1.82c.74,0,1.12.34,1.12,1.01v.94c0,.54-.15.8-.44.8s-.46-.27-.46-.82v-.25c0-.41-.08-.7-.25-.88s-.46-.27-.86-.27h-.91c-.34,0-.5-.09-.5-.26Z"/>
    <path class="cls-4" d="m68.6,49.13c0-.58.28-.86.85-.86h1.33c.58,0,.86.29.86.86v1.43c0,.58-.29.86-.88.86h-1.32c-.57,0-.85-.28-.85-.85v-1.44Zm.84.34v.74c0,.46.21.68.64.68h.07c.43,0,.65-.23.65-.68v-.74c0-.44-.22-.66-.65-.66h-.07c-.42,0-.64.22-.64.66Zm4.52.66h-.04c-.13,0-.23.02-.3.06s-.13.09-.16.15c-.04.06-.06.12-.07.19-.01.07-.02.13-.02.19v1.16c0,.49-.14.73-.43.73s-.43-.24-.43-.73v-4.03c0-.49.14-.73.43-.73s.43.24.43.73v1.13c0,.16.03.3.1.43.07.13.22.19.45.19h.04c.14,0,.27-.05.38-.14.11-.09.16-.25.16-.47v-1.14c0-.49.14-.73.42-.73.3,0,.44.24.44.73v4.03c0,.49-.15.73-.44.73-.28,0-.42-.24-.42-.73v-1.16c0-.14-.05-.28-.14-.4-.09-.12-.23-.19-.4-.19Z"/>
    <path class="cls-4" d="m78.37,48.37c.22,0,.44.04.64.13.2.09.38.21.53.35.15.15.27.32.36.51.09.19.13.4.13.61,0,.24-.05.46-.14.66-.1.2-.22.37-.38.5-.16.14-.33.24-.53.32-.2.08-.4.12-.61.12s-.42-.04-.62-.13c-.2-.08-.37-.2-.52-.35-.15-.15-.27-.32-.37-.51-.09-.19-.14-.4-.14-.62,0-.19.04-.39.12-.58.08-.2.19-.37.34-.52.14-.15.32-.27.52-.37.2-.09.43-.14.67-.14Zm-.07-1.25l1.13.04c.42.02.64.12.64.3s-.21.28-.62.28h-2.16c-.35,0-.53-.09-.53-.28,0-.2.2-.3.59-.3l.96-.04Zm.92,2.86c0-.25-.09-.47-.26-.65-.18-.19-.37-.28-.59-.28-.14,0-.26.03-.36.09-.1.06-.19.13-.26.22s-.13.19-.16.3c-.04.11-.05.22-.05.32,0,.25.08.46.24.65.16.18.36.28.6.28.1,0,.19-.02.29-.06s.19-.1.27-.18c.08-.08.15-.18.2-.29.06-.12.08-.25.08-.39Zm-.31-3.54c0,.14-.06.24-.17.31-.11.07-.23.11-.36.11-.15,0-.28-.04-.38-.13-.1-.08-.15-.18-.15-.29,0-.09.04-.18.13-.28.08-.1.22-.15.4-.15.17,0,.3.05.39.14.09.1.14.19.14.29Zm3.16,4.37v1.12c0,.3-.05.5-.14.59-.09.09-.2.14-.32.14-.14,0-.26-.05-.34-.16-.08-.11-.12-.29-.12-.55v-4.08c0-.18.03-.34.09-.48s.18-.22.35-.22c.31,0,.47.24.47.72v1.12c0,.38.18.58.53.58h.34c.41,0,.61.11.61.32s-.2.32-.61.32h-.34c-.35,0-.53.19-.53.58Z"/>
    <path class="cls-4" d="m86.75,49.44c0,.24.08.44.24.6l.54.54c.18.18.28.35.28.49,0,.06-.03.13-.08.19-.06.06-.12.1-.18.1-.18,0-.38-.13-.61-.38l-.29-.28c-.06-.06-.13-.09-.2-.11-.07-.02-.13-.03-.2-.04-.13,0-.26.06-.41.17l-.35.31c-.23.25-.42.37-.58.37-.07,0-.14-.03-.21-.1-.07-.07-.1-.14-.1-.21,0-.07.02-.15.08-.23s.14-.17.23-.26l.56-.61c.17-.17.25-.36.25-.58v-.61c0-.47.17-.71.52-.71s.5.24.5.71v.65Zm2.45-1.62c0-.47.15-.71.46-.71s.46.24.46.71v4.07c0,.48-.15.72-.46.72s-.46-.24-.46-.72v-4.07Z"/>
    <path class="cls-4" d="m91.76,47.81c0-.18.16-.26.49-.26h1.38c.72,0,1.1.33,1.14,1,.05.08.16.12.32.12h.29c.41,0,.61-.22.61-.65v-.85c0-.18.02-.33.07-.46s.15-.19.31-.19.27.05.32.15c.05.1.08.25.08.46v3.34c0,.24-.03.41-.1.5-.07.1-.17.14-.31.14-.11,0-.2-.05-.26-.15-.06-.1-.1-.27-.1-.5v-.54c0-.43-.21-.65-.62-.65h-.26c-.16,0-.27.06-.34.17v.41c0,.54-.15.8-.46.8s-.46-.28-.46-.83v-.6c0-.4-.09-.69-.26-.88-.17-.18-.46-.28-.86-.28h-.48c-.34,0-.5-.09-.5-.26Zm5.51,6.31c-.08.1-.16.16-.23.16-.06,0-.12-.05-.18-.14l-.37-.46c-.1-.11-.2-.17-.3-.17-.12,0-.23.06-.34.18l-.31.31c-.16.18-.3.28-.42.28-.08,0-.15-.04-.2-.13s-.08-.16-.08-.23c0-.1.06-.2.17-.31l.56-.56c.15-.15.23-.33.23-.53v-.35c0-.46.14-.68.43-.68s.42.23.42.68v.43c0,.19.05.36.16.52l.16.23c.02.06.06.1.11.1.04,0,.08-.03.13-.1l.14-.23c.06-.07.11-.15.14-.23.03-.08.05-.18.05-.28v-.43c0-.46.14-.68.43-.68s.42.23.42.68v.35c0,.1.01.19.04.28.02.09.07.17.14.25l.56.56c.1.12.16.22.16.31,0,.07-.03.15-.08.23s-.12.13-.21.13c-.07,0-.13-.02-.19-.07-.05-.05-.13-.12-.22-.2l-.3-.31c-.13-.12-.24-.18-.35-.18-.11,0-.21.06-.29.17l-.38.44Zm.4-6.89c0-.48.14-.72.42-.72s.43.24.43.72v3.14c0,.49-.15.73-.44.73-.27,0-.41-.24-.41-.73v-3.14Z"/>
    <path class="cls-4" d="m100.25,50.05h3.79c.35,0,.53.12.53.35,0,.18-.18.28-.53.28h-3.79c-.33,0-.49-.1-.49-.31s.16-.31.49-.31Zm2.33-3.28c0,.24.1.44.31.59l.58.59c.09.1.16.18.22.26.06.08.08.16.07.23,0,.07-.03.14-.08.2-.06.06-.12.09-.19.09-.17,0-.36-.13-.59-.4l-.37-.3c-.15-.1-.29-.16-.42-.16s-.26.06-.4.17l-.37.35c-.22.24-.4.36-.56.36-.06,0-.13-.03-.2-.1-.07-.07-.1-.14-.1-.22,0-.07.02-.14.07-.22.06-.07.13-.16.22-.26l.59-.64c.21-.16.31-.35.31-.58v-.46c0-.55.15-.83.44-.83.32,0,.48.28.48.83v.49Zm-1.4,5.7c0-.42.14-.64.42-.64.3,0,.44.22.44.66v.05c0,.29.17.43.52.43h.4c.34,0,.52-.14.52-.43v-.05c0-.44.15-.66.44-.66.28,0,.42.21.42.64v2.11c0,.54-.27.8-.8.8h-1.56c-.53,0-.79-.27-.79-.8v-2.11Zm.86,1.54v.3c0,.37.17.55.52.55h.4c.34,0,.52-.18.52-.55v-.3c0-.34-.17-.52-.52-.52h-.4c-.34,0-.52.17-.52.52Z"/>
    <path class="cls-4" d="m109.26,51.09c0,.18-.21.28-.62.28h-1.55c-.6,0-.9-.26-.9-.79v-1.45c0-.59.15-.89.44-.89.31,0,.47.31.47.94v.72c0,.62.28.94.85.94h.66c.43,0,.65.09.65.26Zm1.19-3.28c0-.47.15-.71.46-.71s.46.24.46.71v4.07c0,.48-.15.72-.46.72s-.46-.24-.46-.72v-4.07Z"/>
    <path class="cls-4" d="m115.69,48.35c.75,0,1.13.34,1.13,1.02v1.28c0,.54-.15.8-.46.8s-.44-.27-.44-.82v-1.2c-.05-.38-.21-.58-.49-.58h-.01c-.32,0-.48.19-.48.58v1.2c0,.54-.15.82-.46.82s-.44-.28-.44-.84v-1.22c0-.35-.17-.53-.52-.53h-.18c-.34,0-.52-.09-.52-.26s.17-.25.5-.25h2.36Zm3.11,2.38v1.13c0,.5-.15.76-.46.76s-.47-.24-.47-.73v-4.03c0-.49.15-.73.46-.73s.47.26.47.77v1.09c0,.39.17.59.52.59h.35c.39,0,.59.1.59.3s-.2.29-.59.29h-.35c-.34,0-.52.19-.52.58Z"/>
    <path class="cls-4" d="m122.49,50.88c-.29,0-.43-.15-.43-.46,0-.47.31-.71.92-.71h.16c.43,0,.65-.26.65-.79v-.44c0-.44-.22-.66-.65-.66h-1.38c-.3,0-.44-.07-.44-.22,0-.16.14-.24.43-.24h2.04c.6,0,.9.27.9.8v1.15c0,.58-.32.86-.95.86h-.22c-.17,0-.29.04-.36.11s-.13.16-.17.24-.1.16-.17.23c-.07.07-.18.11-.33.11Zm-.47,1.26c0-.24.16-.36.49-.36s.47.12.47.36-.16.36-.47.36c-.33,0-.49-.12-.49-.36Z"/>
  </g>
</svg>