<?xml version="1.0" encoding="UTF-8"?>
<svg id="_레이어_2" data-name="레이어 2" xmlns="http://www.w3.org/2000/svg" viewBox="0 0 43.74 25.7">
  <defs>
    <style>
      .cls-1 {
        fill: #ffbe55;
      }

      .cls-1, .cls-2, .cls-3 {
        stroke-width: 0px;
      }

      .cls-2 {
        fill: #ff9700;
      }

      .cls-3 {
        fill: #9b5800;
      }
    </style>
  </defs>
  <g>
    <path class="cls-1" d="m13.1,2.12c-1.49-.42-3.13-.14-4.51.58s-2.52,1.83-3.44,3.07c-2.3,3.09-3.37,7.1-2.83,10.91.21,1.49.69,3,1.76,4.06.83.83,1.94,1.3,3.04,1.69,3.63,1.26,7.53,1.73,11.36,1.36,1.42-.14,2.83-.39,4.25-.47,3.46-.21,6.91.55,10.38.7.79.03,4.17-.98,4.96-1.55.88-.64,1.77-1.29,2.39-2.18,1.05-1.51,1.17-3.46,1.15-5.3-.03-2.9-.35-5.93-1.91-8.38-1.24-1.95-3.21-3.39-5.41-4.09s-4.61-.67-6.82-.02c-1,.29-1.96.71-2.97.99-3.12.89-11.38-1.37-11.38-1.37Z"/>
    <path class="cls-2" d="m13.5.68C9.18-.34,5.49,2.39,3.26,5.86S.19,13.62.96,17.64c.36,1.88,1.24,3.63,2.79,4.79,1.72,1.28,4,1.88,6.07,2.33,2.23.48,4.53.72,6.81.66s4.67-.59,7.03-.62c3.89-.06,7.94,1.36,11.74.3,3.28-.92,6.45-2.81,7.34-6.35.49-1.94.42-4.06.25-6.04s-.59-4.08-1.51-5.95c-1.84-3.7-5.71-5.92-9.75-6.22-2.58-.19-4.81.62-7.22,1.38-1.34.42-2.75.3-4.12.15-2.32-.26-4.64-.77-6.89-1.39-1.87-.51-2.66,2.39-.8,2.89,1.44.39,2.91.72,4.38.99,2.33.44,4.84.9,7.21.5,1.66-.28,3.16-1.13,4.82-1.42,1.76-.31,3.64-.15,5.3.51,3.38,1.34,5.09,4.44,5.52,7.92.21,1.7.33,3.59.05,5.29s-1.28,2.95-2.74,3.85c-2.25,1.38-4.54,1.34-6.98,1.08-2.04-.21-4.07-.5-6.13-.51s-4.08.39-6.12.55c-3.77.3-7.94-.12-11.41-1.71-3.67-1.67-3.3-6.84-2.26-10.07S8.56,2.59,12.7,3.57c1.88.44,2.68-2.45.8-2.89Z"/>
  </g>
  <g>
    <path class="cls-3" d="m26.09,11.75l7.48-3.35c0,.6-.02,1.19-.03,1.79,0,.5-.02.99-.13,1.48-.31,1.36-1.49,2.47-2.86,2.71-.44.08-.9.07-1.35.06-.75-.02-1.54-.04-2.18-.43-.73-.44-1.13-1.26-1.49-2.04l.56-.2Z"/>
    <path class="cls-3" d="m26.34,12.18c2.49-1.12,4.99-2.24,7.48-3.35l-.75-.43c0,.6-.02,1.19-.03,1.79s-.02,1.14-.2,1.68c-.29.83-.98,1.54-1.8,1.86-.49.19-1,.22-1.53.21s-1.1,0-1.62-.13c-1.05-.26-1.5-1.2-1.92-2.1l-.3.73.56-.2c.6-.22.34-1.18-.27-.96l-.56.2c-.32.12-.44.43-.3.73.52,1.11,1.15,2.17,2.39,2.53.6.17,1.25.18,1.87.19.66.01,1.32-.01,1.94-.25,1.05-.39,1.92-1.19,2.37-2.22.54-1.24.38-2.74.4-4.07,0-.41-.42-.58-.75-.43-2.49,1.12-4.99,2.24-7.48,3.35-.59.26-.08,1.12.5.86Z"/>
  </g>
  <g>
    <path class="cls-3" d="m17.38,11.75c-2.49-1.12-4.99-2.24-7.48-3.35,0,.6.02,1.19.03,1.79,0,.5.02.99.13,1.48.31,1.36,1.49,2.47,2.86,2.71.44.08.9.07,1.35.06.75-.02,1.54-.04,2.18-.43.73-.44,1.13-1.26,1.49-2.04l-.56-.2Z"/>
    <path class="cls-3" d="m17.63,11.31c-2.49-1.12-4.99-2.24-7.48-3.35-.33-.15-.76.02-.75.43.02,1.33-.14,2.82.4,4.07.45,1.03,1.32,1.82,2.37,2.22.62.23,1.29.26,1.94.25.62,0,1.27-.02,1.87-.19,1.25-.36,1.88-1.42,2.39-2.53.14-.31.02-.62-.3-.73l-.56-.2c-.61-.22-.87.75-.27.96l.56.2-.3-.73c-.42.9-.87,1.84-1.92,2.1-.5.12-1.03.12-1.55.12-.55,0-1.09-.01-1.6-.21-.82-.32-1.51-1.02-1.8-1.86-.19-.54-.19-1.11-.2-1.68-.01-.6-.02-1.19-.03-1.79l-.75.43c2.49,1.12,4.99,2.24,7.48,3.35.58.26,1.09-.6.5-.86Z"/>
  </g>
  <path class="cls-3" d="m22.04,13.74c.04-.47.09-.94.13-1.4.01-.12-.06-.27-.15-.35s-.23-.15-.35-.15-.26.05-.35.15-.13.21-.15.35c-.04.47-.09.94-.13,1.4-.01.12.06.27.15.35s.23.15.35.15.26-.05.35-.15.13-.21.15-.35h0Z"/>
  <path class="cls-3" d="m28.78,9.24l.64.7s.1.08.16.1c.06.03.12.05.19.04.07,0,.13-.01.19-.04.06-.02.12-.05.16-.1.09-.1.15-.22.15-.35l-.02-.13c-.02-.08-.07-.16-.13-.22l-.64-.7s-.1-.08-.16-.1c-.06-.03-.12-.05-.19-.04-.07,0-.13.01-.19.04-.06.02-.12.05-.16.1-.09.1-.15.22-.15.35l.02.13c.02.08.07.16.13.22h0Z"/>
  <path class="cls-3" d="m33.59,14.19c-.19-.28-.38-.55-.57-.83-.08-.11-.17-.19-.3-.23-.12-.03-.28-.02-.39.05s-.2.17-.23.3-.03.28.05.39c.19.28.38.55.57.83.08.11.17.19.3.23.12.03.28.02.39-.05s.2-.17.23-.3.03-.28-.05-.39h0Z"/>
  <path class="cls-3" d="m17.76,18.15c.21-.25.64-.84,1.04-.67.16.07.26.34.36.47.14.18.33.34.56.41.46.14.77-.12,1.06-.43.17-.17.36-.34.56-.48.11-.08.24-.18.37-.23,0,0-.14-.12-.03,0,.22.23.28.55.57.74.38.24.82.17,1.16-.09.18-.13.3-.3.44-.47.05-.06.13-.21.21-.24.11-.05.15.02.26.09.49.33.94.73,1.41,1.09.51.39,1.01-.48.5-.86s-.99-.83-1.52-1.17c-.46-.29-.96-.21-1.35.15-.18.16-.3.46-.51.59-.08.05-.03.08-.09.06-.05-.02-.09-.14-.11-.19-.19-.34-.43-.67-.85-.7-.5-.03-.99.39-1.35.69-.1.08-.43.5-.54.52.17-.03,0-.14-.06-.23-.07-.1-.13-.22-.22-.31-.83-.91-1.96-.17-2.58.57-.41.49.29,1.2.71.71h0Z"/>
</svg>