<?xml version="1.0" encoding="UTF-8"?>
<svg id="_레이어_2" data-name="레이어 2" xmlns="http://www.w3.org/2000/svg" viewBox="0 0 52.85 51.99">
  <defs>
    <style>
      .cls-1 {
        fill: #ffbe55;
      }

      .cls-1, .cls-2, .cls-3, .cls-4, .cls-5 {
        stroke-width: 0px;
      }

      .cls-2 {
        fill: #e17def;
      }

      .cls-3 {
        fill: #ffd399;
      }

      .cls-4 {
        fill: #ff9700;
      }

      .cls-5 {
        fill: #efabff;
      }
    </style>
  </defs>
  <g>
    <path class="cls-5" d="m3.84,44.57c5.69-15.82,20.02-28.23,36.49-31.59-2.37,12.03-1.94,24.6,1.23,36.45-.31.01-.61.02-.92.04-1.75-.52-4.26-1.15-7.31-1.58-1.33-.19-3.73-.47-7.29-.49-8.8-.04-21.12,1.55-23.1,1.81l.9-4.64Z"/>
    <path class="cls-2" d="m5.28,44.97c4.36-11.98,13.75-21.83,25.26-27.2,3.25-1.51,6.67-2.61,10.18-3.34l-1.85-1.85c-2.39,12.34-1.99,25.09,1.23,37.25l1.45-1.9c-1.79.07-3.76-.78-5.54-1.11-1.61-.3-3.24-.53-4.87-.68-3.69-.34-7.4-.27-11.09-.07-5.72.31-11.44.9-17.12,1.64l1.45,1.9.9-4.64c.37-1.89-2.52-2.69-2.89-.8l-.9,4.64c-.16.84.4,2.04,1.45,1.9,5.68-.75,11.4-1.34,17.12-1.64,3.69-.2,7.41-.27,11.09.07,1.66.15,3.27.4,4.92.74,1.81.37,3.64,1.13,5.49,1.06.97-.04,1.7-.93,1.45-1.9-3.07-11.62-3.51-23.84-1.23-35.65.22-1.15-.68-2.09-1.85-1.85-13.23,2.76-25.04,11.07-32.42,22.35-2.11,3.22-3.8,6.68-5.12,10.29-.66,1.82,2.24,2.6,2.89.8Z"/>
  </g>
  <g>
    <path class="cls-1" d="m41.74,5.12l3.06-2.38c.21-.16.45-.34.71-.33.75.02.74,1.13.61,1.87-.53,2.9,1.47,6.05,4.32,6.8-.64.96-2.2.13-3.28.55-1.26.48-1.21,2.26-.93,3.57-1.03-.91-1.2-2.51-2.21-3.43-2.32-2.09-6.31,1.06-9.03-.47,1.6-1.82,1.29-4.98-.64-6.45,1.46.28,2.91.55,4.37.83l3.04-.56Z"/>
    <path class="cls-4" d="m42.8,6.18l1.65-1.28c.41-.32.95-.95,1.46-1.04h-.8c-.18-.12-.33-.28-.43-.47,0-.08,0-.06,0,.05-.02.02-.02.53-.01.44-.05.5-.15.99-.14,1.49.03,1.12.32,2.19.81,3.19.92,1.91,2.67,3.38,4.7,3.96l-.66-2.51c-.16.16-.16.19,0,.08.17-.08.15-.08-.05-.02.12.03-.22-.02-.26-.02-.37-.03-.75-.07-1.13-.06-.88.02-1.72.28-2.36.91-1.23,1.21-1.1,3.14-.8,4.69l2.51-1.46c-.9-.86-1.14-2.24-1.98-3.18s-2.12-1.41-3.4-1.43c-1.17-.02-2.34.29-3.48.52-.89.18-1.91.37-2.69-.04l.3,2.36c2.06-2.48,1.96-6.47-.64-8.57l-1.46,2.51c1.14.22,2.29.43,3.43.65.74.14,1.39.24,2.12.1.88-.16,1.76-.33,2.65-.49.8-.15,1.25-1.11,1.05-1.85-.23-.84-1.05-1.2-1.85-1.05-1.01.19-2.03.38-3.04.56h.8c-1.46-.28-2.91-.55-4.37-.83-.66-.13-1.34.08-1.69.69-.31.53-.28,1.41.23,1.82,1.24,1,1.74,3.01.64,4.33-.58.7-.62,1.87.3,2.36,2.25,1.18,4.5.31,6.83-.01.79-.11,1.56-.17,2.09.43.38.43.58,1.04.83,1.55.31.63.69,1.21,1.2,1.7,1.13,1.08,2.79-.02,2.51-1.46-.09-.45-.16-.97-.09-1.4,0-.01.17-.44.05-.31.15-.17.05-.06.2-.09.54-.11,1.16.09,1.71.05.74-.06,1.48-.32,1.96-.92.68-.86.51-2.17-.66-2.51s-2.05-1.08-2.65-2.09c-.68-1.16-.66-2.24-.53-3.53.15-1.5-.58-3.24-2.35-3.08-.96.09-1.67.82-2.4,1.38l-2.23,1.74c-.64.5-.52,1.6,0,2.12.63.63,1.48.5,2.12,0Z"/>
  </g>
  <path class="cls-3" d="m11.38,45.46c7.74-3.93,16.24-6.25,24.91-6.77,1.92-.12,1.93-3.12,0-3-9.22.56-18.19,3-26.42,7.18-1.72.87-.2,3.46,1.51,2.59h0Z"/>
  <path class="cls-3" d="m15.64,34.04c5.21-3.02,11.06-4.84,17.08-5.26,1.92-.13,1.93-3.13,0-3-6.55.46-12.91,2.38-18.59,5.67-1.67.97-.16,3.56,1.51,2.59h0Z"/>
  <path class="cls-3" d="m29.04,22.42c1.27-.42,2.57-.78,3.88-1.07.64-.14,1.29-.27,1.93-.39.32-.06.65-.11.97-.16.15-.02.3-.04.45-.06-.27.04.3-.04.35-.04.78-.09,1.54-.62,1.5-1.5-.03-.73-.67-1.6-1.5-1.5-2.85.35-5.65.93-8.39,1.83-.74.24-1.31,1.05-1.05,1.85.24.74,1.05,1.31,1.85,1.05h0Z"/>
</svg>