<?xml version="1.0" encoding="UTF-8"?>
<svg id="_레이어_2" data-name="레이어 2" xmlns="http://www.w3.org/2000/svg" viewBox="0 0 81.36 19.4">
  <defs>
    <style>
      .cls-1 {
        fill: #ffb3b3;
      }

      .cls-1, .cls-2 {
        stroke-width: 0px;
      }

      .cls-2 {
        fill: #ff7373;
      }
    </style>
  </defs>
  <g>
    <g>
      <path class="cls-1" d="m71.41,1.22c.07,1.77-.46,3.56-1.49,5.01s-2.54,2.54-4.24,3.05l-.32.4c.39-.04.79-.04,1.17.06s.74.31.96.63c.23.33.31.75.21,1.14-.09.36-.33.67-.56.95-.4.49-.81.96-1.24,1.41l.53-.26c.41-.54.84-1.1,1.44-1.43.33-.18.74-.29,1.1-.16.58.21.78.92.86,1.53.15,1.14.13,2.31-.05,3.45l.56-.14c.05-.95.3-1.88.74-2.72.1-.19.21-.37.39-.48.4-.24.91.03,1.26.34,1,.89,1.62,2.13,2.1,3.37l.21-.28c-.24-1.29-.13-2.65.33-3.88.07-.19.15-.38.32-.49.33-.23.78-.02,1.11.22,1.58,1.15,2.7,2.92,3.07,4.85l.37.32c-.48-3.1-1.2-6.18-2.42-9.06s-2.96-5.59-5.29-7.68l-1.12-.16Z"/>
      <path class="cls-2" d="m70.66,1.22c.05,2-.63,3.95-2.03,5.4-.64.66-1.38,1.19-2.21,1.58-.65.31-1.14.39-1.58.95-.36.45-.19,1.34.53,1.28s1.9.04,1.54,1.04c-.25.69-1.04,1.35-1.53,1.87-.6.64.15,1.55.91,1.18.23-.11.48-.21.68-.38.48-.41.79-1.34,1.55-1.34.4,0,.42.15.52.54.08.32.1.67.12,1,.05.82.02,1.65-.1,2.47-.08.55.32,1.07.92.92l.56-.14c.34-.08.53-.4.55-.72.04-.6.16-1.18.37-1.74.02-.06.26-.74.38-.78.15-.06.49.31.57.38.81.76,1.31,1.85,1.72,2.86.25.62.97.72,1.37.18.53-.72.14-1.62.2-2.47.03-.37.06-1.43.37-1.73,0-.15.05-.19.16-.1.12.07.23.15.33.23.21.16.41.34.6.53.72.72,1.3,1.59,1.66,2.54.28.74.3,1.35.91,1.88s1.37,0,1.25-.73c-.61-3.91-1.61-7.79-3.48-11.3-.83-1.56-1.84-3.04-3.02-4.36-.46-.52-1.08-1.39-1.76-1.61-.33-.11-.75-.1-1.1-.15-.94-.13-1.35,1.31-.4,1.45.31.04.74.03,1.02.14.18.07.93.96,1.26,1.34,1.15,1.31,2.1,2.78,2.89,4.33,1.68,3.29,2.56,6.93,3.13,10.56l1.25-.73c-.09-.08-.28-.19-.33-.29.12.22-.08-.61-.1-.69-.18-.54-.42-1.08-.7-1.58-.6-1.05-1.45-2.06-2.46-2.73-2.95-1.97-3.13,3.35-2.86,4.99l.08-.58-.21.28,1.37.18c-.59-1.49-1.59-3.89-3.35-4.3-2-.46-2.53,2.61-2.62,3.99l.55-.72-.56.14.92.92c.18-1.22.23-2.42.08-3.65-.1-.78-.33-1.65-1.05-2.09-.87-.53-1.9-.13-2.6.47-.36.3-.61.67-.92,1.01-.12.13.09-.03-.15.11-.11.06-.22.11-.33.16l.91,1.18c.9-.97,2.33-2.21,2.01-3.69s-1.78-1.89-3.08-1.79l.53,1.28c.39-.49,1.15-.61,1.87-1.03.9-.52,1.71-1.2,2.37-2,1.38-1.68,2.08-3.8,2.03-5.96-.02-.96-1.52-.97-1.5,0Z"/>
    </g>
    <path class="cls-2" d="m71.73,2.09c1.72,4.95,2.27,10.17,2.81,15.36.03.32.53.32.5,0-.54-5.23-1.09-10.5-2.82-15.49-.1-.3-.59-.17-.48.13h0Z"/>
    <path class="cls-2" d="m72.13,2.46c.14,2.47-.56,4.85-1.19,7.21s-1.25,4.69-1.88,7.03c-.08.31.4.44.48.13.65-2.42,1.3-4.85,1.95-7.27s1.28-4.68,1.14-7.11c-.02-.32-.52-.32-.5,0h0Z"/>
    <path class="cls-2" d="m71.74,2.73c-.51,3.8-2.18,7.37-4.77,10.19-.22.24.14.59.35.35,2.65-2.88,4.37-6.53,4.9-10.41.04-.31-.44-.45-.48-.13h0Z"/>
  </g>
  <g>
    <g>
      <path class="cls-1" d="m10.06,1.22c-.07,1.77.46,3.56,1.49,5.01s2.54,2.54,4.24,3.05l.32.4c-.39-.04-.79-.04-1.17.06s-.74.31-.96.63c-.23.33-.31.75-.21,1.14.09.36.33.67.56.95.4.49.81.96,1.24,1.41l-.53-.26c-.41-.54-.84-1.1-1.44-1.43-.33-.18-.74-.29-1.1-.16-.58.21-.78.92-.86,1.53-.15,1.14-.13,2.31.05,3.45l-.56-.14c-.05-.95-.3-1.88-.74-2.72-.1-.19-.21-.37-.39-.48-.4-.24-.91.03-1.26.34-1,.89-1.62,2.13-2.1,3.37l-.21-.28c.24-1.29.13-2.65-.33-3.88-.07-.19-.15-.38-.32-.49-.33-.23-.78-.02-1.11.22-1.58,1.15-2.7,2.92-3.07,4.85l-.37.32c.48-3.1,1.2-6.18,2.42-9.06,1.22-2.89,2.96-5.59,5.29-7.68l1.12-.16Z"/>
      <path class="cls-2" d="m9.31,1.22c-.05,2.17.65,4.28,2.03,5.96.66.8,1.47,1.48,2.37,2,.73.43,1.46.51,1.87,1.03l.53-1.28c-1.3-.1-2.77.36-3.08,1.79s1.11,2.72,2.01,3.69l.91-1.18c-.1-.05-.56-.32-.41-.19-.36-.31-.6-.77-.98-1.09-.71-.6-1.74-1-2.6-.47-.72.44-.95,1.3-1.05,2.09-.16,1.22-.1,2.43.08,3.65l.92-.92-.56-.14.55.72c-.1-1.36-.63-4.47-2.62-3.99-1.77.43-2.75,2.8-3.35,4.3l1.37-.18-.21-.28.08.58c.27-1.64.1-6.96-2.86-4.99-1.01.67-1.86,1.68-2.46,2.73-.28.5-.52,1.03-.7,1.58-.03.08-.22.91-.1.69-.06.11-.24.21-.33.29l1.25.73c.57-3.63,1.45-7.27,3.13-10.56.77-1.51,1.69-2.95,2.8-4.23.28-.32.57-.64.87-.94.13-.13.26-.28.41-.4.25-.21-.04-.07.04-.11.29-.13.75-.1,1.06-.15.95-.13.55-1.58-.4-1.45-.35.05-.77.04-1.1.15-.64.22-1.22,1.01-1.66,1.5-1.22,1.35-2.26,2.86-3.12,4.47-1.87,3.51-2.86,7.39-3.48,11.3-.12.74.66,1.25,1.25.73s.63-1.14.91-1.88c.36-.95.94-1.83,1.66-2.54.17-.17.8-.88,1.04-.81.28.08.4,1.61.42,1.87.06.86-.33,1.75.2,2.47.4.55,1.12.44,1.37-.18.41-1.02.91-2.09,1.72-2.86.13-.12.38-.43.57-.38.13.03.35.71.38.78.21.56.33,1.15.37,1.74.02.33.22.64.55.72l.56.14c.6.15,1-.37.92-.92-.11-.76-.15-1.54-.11-2.31.02-.38.04-.78.13-1.15.1-.39.12-.54.52-.54.69,0,1.06.84,1.49,1.26.22.21.46.32.74.45.75.37,1.51-.53.91-1.18-.49-.52-1.29-1.19-1.53-1.87-.36-1.01.84-1.1,1.54-1.04s.89-.83.53-1.28c-.42-.53-.85-.62-1.46-.89-.87-.39-1.67-.95-2.33-1.64-1.4-1.45-2.08-3.4-2.03-5.4.02-.97-1.48-.97-1.5,0Z"/>
    </g>
    <path class="cls-2" d="m9.25,1.96c-1.73,4.99-2.29,10.27-2.82,15.49-.03.32.47.32.5,0,.53-5.18,1.09-10.41,2.81-15.36.11-.3-.38-.44-.48-.13h0Z"/>
    <path class="cls-2" d="m8.84,2.46c-.13,2.43.52,4.79,1.14,7.11s1.3,4.85,1.95,7.27c.08.31.57.18.48-.13-.63-2.34-1.25-4.69-1.88-7.03s-1.32-4.74-1.19-7.21c.02-.32-.48-.32-.5,0h0Z"/>
    <path class="cls-2" d="m9.25,2.86c.53,3.88,2.25,7.53,4.9,10.41.22.24.57-.12.35-.35-2.59-2.82-4.26-6.39-4.77-10.19-.04-.32-.52-.18-.48.13h0Z"/>
  </g>
</svg>