<?xml version="1.0" encoding="UTF-8"?>
<svg id="_레이어_2" data-name="레이어 2" xmlns="http://www.w3.org/2000/svg" viewBox="0 0 45.45 22.23">
  <defs>
    <style>
      .cls-1 {
        fill: #f8feff;
      }

      .cls-1, .cls-2 {
        stroke-width: 0px;
      }

      .cls-2 {
        fill: #d6eff2;
      }
    </style>
  </defs>
  <g>
    <path class="cls-1" d="m43.84,4.43l-2.23-2.57c-4.53-.05-9.06-.1-13.59-.15,0,.09.03.17.03.26,0,2.43-2.3,4.4-5.14,4.4s-5.14-1.97-5.14-4.4c0-.13.03-.25.04-.38-4.25-.05-8.5-.09-12.75-.14-1.7,1.64-2.93,2.85-3.13,3.05-.04.04-.15.15-.13.28.01.09.08.17.16.23.99.87,2.08,1.63,3.24,2.25l.05,1.09c-.42,3.47-.5,6.97-.24,10.45.02.2.03.41.15.58.24.35.75.34,1.17.3,11.01-1.01,22.21,2.58,33.09.59.38-.07.78-.16,1.02-.46.24-.3.24-.72.22-1.1-.12-3.42-.36-6.84-.73-10.24l.27-1.08c1.19-.77,2.37-1.54,3.56-2.31.1-.07.21-.14.24-.26.04-.15-.07-.29-.17-.4Z"/>
    <path class="cls-2" d="m44.63,3.64c-.73-.85-1.73-2.62-2.87-2.88-1.37-.31-3.11-.05-4.52-.07-3.07-.03-6.15-.07-9.22-.1-.56,0-1.2.52-1.12,1.12.55,4.66-8.52,4.69-7.95-.11.07-.61-.57-1.12-1.12-1.12-2.61-.03-5.23-.06-7.84-.09-1.31-.01-2.61-.03-3.92-.04s-1.65.19-2.58,1.1c-.79.76-2.32,1.78-2.7,2.88-.59,1.71,2.71,3.28,3.87,3.92l-.56-.97c.07,1.63-.2,3.25-.28,4.88-.11,2.23-.21,4.59.1,6.81s2.34,1.83,4.05,1.74c2.26-.12,4.52-.07,6.77.07,4.68.28,9.34.92,14.03,1.16,2.24.11,4.49.13,6.74-.03,1.03-.07,2.05-.19,3.07-.34.87-.13,1.9-.2,2.57-.85.75-.73.67-1.76.63-2.72-.06-1.38-.13-2.77-.23-4.15-.14-1.99-.72-4.21-.25-6.13l-.52.67c1.2-.78,2.51-1.49,3.64-2.36.71-.55.96-1.37.4-2.15-.84-1.17-2.79-.04-1.94,1.14l.06.13.11-.87c.23-.38-.05,0-.23.12-.27.16-.53.34-.79.51-.46.3-.92.6-1.39.9-.74.48-1.34.77-1.58,1.63-.5,1.78.06,3.86.2,5.68.09,1.22.17,2.44.23,3.66.03.56.12,1.15.07,1.71-.07.88-.54.75-1.33.87-2.35.36-4.74.45-7.11.41-4.85-.08-9.66-.74-14.48-1.11-2.33-.18-4.67-.3-7.01-.26-1.13.02-2.3.22-3.43.18-.25,0-.15.1-.03.23-.07-.08-.05-.78-.06-.95-.04-.63-.06-1.27-.07-1.9-.06-2.6.33-5.16.37-7.74,0-.57.03-1.31-.37-1.74-.85-.93-2.46-1.15-3.22-2.25l.11.87c-.09.34-.18.2.08-.02.23-.2.44-.43.66-.64.74-.73,1.49-1.45,2.23-2.17l-.8.33c4.25.05,8.5.09,12.75.14l-1.12-1.12c-.41,3.46,3.08,5.9,6.22,5.9s6.64-2.38,6.23-5.79l-1.12,1.12c4.53.05,9.06.1,13.59.15l-.8-.33,2.23,2.57c.95,1.1,2.53-.5,1.59-1.59Z"/>
  </g>
  <path class="cls-2" d="m12.2,8.55c-.83,1.08-1.4,2.37-1.28,3.76s.79,2.48,1.9,3.21,2.49.78,3.6.12c1.22-.72,1.82-2.02,1.61-3.4-.16-1.09-1.97-1.05-2.17,0-.3,1.62.22,4.53,2.49,4.02,1.46-.33,2.69-1.72,2.89-3.2.08-.6-.14-1.21-.79-1.38-.52-.14-1.3.18-1.38.79-.03.21-.07.41-.15.61-.03.07-.03.07,0,0l-.05.1c-.06.1-.11.2-.18.29.08-.12-.04.05-.08.09-.07.07-.13.14-.2.2-.2.19.1-.03-.14.1-.08.05-.16.1-.25.14-.19.09.24-.1-.1.04-.16.07-.09.01.13.11s.22.18.15.02c-.13-.28.02.1-.08-.21-.07-.21-.1-.35-.11-.49-.02-.24,0-.49.02-.63h-2.17c-.03-.19-.01.05-.02.09,0,.11.05-.11-.02.08,0,.02-.1.28-.05.17.05-.1-.1.16-.1.16l-.06.09c.05-.07.05-.07,0-.01-.06.07-.13.13-.2.2.09-.08,0,0-.04.03-.09.06-.19.12-.29.16.11-.05.01,0-.04,0,0,0-.29.06-.18.05.13-.01-.16,0-.18,0-.2,0,.02.02-.09,0-.09-.02-.18-.05-.27-.07l-.1-.04c.08.04.09.04.02,0-.08-.04-.16-.09-.24-.14l-.09-.06c.06.05.07.06,0,0-.13-.11-.25-.23-.36-.36.1.12-.04-.06-.06-.09-.05-.08-.09-.16-.14-.24-.17-.27.02.08-.05-.09-.03-.09-.06-.18-.08-.27-.06-.24-.06-.2-.06-.45-.02-.67.23-1.4.63-1.92.37-.48.47-1.12,0-1.59-.39-.39-1.22-.48-1.59,0h0Z"/>
  <path class="cls-2" d="m24.9,14.76c.72-.3,1.38-.78,1.92-1.34.32-.33.47-.96.18-1.36-.39-.54-.86-.91-1.49-1.15-.55-.21-1.14-.21-1.71-.12-1.08.17-2.03,1.02-2.48,2-.54,1.18-.67,2.7.34,3.68.76.74,1.89,1.08,2.93.96,1.23-.14,2.32-.74,3.01-1.79.32-.49.11-1.27-.4-1.54-.56-.3-1.19-.12-1.54.4-.02.03-.05.07-.07.1-.1.15.05-.08.07-.08-.06.04-.11.12-.16.18s-.1.09-.15.14c-.03.03-.14.12,0,0,.15-.12,0,0-.03.02-.13.09-.3.14-.42.23,0,0,.24-.09.13-.06-.04.01-.08.03-.11.04-.09.03-.17.06-.26.08-.08.02-.16.03-.24.05-.1.02-.14-.03.12-.02-.04,0-.08,0-.12.01-.16.01-.32,0-.48,0-.1,0-.13-.06.12.02-.04-.01-.08-.01-.12-.02-.07-.01-.14-.03-.2-.05-.08-.02-.15-.05-.23-.08-.13-.04.22.12.1.04-.04-.03-.09-.04-.13-.07-.06-.03-.17-.14-.23-.14.03,0,.19.18.05.04-.03-.03-.05-.05-.08-.08-.04-.04-.1-.16-.03-.03.07.14.01,0-.02-.04-.09-.11.06.2.02.06-.02-.06-.04-.12-.05-.18-.05-.18.03.08,0,.07,0,0,0-.17,0-.15,0-.09,0-.18.01-.27,0-.16-.04.23-.01.08,0-.04.02-.09.03-.13.02-.1.05-.2.08-.29.01-.04.03-.09.04-.13.03-.09.09-.12-.04.08.04-.06.07-.14.11-.21.04-.08.09-.16.14-.23.02-.03.04-.05.06-.08-.12.23-.08.1,0,.02.05-.06.11-.11.16-.17.03-.03.07-.06.1-.09.1-.1-.19.13-.07.05.07-.04.13-.09.2-.13.04-.02.08-.04.12-.06.2-.11-.25.08-.03.02.08-.02.16-.05.24-.07.04,0,.09-.01.12-.02-.27.08-.17.02-.05.02.08,0,.17,0,.25,0,.18,0-.09-.01-.11-.02.05.02.1.02.15.03.09.02.18.07.27.08-.21-.03-.19-.09-.1-.04.04.03.09.05.13.08.04.02.07.05.1.07.11.07-.19-.18-.06-.04.06.07.27.34.07.05l.18-1.36c-.11.12-.23.24-.36.34-.03.03-.06.05-.09.07-.09.08-.08.06.05-.03-.04.05-.14.1-.19.13-.28.19-.57.34-.87.47-.24.1-.45.43-.52.67-.07.27-.04.63.11.87s.39.45.67.52c.32.07.57.01.87-.11h0Z"/>
  <path class="cls-2" d="m26.93,10.21c.2,1.7.57,3.36,1.19,4.97.21.55.77.99,1.38.79.56-.18.97-.78.79-1.38-.04-.14-.06-.29-.1-.42.07.21.02.19.01.09,0-.04,0-.07,0-.11,0-.08,0-.17,0-.25,0-.07,0-.14.01-.22.02-.21-.05.22,0,.01.04-.16.08-.33.13-.49.01-.03.03-.07.04-.1.04-.12-.04.1-.04.1.04-.05.07-.14.1-.19.03-.06.07-.13.11-.19.03-.04.05-.08.08-.12.08-.12,0,.02-.05.05.1-.1.19-.22.29-.32.05-.04.12-.09.16-.14,0,0-.19.13-.09.07.05-.03.1-.07.15-.1.02-.01.2-.11.2-.11,0,.02-.2.05-.08.03s-.1,0-.1,0c0,0-.23-.05-.11-.02s-.12-.05-.11-.05c0,0-.16-.16-.09-.07.02.03.12.15.03.02-.1-.15.05.09.08.13.04.06.07.13.1.2.03.07.12.26.04.08.04.1.08.21.12.31.06.18.15.4.15.6,0-.19-.01-.04,0,.06,0,.05-.02.33,0,.16s-.02.07-.03.12c0,.02-.04.1-.03.11-.03-.06.1-.19.02-.06-.02.04-.12.15-.12.2,0-.02.14-.15.06-.08-.04.03-.14.09-.03.04.13-.05,0,0-.02.01-.05.03-.1.06-.15.09-.02.01-.16.08-.03.02.15-.07-.11.04-.11.04-.21.08-.42.15-.63.22-.11.03-.22.06-.33.09-.05.01-.09.02-.14.03-.13.03-.07.04.02,0-.1.04-.27.01-.37.01-.03,0-.17-.03-.04,0,.16.03-.12-.04-.13-.04-.57-.16-1.25.2-1.38.79s.18,1.21.79,1.38c.66.19,1.34.13,2-.04.55-.15,1.17-.34,1.65-.64,1.14-.72,1.45-2.09,1.16-3.33-.12-.53-.35-1.09-.63-1.55-.36-.6-.97-1.09-1.7-1.07-1.11.04-2.12,1.01-2.62,1.94-.54,1-.71,2.21-.37,3.31l2.17-.6c-.28-.74-.52-1.49-.71-2.25-.09-.38-.18-.77-.25-1.15-.03-.18-.06-.36-.09-.53,0-.03-.05-.34-.03-.19s-.03-.21-.03-.24c-.07-.58-.47-1.15-1.12-1.12-.55.02-1.2.5-1.12,1.12h0Z"/>
</svg>