<?xml version="1.0" encoding="UTF-8"?>
<svg id="_레이어_2" data-name="레이어 2" xmlns="http://www.w3.org/2000/svg" viewBox="0 0 161.87 166.78">
  <defs>
    <style>
      .cls-1 {
        fill: #98e291;
      }

      .cls-1, .cls-2, .cls-3, .cls-4 {
        stroke-width: 0px;
      }

      .cls-2 {
        fill: #ffcf6e;
      }

      .cls-5 {
        stroke: #98d8ba;
        stroke-miterlimit: 10;
        stroke-width: 2.5px;
      }

      .cls-5, .cls-4 {
        fill: #caffeb;
      }

      .cls-3 {
        fill: #98d8ba;
      }
    </style>
  </defs>
  <g>
    <path class="cls-4" d="m91.54,158.6c-.92.38-1.42,1.54-1.06,2.47s1.5,1.46,2.44,1.12c.29-.1.67-.24.84.01.05.08.06.18.07.28.13.99.88,1.86,1.84,2.13s2.06-.08,2.68-.85c.17-.21.32-.46.58-.54.29-.1.6.06.9.15,1.18.36,2.46-.39,3.18-1.4.4-.57.69-1.25.63-1.94s-.55-1.37-1.23-1.5c.29-.97.06-2.08-.6-2.84s-1.72-1.17-2.72-1.03c.24-.45.08-1.04-.26-1.42s-.82-.62-1.28-.83c-1.09-.49-2.28-.93-3.46-.75s-2.31,1.22-2.18,2.41c-.61-.44-1.41-.89-2.05-.5-.38.23-.56.7-.61,1.15-.08.78.16,1.61.73,2.14s1.47.73,2.17.38"/>
    <path class="cls-3" d="m90.97,157.63c-1.47.71-2.17,2.62-1.43,4.09.36.7.98,1.23,1.72,1.5.35.13.73.2,1.11.19.22,0,.45-.04.66-.09.06-.01.5-.1.29-.15l-.5-.29.12.11-.29-.5c.28.73.37,1.4.91,2.03.48.57,1.16,1.01,1.89,1.19s1.53.12,2.25-.16c.37-.15.7-.34,1.01-.59.2-.17.54-.67.73-.7h-.6c.55.08,1.04.31,1.61.31.46,0,.91-.11,1.33-.27.96-.38,1.77-1.09,2.31-1.97,1.07-1.71.81-4.31-1.41-4.9l.79,1.38c.72-2.79-1.46-5.59-4.4-5.3l1.08,1.42c1.07-2.57-2.64-4.04-4.52-4.37-2.23-.39-5.01.87-4.87,3.48l1.69-.97c-.92-.64-2.12-1.13-3.18-.5-.87.51-1.22,1.59-1.18,2.55.09,2.14,2.16,4.08,4.34,3.18.56-.23.96-.75.79-1.38-.15-.53-.82-1.02-1.38-.79-.73.3-1.37-.1-1.48-.89-.02-.14-.06-.64.05-.73-.08.06.15.05.25.09.24.1.45.26.67.41.69.48,1.73-.16,1.69-.97-.06-1.19,1.37-1.44,2.28-1.26.58.11,3.03.75,2.7,1.55-.27.64.41,1.49,1.08,1.42,1.45-.14,2.62.97,2.23,2.46-.15.58.19,1.23.79,1.38.72.19.34,1.18.06,1.6-.36.55-1,1.12-1.7,1.12-.45,0-.85-.27-1.31-.27-.51,0-.98.23-1.34.59-.48.49-.82,1.01-1.6.93-.65-.06-1.12-.59-1.26-1.2-.21-.93-.78-1.57-1.81-1.4-.53.08-1.11.4-1.52-.15-.36-.49.04-1.04.49-1.26,1.31-.63.17-2.57-1.14-1.94h0Z"/>
  </g>
  <g>
    <path class="cls-4" d="m53.93,144.89l-2.28,2.04c-.19.17-.39.38-.36.64.02.17.14.3.27.41.67.6,1.53.89,2.33,1.25,1.16.52,2.26,1.19,3.27,1.99.64.51,1.24,1.08,1.97,1.41l1.82-2.81c-.43,3.38-.42,6.83.05,10.2.05.37.12.76.36,1.03.3.33.78.37,1.22.39,10.09.37,20.2.45,30.29.24.44,0,.93-.04,1.26-.35.25-.23.36-.58.46-.92.88-3.12.94-6.51.16-9.66l1.24,3.96c1.09-1.04,2.19-2.09,3.43-2.91,1.24-.82,2.62-1.42,3.65-2.52.08-.08.15-.17.16-.29,0-.11-.05-.21-.11-.31-.75-1.15-1.58-2.24-2.48-3.25l-46.72-.55Z"/>
    <path class="cls-3" d="m53.13,144.1c-.88.79-2.39,1.71-2.83,2.82s.42,1.94,1.3,2.48c1.08.66,2.32,1.03,3.41,1.69,1.24.76,2.26,1.84,3.55,2.52.56.29,1.2.13,1.54-.4l1.82-2.81-2.1-.57c-.25,2.02-.36,4.04-.3,6.08.03.97.09,1.95.2,2.92.09.87.09,1.89.57,2.65.87,1.4,2.85,1.12,4.27,1.17,2.07.07,4.14.12,6.21.17,4.22.09,8.44.13,12.67.12,2.07,0,4.14-.02,6.21-.05,1.46-.02,3.81.39,5.06-.56,1.4-1.07,1.49-3.7,1.64-5.32.2-2.19,0-4.4-.51-6.54l-2.17.6c.41,1.32.83,2.64,1.24,3.96.26.81,1.25,1.09,1.88.5.84-.8,1.67-1.6,2.59-2.3s2.04-1.24,3.02-1.92c.67-.46,1.59-1.05,1.86-1.86.32-.97-.55-1.9-1.08-2.62-.65-.89-1.43-2.37-2.61-2.5-.25-.03-.5,0-.75,0-3.11-.04-6.21-.07-9.32-.11-9.71-.11-19.43-.23-29.14-.34-2.48-.03-4.96-.06-7.44-.09-1.45-.02-1.45,2.23,0,2.25,5.25.06,10.5.12,15.75.19,8.38.1,16.76.2,25.14.3,1.94.02,3.88.05,5.82.07l-.8-.33c.77.87,1.89,1.95,2.31,3.06l.11-.87c-.65,1.17-2.53,1.8-3.59,2.53-1.26.86-2.37,1.91-3.47,2.96l1.88.5c-.41-1.32-.83-2.64-1.24-3.96s-2.5-.82-2.17.6c.5,2.13.64,4.31.37,6.48-.06.48-.2,2.66-.66,2.96-.23.15-.72.06-.99.07-.66.02-1.32.02-1.99.04-4.3.07-8.61.08-12.91.05s-8.61-.13-12.91-.27c-.58-.02-1.16-.03-1.74-.06-.69-.04-.66-.04-.76-.78-.13-.96-.2-1.94-.25-2.91-.11-2.28,0-4.55.27-6.81.14-1.19-1.55-1.41-2.1-.57l-1.82,2.81,1.54-.4c-1.8-.95-3.18-2.45-5.05-3.32-.41-.19-.83-.35-1.24-.54-.23-.1-.45-.22-.67-.35-.36-.39-.47-.39-.34,0-.02.39.11.38.37-.02l.65-.58,1.3-1.17c1.08-.97-.51-2.55-1.59-1.59Z"/>
  </g>
  <g>
    <path class="cls-4" d="m56.7,57.4c-11.85,6.23-22.5,14.74-31.18,24.94l-1.03,1.89c-10.35-8.19-17.76-20.02-20.61-32.91-2.85-12.89-1.12-26.74,4.82-38.53,1.71-3.4,3.9-6.77,7.24-8.61,5.12-2.81,11.54-1.31,16.8,1.22,6.13,2.95,11.73,7.32,15.24,13.15,2.23,3.71,3.56,7.89,4.84,12.03,2.45,7.92,4.86,16.12,4.04,24.37l-.16,2.43Z"/>
    <path class="cls-3" d="m55.94,56.1c-6.86,3.62-13.3,7.98-19.23,12.98-2.94,2.48-5.74,5.12-8.39,7.91-1.31,1.38-2.7,2.77-3.86,4.29-.51.67-.86,1.46-1.26,2.2l2.36-.3C8.76,69.79.74,47.72,5.37,26.69c1.19-5.41,3.1-10.81,5.96-15.57,1.28-2.13,2.87-4.15,5.03-5.44s4.79-1.66,7.32-1.44c5.23.45,10.32,3.13,14.53,6.13s7.71,6.98,9.95,11.72c1.42,3,2.38,6.2,3.36,9.36s1.96,6.44,2.71,9.73,1.3,6.93,1.3,10.46c0,1.92-.2,3.85-.32,5.76s2.87,1.92,3,0c.12-1.76.29-3.53.32-5.29.05-3.31-.36-6.62-1-9.85-1.23-6.22-3.11-12.52-5.39-18.44-2.12-5.51-5.31-10.3-9.87-14.09-4.2-3.49-9.23-6.39-14.53-7.78s-11.27-.87-15.49,3.17c-4.06,3.88-6.4,9.7-8.14,14.92C.34,31.31.02,43.75,3.31,55.18s10.52,22.47,20.11,30.12c.72.58,1.85.62,2.36-.3.35-.64.66-1.32,1.07-1.91,1.04-1.48,2.48-2.81,3.73-4.12,2.61-2.73,5.36-5.32,8.25-7.75,5.73-4.84,11.99-9.01,18.62-12.51,1.71-.9.19-3.49-1.51-2.59Z"/>
  </g>
  <path class="cls-5" d="m93.07,54.93h-31.06c-24.84,0-44.98,20.14-44.98,44.98h0c0,24.84,20.14,44.98,44.98,44.98h31.06c24.84,0,44.98-20.14,44.98-44.98h0c0-24.84-20.14-44.98-44.98-44.98Zm23.02,54.27c0,15.57-12.62,28.2-28.2,28.2h-20.97c-15.57,0-28.2-12.62-28.2-28.2h0c0-15.57,12.62-28.2,28.2-28.2h20.97c15.57,0,28.2,12.62,28.2,28.2h0Z"/>
  <g>
    <path class="cls-4" d="m114,63.89c-3.64-2.49-7.29-4.98-10.93-7.47l-1.59-2c5.31-4.96,10.61-9.92,15.92-14.88.59-.55,1.23-1.13,2.03-1.27.64-.11,1.29.08,1.9.29,12.73,4.2,23.12,13.68,31.23,24.35,2.9,3.81,5.63,7.98,6.34,12.71.72,4.84-.8,9.85-3.58,13.87s-6.73,7.13-11.01,9.51c-6.38,3.54-14.57,5.46-20.8,1.67-3.67-2.24-6.06-6.12-7.61-10.13-4.63-11.92-2.7-26.17,4.93-36.43l-6.82,9.78Z"/>
    <path class="cls-3" d="m114.76,62.59c-2.83-1.94-5.67-3.87-8.5-5.81-.86-.58-1.85-1.08-2.5-1.89l-1.22-1.53v2.12c5.01-4.68,10.01-9.36,15.02-14.04.49-.45.97-1.05,1.54-1.4.66-.41,1.14-.26,1.84-.04,1.4.44,2.78.99,4.12,1.58,2.49,1.11,4.9,2.42,7.19,3.89,4.7,3.02,8.92,6.72,12.74,10.78,3.82,4.05,7.63,8.5,10.27,13.42,2.84,5.29,3.03,11.15.27,16.54-2.58,5.05-7.09,8.78-11.98,11.49-4.63,2.57-10.39,4.44-15.7,3.14s-8.77-6.07-10.65-11.08c-4.34-11.57-2.38-24.97,4.92-34.91l-2.59-1.51c-2.27,3.26-4.55,6.52-6.82,9.78-1.11,1.59,1.49,3.09,2.59,1.51,2.27-3.26,4.55-6.52,6.82-9.78,1.12-1.6-1.47-3.05-2.59-1.51-7.18,9.78-9.47,22.94-6.09,34.59,1.6,5.51,4.48,11.28,9.65,14.22,5.39,3.07,12.03,2.37,17.6.18,11.16-4.38,22.37-15.31,19.42-28.36-1.4-6.19-5.76-11.49-9.77-16.22s-8.27-8.85-13.13-12.47c-2.78-2.07-5.73-3.91-8.84-5.44-1.55-.76-3.14-1.45-4.76-2.06-1.42-.53-3.05-1.3-4.59-.95-1.82.4-3.19,2.12-4.5,3.34l-4.7,4.4c-3.14,2.93-6.27,5.86-9.41,8.79-.64.6-.49,1.51,0,2.12l1.22,1.53c.71.89,1.76,1.44,2.7,2.08,2.97,2.03,5.94,4.06,8.91,6.09,1.6,1.09,3.1-1.51,1.51-2.59Z"/>
  </g>
  <path class="cls-2" d="m76.21,151.21c-1.8,1.7-3.32,3.69-4.47,5.89-.1.19-.19.44-.05.6.1.12.29.13.45.12,2.48-.08,4.96-.5,7.33-1.24.38-.12.79-.26,1.04-.58.4-.49.29-1.21.09-1.81-.58-1.74-2.06-3.39-3.9-3.34"/>
  <path class="cls-1" d="m80.6,151.31c.67-.87,1.15-2.2,2.25-2.21.91-.01,1.54,1.08,1.31,1.96s-1.04,1.5-1.89,1.82c-.77.29-1.76.35-2.31-.27"/>
  <g>
    <path class="cls-4" d="m69.69,146.76c.15,1.67.16,3.35.01,5.02"/>
    <path class="cls-3" d="m68.94,146.76c.15,1.67.16,3.35.01,5.02-.03.39.37.77.75.75.44-.02.71-.33.75-.75.14-1.67.14-3.35-.01-5.02-.04-.39-.32-.77-.75-.75-.38.02-.79.33-.75.75h0Z"/>
  </g>
  <g>
    <path class="cls-4" d="m68.96,152.73c-.41.42-.71.96-.86,1.53-.03.11-.05.25.04.33.05.05.13.06.2.07.46.06.93.11,1.39.17.05,0,.1.01.14-.01.07-.04.08-.13.09-.21.04-.59.07-1.18.11-1.78,0-.14.02-.28-.04-.41-.16-.37-.68-.35-1.07-.27"/>
    <path class="cls-3" d="m68.43,152.2c-.46.48-.8,1.06-1,1.69-.15.5-.13,1.03.34,1.35.19.13.4.15.63.18.17.02.34.04.52.06.15.02.31.04.46.06s.32.06.47.05c.39-.03.7-.26.82-.64.06-.19.06-.4.07-.6.02-.33.04-.66.06-.99.02-.35.09-.74-.02-1.09-.13-.43-.49-.75-.92-.86-.36-.08-.72-.05-1.09.02-.39.08-.64.56-.52.92.13.41.51.61.92.52.06-.01.11-.02.17-.03l-.2.03c.14-.02.28-.02.42,0l-.2-.03s.1.02.15.03c.03,0,.11.04-.02-.01s-.03,0,0,0c.08.04-.07-.06-.08-.06.07.06-.07-.07-.06-.08,0,0,.07.15.01,0-.05-.12,0,0,0,.04l-.03-.2c.02.17,0,.34-.01.51-.01.18-.02.37-.03.55-.02.35-.02.71-.07,1.06l.03-.2c-.05.22.08.1.41-.37l.2-.03c-.12.01-.25-.02-.37-.03-.13-.02-.26-.03-.39-.05-.26-.03-.52-.06-.78-.1l.2.03s-.14-.04-.01,0c.09.03.16.09.19.19.11.19.15.24.12.14l.03.2s0-.07,0-.11l-.03.2c.02-.14.06-.27.11-.4.01-.04.04-.08.05-.12,0,.03-.07.15-.02.06.03-.07.07-.15.11-.22.07-.13.15-.26.23-.38.04-.05.1-.09-.02.03.03-.02.05-.06.07-.09.05-.06.11-.12.16-.18.27-.28.3-.78,0-1.06s-.77-.3-1.06,0h0Z"/>
  </g>
  <g>
    <path class="cls-4" d="m85.46,146.51c.29.99.43,2.03.43,3.06"/>
    <path class="cls-3" d="m84.73,146.71c.14.49.24.98.32,1.49.03.2-.02-.17,0,.03,0,.06.01.12.02.17.01.14.03.27.04.41.02.25.02.51.03.76,0,.39.34.77.75.75s.75-.33.75-.75c0-1.1-.15-2.21-.46-3.26-.11-.38-.53-.65-.92-.52s-.64.52-.52.92h0Z"/>
  </g>
  <g>
    <path class="cls-4" d="m85.62,150.68c.24.31.39.68.44,1.07-.22.18-.58.12-.78-.09s-.25-.53-.19-.81c.04-.18.12-.36.26-.47s.37-.13.51-.02"/>
    <path class="cls-3" d="m84.97,151.06c.11.15.21.31.28.48l-.08-.18c.07.18.13.37.15.56l-.03-.2v.02c.08-.18.15-.35.22-.53h-.01c.05-.03.1-.07.15-.11-.03.02-.06.04-.1.06l.18-.08s-.09.03-.14.04l.2-.03s-.1,0-.15,0l.2.03c-.06,0-.11-.02-.16-.04l.18.08c-.05-.02-.1-.05-.15-.08l.15.12s-.08-.07-.11-.11l.12.15c-.04-.06-.08-.12-.1-.18l.08.18c-.03-.07-.05-.15-.06-.22l.03.2c-.01-.09-.01-.18,0-.28l-.03.2c.01-.09.03-.18.07-.27l-.08.18c.03-.07.06-.13.1-.18l-.12.15s.07-.07.1-.1l-.15.12s.07-.04.11-.06l-.18.08s.08-.02.12-.03l-.2.03s.08,0,.12,0l-.2-.03s.06.02.1.03l-.18-.08s.05.03.07.04c.15.11.41.12.58.08s.36-.18.45-.34c.09-.17.14-.38.08-.58l-.08-.18c-.07-.11-.16-.2-.27-.27-.07-.05-.16-.08-.25-.12-.03-.01-.06-.02-.1-.03-.2-.04-.38-.04-.58.01-.12.03-.24.08-.34.15-.17.12-.27.23-.39.4-.07.1-.12.23-.17.35-.03.07-.05.14-.06.21-.05.28-.05.52,0,.8.11.5.49.91.98,1.06.23.07.52.08.75,0,.11-.03.22-.08.32-.14.06-.04.12-.08.17-.13.12-.12.18-.26.21-.43.02-.15,0-.14-.02-.32,0-.02,0-.05-.01-.07-.04-.24-.13-.45-.22-.67-.07-.17-.17-.33-.28-.48-.05-.09-.11-.16-.19-.21-.07-.07-.16-.11-.26-.13-.18-.05-.42-.03-.58.08s-.3.26-.34.45-.04.42.08.58h0Z"/>
  </g>
  <g>
    <path class="cls-4" d="m87.5,153.93c-.44.73-.6,1.63-.43,2.47s.66,1.61,1.35,2.11"/>
    <path class="cls-3" d="m86.86,153.55c-.56.95-.74,2.08-.49,3.15.24,1,.86,1.85,1.67,2.45.32.24.85.06,1.03-.27.21-.39.07-.77-.27-1.03.11.08-.1-.09-.12-.11-.07-.06-.14-.13-.2-.2s-.13-.14-.19-.22c.08.11-.08-.12-.09-.14-.05-.08-.1-.16-.14-.25-.01-.02-.13-.28-.08-.14-.07-.16-.12-.34-.16-.51-.15-.65-.03-1.38.33-2,.2-.34.09-.84-.27-1.03s-.81-.09-1.03.27h0Z"/>
  </g>
</svg>