<?xml version="1.0" encoding="UTF-8"?>
<svg id="_레이어_2" data-name="레이어 2" xmlns="http://www.w3.org/2000/svg" viewBox="0 0 169.66 125.49">
  <defs>
    <style>
      .cls-1 {
        stroke: #8acdd7;
        stroke-miterlimit: 10;
        stroke-width: 3px;
      }

      .cls-1, .cls-2 {
        fill: #bbeaef;
      }

      .cls-3 {
        fill: #fff097;
      }

      .cls-3, .cls-4, .cls-5, .cls-2 {
        stroke-width: 0px;
      }

      .cls-4 {
        fill: #ffb3d6;
      }

      .cls-5 {
        fill: #8acdd7;
      }
    </style>
  </defs>
  <g>
    <path class="cls-2" d="m38.18,104.35c3.17-1.84,4.36-5.96,3.98-9.61s-2.01-7.03-3.25-10.48c-3.65-10.19-3.9-21.56-.71-31.9s9.81-19.59,18.56-25.96c3.54-2.57,7.61-4.9,9.5-8.84l.17-.45c-2.33-3.94-4.74-7.98-8.35-10.8s-8.74-4.17-12.84-2.14c-1.75.87-3.17,2.26-4.56,3.63-9.27,9.14-18.66,18.43-25.18,29.71-2.59,4.47-4.69,9.22-6.47,14.07-3.44,9.42-5.65,19.33-6.03,29.36-.15,3.96,0,7.99,1.18,11.78,2.12,6.82,7.72,12.46,14.53,14.62s14.63.79,20.3-3.55l-.84.57Z"/>
    <path class="cls-5" d="m39.32,106.3c3.65-2.24,5.31-6.53,5.15-10.69-.19-5.05-2.73-9.55-4.17-14.3-2.86-9.46-2.76-19.71.31-29.11,2.66-8.17,7.61-15.55,14.04-21.24,3.22-2.85,7.06-4.92,10.2-7.87,1.46-1.38,2.98-3.13,3.63-5.06.42-1.24-.11-2.1-.74-3.14s-1.22-2.03-1.87-3.02c-2.52-3.85-5.65-7.57-9.95-9.47s-8.98-2.1-12.89.45c-2,1.31-3.65,3.08-5.34,4.75s-3.44,3.41-5.14,5.13c-3.39,3.45-6.7,6.98-9.79,10.69-6.45,7.76-11.52,16.22-15.16,25.63S1.4,69.09.82,79.52c-.27,4.94-.19,10.14,1.55,14.84,1.46,3.94,3.88,7.52,7.08,10.26,6.82,5.84,16.41,7.61,24.82,4.33,2.1-.82,4.07-1.86,5.88-3.22.97-.73,1.47-1.94.81-3.08-.58-.99-2.07-1.5-3.08-.81l-.84.57c-2.37,1.63-.13,5.53,2.27,3.89l.84-.57-2.27-3.89c-7.81,5.87-18.88,5.64-26.07-1.15-3.52-3.32-5.66-7.65-6.32-12.44-.79-5.71-.15-11.81.77-17.47,1.87-11.44,5.69-22.91,11.63-32.9,5.67-9.55,13.42-17.62,21.25-25.4,2.12-2.11,4.22-4.71,6.86-6.18,2.19-1.21,4.81-1,7.09-.21,5.47,1.89,8.61,7.46,11.39,12.15l-.23-1.73c-.81,2.1-3.23,4.1-5.23,5.54-2.57,1.86-5.19,3.63-7.57,5.74-4.77,4.22-8.8,9.38-11.75,15.03-6.51,12.45-7.8,27.39-3.42,40.76,1.23,3.76,3.31,7.5,3.64,11.5.22,2.69-.44,5.82-2.89,7.33s-.21,5.41,2.27,3.89Z"/>
  </g>
  <g>
    <path class="cls-2" d="m102.12,18.49c-2.02.33-2.55,3.24-1.46,4.97,1.09,1.73,3.08,2.62,4.8,3.72,5.83,3.71,9.14,10.22,12.19,16.42,2.74,5.59,5.49,11.17,8.22,16.76,2.99,6.11,6.03,12.5,6.06,19.3.02,3.45-.75,6.85-1.27,10.27-.38,2.47-.43,5-.44,7.5-.01,1.68-.59,5.44.41,6.83.24.34.6.58.95.81,5.59,3.59,12.72,4.68,19.08,2.66,6.81-2.16,12.41-7.8,14.53-14.62,1.18-3.79,1.32-7.82,1.18-11.78-.38-10.02-2.58-19.94-6.03-29.36-1.77-4.85-3.88-9.6-6.47-14.07-6.52-11.27-15.9-20.56-25.18-29.71-1.39-1.37-2.81-2.77-4.56-3.63-4.1-2.03-9.23-.67-12.84,2.14-3.61,2.82-6.02,6.85-8.35,10.8l-.81.99Z"/>
    <path class="cls-5" d="m101.52,16.32c-1.91.44-3.2,2.07-3.54,3.94-.38,2.13.32,4.12,1.79,5.68s3.59,2.47,5.36,3.72c1.67,1.18,3.13,2.72,4.38,4.33,2.64,3.4,4.52,7.34,6.41,11.18,2.38,4.85,4.76,9.7,7.14,14.56,2.2,4.5,4.51,8.99,5.77,13.86.6,2.3.91,4.63.83,7.01-.09,2.63-.61,5.21-1.03,7.8s-.62,5.06-.66,7.62c-.03,1.81-.22,3.62-.19,5.42.03,2.15.48,4.02,2.3,5.33s4.12,2.31,6.31,3.01c8.68,2.78,18.27.5,24.74-5.91,3.01-2.98,5.27-6.75,6.41-10.84,1.35-4.85,1.26-10.03.88-15-.8-10.32-3.35-20.49-7.23-30.08s-8.96-17.54-15.42-25.15c-3.13-3.69-6.47-7.19-9.88-10.63-1.7-1.72-3.42-3.42-5.15-5.12s-3.37-3.39-5.49-4.45c-4.11-2.05-8.9-1.41-12.85.68s-7.04,6-9.47,9.85c-.91,1.44-1.46,2.59-2.41,3.75-.77.94-.92,2.26,0,3.18.79.79,2.41.94,3.18,0,2.26-2.75,3.72-6.05,6.05-8.77,2.45-2.86,5.73-5.32,9.64-5.47,4.21-.16,6.82,3.07,9.57,5.79,3.18,3.15,6.34,6.32,9.38,9.6,6.07,6.56,11.58,13.61,15.62,21.61s7.12,17.35,8.8,26.48c.85,4.63,1.35,9.35,1.38,14.06.02,4.23-.46,8.53-2.48,12.32-3.6,6.75-10.7,11.02-18.38,10.76-2.01-.07-3.99-.45-5.9-1.08-.87-.29-1.71-.63-2.53-1.03-.67-.33-1.96-.8-2.42-1.41.14.19-.1-.36-.1-.39-.06-.36-.05-.74-.06-1.1-.01-.86.05-1.73.1-2.59.12-1.96.07-3.93.2-5.89.31-4.76,1.77-9.4,1.57-14.21s-1.69-9.21-3.54-13.53-4.13-8.73-6.26-13.06-4.05-8.38-6.17-12.52c-1.84-3.6-3.9-7.13-6.61-10.16-1.37-1.53-2.94-2.89-4.65-4.03-1.38-.92-3.43-1.65-4.32-3.12-.19-.31-.29-.79-.27-1,.03-.32.1-.53.26-.72-.11.14-.28.15.12.06,2.82-.65,1.63-4.99-1.2-4.34Z"/>
  </g>
  <g>
    <path class="cls-2" d="m62.42,109.29c-1.38-.19-2.54,1.51-2.21,2.94s1.75,2.37,3.14,2.45c1.05.06,2.11-.28,2.95-.94.16,2.14.32,4.28.49,6.42.04.56.11,1.16.48,1.56.4.42,1.01.46,1.57.48,9.42.36,18.83.71,28.25,1.07.7.03,1.51,0,1.97-.55.33-.4.38-.98.42-1.51.13-2.05.27-4.1.4-6.15,1.46,1.13,3.61,1.14,5.09.04s2.18-3.24,1.67-5.07l-44.2-.73Z"/>
    <path class="cls-5" d="m62.42,107.79c-3.04-.13-4.61,3.52-3.2,5.96,1.61,2.78,5.39,3.05,7.83,1.28l-2.26-1.3c.18,2.36.2,4.81.57,7.16.31,1.93,1.65,2.68,3.47,2.8,4.69.31,9.42.36,14.12.53,4.7.18,9.42.48,14.12.53,1.91.02,3.46-.73,3.8-2.76.38-2.26.34-4.67.49-6.96l-2.26,1.3c2.07,1.44,4.93,1.4,6.91-.19s2.62-4.16,2.05-6.53c-.15-.65-.8-1.09-1.45-1.1-4.96-.08-9.91-.16-14.87-.25-7.95-.13-15.91-.26-23.86-.39-1.82-.03-3.65-.06-5.47-.09-1.93-.03-1.93,2.97,0,3,4.96.08,9.91.16,14.87.25,7.95.13,15.91.26,23.86.39,1.82.03,3.65.06,5.47.09l-1.45-1.1c.67,2.79-2.09,5.05-4.55,3.33-1-.7-2.19.26-2.26,1.3-.12,1.81-.24,3.63-.36,5.44-.06.92.06,1.29-.93,1.27s-1.98-.07-2.97-.11c-3.72-.14-7.43-.28-11.15-.42s-7.43-.28-11.15-.42c-.91-.03-1.82-.06-2.73-.1-.32-.01-.59.05-.75-.14-.13-.16-.08-.69-.09-.9-.16-1.97-.3-3.95-.45-5.93-.08-1.02-1.26-2.02-2.26-1.3s-2.34,1.13-3.37.23c-.54-.47-.8-1.92.25-1.87,1.93.08,1.93-2.92,0-3Z"/>
  </g>
  <path class="cls-1" d="m100.6,16.82h-34.06c-27.25,0-49.33,20.99-49.33,46.89h0c0,25.9,22.09,46.89,49.33,46.89h34.06c27.25,0,49.33-20.99,49.33-46.89h0c0-25.9-22.09-46.89-49.33-46.89Zm25.25,56.57c0,16.23-13.85,29.39-30.92,29.39h-23c-17.08,0-30.92-13.16-30.92-29.39h0c0-16.23,13.84-29.39,30.92-29.39h23c17.08,0,30.92,13.16,30.92,29.39h0Z"/>
  <path class="cls-3" d="m55.05,16.13c1.27-2.45,2.53-4.9,3.8-7.35.11-.21.28-.45.51-.43.18.02.3.19.39.35,1.11,1.88,2.23,3.76,3.34,5.64.21.36.44.74.79.97.35.24.79.31,1.21.36,1.32.16,2.66.2,3.99.13,1.32-.08,2.72-.26,3.89.34.08.04.16.09.18.18.02.08-.03.17-.08.24-1.38,2.03-2.97,3.92-4.74,5.62-.36.35-.76.75-.79,1.25-.02.37.17.71.35,1.04,1.29,2.37,2.18,4.96,2.62,7.63.03.15.05.32-.04.45-.12.18-.39.19-.49.19-1.14.05-4.11-1.29-4.11-1.29-.97-.44-1.71-.73-2.41-.97-1.19-.41-1.79-.61-2.35-.56-1.29.11-2.06,1.2-2.86,2.07-.99,1.07-2.59,2.41-5.22,3.47.11-1.71.17-3.57.13-5.55-.03-1.75-.13-3.4-.28-4.93-1.11-.66-2.24-1.37-3.4-2.13-1.29-.85-2.51-1.7-3.66-2.53,3.07-1.4,6.15-2.79,9.22-4.19Z"/>
  <path class="cls-4" d="m39.78,31.04c1.44-1.19,2.89-2.39,4.33-3.58.12-.1.29-.21.43-.13.11.06.13.2.15.32.2,1.47.39,2.94.59,4.42.04.28.08.58.23.82.16.24.41.4.66.55.78.45,1.61.84,2.46,1.14.84.3,1.77.56,2.34,1.25.04.05.08.1.07.16-.01.06-.06.1-.11.13-1.4.9-2.9,1.66-4.46,2.25-.32.12-.68.26-.83.57-.11.23-.08.49-.06.74.18,1.83.04,3.68-.4,5.47-.03.1-.06.21-.15.27-.12.08-.3.01-.36,0-.73-.27-2.22-1.9-2.22-1.9-.49-.53-.88-.91-1.25-1.25-.63-.57-.96-.86-1.32-.98-.83-.28-1.61.2-2.34.53-.91.41-2.26.82-4.19.78.53-1.04,1.06-2.19,1.56-3.44.45-1.1.82-2.16,1.14-3.16-.52-.71-1.04-1.45-1.56-2.24-.58-.87-1.12-1.73-1.62-2.56,2.29-.05,4.59-.11,6.88-.16Z"/>
  <path class="cls-4" d="m116.91,19.45c1.44-1.19,2.89-2.39,4.33-3.58.12-.1.29-.21.43-.13.11.06.13.2.15.32.2,1.47.39,2.94.59,4.42.04.28.08.58.23.82.16.24.41.4.66.55.78.45,1.61.84,2.46,1.14.84.3,1.77.56,2.34,1.25.04.05.08.1.07.16-.01.06-.06.1-.11.13-1.4.9-2.9,1.66-4.46,2.25-.32.12-.68.26-.83.57-.11.23-.08.49-.06.74.18,1.83.04,3.68-.4,5.47-.03.1-.06.21-.15.27-.12.08-.3.01-.36,0-.73-.27-2.22-1.9-2.22-1.9-.49-.53-.88-.91-1.25-1.25-.63-.57-.96-.86-1.32-.98-.83-.28-1.61.2-2.34.53-.91.41-2.26.82-4.19.78.53-1.04,1.06-2.19,1.56-3.44.45-1.1.82-2.16,1.14-3.16-.52-.71-1.04-1.45-1.56-2.24-.58-.87-1.12-1.73-1.62-2.56,2.29-.05,4.59-.11,6.88-.16Z"/>
  <path class="cls-5" d="m77.17,116.99c-.07.19-.13.39-.17.59-.14.66-.17,1.35-.38,1.99,2.17-.04,4.42-.04,6.75.01,2.11.05,4.16.15,6.13.27.05-.93.05-3.04-1.21-3.79-.41-.25-.81-.24-1.18-.27-1.96-.19-3.93-.38-5.91-.39-1.51,0-3.41-.12-4.04,1.59Z"/>
</svg>