<?xml version="1.0" encoding="UTF-8"?>
<svg id="_레이어_2" data-name="레이어 2" xmlns="http://www.w3.org/2000/svg" viewBox="0 0 99.23 18.38">
  <defs>
    <style>
      .cls-1 {
        fill: #ffe1ef;
      }

      .cls-1, .cls-2 {
        stroke-width: 0px;
      }

      .cls-2 {
        fill: #ff97cb;
      }
    </style>
  </defs>
  <path class="cls-1" d="m84.37,13.91c-.08-1.72.04-3.45.35-5.14.02-.1.04-.21.09-.29.06-.11.17-.18.27-.25,1.33-.91,2.8-1.57,4.26-2.23.14-.07.29-.13.45-.13.16,0,.3.07.44.14.8.38,1.59.78,2.29,1.34.4.32.76.68,1.2.94.34.21.72.35.99.65.03.04.07.08.06.14,0,.03-.03.06-.05.09-.14.18-.28.37-.41.55l.24-.52c.1.37.04.62-.01.76-.45,1.16-2.77.62-3.56,1.97-.15.26-.29.66-.72.87-.36.18-.72.11-.82.1-.56-.08-1.69.17-4.16,1.49-.3-.15-.61-.3-.91-.45Z"/>
  <g>
    <path class="cls-1" d="m80.62,12.48c-.71-.02-1.35-.55-1.58-1.22s-.1-1.43.27-2.04c.94-1.55,3.34-1.86,4.76-.74,1.88,1.49.97,4.58.86,4.94-.12.36-.95,2.79-3.34,3.46-1.81.51-3.36-.33-3.67-.5-.33-.18-1.04-.61-1.64-1.39-1.58-2.07-.94-4.84-.82-5.32.88-3.52,4.4-5.36,6.74-6.32,2.69-1.1,5.59-1.66,8.5-1.65,1.36,0,2.74.13,4.01.64,1.26.5,2.4,1.42,2.96,2.66.26.59.39,1.26.22,1.88-.18.67-.69,1.21-1.27,1.6-1.45.99-4.25.35-7.04-1.54"/>
    <path class="cls-2" d="m80.62,11.36c-1.28-.16-.23-1.93.42-2.22.69-.32,1.6-.27,2.23.16,1.11.77.94,2.5.62,3.64-.77,2.69-3.74,3.86-6.02,2.09-2.99-2.33-1.24-6.77,1.2-8.67,3.29-2.56,7.94-3.62,12.03-3.52,1.35.03,2.77.22,3.95.94.97.59,2.28,1.95,1.57,3.18-1.3,2.24-5.11-.06-6.49-.96-1.21-.8-2.34,1.15-1.14,1.94,2.28,1.49,5.92,3.25,8.46,1.33,2.99-2.26,1.23-6.11-1.57-7.59-3.14-1.66-7.3-1.23-10.63-.45-2.8.65-5.65,1.8-7.88,3.64-1.91,1.58-3.1,3.75-3.25,6.23-.16,2.65,1.06,5.23,3.51,6.41,4.53,2.18,8.81-1.65,8.74-6.24-.05-3.08-2.76-5.36-5.82-4.33-1.45.48-2.59,1.74-2.73,3.29-.16,1.81,1.05,3.17,2.8,3.39,1.43.18,1.42-2.07,0-2.25h0Z"/>
  </g>
  <g>
    <path class="cls-1" d="m94.77,9.77c-.07.67-.53,1.48-1.15,1.78-.78.38-1.81.41-2.65.27-.68-.11-1.35-.39-1.9-.81-.6-.46-.98-1.11-1.38-1.73"/>
    <path class="cls-2" d="m93.64,9.77c.02-.16,0-.08-.02.03-.02.06-.04.13-.06.19-.06.16.12-.21-.03.06-.03.06-.07.12-.1.18s-.07.12-.12.17c.12-.16-.03.01-.06.04-.02.02-.17.14-.07.07.12-.08-.11.05-.13.06.1-.06.04-.01-.03.01-.09.03-.18.06-.27.08-.07.02-.15.04-.22.05-.06.01-.26.04-.1.02-.34.04-.68.03-1.03,0-.08,0-.15-.02-.03,0-.08-.01-.15-.02-.23-.04-.18-.04-.36-.08-.53-.14-.3-.1-.51-.2-.83-.43-.06-.04-.07-.05-.01,0l-.09-.08c-.06-.05-.11-.11-.17-.16-.07-.07-.13-.14-.2-.22-.13-.14.07.11-.04-.05-.23-.3-.42-.62-.62-.93-.32-.5-1.02-.74-1.54-.4-.5.32-.74,1.01-.4,1.54.55.87,1.11,1.7,1.98,2.28s1.9.84,2.92.89c.92.04,2.04-.09,2.8-.65.87-.63,1.32-1.56,1.46-2.6.08-.59-.57-1.15-1.12-1.12-.68.03-1.04.5-1.12,1.12h0Z"/>
  </g>
  <g>
    <path class="cls-1" d="m90.87,12.62c-.29.68-.93,1.16-1.62,1.41s-1.44.3-2.18.3c-.8,0-1.76-.12-2.11-.85"/>
    <path class="cls-2" d="m89.9,12.05c-.05.12-.13.23-.19.35-.07.13.12-.12.02-.02-.04.04-.08.09-.12.13-.05.05-.11.1-.16.15-.09.08-.06.04.02-.01-.1.06-.2.13-.3.19-.06.04-.13.07-.2.1-.14.08.17-.05.02,0-.13.04-.26.09-.39.12-.15.04-.31.07-.46.1-.1.02-.13.01-.01,0-.09,0-.17.02-.26.02-.29.02-.58.03-.87.03-.11,0-.21,0-.32,0-.05,0-.11,0-.16-.01-.26-.02.17.04.02,0-.1-.02-.21-.04-.31-.07-.03,0-.17-.03-.18-.06,0,.01.21.11.06.02-.01,0-.13-.07-.13-.08,0-.01.18.18.05.04-.03-.02-.05-.05-.08-.08-.04-.04-.03-.04.02.03.05.07.06.07.02.02-.02-.03-.04-.07-.05-.1-.27-.52-1.05-.72-1.54-.4-.53.34-.69.98-.4,1.54.72,1.39,2.5,1.48,3.87,1.38,1.56-.12,3.29-.71,3.98-2.25.24-.54.17-1.23-.4-1.54-.49-.26-1.28-.17-1.54.4h0Z"/>
  </g>
  <path class="cls-1" d="m14.9,13.91c.08-1.72-.04-3.45-.35-5.14-.02-.1-.04-.21-.09-.29-.06-.11-.17-.18-.27-.25-1.33-.91-2.8-1.57-4.26-2.23-.14-.07-.29-.13-.45-.13-.16,0-.3.07-.44.14-.8.38-1.59.78-2.29,1.34-.4.32-.76.68-1.2.94-.34.21-.72.35-.99.65-.03.04-.07.08-.06.14,0,.03.03.06.05.09.14.18.28.37.41.55l-.24-.52c-.1.37-.04.62.01.76.45,1.16,2.77.62,3.56,1.97.15.26.29.66.72.87.36.18.72.11.82.1.56-.08,1.69.17,4.16,1.49.3-.15.61-.3.91-.45Z"/>
  <g>
    <path class="cls-1" d="m18.65,12.48c.71-.02,1.35-.55,1.58-1.22s.1-1.43-.27-2.04c-.94-1.55-3.34-1.86-4.76-.74-1.88,1.49-.97,4.58-.86,4.94.12.36.95,2.79,3.34,3.46,1.81.51,3.36-.33,3.67-.5.33-.18,1.04-.61,1.64-1.39,1.58-2.07.94-4.84.82-5.32-.88-3.52-4.4-5.36-6.74-6.32-2.69-1.1-5.59-1.66-8.5-1.65-1.36,0-2.74.13-4.01.64-1.26.5-2.4,1.42-2.96,2.66-.26.59-.39,1.26-.22,1.88.18.67.69,1.21,1.27,1.6,1.45.99,4.25.35,7.04-1.54"/>
    <path class="cls-2" d="m18.65,13.61c3.35-.43,3.63-4.67.95-6.29-2.3-1.38-5.49-.41-6.4,2.16-1.5,4.25,2.13,9.38,6.74,8.58,5.56-.97,6.52-7.84,3.4-11.75-1.61-2.02-3.97-3.27-6.35-4.19C13.55.8,9.49.14,5.84.82,2.69,1.41-1.77,5.04,1,8.48c2.41,2.99,6.67,1.15,9.27-.55,1.21-.79.08-2.74-1.14-1.94-1.41.92-3.95,2.51-5.71,1.66-1.3-.63-1.08-2.02-.28-2.97s1.94-1.41,3.09-1.64c4.21-.86,9.27.4,12.9,2.61,2.67,1.63,4.97,5.06,3.26,8.21-.75,1.38-2.46,2.27-4.03,2.04-1.39-.21-2.42-1.36-2.89-2.63-.37-1.01-.56-2.42,0-3.39.47-.82,1.51-1.1,2.39-.86.42.11.8.32,1.06.67.32.44.54,1.56-.27,1.67-1.42.18-1.43,2.43,0,2.25h0Z"/>
  </g>
  <g>
    <path class="cls-1" d="m4.5,9.77c.07.67.53,1.48,1.15,1.78.78.38,1.81.41,2.65.27.68-.11,1.35-.39,1.9-.81.6-.46.98-1.11,1.38-1.73"/>
    <path class="cls-2" d="m3.38,9.77c.14,1.04.59,1.99,1.46,2.6.78.55,1.88.69,2.8.65,1.02-.05,2.06-.31,2.92-.89s1.43-1.41,1.98-2.28c.32-.5.12-1.26-.4-1.54-.56-.29-1.2-.13-1.54.4-.19.3-.37.6-.58.88-.02.03-.11.14-.04.05-.06.07-.13.15-.19.22-.05.06-.11.11-.17.16-.03.03-.2.17-.1.09-.15.11-.31.2-.47.29-.02.01-.19.1-.14.07.06-.03-.18.07-.21.08-.17.06-.35.11-.53.15-.08.02-.15.03-.23.04-.19.03.27-.02-.08,0-.32.02-.65.03-.97,0-.12-.01.1.03-.1-.02-.07-.02-.15-.03-.22-.05-.09-.02-.18-.05-.27-.08-.02,0-.21-.09-.12-.04.11.05-.11-.07-.13-.08.09.05.08.07,0,0-.02-.02-.2-.21-.12-.11.07.08-.05-.07-.06-.09-.05-.07-.09-.15-.13-.22s-.05-.12-.01-.01c-.02-.06-.05-.13-.06-.19-.01-.04-.07-.35-.04-.08-.08-.58-.46-1.15-1.12-1.12-.54.02-1.21.5-1.12,1.12h0Z"/>
  </g>
  <g>
    <path class="cls-1" d="m8.41,12.56c.27.68.9,1.18,1.59,1.45s1.44.33,2.17.35c.8.02,1.77-.09,2.12-.81"/>
    <path class="cls-2" d="m7.44,13.13c.66,1.55,2.4,2.16,3.94,2.31,1.38.13,3.14.07,3.88-1.32.28-.52.15-1.25-.4-1.54s-1.24-.15-1.54.4c0,.01-.07.13-.08.13-.01,0,.21-.17,0-.03-.12.08.19-.1.06-.04-.04.02-.09.05-.13.08-.02.01-.04.02-.07.03-.08.04-.04.02.09-.04,0,.01-.13.04-.15.05-.08.02-.25.02-.31.07.07-.05.22-.02.02,0-.05,0-.11,0-.16.01-.11,0-.21,0-.32,0-.3,0-.61-.02-.91-.05-.02,0-.24-.03-.11-.01s-.09-.02-.11-.02c-.16-.03-.31-.06-.46-.1-.14-.04-.27-.09-.4-.13.09.03.14.07.02,0-.07-.03-.13-.07-.2-.1-.1-.06-.2-.13-.3-.19-.11-.07.13.13-.01-.02-.04-.04-.09-.08-.13-.12s-.08-.09-.12-.13c.06.06.08.13.02.02-.08-.13-.15-.25-.2-.39-.23-.54-1.07-.7-1.54-.4-.57.36-.65.96-.4,1.54h0Z"/>
  </g>
</svg>