<?xml version="1.0" encoding="UTF-8"?>
<svg id="_레이어_2" data-name="레이어 2" xmlns="http://www.w3.org/2000/svg" viewBox="0 0 136.13 113.81">
  <defs>
    <style>
      .cls-1 {
        fill: #fee;
      }

      .cls-1, .cls-2, .cls-3 {
        stroke-width: 0px;
      }

      .cls-2 {
        fill: #98e291;
      }

      .cls-4 {
        fill: #ff4d4d;
        stroke: #ff4d4d;
        stroke-miterlimit: 10;
        stroke-width: 2px;
      }

      .cls-3 {
        fill: #88d880;
      }
    </style>
  </defs>
  <g>
    <path class="cls-4" d="m85.01,18.32h-34.06C23.71,18.32,1.62,39.31,1.62,65.2h0c0,25.9,22.09,46.89,49.33,46.89h34.06c27.25,0,49.33-20.99,49.33-46.89h0c0-25.9-22.09-46.89-49.33-46.89Zm25.25,56.57c0,16.23-13.85,29.39-30.92,29.39h-23c-17.08,0-30.92-13.16-30.92-29.39h0c0-16.23,13.84-29.39,30.92-29.39h23c17.08,0,30.92,13.16,30.92,29.39h0Z"/>
    <path class="cls-2" d="m79.73,6.92c-.65-2.81-3.17-4.89-5.9-5.81s-5.69-.87-8.57-.77c-.64.02-1.37.09-1.76.59-.44.56-.25,1.37-.03,2.05.58,1.82,1.19,3.64,2.18,5.27s2.4,3.06,4.19,3.74c1.44.55,3.02.58,4.57.6,1.34.02,2.71.03,3.97-.41s2.41-1.45,2.65-2.77l-1.29-2.5Z"/>
    <path class="cls-1" d="m95.41,37.92c.26.1.53.2.79.3.06.02.74.31.42.17s.43.2.41.19c.21.1.42.2.64.3.89.43,1.75.89,2.6,1.39s1.67,1.04,2.47,1.61c.19.14.38.28.57.41.43.31-.08-.07.17.13.4.32.8.65,1.19.98,1.45,1.25,2.8,2.63,4.03,4.1.15.18.3.36.44.54.58.71-.33-.46.22.28.28.38.55.76.82,1.14.58.85,1.12,1.73,1.62,2.63.77,1.37,2.76,1.94,4.1,1.08s1.9-2.64,1.08-4.1c-4.4-7.85-11.57-13.81-19.98-16.93-1.47-.55-3.35.61-3.69,2.1-.39,1.7.52,3.1,2.1,3.69h0Z"/>
    <path class="cls-3" d="m69.95,23.78c.09-.33.19-.66.31-.99.08-.22.37-.67,0-.05.07-.11.11-.26.17-.38.31-.66.67-1.29,1.08-1.89.1-.14.2-.29.3-.43.06-.08.45-.54.14-.2s.1-.11.16-.18c.11-.13.23-.26.34-.39.49-.55,1.01-1.06,1.55-1.55.28-.25.57-.48.85-.72.44-.36-.26.18.04-.03.16-.11.31-.23.47-.35.63-.46,1.28-.89,1.94-1.3,1.39-.86,2.84-1.64,4.29-2.41s1.93-2.78,1.08-4.1c-.91-1.41-2.62-1.86-4.1-1.08-6.11,3.23-12.47,7.36-14.39,14.45-.41,1.51.51,3.33,2.1,3.69s3.25-.47,3.69-2.1h0Z"/>
  </g>
  <path class="cls-1" d="m118.97,62.44c3.86,0,3.87-6,0-6s-3.87,6,0,6h0Z"/>
</svg>