<?xml version="1.0" encoding="UTF-8"?>
<svg id="_레이어_2" data-name="레이어 2" xmlns="http://www.w3.org/2000/svg" viewBox="0 0 39.32 21.38">
  <defs>
    <style>
      .cls-1 {
        fill: none;
        stroke: #d29aef;
        stroke-linecap: round;
        stroke-miterlimit: 10;
        stroke-width: 2px;
      }

      .cls-2 {
        fill: #e6b0ff;
        stroke-width: 0px;
      }
    </style>
  </defs>
  <path class="cls-2" d="m23.25,14.82l8.24,4.98c3,1.81,6.83-.3,6.9-3.8l.19-9.63c.07-3.5-3.68-5.77-6.74-4.08l-8.44,4.65c-3.07,1.69-3.16,6.07-.16,7.88Z"/>
  <g>
    <line class="cls-1" x1="25.3" y1="9.68" x2="29.89" y2="7.86"/>
    <line class="cls-1" x1="29.76" y1="14.17" x2="25.24" y2="12.16"/>
  </g>
  <path class="cls-2" d="m16.67,14.69l-8.44,4.65c-3.07,1.69-6.82-.58-6.74-4.08l.19-9.63C1.75,2.12,5.58.01,8.58,1.82l8.24,4.98c3,1.81,2.91,6.19-.16,7.88Z"/>
  <g>
    <line class="cls-1" x1="14.83" y1="9.47" x2="10.31" y2="7.46"/>
    <line class="cls-1" x1="10.18" y1="13.77" x2="14.78" y2="11.95"/>
  </g>
  <rect class="cls-2" x="15.07" y="5.61" width="10.43" height="10.43" rx="2.17" ry="2.17" transform="translate(.22 -.41) rotate(1.16)"/>
</svg>