<?xml version="1.0" encoding="UTF-8"?>
<svg id="_레이어_2" data-name="레이어 2" xmlns="http://www.w3.org/2000/svg" viewBox="0 0 132.72 120.11">
  <defs>
    <style>
      .cls-1 {
        fill: #bfd8d3;
      }

      .cls-1, .cls-2, .cls-3 {
        stroke-width: 0px;
      }

      .cls-2 {
        fill: #e9fffb;
      }

      .cls-3 {
        fill: #fff097;
      }
    </style>
  </defs>
  <g>
    <path class="cls-2" d="m128.42,40.13c1.06-11.06.19-22.54-4.18-32.68-.63-1.47-1.54-3.07-3.07-3.34-1.03-.19-1.93.18-2.34.37-5.24,2.48-15.91,10.67-24.86,14.41-.88.37-2.39.96-4.34,1.53-7.82-1.35-14.21-1.72-18.6-1.8-7.43-.15-17.46.3-18.13.38-5.37.59-10.97,1.44-16.06-.45-3.64-1.35-6.68-3.98-9.98-6.08-5.05-3.22-10.72-5.19-16.34-7.14-.96-.33-2.04-.66-2.95-.21-.94.46-1.37,1.56-1.71,2.58-7,20.9,4.83,66.36,4.83,66.36,21.68-15.27,49.79-17.89,75.59-13.21,12.83,2.33,25.81,6.58,35.54,15.58,0,0,5.56-25.21,6.61-36.28Z"/>
    <path class="cls-1" d="m129.92,40.13c.97-10.39.33-21.17-3.4-31.01-.73-1.93-1.47-4.2-3.13-5.55s-3.77-1.15-5.62-.25c-3.24,1.59-6.25,3.71-9.28,5.66-3.88,2.49-7.79,4.96-11.91,7.04-1.79.9-3.61,1.71-5.51,2.36-.46.16-1.07.45-1.55.51-.56.06-1.34-.22-1.91-.31-1.34-.21-2.68-.39-4.03-.56-8.48-1.05-16.98-1.05-25.51-.76-2.97.1-5.85.33-8.8.63-5.34.55-10.44.48-15.17-2.36-2.18-1.31-4.19-2.88-6.32-4.26s-4.52-2.6-6.91-3.64-4.66-1.9-7.03-2.74c-2.14-.76-5-2.31-7.21-1.01-1.64.97-2.19,3.03-2.68,4.75-.39,1.38-.69,2.79-.93,4.2-.56,3.28-.81,6.61-.89,9.94-.17,7.24.46,14.5,1.39,21.68,1.28,9.87,2.95,19.87,5.56,29.49.04.16.08.32.12.48.23.88,1.41,1.45,2.2.9,12.37-8.66,27.04-13.34,42.01-14.67s30.56.17,44.91,4.61c8.19,2.53,16.03,6.37,22.39,12.2.79.72,2.25.49,2.51-.66,2.01-9.12,3.88-18.3,5.4-27.52.5-3.04.97-6.09,1.27-9.16.19-1.92-2.81-1.91-3,0-.55,5.65-1.62,11.26-2.67,16.84-1,5.28-2.07,10.56-3.19,15.82-.23,1.08-.46,2.15-.7,3.22l2.51-.66c-11.72-10.74-27.69-15.01-43.09-17.03-15.43-2.02-31.43-1.38-46.39,3.14-8.35,2.52-16.32,6.28-23.47,11.29l2.2.9c-1.99-7.66-3.49-15.47-4.72-23.28-1.07-6.81-1.88-13.67-2.16-20.56-.26-6.29-.21-12.77,1.26-18.92.28-1.19.56-3.33,1.47-4.2.76-.73,2.36.16,3.2.46,1.27.44,2.53.89,3.79,1.35,4.72,1.74,9.17,3.86,13.31,6.74s7.9,5.28,12.91,5.84c4.19.47,8.27-.37,12.44-.6,7.17-.39,14.41-.57,21.57-.17,2.16.12,4.32.3,6.48.53,2.53.27,5.04.82,7.56,1.06,1.08.1,2.19-.42,3.2-.78.89-.32,1.76-.67,2.63-1.04,1.93-.83,3.8-1.79,5.64-2.81,3.83-2.12,7.51-4.51,11.2-6.88,1.58-1.02,3.16-2.03,4.78-3,1.08-.64,2.55-1.79,3.86-1.81,1.9-.02,2.75,3.42,3.26,4.78.88,2.38,1.58,4.82,2.11,7.3,1.07,4.94,1.48,10,1.42,15.05-.03,2.49-.17,4.97-.4,7.44-.18,1.92,2.82,1.91,3,0Z"/>
  </g>
  <path class="cls-1" d="m10.44,73.04c.62,10.81,1.23,21.62,1.85,32.44.11,1.92,3.11,1.93,3,0-.62-10.81-1.23-21.62-1.85-32.44-.11-1.92-3.11-1.93-3,0h0Z"/>
  <path class="cls-1" d="m9.01,105.51c-.82.08-1.66.17-2.37.57s-1.27,1.21-1.12,2.01c.2,1.08,1.46,1.57,2.55,1.75-.3-.25-.76.03-1,.34-.7.89-.95,2.13-.57,3.19s1.45,1.87,2.58,1.85,2.21-.93,2.31-2.05c-.24,1.21-.45,2.58.28,3.58.7.97,2.1,1.23,3.23.85s2.03-1.25,2.74-2.21c.66-.89,1.21-1.92,1.21-3.03,1.11.06,2.11-.75,2.67-1.7.52-.87.77-1.97.36-2.89s-1.63-1.5-2.49-.98c1.05-.23,1.29-1.78.64-2.63s-1.8-1.14-2.86-1.31c-1.45-.23-3.3-.11-3.92,1.22-.3-.64-.71-1.22-1.2-1.73-.57-.59-1.29-1.09-2.11-1.16-.89-.07-1.79.42-2.21,1.21s-.32,1.82.24,2.51"/>
  <path class="cls-1" d="m118.42,73.04c-.62,10.81-1.23,21.62-1.85,32.44-.11,1.93,2.89,1.92,3,0,.62-10.81,1.23-21.62,1.85-32.44.11-1.93-2.89-1.92-3,0h0Z"/>
  <path class="cls-1" d="m122.85,105.51c.82.08,1.66.17,2.37.57s1.27,1.21,1.12,2.01c-.2,1.08-1.46,1.57-2.55,1.75.3-.25.76.03,1,.34.7.89.95,2.13.57,3.19s-1.45,1.87-2.58,1.85-2.21-.93-2.31-2.05c.24,1.21.45,2.58-.28,3.58-.7.97-2.1,1.23-3.23.85s-2.03-1.25-2.74-2.21c-.66-.89-1.21-1.92-1.21-3.03-1.11.06-2.11-.75-2.67-1.7-.52-.87-.77-1.97-.36-2.89s1.63-1.5,2.49-.98c-1.05-.23-1.29-1.78-.64-2.63s1.8-1.14,2.86-1.31c1.45-.23,3.3-.11,3.92,1.22.3-.64.71-1.22,1.2-1.73.57-.59,1.29-1.09,2.11-1.16.89-.07,1.79.42,2.21,1.21s.32,1.82-.24,2.51"/>
  <path class="cls-1" d="m11.31,59.46c14.32-6.57,29.84-10.54,45.57-11.54,16.2-1.02,32.49,1.1,47.94,6.05,5.67,1.82,11.21,4.01,16.59,6.57,1.73.83,3.26-1.76,1.51-2.59-11.48-5.46-23.69-9.38-36.24-11.47-17.96-2.99-36.45-2.25-54.1,2.27-7.83,2-15.45,4.75-22.79,8.11-1.75.8-.23,3.39,1.51,2.59h0Z"/>
  <path class="cls-3" d="m93.78,42.19c2.39-3.22,4.79-6.43,7.18-9.65.21-.28.5-.59.83-.49.25.07.38.35.48.59,1.15,2.96,2.31,5.92,3.46,8.88.22.57.46,1.16.9,1.58.45.42,1.06.63,1.65.8,1.86.54,3.77.92,5.7,1.12,1.91.2,3.96.27,5.5,1.41.1.08.21.17.22.3,0,.12-.08.23-.17.32-2.45,2.59-5.18,4.92-8.12,6.94-.6.42-1.27.89-1.42,1.61-.11.53.08,1.07.26,1.57,1.29,3.71,1.96,7.63,1.96,11.56,0,.23-.01.47-.17.64-.22.23-.61.18-.75.16-1.65-.2-5.59-2.82-5.59-2.82-1.29-.86-2.28-1.45-3.23-1.96-1.61-.86-2.43-1.3-3.23-1.36-1.87-.15-3.24,1.24-4.6,2.3-1.67,1.31-4.28,2.85-8.3,3.75.57-2.43,1.09-5.08,1.5-7.93.37-2.52.61-4.91.76-7.14-1.43-1.2-2.89-2.49-4.38-3.85-1.65-1.52-3.21-3.02-4.66-4.5,4.74-1.28,9.48-2.56,14.22-3.84Z"/>
</svg>